<?xml version="1.0" encoding="utf-8"?>
<!-- Generator: Adobe Illustrator 24.2.1, SVG Export Plug-In . SVG Version: 6.00 Build 0)  -->
<svg version="1.1" id="Layer_1" xmlns="http://www.w3.org/2000/svg" xmlns:xlink="http://www.w3.org/1999/xlink" x="0px" y="0px"
	 viewBox="0 0 100 100" style="enable-background:new 0 0 100 100;" xml:space="preserve">
<style type="text/css">
	.st0{fill:none;stroke:#2DA0F8;stroke-width:5;stroke-linecap:round;stroke-linejoin:round;stroke-miterlimit:10;}
	.st1{fill:none;stroke:#2DA0F8;stroke-width:5;stroke-miterlimit:10;}
	.st2{fill:none;stroke:#2DA0F8;stroke-width:5;stroke-linecap:round;stroke-miterlimit:10;}
</style>
<path class="st0" d="M88.5,69.9l-2-0.4c-2.9-0.6-4.3-4-2.5-6.4l1.2-1.7l-2.7-2.7l-1.7,1.1c-2.5,1.7-5.9,0.2-6.3-2.8l-0.3-2h-3.8
	l-0.5,2.6c-0.6,2.9-3.9,4.3-6.3,2.6l-2.2-1.5l-2.7,2.7l1.2,1.7c1.8,2.4,0.4,5.9-2.5,6.4l-2,0.4v3.8l2.1,0.3c3,0.5,4.4,3.8,2.8,6.3
	L59.2,82l2.7,2.7l1.7-1.2c2.4-1.8,5.9-0.4,6.4,2.5l0.4,2h3.8l0.2-1.5c0.5-3,4-4.5,6.5-2.7l1.2,0.9l2.7-2.7l-1.1-1.7
	c-1.7-2.5-0.2-5.9,2.8-6.3l2.1-0.3L88.5,69.9L88.5,69.9z"/>
<circle class="st1" cx="72" cy="71.5" r="5.5"/>
<path class="st2" d="M85.8,47.4C85.8,27.3,69.5,11,49.3,11S12.9,27.3,12.9,47.4s16.3,36.4,36.4,36.4"/>
<path class="st2" d="M61.4,51.1c1.5-0.5,2.6-1.8,2.6-3.5v-4.9c0-1.1-0.5-2-1.2-2.7v-7c0,0,1.4-11-13.4-11S35.9,33,35.9,33v7
	c-0.7,0.7-1.2,1.6-1.2,2.7v4.9c0,1.3,0.7,2.4,1.7,3.1c1.2,5.3,4.4,9.1,4.4,9.1v4.5c0,1.6-0.9,3.1-2.3,3.9l-10.9,5.9
	c-0.6,0.3-1.2,0.8-1.7,1.2c6.3,5.3,14.5,8.6,23.5,8.6"/>
</svg>
