<svg width="60" height="60" xmlns="http://www.w3.org/2000/svg">
 <path fill="#eeea9b" id="path3010" d="m31.92465,24.08999l-2.46233,-3.22827c-4.80118,-6.29469 -2.47174,-8.02813 5.47005,-4.0705c3.39158,1.69012 5.32986,3.70169 8.25448,8.56656c2.10216,3.49677 5.83911,8.89677 8.30434,12l4.48222,5.64222c-12.51692,-2.38524 -11.28448,-5.34694 -24.04876,-18.91001z"/>
 <path fill="#f2e35c" id="path3008" d="m39.87679,29.7318c-6.80664,-8.17335 -13.0625,-13.98601 -8.12679,-12.77249c4.18109,1.02799 7.03618,3.22058 8.85478,6.80011c0.90552,1.78232 3.69936,6.17603 6.24685,9.73654c3.77013,5.26934 3.86258,5.98249 4.81722,8.05624c-4.74618,-5.16701 -6.76036,-6.66949 -11.79206,-11.8204z"/>
 <path fill="#5eaed1" id="path3006" d="m11.02599,42.35908c-7.40388,-1.22691 -8.06139,-2.31809 -2.33071,-3.86797c6.63796,-1.79525 6.95808,-2.09289 3.94749,-3.6703c-4.44641,-2.32971 -3.26969,-3.99155 3.35723,-4.7413c6.1788,-0.69905 7.09377,-1.42687 4.5,-3.57951c-2.66118,-2.20858 -1.61718,-3 3.95744,-3c5.39624,0 5.55893,0.0894 14.50664,7.96837c4.97706,4.3826 9.94621,8.44843 11.04256,9.03518c1.09635,0.58675 1.99336,1.50098 1.99336,2.03163c0,1.22145 -33.40684,1.07788 -40.97401,-0.1761z"/>
 <path fill="#259cd0" id="path3004" d="m16.14061,42.33752c-4.59767,-0.39763 -8.58023,-0.94381 -8.85014,-1.21371c-1.1037,-1.10371 0.89746,-2.39824 4.62998,-2.9951c5.02852,-0.80409 5.87209,-2.14958 2.46645,-3.93398c-3.33733,-1.7486 -2.0569,-2.6007 4.23028,-2.81512c4.02487,-0.13727 6.54125,0.66776 14.32137,4.58166c6.56042,3.30031 8.99989,4.98377 8,5.52075c-2.22926,1.19721 -15.53812,1.65635 -24.79794,0.8555zm16.35939,-9.85271c-10.8965,-5.38302 -13.64959,-8.8539 -5.86441,-7.3934c2.64798,0.49677 5.39582,2.21737 8.85218,5.54292c2.75673,2.65239 4.56223,4.82074 4.01223,4.81855c-0.55,-0.002 -3.7,-1.33782 -7,-2.96807z"/>
 <path fill="#558872" id="path3002" d="m16.14061,42.33752c-4.59767,-0.39763 -8.58023,-0.94381 -8.85014,-1.21371c-1.1037,-1.10371 0.89746,-2.39824 4.62998,-2.9951c5.02852,-0.80409 5.87209,-2.14958 2.46645,-3.93398c-3.33672,-1.74828 -2.05778,-2.60004 4.23028,-2.81729c4.10732,-0.14191 6.28378,0.58963 13.70374,4.60601c4.85151,2.62609 8.45151,5.11489 8,5.53068c-1.26502,1.16494 -14.87316,1.62833 -24.18031,0.82339z"/>
 <path fill="#19658e" id="path3000" d="m11.11686,40.61039c-2.1867,-1.4118 4.18802,-2.41489 10.73694,-1.68951l5.6462,0.62539l-7.24965,-3.11919c-3.98731,-1.71555 -6.99825,-3.52596 -6.69099,-4.02313c0.30727,-0.49717 2.78639,-0.90395 5.50916,-0.90395c3.98207,0 6.61138,0.89803 13.44098,4.59073c4.66977,2.5249 8.4905,4.70689 8.4905,4.84885c0,0.74434 -28.71024,0.42807 -29.88314,-0.32919z"/>
 <path fill="#2b6b5a" id="path2998" d="m11.15498,40.61694c-2.36425,-1.49838 3.68171,-2.30129 11.78727,-1.56536c11.85234,1.07612 11.88382,2.3857 0.0578,2.4027c-5.775,0.008 -11.10526,-0.3685 -11.84502,-0.83734l-0.00005,0z"/>
</svg>
