<svg xmlns="http://www.w3.org/2000/svg">
 <symbol id="anchor" viewBox="0 0 160 160"><path d="m 137.5,75.5 c 0,-6.36 -2.54,-12.47 -7.03,-16.97 -4.5,-4.5 -10.61,-7.03 -16.97,-7.03 l -27,0 c -6.36,0 -12.47,2.53 -16.97,7.03 -4.5,4.5 -7.03,10.61 -7.03,16.97 a 6.5,6.5 0 0 0 13,0 c -1,-3.07 0.33,-6.33 2.5,-8.5 2.17,-2.17 5.43,-3.5 8.5,-3.5 l 27,0 c 3.07,0 6.33,1.33 8.5,3.5 2.17,2.17 3.5,5.43 3.5,8.5 0,3.07 -1.33,6.33 -3.5,8.5 -2.17,2.17 -5.43,3.5 -8.5,3.5 a 6,6 0 1 0 0,12 c 6.36,0 12.47,-2.53 16.97,-7.03 4.5,-4.5 7.03,-10.61 7.03,-16.97 z m -115,0 c 0,6.36 2.54,12.47 7.03,16.97 4.5,4.5 10.61,7.03 16.97,7.03 l 27,0 c 6.36,0 12.47,-2.53 16.97,-7.03 4.5,-4.5 7.03,-10.61 7.03,-16.97 a 6.5,6.5 0 1 0 -13,0 c 1,3.07 -0.33,6.33 -2.5,8.5 -2.17,2.17 -5.43,3.5 -8.5,3.5 l -27,0 c -3.07,0 -6.33,-1.33 -8.5,-3.5 -2.17,-2.17 -3.5,-5.43 -3.5,-8.5 0,-3.07 1.33,-6.33 3.5,-8.5 2.17,-2.17 5.43,-3.5 8.5,-3.5 a 6,6 0 0 0 0,-12 c -6.36,0 -12.47,2.53 -16.97,7.03 -4.5,4.5 -7.03,10.61 -7.03,16.97 z" /></symbol>
 <symbol id="home" viewBox="0 0 160 160"><path d="m 121.067,54.1475 v -28.431 h -14.769 v 15.903 L 80.027,19.3445 v -0.027 l -0.027,0.027 -0.027,-0.027 0,0.027 -63.045,53.46 v 7.992 l 7.776,0.027 55.296,-48.033 55.296,48.033 7.776,-0.027 v -7.992 l -22.005,-18.657 z m -93.231,30.456 -0.189,56.079 38.421,-0.135 v -44.901 h 27.243 v 44.82 l 38.178,-0.135 v -56.43 l -51.84,-44.712 -51.813,45.414 z m 65.448,4.86 H 66.041 v -15.039 h 27.243 v 15.039 z" /></symbol>
 <symbol id="add" viewBox="0 0 128 128"><path d="m96.50,57.74l-26.24,0l0,-26.24c0,-3.46 -2.79,-3.74 -6.25,-3.74c-3.44,0 -6.24,0.28 -6.24,3.74l0,26.24l-26.24,0c-3.45,0 -3.74,2.78 -3.74,6.24c0,3.45 0.29,6.25 3.74,6.25l26.24,0l0,26.24c0,3.44 2.80,3.74 6.24,3.74c3.45,0 6.25,-0.30 6.25,-3.74l0,-26.24l26.24,0c3.45,0 3.74,-2.80 3.74,-6.25c0,-3.45 -0.29,-6.24 -3.74,-6.24"/></symbol>
 <symbol id="view" viewBox="0 0 160 160"><path d="m 140.22,126.37 -29.21,-27.08 c -2.43,-2.26 -5.91,-2.72 -8.74,-1.45 l -4.80,-4.45 c 6.37,-7.80 10.17,-17.73 10.17,-28.56 0,-24.97 -20.25,-45.22 -45.22,-45.22 -24.97,0 -45.22,20.25 -45.22,45.22 0,24.97 20.25,45.22 45.22,45.22 11.69,0 22.35,-4.45 30.37,-11.71 l 5.02,4.67 c -0.83,2.83 -0.08,6.04 2.24,8.18 l 29.21,27.08 c 3.26,3.02 8.37,2.83 11.42,-0.43 2.99,-3.29 2.80,-8.39 -0.45,-11.44 z M 62.38,96.73 c -17.63,0 -31.94,-14.31 -31.94,-31.94 0,-17.63 14.31,-31.94 31.94,-31.94 17.63,0 31.94,14.31 31.94,31.94 0,17.63 -14.31,31.94 -31.94,31.94 z" /></symbol>
 <symbol id="edit" viewBox="0 0 16 16"><path fill-rule="evenodd" d="m 1.283,13.389 c 0.5,0.2 1.1,0.8 1.3,1.3 -0.2,0.1 -0.5,0.2 -0.7,0.2 -1.1,0.2 -0.8,-1 -0.6,-1.5 z m 2.6,-3.2 c 0.1,0.5 0.2,1 0.3,1.5 0.5,0.1 1.1,0.2 1.6,0.3 0,0.5 0,1 0.1,1.5 -0.8,0.3 -1.6,0.5 -2.5,0.8 -0.4,-0.7 -1.1,-1.6 -1.9,-1.8 0.3,-0.8 0.5,-1.5 0.8,-2.3 0.5876,0.0825 1.0980434,0.04676 1.6,0 z M 14.683,3.789 c 0.1,0.2 0.3,0.7 0.2,0.9 -2.7,2.8 -5.5,5.5 -8.2,8.3 l 0,0 c 0,-0.3 0,-0.7 -0.1,-1 2.7,-2.8 5.4,-5.5 8.1,-8.2 z m -1.9,-2.1 c 0.5,0.4 1,0.9 1.5,1.3 -2.791,2.791 -5.721,5.721 -8.3,8.3 -0.3,0 -1,-0.1 -1.2,-0.3 0,-0.3 -0.1,-0.7 -0.2,-1.1 2.8,-2.7 5.5,-5.4 8.2,-8.2 z m -1.6,-0.6 c 0.3,0 0.7,0.1 0.9,0.2 -2.7,2.7 -5.4,5.4 -8.1,8.1 l 0,0 c -0.4,0 -0.8,0 -1.1,0.1 2.7,-2.8 5.5,-5.6 8.3,-8.4 z "/></symbol>
 <symbol id="delete" viewBox="0 0 16 16"><path d="m 13.8,2.25 H 10 V 1.95 C 10,1.65 9.8,1.45 9.5,1.45 h -3 C 6.2,1.45 6,1.65 6,1.95 v 0.3 H 2.2 c -0.2,0 -0.4,0.3 -0.4,0.5 v 0.3 c 0,0.3 0.2,0.5 0.5,0.5 h 0.9 v 10.1 c 0,0.5 0.4,0.9 0.9,0.9 h 7.8 c 0.5,0 0.9,-0.4 0.9,-0.9 V 3.55 h 0.9 c 0.3,0 0.5,-0.2 0.5,-0.5 v -0.3 c 0,-0.2 -0.2,-0.5 -0.4,-0.5 z m -1.9,11.4 H 4.1 v -10 h 7.7 v 10 z m -4,-0.5 H 8 c 0.3,0 0.5,-0.2 0.5,-0.5 V 4.55 C 8.5,4.25 8.3,4.05 8,4.05 H 7.9 c -0.3,0 -0.5,0.2 -0.5,0.5 v 8.1 c 0,0.3 0.3,0.5 0.5,0.5 z m 2.2,0 h 0.1 c 0.3,0 0.5,-0.2 0.5,-0.5 v -8.1 c 0,-0.3 -0.2,-0.5 -0.5,-0.5 h -0.1 c -0.3,0 -0.5,0.2 -0.5,0.5 v 8.1 c 0,0.3 0.2,0.5 0.5,0.5 z m -4.3,0 h 0.1 c 0.3,0 0.5,-0.2 0.5,-0.5 V 4.55 C 6.4,4.25 6.2,4.05 5.9,4.05 H 5.8 c -0.3,0 -0.5,0.2 -0.5,0.5 v 8.1 c 0,0.3 0.2,0.5 0.5,0.5 z"/></symbol>
</svg>
