<?xml version="1.0" encoding="utf-8"?>
<!-- Generator: Adobe Illustrator 24.3.0, SVG Export Plug-In . SVG Version: 6.00 Build 0)  -->
<svg version="1.1" id="Layer_1" xmlns="http://www.w3.org/2000/svg" xmlns:xlink="http://www.w3.org/1999/xlink" x="0px" y="0px"
	 viewBox="0 0 1531 396.7" style="enable-background:new 0 0 1531 396.7;" xml:space="preserve">
<style type="text/css">
	.st0{fill:none;stroke:#808184;stroke-width:3;stroke-linejoin:round;stroke-miterlimit:10;}
	.st1{fill:#808184;stroke:#808184;stroke-width:0.75;stroke-miterlimit:10;}
	.st2{fill:none;stroke:#808184;stroke-width:3;stroke-miterlimit:10;}
	.st3{fill:none;stroke:#808184;stroke-width:3;stroke-linecap:round;stroke-miterlimit:10;}
	.st4{fill:none;stroke:#808184;stroke-width:3;stroke-linecap:square;stroke-linejoin:round;stroke-miterlimit:10;}
	.st5{fill:none;stroke:#F26D26;stroke-width:3;stroke-linecap:round;stroke-linejoin:round;stroke-miterlimit:10;}
	.st6{fill:none;stroke:#F26D26;stroke-width:3;stroke-miterlimit:10;}
	.st7{fill:none;stroke:#F26D26;stroke-width:2.3063;stroke-miterlimit:10;}
	.st8{fill:none;stroke:#F26D26;stroke-width:3;stroke-linecap:round;stroke-miterlimit:10;}
	.st9{fill:#F26D26;}
	.st10{fill:#F26D26;stroke:#F26D26;stroke-width:3;stroke-miterlimit:10;}
	.st11{fill:none;stroke:#00A6CB;stroke-width:3;stroke-miterlimit:10;}
	.st12{clip-path:url(#SVGID_2_);}
	.st13{fill:none;stroke:#E6E7E8;stroke-width:3;stroke-linecap:round;stroke-linejoin:round;stroke-miterlimit:10;}
	.st14{fill:none;stroke:#E6E7E8;stroke-width:3;stroke-miterlimit:10;}
	.st15{fill:none;stroke:#E6E7E8;stroke-width:2.3063;stroke-miterlimit:10;}
	.st16{fill:none;stroke:#E6E7E8;stroke-width:3;stroke-linecap:round;stroke-miterlimit:10;}
	.st17{fill:#E6E7E8;}
	.st18{clip-path:url(#SVGID_4_);}
	.st19{fill:#808184;}
	.st20{fill:#F26D26;stroke:#F26D26;stroke-miterlimit:10;}
	.st21{fill:#5D5E64;}
	.st22{font-family:'Roboto-Regular';}
	.st23{font-size:18px;}
	.st24{fill:#00A6CB;}
	.st25{font-family:'Roboto-Black';}
	.st26{font-size:56px;}
	.st27{fill:#F26C27;}
	.st28{font-size:72px;}
	.st29{font-size:60px;}
	.st30{fill:#00ACA4;}
	.st31{font-size:48px;}
	.st32{fill:#5D5D5D;}
	.st33{fill:none;stroke:#5E5E5E;stroke-linecap:round;stroke-miterlimit:10;stroke-dasharray:4,4,4,4,4,4;}
</style>
<g>
	<rect x="47.2" y="319.1" class="st0" width="10.1" height="10.1"/>
	<rect x="47.2" y="333.6" class="st0" width="10.1" height="9.4"/>
	<rect x="61.6" y="319.1" class="st0" width="10.1" height="10.1"/>
	<rect x="61.6" y="333.6" class="st0" width="10.1" height="9.4"/>
	<path class="st0" d="M168.5,311.4L145.3,270H124v-7.2h9.9c0.2,0,0.5-0.2,0.6-0.5c0.1-0.3,0-0.6-0.2-0.8l-25.4-25.4l-25.4,25.4
		c-0.2,0.2-0.3,0.5-0.2,0.8c0.1,0.3,0.3,0.5,0.6,0.5h9.9v7.2H39.4l-23.1,41.4h17.3v45.6h46.2h58.5h13.1v-45.6H168.5z M118.2,297
		l-9.3-5.4l-9.3,5.4v-34h18.5V297z M39.3,351.1v-39.8h40.4v39.8H39.3z M116.7,351.1v-24h-15.5v24H85.5v-39.1l12.4-7.3H98v-0.1
		l10.9-6.4l23.4,13.8v39.1H116.7z M145.4,351.1h-7.3v-39.8h7.3V351.1z"/>
	<path class="st0" d="M108.9,307.8c-3.6,0-6.5,2.9-6.5,6.5c0,3.6,2.9,6.5,6.5,6.5s6.5-2.9,6.5-6.5
		C115.4,310.7,112.5,307.8,108.9,307.8z"/>
</g>
<g>
	<g>
		<g>
			<path class="st1" d="M1496.9,352.6c-0.6,0-1.1-0.5-1.1-1.1v-72.2h-147.3v72.2c0,0.6-0.5,1.1-1.1,1.1s-1.1-0.5-1.1-1.1v-73.3
				c0-0.6,0.5-1.1,1.1-1.1h149.5c0.6,0,1.1,0.5,1.1,1.1v73.3C1498,352.2,1497.5,352.6,1496.9,352.6z"/>
		</g>
		<g>
			<path class="st1" d="M1508.8,279.4h-6.8c-0.6,0-1.1-0.5-1.1-1.1c0-0.6,0.5-1.1,1.1-1.1h5.7v-4.5l-85.6-36.6l-85.6,36.6v4.5h5.7
				c0.6,0,1.1,0.5,1.1,1.1c0,0.6-0.5,1.1-1.1,1.1h-6.8c-0.6,0-1.1-0.5-1.1-1.1v-6.3c0-0.4,0.3-0.8,0.7-1l86.7-37.1
				c0.3-0.1,0.6-0.1,0.9,0l86.7,37.1c0.4,0.2,0.7,0.6,0.7,1v6.3C1509.9,278.9,1509.4,279.4,1508.8,279.4z"/>
		</g>
		<g>
			<path class="st1" d="M1438.5,363.9h-32.8c-0.6,0-1.1-0.5-1.1-1.1v-41.7c0-0.6,0.5-1.1,1.1-1.1h32.8c0.6,0,1.1,0.5,1.1,1.1v41.7
				C1439.6,363.4,1439.1,363.9,1438.5,363.9z M1406.8,361.7h30.6v-39.5h-30.6V361.7z"/>
		</g>
		<g>
			<g>
				<path class="st1" d="M1405.7,363.9h-70.3c-0.6,0-1.1-0.5-1.1-1.1v-10.4c0-0.6,0.5-1.1,1.1-1.1h70.3c0.6,0,1.1,0.5,1.1,1.1v10.4
					C1406.8,363.4,1406.3,363.9,1405.7,363.9z M1336.5,361.7h68.1v-8.2h-68.1V361.7z"/>
			</g>
			<g>
				<path class="st1" d="M1508.8,363.9h-70.3c-0.6,0-1.1-0.5-1.1-1.1v-10.4c0-0.6,0.5-1.1,1.1-1.1h70.3c0.6,0,1.1,0.5,1.1,1.1v10.4
					C1509.9,363.4,1509.4,363.9,1508.8,363.9z M1439.6,361.7h68.1v-8.2h-68.1V361.7z"/>
			</g>
		</g>
		<g>
			<path class="st1" d="M1417.8,317h-12.1c-0.6,0-1.1-0.5-1.1-1.1v-32.7c0-0.6,0.5-1.1,1.1-1.1h12.1c0.6,0,1.1,0.5,1.1,1.1v32.7
				C1418.9,316.5,1418.4,317,1417.8,317z M1406.8,314.8h9.9v-30.5h-9.9V314.8z"/>
		</g>
		<g>
			<path class="st1" d="M1438.5,317h-12.1c-0.6,0-1.1-0.5-1.1-1.1v-32.7c0-0.6,0.5-1.1,1.1-1.1h12.1c0.6,0,1.1,0.5,1.1,1.1v32.7
				C1439.6,316.5,1439.1,317,1438.5,317z M1427.5,314.8h9.9v-30.5h-9.9V314.8z"/>
		</g>
		<g>
			<g>
				<g>
					<path class="st1" d="M1368.2,310.7h-8.7c-0.6,0-1.1-0.5-1.1-1.1v-17.7c0-0.6,0.5-1.1,1.1-1.1h8.7c0.6,0,1.1,0.5,1.1,1.1v17.7
						C1369.3,310.2,1368.8,310.7,1368.2,310.7z M1360.7,308.5h6.5v-15.5h-6.5V308.5z"/>
				</g>
				<g>
					<path class="st1" d="M1371.1,290.4c-0.2,0-0.4-0.1-0.6-0.2c-4.1-2.5-9.2-2.5-13.3,0l-1.1-1.9c4.8-2.9,10.8-2.9,15.6,0
						c0.5,0.3,0.7,1,0.4,1.5C1371.8,290.2,1371.5,290.4,1371.1,290.4z"/>
				</g>
				<g>
					<path class="st1" d="M1371.1,310.7h-14.4c-0.6,0-1.1-0.5-1.1-1.1c0-0.6,0.5-1.1,1.1-1.1h14.4c0.6,0,1.1,0.5,1.1,1.1
						C1372.2,310.2,1371.7,310.7,1371.1,310.7z"/>
				</g>
			</g>
			<g>
				<g>
					<path class="st1" d="M1393,310.7h-8.7c-0.6,0-1.1-0.5-1.1-1.1v-17.7c0-0.6,0.5-1.1,1.1-1.1h8.7c0.6,0,1.1,0.5,1.1,1.1v17.7
						C1394.1,310.2,1393.6,310.7,1393,310.7z M1385.5,308.5h6.5v-15.5h-6.5V308.5z"/>
				</g>
				<g>
					<path class="st1" d="M1395.9,290.4c-0.2,0-0.4-0.1-0.6-0.2c-4.1-2.5-9.2-2.5-13.3,0c-0.5,0.3-1.2,0.1-1.5-0.4
						c-0.3-0.5-0.1-1.2,0.4-1.5c4.8-2.9,10.8-2.9,15.6,0c0.5,0.3,0.7,1,0.4,1.5C1396.6,290.2,1396.3,290.4,1395.9,290.4z"/>
				</g>
				<g>
					<path class="st1" d="M1395.9,310.7h-14.4c-0.6,0-1.1-0.5-1.1-1.1c0-0.6,0.5-1.1,1.1-1.1h14.4c0.6,0,1.1,0.5,1.1,1.1
						C1397,310.2,1396.5,310.7,1395.9,310.7z"/>
				</g>
			</g>
			<g>
				<g>
					<path class="st1" d="M1368.2,345.3h-8.7c-0.6,0-1.1-0.5-1.1-1.1v-17.7c0-0.6,0.5-1.1,1.1-1.1h8.7c0.6,0,1.1,0.5,1.1,1.1v17.7
						C1369.3,344.8,1368.8,345.3,1368.2,345.3z M1360.7,343.1h6.5v-15.5h-6.5V343.1z"/>
				</g>
				<g>
					<path class="st1" d="M1371.1,325c-0.2,0-0.4-0.1-0.6-0.2c-4.1-2.5-9.2-2.5-13.3,0l-1.1-1.9c4.8-2.9,10.8-2.9,15.6,0
						c0.5,0.3,0.7,1,0.4,1.5C1371.8,324.9,1371.5,325,1371.1,325z"/>
				</g>
				<g>
					<path class="st1" d="M1371.1,345.3h-14.4c-0.6,0-1.1-0.5-1.1-1.1c0-0.6,0.5-1.1,1.1-1.1h14.4c0.6,0,1.1,0.5,1.1,1.1
						C1372.2,344.8,1371.7,345.3,1371.1,345.3z"/>
				</g>
			</g>
			<g>
				<g>
					<path class="st1" d="M1393,345.3h-8.7c-0.6,0-1.1-0.5-1.1-1.1v-17.7c0-0.6,0.5-1.1,1.1-1.1h8.7c0.6,0,1.1,0.5,1.1,1.1v17.7
						C1394.1,344.8,1393.6,345.3,1393,345.3z M1385.5,343.1h6.5v-15.5h-6.5V343.1z"/>
				</g>
				<g>
					<path class="st1" d="M1395.9,325c-0.2,0-0.4-0.1-0.6-0.2c-4.1-2.5-9.2-2.5-13.3,0c-0.5,0.3-1.2,0.1-1.5-0.4
						c-0.3-0.5-0.1-1.2,0.4-1.5c4.8-2.9,10.8-2.9,15.6,0c0.5,0.3,0.7,1,0.4,1.5C1396.6,324.9,1396.3,325,1395.9,325z"/>
				</g>
				<g>
					<path class="st1" d="M1395.9,345.3h-14.4c-0.6,0-1.1-0.5-1.1-1.1c0-0.6,0.5-1.1,1.1-1.1h14.4c0.6,0,1.1,0.5,1.1,1.1
						C1397,344.8,1396.5,345.3,1395.9,345.3z"/>
				</g>
			</g>
			<g>
				<g>
					<path class="st1" d="M1459.9,310.7h-8.7c-0.6,0-1.1-0.5-1.1-1.1v-17.7c0-0.6,0.5-1.1,1.1-1.1h8.7c0.6,0,1.1,0.5,1.1,1.1v17.7
						C1461,310.2,1460.5,310.7,1459.9,310.7z M1452.3,308.5h6.5v-15.5h-6.5V308.5z"/>
				</g>
				<g>
					<path class="st1" d="M1462.8,290.4c-0.2,0-0.4-0.1-0.6-0.2c-4.1-2.5-9.2-2.5-13.3,0c-0.5,0.3-1.2,0.1-1.5-0.4
						c-0.3-0.5-0.1-1.2,0.4-1.5c4.8-2.9,10.8-2.9,15.6,0c0.5,0.3,0.7,1,0.4,1.5C1463.5,290.2,1463.1,290.4,1462.8,290.4z"/>
				</g>
				<g>
					<path class="st1" d="M1462.8,310.7h-14.4c-0.6,0-1.1-0.5-1.1-1.1c0-0.6,0.5-1.1,1.1-1.1h14.4c0.6,0,1.1,0.5,1.1,1.1
						C1463.9,310.2,1463.4,310.7,1462.8,310.7z"/>
				</g>
			</g>
			<g>
				<g>
					<path class="st1" d="M1484.7,310.7h-8.7c-0.6,0-1.1-0.5-1.1-1.1v-17.7c0-0.6,0.5-1.1,1.1-1.1h8.7c0.6,0,1.1,0.5,1.1,1.1v17.7
						C1485.8,310.2,1485.3,310.7,1484.7,310.7z M1477.1,308.5h6.5v-15.5h-6.5V308.5z"/>
				</g>
				<g>
					<path class="st1" d="M1473.1,290.4c-0.4,0-0.7-0.2-0.9-0.5c-0.3-0.5-0.1-1.2,0.4-1.5c4.8-2.9,10.8-2.9,15.6,0
						c0.5,0.3,0.7,1,0.4,1.5c-0.3,0.5-1,0.7-1.5,0.4c-4.1-2.5-9.2-2.5-13.3,0C1473.5,290.3,1473.3,290.4,1473.1,290.4z"/>
				</g>
				<g>
					<path class="st1" d="M1487.6,310.7h-14.4c-0.6,0-1.1-0.5-1.1-1.1c0-0.6,0.5-1.1,1.1-1.1h14.4c0.6,0,1.1,0.5,1.1,1.1
						C1488.7,310.2,1488.2,310.7,1487.6,310.7z"/>
				</g>
			</g>
			<g>
				<g>
					<path class="st1" d="M1459.9,345.3h-8.7c-0.6,0-1.1-0.5-1.1-1.1v-17.7c0-0.6,0.5-1.1,1.1-1.1h8.7c0.6,0,1.1,0.5,1.1,1.1v17.7
						C1461,344.8,1460.5,345.3,1459.9,345.3z M1452.3,343.1h6.5v-15.5h-6.5V343.1z"/>
				</g>
				<g>
					<path class="st1" d="M1462.8,325c-0.2,0-0.4-0.1-0.6-0.2c-4.1-2.5-9.2-2.5-13.3,0c-0.5,0.3-1.2,0.1-1.5-0.4
						c-0.3-0.5-0.1-1.2,0.4-1.5c4.8-2.9,10.8-2.9,15.6,0c0.5,0.3,0.7,1,0.4,1.5C1463.5,324.9,1463.1,325,1462.8,325z"/>
				</g>
				<g>
					<path class="st1" d="M1462.8,345.3h-14.4c-0.6,0-1.1-0.5-1.1-1.1c0-0.6,0.5-1.1,1.1-1.1h14.4c0.6,0,1.1,0.5,1.1,1.1
						C1463.9,344.8,1463.4,345.3,1462.8,345.3z"/>
				</g>
			</g>
			<g>
				<g>
					<path class="st1" d="M1484.7,345.3h-8.7c-0.6,0-1.1-0.5-1.1-1.1v-17.7c0-0.6,0.5-1.1,1.1-1.1h8.7c0.6,0,1.1,0.5,1.1,1.1v17.7
						C1485.8,344.8,1485.3,345.3,1484.7,345.3z M1477.1,343.1h6.5v-15.5h-6.5V343.1z"/>
				</g>
				<g>
					<path class="st1" d="M1473.1,325c-0.4,0-0.7-0.2-0.9-0.5c-0.3-0.5-0.1-1.2,0.4-1.5c4.8-2.9,10.8-2.9,15.6,0
						c0.5,0.3,0.7,1,0.4,1.5c-0.3,0.5-1,0.7-1.5,0.4c-4.1-2.5-9.2-2.5-13.3,0C1473.5,325,1473.3,325,1473.1,325z"/>
				</g>
				<g>
					<path class="st1" d="M1487.6,345.3h-14.4c-0.6,0-1.1-0.5-1.1-1.1c0-0.6,0.5-1.1,1.1-1.1h14.4c0.6,0,1.1,0.5,1.1,1.1
						C1488.7,344.8,1488.2,345.3,1487.6,345.3z"/>
				</g>
			</g>
		</g>
		<g>
			<path class="st1" d="M1356.7,273c-0.4,0-0.8-0.3-1-0.7c-0.2-0.6,0-1.2,0.6-1.4l76.1-32.6c0.6-0.2,1.2,0,1.4,0.6
				c0.2,0.6,0,1.2-0.6,1.4l-76.1,32.6C1357,273,1356.8,273,1356.7,273z"/>
		</g>
		<g>
			<path class="st1" d="M1377.9,273c-0.4,0-0.8-0.3-1-0.7c-0.2-0.6,0-1.2,0.6-1.4l65.4-28c0.6-0.2,1.2,0,1.4,0.6
				c0.2,0.6,0,1.2-0.6,1.4l-65.4,28C1378.2,273,1378,273,1377.9,273z"/>
		</g>
		<g>
			<path class="st1" d="M1399.1,273c-0.4,0-0.8-0.3-1-0.7c-0.2-0.6,0-1.2,0.6-1.4l54.8-23.5c0.6-0.2,1.2,0,1.4,0.6
				c0.2,0.6,0,1.2-0.6,1.4l-54.8,23.5C1399.4,273,1399.3,273,1399.1,273z"/>
		</g>
		<g>
			<path class="st1" d="M1420.4,273c-0.4,0-0.8-0.3-1-0.7c-0.2-0.6,0-1.2,0.6-1.4l44.2-18.9c0.6-0.2,1.2,0,1.4,0.6
				c0.2,0.6,0,1.2-0.6,1.4l-44.2,18.9C1420.6,273,1420.5,273,1420.4,273z"/>
		</g>
		<g>
			<path class="st1" d="M1441.6,273c-0.4,0-0.8-0.3-1-0.7c-0.2-0.6,0-1.2,0.6-1.4l33.6-14.4c0.6-0.2,1.2,0,1.4,0.6
				c0.2,0.6,0,1.2-0.6,1.4l-33.6,14.4C1441.9,273,1441.7,273,1441.6,273z"/>
		</g>
		<g>
			<path class="st1" d="M1462.8,273c-0.4,0-0.8-0.3-1-0.7c-0.2-0.6,0-1.2,0.6-1.4l23-9.8c0.6-0.2,1.2,0,1.4,0.6
				c0.2,0.6,0,1.2-0.6,1.4l-23,9.8C1463.1,273,1463,273,1462.8,273z"/>
		</g>
		<g>
			<path class="st1" d="M1484,273c-0.4,0-0.8-0.3-1-0.7c-0.2-0.6,0-1.2,0.6-1.4l12.4-5.3c0.6-0.2,1.2,0,1.4,0.6
				c0.2,0.6,0,1.2-0.6,1.4l-12.4,5.3C1484.3,273,1484.2,273,1484,273z"/>
		</g>
	</g>
	<g>
		<path class="st1" d="M1430.5,336.5h-16.8c-0.6,0-1.1-0.5-1.1-1.1c0-0.6,0.5-1.1,1.1-1.1h16.8c0.6,0,1.1,0.5,1.1,1.1
			C1431.6,336,1431.1,336.5,1430.5,336.5z"/>
	</g>
	<g>
		<path class="st1" d="M1416.2,363.9c-0.6,0-1.1-0.5-1.1-1.1V339c0-0.6,0.5-1.1,1.1-1.1s1.1,0.5,1.1,1.1v23.7
			C1417.3,363.4,1416.8,363.9,1416.2,363.9z"/>
	</g>
	<g>
		<path class="st1" d="M1428,363.9c-0.6,0-1.1-0.5-1.1-1.1V339c0-0.6,0.5-1.1,1.1-1.1c0.6,0,1.1,0.5,1.1,1.1v23.7
			C1429.1,363.4,1428.6,363.9,1428,363.9z"/>
	</g>
</g>
<g>
	<g>
		<polyline class="st0" points="1138.7,217.5 1080.8,217.5 1080.8,262 1273.7,262 1273.7,217.5 1216.6,217.5 		"/>
		<rect x="1069.4" y="272.9" class="st0" width="216.2" height="89.4"/>
		<polyline class="st2" points="1138.2,212.7 1138.2,262 1216.7,262 1216.7,211.8 		"/>
		<rect x="1149.2" y="217.4" class="st0" width="12.9" height="34.8"/>
		<rect x="1171" y="217.4" class="st0" width="12.9" height="34.8"/>
		<rect x="1192.8" y="217.4" class="st0" width="12.9" height="34.8"/>
		<rect x="1080.8" y="282.1" class="st0" width="16.7" height="25.9"/>
		<rect x="1080.8" y="319.9" class="st0" width="16.7" height="31.8"/>
		<rect x="1105.5" y="282.1" class="st0" width="16.7" height="25.9"/>
		<rect x="1088.5" y="228.6" class="st0" width="15.5" height="25.9"/>
		<rect x="1114.4" y="228.6" class="st0" width="15.5" height="25.9"/>
		<rect x="1224.4" y="228.6" class="st0" width="15.5" height="25.9"/>
		<rect x="1250.3" y="228.6" class="st0" width="15.5" height="25.9"/>
		<rect x="1105.5" y="319.9" class="st0" width="16.7" height="31.8"/>
		<rect x="1232.7" y="282.1" class="st0" width="16.7" height="25.3"/>
		<rect x="1232.7" y="319.9" class="st0" width="16.7" height="31.8"/>
		<rect x="1257" y="282.1" class="st0" width="16.7" height="25.3"/>
		<rect x="1257" y="319.9" class="st0" width="16.7" height="31.8"/>
		<path class="st2" d="M1177.5,272.9L1177.5,272.9c0,4.8-3.9,8.7-8.7,8.7h-7.5c-4.8,0-8.7-3.9-8.7-8.7H1177.5z"/>
		<path class="st2" d="M1152.5,272.9L1152.5,272.9c0,4.8-3.9,8.7-8.7,8.7h-7.5c-4.8,0-8.7-3.9-8.7-8.7H1152.5z"/>
		<path class="st2" d="M1227.3,272.9L1227.3,272.9c0,4.8-3.9,8.7-8.7,8.7h-7.5c-4.8,0-8.7-3.9-8.7-8.7H1227.3z"/>
		<path class="st2" d="M1202.4,272.9L1202.4,272.9c0,4.8-3.9,8.7-8.7,8.7h-7.5c-4.8,0-8.7-3.9-8.7-8.7H1202.4z"/>
		<path class="st2" d="M1177.5,362.3L1177.5,362.3c0-4.8-3.9-8.7-8.7-8.7h-7.5c-4.8,0-8.7,3.9-8.7,8.7H1177.5z"/>
		<path class="st2" d="M1152.5,362.3L1152.5,362.3c0-4.8-3.9-8.7-8.7-8.7h-7.5c-4.8,0-8.7,3.9-8.7,8.7H1152.5z"/>
		<path class="st2" d="M1227.3,362.3L1227.3,362.3c0-4.8-3.9-8.7-8.7-8.7h-7.5c-4.8,0-8.7,3.9-8.7,8.7H1227.3z"/>
		<path class="st2" d="M1202.4,362.3L1202.4,362.3c0-4.8-3.9-8.7-8.7-8.7h-7.5c-4.8,0-8.7,3.9-8.7,8.7H1202.4z"/>
		<rect x="1134" y="281.6" class="st2" width="12.2" height="72.2"/>
		<rect x="1158.9" y="282.1" class="st2" width="12.2" height="72.2"/>
		<rect x="1183.8" y="281.6" class="st2" width="12.2" height="72.2"/>
		<rect x="1208.8" y="281.6" class="st2" width="12.2" height="72.2"/>
		<polygon class="st2" points="1216.7,213.2 1219.7,205.2 1177.5,178.7 1135.3,204.7 1138.2,213.2 1177.2,189.6 		"/>
		<rect x="1062.1" y="262" class="st0" width="230.7" height="10.8"/>
		<line class="st3" x1="1177.2" y1="178.7" x2="1177.2" y2="139.1"/>
	</g>
	<path class="st4" d="M1210.4,144.7c-7.9-1.5-14.4,1.9-22.8,2.1c-7.7,0.1-10.4-3.7-10.4-3.7v14.6c0,0,7.7,0.8,12.3,0.1
		c9-1.3,12.1-5.2,19.1-6.7c6.8-1.5,12.5-1.8,12.5-1.8S1218.2,146.3,1210.4,144.7z"/>
</g>
<g>
	<g>
		<g>
			<g>
				<polyline class="st5" points="400.1,252 400.1,356.3 265.2,356.3 265.2,252 				"/>
				<rect x="257.5" y="239.6" class="st6" width="149.9" height="11.6"/>
				<path class="st5" d="M382.8,239.6H282.1v-16.3H304c0,0,6.6-13.3,28.6-13.3c21.9,0,28.2,13.3,28.2,13.3h21.9V239.6z"/>
				<polyline class="st6" points="322.6,344.4 322.6,312.7 342.2,312.7 342.2,344.4 				"/>
				<rect x="274.1" y="261.5" class="st6" width="15.5" height="37.4"/>
				<rect x="274.1" y="312" class="st6" width="15.5" height="23.9"/>
				<rect x="299.6" y="277.2" class="st6" width="15.4" height="23.1"/>
				<rect x="324.7" y="277.2" class="st6" width="15.4" height="23.1"/>
				<rect x="299.8" y="312" class="st6" width="15.4" height="23.9"/>
				<rect x="349.4" y="277.2" class="st6" width="15.4" height="23.1"/>
				<rect x="349.6" y="312" class="st6" width="15.4" height="23.9"/>
				<rect x="375.3" y="261.5" class="st6" width="15.4" height="37.4"/>
				<rect x="375.3" y="312" class="st6" width="15.4" height="23.9"/>
				<rect x="310.2" y="350.5" class="st6" width="44.8" height="5.6"/>
				<rect x="316.1" y="344.4" class="st7" width="31.5" height="6"/>
				<g>
					<line class="st8" x1="328.2" y1="325.7" x2="328.2" y2="334.5"/>
				</g>
				<path class="st8" d="M327.5,209.1c0,0,0.9-5.1,5.1-5.1c4.2,0,5.1,5.1,5.1,5.1"/>
			</g>
		</g>
	</g>
	<rect x="420.6" y="305.9" class="st9" width="5" height="52"/>
	<rect x="468.5" y="305.9" class="st9" width="5" height="52"/>
	<rect x="442.9" y="305.9" class="st9" width="5" height="52"/>
	<polygon class="st9" points="477.1,307.1 434.4,307.1 420.8,283.4 463.3,283.4 	"/>
	<polygon class="st9" points="473.5,305.9 472.9,305.9 459.9,284.6 460.6,284.6 	"/>
	<polygon class="st10" points="407.9,305.9 447.9,305.9 460.5,284.6 420.8,284.6 	"/>
	<rect x="407.9" y="305.9" class="st9" width="5" height="52"/>
	<rect x="446.6" y="305.9" class="st9" width="1.2" height="52"/>
	<rect x="431.3" y="330.2" class="st9" width="1.2" height="27.7"/>
	<rect x="472.2" y="305.9" class="st9" width="1.2" height="52"/>
	<rect x="424.4" y="305.9" class="st9" width="1.2" height="52"/>
	<polygon class="st9" points="460.5,284.6 447.9,305.9 447.1,305.9 460,284.6 	"/>
	<polygon class="st9" points="460.5,284.6 447.9,305.9 447.1,305.9 459.7,284.6 	"/>
	<rect x="410.4" y="326.8" class="st9" width="34.9" height="3.4"/>
	
		<rect x="414.5" y="341.1" transform="matrix(-1.836970e-16 1 -1 -1.836970e-16 772.3832 -86.7866)" class="st9" width="30.3" height="3.4"/>
	<rect x="429.6" y="333.4" class="st9" width="15.2" height="1.2"/>
	<rect x="429.6" y="338.3" class="st9" width="15.2" height="1.2"/>
	<rect x="429.6" y="343.3" class="st9" width="15.2" height="1.2"/>
	<rect x="429.6" y="348.3" class="st9" width="15.2" height="1.2"/>
	<rect x="429.6" y="353.3" class="st9" width="15.2" height="1.2"/>
	<rect x="420.8" y="277.8" class="st9" width="1.1" height="6.7"/>
	<polygon class="st9" points="425.6,280.8 420.8,280.8 420.8,277.8 425.6,277.8 424.4,279.3 	"/>
	<rect x="459.4" y="277.8" class="st9" width="1.1" height="6.7"/>
	<polygon class="st9" points="464.2,280.8 459.4,280.8 459.4,277.8 464.2,277.8 462.9,279.3 	"/>
</g>
<g>
	<g>
		<g>
			<polyline class="st11" points="983.9,258.4 983.9,362.6 849,362.6 849,258.4 			"/>
			<rect x="841.4" y="246" class="st11" width="149.9" height="11.6"/>
			<path class="st11" d="M966.6,246H866v-16.3h21.9c0,0,6.6-13.3,28.6-13.3c21.9,0,28.2,13.3,28.2,13.3h21.9V246z"/>
			<polyline class="st11" points="906.5,350.8 906.5,319.1 926.1,319.1 926.1,350.8 			"/>
			<rect x="858" y="267.8" class="st11" width="15.5" height="37.4"/>
			<rect x="858" y="318.3" class="st11" width="15.5" height="23.9"/>
			<rect x="883.4" y="283.5" class="st11" width="15.4" height="23.1"/>
			<rect x="908.6" y="283.5" class="st11" width="15.4" height="23.1"/>
			<rect x="883.7" y="318.3" class="st11" width="15.4" height="23.9"/>
			<rect x="933.2" y="283.5" class="st11" width="15.4" height="23.1"/>
			<rect x="933.5" y="318.3" class="st11" width="15.4" height="23.9"/>
			<rect x="959.2" y="267.8" class="st11" width="15.4" height="37.4"/>
			<rect x="959.2" y="318.3" class="st11" width="15.4" height="23.9"/>
			<rect x="894.1" y="356.8" class="st11" width="44.8" height="5.6"/>
			<rect x="900" y="350.8" class="st11" width="31.5" height="6"/>
			<g>
				<line class="st11" x1="912" y1="332.1" x2="912" y2="340.8"/>
			</g>
			<path class="st11" d="M911.4,215.4c0,0,0.9-5.1,5.1-5.1c4.2,0,5.1,5.1,5.1,5.1"/>
		</g>
	</g>
</g>
<rect x="915.6" y="201.9" transform="matrix(-1 -1.224647e-16 1.224647e-16 -1 1832.6045 411.9731)" class="st11" width="1.3" height="8.1"/>
<polygon class="st11" points="929.2,201.2 915.4,201.2 915.4,192.7 929.2,192.7 925.6,197 "/>
<g>
	<g>
		<defs>
			<rect id="SVGID_1_" x="528.9" y="288.9" width="241.9" height="105.5"/>
		</defs>
		<clipPath id="SVGID_2_">
			<use xlink:href="#SVGID_1_"  style="overflow:visible;"/>
		</clipPath>
		<g class="st12">
			<g>
				<g>
					<g>
						<polyline class="st13" points="688.1,254.5 688.1,358.8 553.2,358.8 553.2,254.5 						"/>
						<rect x="545.5" y="242.1" class="st14" width="149.9" height="11.6"/>
						<path class="st13" d="M670.8,242.1H570.1v-16.3H592c0,0,6.6-13.3,28.6-13.3c21.9,0,28.2,13.3,28.2,13.3h21.9V242.1z"/>
						<polyline class="st14" points="610.6,346.9 610.6,315.2 630.2,315.2 630.2,346.9 						"/>
						<rect x="562.1" y="264" class="st14" width="15.5" height="37.4"/>
						<rect x="562.1" y="314.5" class="st14" width="15.5" height="23.9"/>
						<rect x="587.5" y="279.7" class="st14" width="15.4" height="23.1"/>
						<rect x="612.7" y="279.7" class="st14" width="15.4" height="23.1"/>
						<rect x="587.8" y="314.5" class="st14" width="15.4" height="23.9"/>
						<rect x="637.4" y="279.7" class="st14" width="15.4" height="23.1"/>
						<rect x="637.6" y="314.5" class="st14" width="15.4" height="23.9"/>
						<rect x="663.3" y="264" class="st14" width="15.4" height="37.4"/>
						<rect x="663.3" y="314.5" class="st14" width="15.4" height="23.9"/>
						<rect x="598.2" y="352.9" class="st14" width="44.8" height="5.6"/>
						<rect x="604.1" y="346.9" class="st15" width="31.5" height="6"/>
						<g>
							<line class="st16" x1="616.1" y1="328.2" x2="616.1" y2="337"/>
						</g>
						<path class="st16" d="M615.5,211.6c0,0,0.9-5.1,5.1-5.1c4.2,0,5.1,5.1,5.1,5.1"/>
					</g>
				</g>
			</g>
			<rect x="708.6" y="308.4" class="st17" width="5" height="52"/>
			<rect x="756.5" y="308.4" class="st17" width="5" height="52"/>
			<rect x="730.8" y="308.4" class="st17" width="5" height="52"/>
			<polygon class="st17" points="765.1,308.4 722.4,308.4 708.8,285.9 751.3,285.9 			"/>
			<polygon class="st17" points="695.9,308.4 735.8,308.4 748.5,287.1 708.8,287.1 			"/>
			<rect x="695.9" y="308.4" class="st17" width="5" height="52"/>
			<rect x="734.6" y="308.4" class="st17" width="1.2" height="52"/>
			<rect x="719.3" y="332.7" class="st17" width="1.2" height="27.7"/>
			<rect x="760.2" y="308.4" class="st17" width="1.2" height="52"/>
			<rect x="712.4" y="308.4" class="st17" width="1.2" height="52"/>
			<rect x="698.4" y="329.3" class="st17" width="34.9" height="3.4"/>
			
				<rect x="702.4" y="343.6" transform="matrix(-1.836970e-16 1 -1 -1.836970e-16 1062.8552 -372.2791)" class="st17" width="30.3" height="3.4"/>
			<rect x="717.6" y="335.9" class="st17" width="15.2" height="1.2"/>
			<rect x="717.6" y="340.8" class="st17" width="15.2" height="1.2"/>
			<rect x="717.6" y="345.8" class="st17" width="15.2" height="1.2"/>
			<rect x="717.6" y="350.8" class="st17" width="15.2" height="1.2"/>
			<rect x="717.6" y="355.8" class="st17" width="15.2" height="1.2"/>
			<rect x="708.8" y="280.3" class="st17" width="1.1" height="6.7"/>
			<polygon class="st17" points="713.6,283.3 708.8,283.3 708.8,280.3 713.6,280.3 712.4,281.8 			"/>
			<rect x="747.4" y="280.3" class="st17" width="1.1" height="6.7"/>
			<polygon class="st17" points="752.2,283.3 747.4,283.3 747.4,280.3 752.2,280.3 750.9,281.8 			"/>
		</g>
	</g>
	<g>
		<defs>
			<rect id="SVGID_3_" x="529.1" y="187.9" width="241.8" height="105.5"/>
		</defs>
		<clipPath id="SVGID_4_">
			<use xlink:href="#SVGID_3_"  style="overflow:visible;"/>
		</clipPath>
		<g class="st18">
			<g>
				<g>
					<g>
						<polyline class="st5" points="688.3,256.5 688.3,360.8 553.4,360.8 553.4,256.5 						"/>
						<rect x="545.7" y="244.1" class="st6" width="149.9" height="11.6"/>
						<path class="st5" d="M671,244.1H570.3v-16.3h21.9c0,0,6.6-13.3,28.6-13.3c21.9,0,28.2,13.3,28.2,13.3H671V244.1z"/>
						<polyline class="st6" points="610.8,348.9 610.8,317.2 630.4,317.2 630.4,348.9 						"/>
						<rect x="562.3" y="266" class="st6" width="15.5" height="37.4"/>
						<rect x="562.3" y="316.5" class="st6" width="15.5" height="23.9"/>
						<rect x="587.7" y="281.7" class="st6" width="15.4" height="23.1"/>
						<rect x="612.9" y="281.7" class="st6" width="15.4" height="23.1"/>
						<rect x="588" y="316.5" class="st6" width="15.4" height="23.9"/>
						<rect x="637.6" y="281.7" class="st6" width="15.4" height="23.1"/>
						<rect x="637.8" y="316.5" class="st6" width="15.4" height="23.9"/>
						<rect x="663.5" y="266" class="st6" width="15.4" height="37.4"/>
						<rect x="663.5" y="316.5" class="st6" width="15.4" height="23.9"/>
						<rect x="598.4" y="354.9" class="st6" width="44.8" height="5.6"/>
						<rect x="604.3" y="348.9" class="st7" width="31.5" height="6"/>
						<g>
							<line class="st8" x1="616.4" y1="330.2" x2="616.4" y2="339"/>
						</g>
						<path class="st8" d="M615.7,213.6c0,0,0.9-5.1,5.1-5.1c4.2,0,5.1,5.1,5.1,5.1"/>
					</g>
				</g>
			</g>
			<rect x="708.8" y="310.4" class="st19" width="5" height="52"/>
			<rect x="756.7" y="310.4" class="st19" width="5" height="52"/>
			<rect x="731" y="310.4" class="st19" width="5" height="52"/>
			<polygon class="st20" points="765.3,311.6 722.6,311.6 709,287.9 751.5,287.9 			"/>
			<polygon class="st20" points="761.7,310.4 761.1,310.4 748.1,289.1 748.8,289.1 			"/>
			<polygon class="st10" points="696.1,310.4 736.1,310.4 748.7,289.1 709,289.1 			"/>
			<rect x="696.1" y="310.4" class="st19" width="5" height="52"/>
			<rect x="734.8" y="310.4" class="st19" width="1.2" height="52"/>
			<rect x="719.5" y="334.7" class="st19" width="1.2" height="27.7"/>
			<rect x="760.4" y="310.4" class="st19" width="1.2" height="52"/>
			<rect x="712.6" y="310.4" class="st19" width="1.2" height="52"/>
			<polygon class="st20" points="748.7,289.1 736.1,310.4 735.2,310.4 748.2,289.1 			"/>
			<polygon class="st20" points="748.7,289.1 736.1,310.4 735.2,310.4 747.9,289.1 			"/>
			<rect x="698.6" y="331.3" class="st19" width="34.9" height="3.4"/>
			
				<rect x="702.6" y="345.6" transform="matrix(-1.836970e-16 1 -1 -1.836970e-16 1065.0602 -370.4876)" class="st19" width="30.3" height="3.4"/>
			<rect x="717.8" y="337.8" class="st19" width="15.2" height="1.2"/>
			<rect x="717.8" y="342.8" class="st19" width="15.2" height="1.2"/>
			<rect x="717.8" y="347.8" class="st19" width="15.2" height="1.2"/>
			<rect x="717.8" y="352.8" class="st19" width="15.2" height="1.2"/>
			<rect x="717.8" y="357.8" class="st19" width="15.2" height="1.2"/>
			<rect x="709" y="282.3" class="st20" width="1.1" height="6.7"/>
			<polygon class="st20" points="713.8,285.3 709,285.3 709,282.3 713.8,282.3 712.6,283.8 			"/>
			<rect x="747.6" y="282.3" class="st20" width="1.1" height="6.7"/>
			<polygon class="st20" points="752.4,285.3 747.6,285.3 747.6,282.3 752.4,282.3 751.1,283.8 			"/>
		</g>
	</g>
</g>
<text transform="matrix(1 0 0 1 1115.0962 97.0991)"><tspan x="0" y="0" class="st21 st22 st23">Psot-secondary</tspan><tspan x="23.4" y="23" class="st21 st22 st23">schooling</tspan></text>
<text transform="matrix(1 0 0 1 1099.5747 67.6529)" class="st24 st25 st26">14.2%</text>
<text transform="matrix(1 0 0 1 560.6002 96.6463)"><tspan x="0" y="0" class="st21 st22 st23">Incomplete Secondary</tspan><tspan x="50.3" y="23" class="st21 st22 st23">schooling</tspan></text>
<text transform="matrix(1 0 0 1 549.7329 67.2001)" class="st27 st25 st28">26.6%</text>
<text transform="matrix(1 0 0 1 307.3369 96.6464)" class="st21 st22 st23">Primary school</text>
<text transform="matrix(1 0 0 1 267.1752 67.2002)" class="st27 st25 st28">26.8%</text>
<text transform="matrix(1 0 0 1 890.6691 96.6465)" class="st21 st22 st23">Matric</text>
<text transform="matrix(1 0 0 1 832.8502 67.2003)" class="st24 st25 st29">17.1%</text>
<text transform="matrix(1 0 0 1 1368.9187 96.6463)" class="st21 st22 st23">Still in school</text>
<text transform="matrix(1 0 0 1 1371.2521 67.2001)" class="st30 st25 st31">7.5%</text>
<text transform="matrix(1 0 0 1 39.6257 96.6464)" class="st21 st22 st23">No schooling</text>
<text transform="matrix(1 0 0 1 25.5981 67.2002)" class="st30 st25 st31">11.4%</text>
<ellipse class="st32" cx="93.4" cy="116.9" rx="2.6" ry="2.4"/>
<line class="st33" x1="93.4" y1="229.5" x2="93.4" y2="117.3"/>
<ellipse class="st32" cx="365.4" cy="116.9" rx="2.6" ry="2.4"/>
<line class="st33" x1="365.4" y1="213.6" x2="365.4" y2="117.3"/>
<ellipse class="st32" cx="916.4" cy="116.9" rx="2.6" ry="2.4"/>
<line class="st33" x1="916.4" y1="185.9" x2="916.4" y2="117.3"/>
<ellipse class="st32" cx="1421.4" cy="116.9" rx="2.6" ry="2.4"/>
<line class="st33" x1="1421.4" y1="225" x2="1421.4" y2="117.3"/>
<ellipse class="st32" cx="650.4" cy="131.9" rx="2.6" ry="2.4"/>
<line class="st33" x1="650.4" y1="212" x2="650.4" y2="132.3"/>
</svg>
