<?xml version="1.0" encoding="utf-8"?>
<!-- Generator: Adobe Illustrator 24.3.0, SVG Export Plug-In . SVG Version: 6.00 Build 0)  -->
<svg version="1.1" id="Layer_1" xmlns="http://www.w3.org/2000/svg" xmlns:xlink="http://www.w3.org/1999/xlink" x="0px" y="0px"
	 viewBox="0 0 742.7 402.9" style="enable-background:new 0 0 742.7 402.9;" xml:space="preserve">
<style type="text/css">
	.st0{fill:#00A7CC;}
	.st1{clip-path:url(#SVGID_2_);}
	.st2{fill:#9DDAF7;}
	.st3{enable-background:new    ;}
	.st4{fill:#FFFFFF;}
	.st5{fill:#F36D26;}
	.st6{clip-path:url(#SVGID_4_);}
	.st7{fill:none;stroke:#FDD5C3;stroke-miterlimit:10;}
</style>
<g>
	<g>
		<circle id="SVGID_33_" class="st0" cx="573.4" cy="221.4" r="155.7"/>
	</g>
	<g>
		<defs>
			<circle id="SVGID_1_" cx="573.4" cy="221.4" r="155.7"/>
		</defs>
		<clipPath id="SVGID_2_">
			<use xlink:href="#SVGID_1_"  style="overflow:visible;"/>
		</clipPath>
		<g class="st1">
			<g>
				<path class="st2" d="M801.5,289C772,272.5,700,254.8,699.4,254.7l0.3-1.6c0.6,0.1,72.4,17.6,102.6,34.5L801.5,289z"/>
			</g>
			<g>
				<path class="st2" d="M700.5,254.6L700,253c30.5-8.9,56.8-13.3,73.5-15.5c18.1-2.3,29-2.5,29.2-2.5v1.6c-0.1,0-11,0.2-29,2.5
					C757.1,241.3,730.9,245.8,700.5,254.6z"/>
			</g>
			<g>
				<path class="st2" d="M673.7,254.6l-52.6-0.8l0.5-37.1l26.4-9.1l26.2,9.8L673.7,254.6z M622.8,252.2l49.4,0.7l0.5-34.4l-24.6-9.2
					l-24.8,8.5L622.8,252.2z"/>
			</g>
			<g>
				<path class="st2" d="M700.7,254.9l-28.6-0.4l0.4-28.9l28.4,10L700.7,254.9z M673.8,252.9l25.3,0.4l0.2-16.5l-25.2-8.9
					L673.8,252.9z"/>
			</g>
			<g>
				<path class="st2" d="M657.8,253.2h-1.6l0.1-10.2l-16.9-0.2l-0.1,10.2h-1.6l0.2-11c0-0.4,0.4-0.8,0.8-0.8l18.5,0.3
					c0.4,0,0.8,0.4,0.8,0.8L657.8,253.2z"/>
			</g>
			<g>
				<path class="st2" d="M690.8,253.7h-1.6l0.1-8.8l-5.9-0.1l-0.1,8.8h-1.6l0.1-9.6c0-0.4,0.4-0.8,0.8-0.8l7.5,0.1
					c0.4,0,0.8,0.4,0.8,0.8L690.8,253.7z"/>
			</g>
			<g>
				<path class="st2" d="M691.7,226.3"/>
			</g>
			<g>
				<path class="st2" d="M691,183.2c-4.6-0.1-8.3-3.9-8.2-8.5s3.9-8.3,8.5-8.2s8.3,3.9,8.2,8.5C699.4,179.5,695.6,183.2,691,183.2z
					 M691.2,168.1c-3.7-0.1-6.8,2.9-6.8,6.6c-0.1,3.7,2.9,6.8,6.6,6.8c3.7,0.1,6.8-2.9,6.8-6.6C697.9,171.2,694.9,168.1,691.2,168.1
					z"/>
			</g>
			<g>
				<path class="st2" d="M746.1,193.5l-30.2-0.4c-2.9,0-5.2-2.4-5.2-5.3c0-2.9,2.4-5.2,5.3-5.2l3.7,0.1c0-0.3-0.1-0.6,0-0.9
					c0.1-3.7,3.1-6.6,6.7-6.5c2.4,0,4.5,1.4,5.7,3.4c1.1-0.8,2.5-1.2,3.9-1.2c3.3,0,6,2.4,6.5,5.6l3.8,0.1c2.9,0,5.2,2.4,5.2,5.3
					C751.4,191.3,749,193.6,746.1,193.5z M716,184.2c-2,0-3.7,1.6-3.7,3.6s1.6,3.7,3.6,3.7l30.2,0.4c2,0,3.7-1.6,3.7-3.6
					s-1.6-3.7-3.6-3.7l-4.5-0.1c-0.4,0-0.8-0.3-0.8-0.8c-0.1-2.7-2.3-4.8-4.9-4.8c-1.4,0-2.6,0.5-3.6,1.4c-0.2,0.2-0.5,0.3-0.7,0.2
					c-0.3-0.1-0.5-0.3-0.6-0.5c-0.7-2-2.6-3.3-4.7-3.3c-2.8,0-5.1,2.2-5.1,5c0,0.5,0.1,1,0.2,1.5c0.1,0.2,0,0.5-0.1,0.7
					c-0.2,0.2-0.4,0.3-0.7,0.3L716,184.2z"/>
			</g>
			<g>
				<path class="st2" d="M661.7,191.7l-30.2-0.4c-2.9,0-5.2-2.4-5.2-5.3c0-2.9,2.4-5.2,5.3-5.2l3.7,0.1c0-0.3-0.1-0.6,0-0.9
					c0.1-3.7,3.1-6.6,6.7-6.5c2.4,0,4.5,1.4,5.7,3.4c1.1-0.8,2.5-1.2,3.9-1.2c3.3,0,6,2.4,6.5,5.6l3.8,0.1c2.9,0,5.2,2.4,5.2,5.3
					C667,189.4,664.6,191.7,661.7,191.7z M631.6,182.3c-2,0-3.7,1.6-3.7,3.6s1.6,3.7,3.6,3.7l30.2,0.4c2,0,3.7-1.6,3.7-3.6
					s-1.6-3.7-3.6-3.7l-4.5-0.1c-0.4,0-0.8-0.3-0.8-0.8c-0.1-2.7-2.3-4.8-4.9-4.8c-1.4,0-2.6,0.5-3.6,1.4c-0.2,0.2-0.5,0.3-0.7,0.2
					c-0.3-0.1-0.5-0.3-0.6-0.5c-0.7-2-2.6-3.3-4.7-3.3c-2.8,0-5.1,2.2-5.1,5c0,0.5,0.1,1,0.2,1.5c0.1,0.2,0,0.5-0.1,0.7
					c-0.2,0.2-0.4,0.3-0.7,0.3L631.6,182.3z"/>
			</g>
			<g>
				<path class="st2" d="M714.9,245.8c-2.7,0-4.9-2.4-4.9-5.3c0-2.9,2.3-5.2,5-5.1c2.7,0,4.9,2.4,4.9,5.3S717.6,245.9,714.9,245.8z
					 M715,237.1c-1.8,0-3.3,1.6-3.4,3.5c0,2,1.4,3.6,3.3,3.6c1.8,0,3.3-1.6,3.4-3.5C718.3,238.7,716.9,237.1,715,237.1z"/>
			</g>
			<g>
				
					<rect x="711" y="245.3" transform="matrix(1.426608e-02 -0.9999 0.9999 1.426608e-02 458.6176 957.3859)" class="st2" width="7.7" height="1.6"/>
			</g>
			<g>
				<path class="st2" d="M657.2,239.6l-18.5-0.3c-0.4,0-0.8-0.4-0.8-0.8l0.2-11c0-0.4,0.4-0.8,0.8-0.8l18.5,0.3
					c0.4,0,0.8,0.4,0.8,0.8l-0.2,11C658,239.3,657.7,239.6,657.2,239.6z M639.5,237.8l16.9,0.2l0.1-9.4l-16.9-0.2L639.5,237.8z"/>
			</g>
			<g>
				
					<rect x="647.2" y="222.5" transform="matrix(0.522 -0.8529 0.8529 0.522 110.7749 664.1513)" class="st2" width="1.6" height="21.5"/>
			</g>
			<g>
				
					<rect x="637.3" y="232.4" transform="matrix(0.8674 -0.4976 0.4976 0.8674 -30.1012 353.3845)" class="st2" width="21.5" height="1.6"/>
			</g>
			<g>
				<path class="st2" d="M735.9,324.4c-51.9-33.6-100.3-47.1-131.7-52.5c-34.1-5.8-66.7-3.4-66.9-3.4l-0.2-1.6
					c7.6-0.8,39.9-1.3,67.4,3.4c31.6,5.4,80.3,18.9,132.4,52.7L735.9,324.4z"/>
			</g>
			<g>
				<path class="st2" d="M709.9,324.3c-77.9-43.5-173.5-42.8-191.9-42l-0.1-1.6c18.5-0.8,114.6-1.4,192.8,42.2L709.9,324.3z"/>
			</g>
			<g>
				<path class="st2" d="M686,327.4c-61.5-28.1-112.5-30.4-131.6-30.1v-1.6c19.2-0.3,70.5,2,132.3,30.2L686,327.4z"/>
			</g>
			<g>
				<path class="st2" d="M639.9,323.1c-42-14-108.5-14.6-125-14.6v-1.6c16.6,0.1,83.2,0.7,125.5,14.7L639.9,323.1z"/>
			</g>
			<g>
				
					<rect x="689.7" y="281.7" transform="matrix(0.6772 -0.7358 0.7358 0.6772 23.2026 617.9813)" class="st2" width="52.5" height="1.6"/>
			</g>
			<g>
				
					<rect x="698" y="285.7" transform="matrix(0.6656 -0.7463 0.7463 0.6656 28.6528 637.0411)" class="st2" width="54.5" height="1.6"/>
			</g>
			<g>
				
					<rect x="705.9" y="289.2" transform="matrix(0.6676 -0.7445 0.7445 0.6676 28.1082 642.8935)" class="st2" width="56.4" height="1.6"/>
			</g>
			<g>
				
					<rect x="713.8" y="292.7" transform="matrix(0.669 -0.7433 0.7433 0.669 27.7803 649.4249)" class="st2" width="58.4" height="1.6"/>
			</g>
			<g>
				
					<rect x="588.3" y="218.6" transform="matrix(1.426608e-02 -0.9999 0.9999 1.426608e-02 328.4437 837.7598)" class="st2" width="1.6" height="67.3"/>
			</g>
			<g>
				
					<rect x="685.6" y="236.2" transform="matrix(1.426608e-02 -0.9999 0.9999 1.426608e-02 432.5475 926.9156)" class="st2" width="1.6" height="15.8"/>
			</g>
			<g>
				
					<rect x="647.1" y="192.7" transform="matrix(1.426608e-02 -0.9999 0.9999 1.426608e-02 420.5767 862.8765)" class="st2" width="1.6" height="50.8"/>
			</g>
			<g>
				<path class="st2" d="M501.1,199.4l-29-0.4c-2.8,0-5.1-2.5-5-5.3c0-2.9,2.4-5.2,5.2-5.2l3.5,0.1c-0.6-0.9-1-2-1-3.1v-0.7
					c0.1-3.8,3.4-6.9,7.2-6.9c2.9,0,5.5,1.8,6.5,4.3c0.7-0.3,1.3-0.4,2-0.4c3.3,0,5.8,2.7,5.7,6.2v0.5c0,0.1,0.1,0.2,0.2,0.2
					l4.8,0.1c2.8,0,5.1,2.5,5,5.3C506.2,197.1,503.9,199.4,501.1,199.4z M472.2,190.1c-1.9,0-3.5,1.6-3.5,3.6s1.5,3.7,3.4,3.7
					l29,0.4c1.9,0,3.5-1.6,3.5-3.6s-1.5-3.7-3.4-3.7l-5.2-0.1c-0.3,0-0.6-0.2-0.7-0.4l0,0c-0.3-0.4-0.6-0.8-0.6-1.3v-0.6
					c0-2.6-1.7-4.5-4.1-4.6c-0.7,0-1.3,0.2-2.1,0.6c-0.2,0.1-0.5,0.1-0.7,0s-0.4-0.3-0.5-0.5c-0.6-2.3-2.8-4-5.3-4
					c-3,0-5.6,2.4-5.6,5.3v0.7c0,1.3,0.9,2.7,1.6,3.3c0.3,0.2,0.4,0.6,0.3,0.9c-0.1,0.3-0.4,0.5-0.8,0.5L472.2,190.1z"/>
			</g>
			<g>
				<path class="st2" d="M387.9,196.4l-29-0.4c-2.8,0-5.1-2.5-5-5.3c0-2.9,2.4-5.2,5.2-5.2l3.5,0.1c-0.6-0.9-1-2-1-3.1v-0.7
					c0.1-3.8,3.4-6.9,7.2-6.9c2.9,0,5.5,1.8,6.5,4.3c0.7-0.3,1.3-0.4,2-0.4c3.3,0,5.8,2.7,5.7,6.2v0.5c0,0.1,0.1,0.2,0.2,0.2
					l4.8,0.1c2.8,0,5.1,2.5,5,5.3C393,194.1,390.7,196.5,387.9,196.4z M359,187.1c-1.9,0-3.5,1.6-3.5,3.6s1.5,3.7,3.4,3.7l29,0.4
					c1.9,0,3.5-1.6,3.5-3.6s-1.5-3.7-3.4-3.7l-5.2-0.1c-0.3,0-0.6-0.2-0.7-0.4l0,0c-0.3-0.4-0.6-0.8-0.6-1.3v-0.6
					c0-2.6-1.7-4.5-4.1-4.6c-0.7,0-1.3,0.1-2.1,0.6c-0.2,0.1-0.5,0.1-0.7,0s-0.4-0.3-0.5-0.5c-0.6-2.3-2.8-4-5.3-4
					c-3,0-5.6,2.4-5.6,5.3v0.7c0,1.3,0.9,2.7,1.6,3.3c0.3,0.2,0.4,0.6,0.3,0.9c-0.1,0.3-0.4,0.5-0.8,0.5L359,187.1z"/>
			</g>
			<g>
				<path class="st2" d="M555.5,298c-35.4-15.7-72.1-28.8-109.2-38.9c-7.8-2.1-15.6-4.1-23.4-6c-5.5-1.3-11.2-2.6-16.7-3.8
					c-62.3-13.4-103.3-13.4-103.7-13.4v-1.6c0.4,0,41.6,0.1,104.1,13.5c5.5,1.2,11.2,2.5,16.7,3.8c7.8,1.9,15.7,3.9,23.5,6
					c37.1,10.1,74,23.3,109.4,39L555.5,298z"/>
			</g>
			<g>
				<path class="st2" d="M433.5,255.6l-0.4-1.6c49.5-14,96.8-14.5,110.1-14.3v1.6C529.8,241.2,482.7,241.7,433.5,255.6z"/>
			</g>
			<g>
				<path class="st2" d="M460.3,262.8l-0.3-1.6c39.7-8.6,82.9-10.3,96.6-10.1v1.6C542.9,252.5,499.8,254.2,460.3,262.8z"/>
			</g>
			<g>
				<path class="st2" d="M493.7,273.8l-0.3-1.6c20.8-4.6,42.2-5.3,56.4-5.8c3.2-0.1,6.2,0.1,8.6,0l0.1,1.6c-2.4,0.1-5.4-0.1-8.6,0
					C535.7,268.5,514.4,269.2,493.7,273.8z"/>
			</g>
			<g>
				<path class="st2" d="M553.8,354.6c-32-22.4-142-74.5-203-87.9c-28-6.2-48.5-8-48.7-8l0.1-1.6c0.2,0,20.8,1.8,49,8
					c60.7,13.4,171.3,65.6,203.6,88.1L553.8,354.6z"/>
			</g>
			<g>
				
					<rect x="299.9" y="281.7" transform="matrix(0.4419 -0.8971 0.8971 0.4419 -73.0605 447.4979)" class="st2" width="46.4" height="1.6"/>
			</g>
			<g>
				
					<rect x="313.2" y="283.5" transform="matrix(0.4419 -0.8971 0.8971 0.4419 -67.9815 459.3981)" class="st2" width="44" height="1.6"/>
			</g>
			<g>
				
					<rect x="326.6" y="285.3" transform="matrix(0.4419 -0.8971 0.8971 0.4419 -62.7479 471.3115)" class="st2" width="41.7" height="1.6"/>
			</g>
			<g>
				
					<rect x="340.8" y="287.3" transform="matrix(0.4419 -0.8971 0.8971 0.4419 -57.6269 483.5581)" class="st2" width="38.1" height="1.6"/>
			</g>
			<g>
				
					<rect x="354.5" y="288.8" transform="matrix(0.4419 -0.8971 0.8971 0.4419 -52.1536 495.4024)" class="st2" width="35.1" height="1.6"/>
			</g>
			<g>
				
					<rect x="358" y="298.7" transform="matrix(0.4419 -0.8971 0.8971 0.4419 -55.9131 509.0844)" class="st2" width="46.4" height="1.6"/>
			</g>
			<g>
				
					<rect x="371.3" y="300.5" transform="matrix(0.4419 -0.8971 0.8971 0.4419 -50.834 520.9847)" class="st2" width="44" height="1.6"/>
			</g>
			<g>
				
					<rect x="384.5" y="304.4" transform="matrix(0.4419 -0.8971 0.8971 0.4419 -47.5294 534.0096)" class="st2" width="41.7" height="1.6"/>
			</g>
			<g>
				
					<rect x="398.8" y="306.4" transform="matrix(0.4419 -0.8971 0.8971 0.4419 -42.4086 546.2571)" class="st2" width="38.1" height="1.6"/>
			</g>
			<g>
				
					<rect x="412.6" y="310.2" transform="matrix(0.4419 -0.8971 0.8971 0.4419 -38.9486 559.4337)" class="st2" width="35.1" height="1.6"/>
			</g>
			<g>
				<path class="st2" d="M574.8,336.8c-51.1-27.9-165.2-71.7-202.6-79.4c-40.6-8.3-69.5-10-69.7-10l0.1-1.6c0.3,0,29.3,1.7,70,10
					c37.6,7.7,151.8,51.5,203.1,79.5L574.8,336.8z"/>
			</g>
			<g>
				<path class="st2" d="M583.9,247.8l-13.3-0.2v-1.7l13.3,0.2V247.8L583.9,247.8z M561.5,247.5v-1.7h-1.6l0.1-7.9
					c0-0.8,0.3-1.5,0.8-2s1.2-0.8,2-0.8l31.1,0.4v3.1h1.7l0.1-3.9v-0.8h-0.8l-31.9-0.5c-1.2,0-2.3,0.5-3.2,1.3
					c-0.8,0.8-1.3,1.9-1.3,3.1l-0.1,8.7v0.8h0.8L561.5,247.5z"/>
				<path class="st2" d="M574.5,234.2l3.6-10.4c0.1-0.3,0.3-0.7,0.5-1c0.3-0.4,0.7-0.6,1.3-0.6l13.6,0.2h0.8v0.8l-0.2,11.6h-1.7
					l0.2-10.8l-12.7-0.2l0,0l0,0l0,0c-0.1,0.1-0.2,0.3-0.2,0.5l-3.6,10.4L574.5,234.2L574.5,234.2z M579.8,223.8L579.8,223.8
					L579.8,223.8z"/>
				<path class="st2" d="M576.5,222.1c-0.5,0-0.8,0.4-0.8,0.8c0,0.5,0.4,0.8,0.8,0.8L595,224c0.5,0,0.8-0.4,0.8-0.8
					c0-0.5-0.4-0.8-0.8-0.8L576.5,222.1z"/>
				<path class="st2" d="M566.2,240.5c1.5,0,2.9,0.7,3.8,1.7c1,1,1.6,2.4,1.5,3.9c0,1.5-0.7,2.9-1.7,3.8c-1,1-2.4,1.6-3.9,1.5
					c-1.5,0-2.9-0.7-3.8-1.7c-1-1-1.6-2.4-1.5-3.9c0-1.5,0.7-2.9,1.7-3.8C563.3,241.1,564.7,240.5,566.2,240.5L566.2,240.5z
					 M568.8,243.3c-0.7-0.7-1.6-1.1-2.7-1.2s-2,0.4-2.7,1.1s-1.1,1.6-1.2,2.7c0,1.1,0.4,2,1.1,2.7c0.7,0.7,1.6,1.1,2.7,1.2
					c1.1,0,2-0.4,2.7-1.1c0.7-0.7,1.1-1.6,1.2-2.7C569.9,245,569.5,244,568.8,243.3z"/>
				<path class="st2" d="M590.3,236.2c2.1,0,4.1,0.9,5.5,2.4c1.4,1.4,2.2,3.4,2.2,5.5s-0.9,4.1-2.4,5.5c-1.4,1.4-3.4,2.2-5.5,2.2
					s-4.1-0.9-5.5-2.4c-1.4-1.4-2.2-3.4-2.2-5.5s0.9-4.1,2.4-5.5C586.2,237,588.2,236.2,590.3,236.2L590.3,236.2z M594.6,239.7
					c-1.1-1.1-2.6-1.8-4.3-1.9c-1.7,0-3.2,0.6-4.4,1.7c-1.1,1.1-1.8,2.6-1.9,4.3c0,1.7,0.6,3.2,1.7,4.4c1.1,1.1,2.6,1.8,4.3,1.9
					s3.2-0.6,4.4-1.7c1.1-1.1,1.8-2.6,1.9-4.3S595.7,240.9,594.6,239.7z"/>
				<path class="st2" d="M590.3,240.9c0.9,0,1.6,0.4,2.2,1c0.6,0.6,0.9,1.4,0.9,2.2s-0.4,1.6-1,2.2c-0.6,0.6-1.4,0.9-2.2,0.9
					c-0.9,0-1.6-0.4-2.2-1c-0.6-0.6-0.9-1.4-0.9-2.2s0.4-1.6,1-2.2C588.6,241.2,589.4,240.8,590.3,240.9L590.3,240.9z M591.3,243
					c-0.3-0.3-0.6-0.4-1-0.5s-0.8,0.2-1.1,0.4c-0.3,0.3-0.4,0.6-0.5,1c0,0.4,0.2,0.8,0.4,1.1c0.3,0.3,0.6,0.4,1,0.5
					c0.4,0,0.8-0.2,1.1-0.4c0.3-0.3,0.4-0.6,0.5-1C591.7,243.6,591.5,243.2,591.3,243z"/>
				<path class="st2" d="M566.1,243.6c0.7,0,1.2,0.3,1.7,0.7s0.7,1,0.7,1.7s-0.3,1.2-0.7,1.7c-0.4,0.4-1,0.7-1.7,0.7
					s-1.2-0.3-1.7-0.7c-0.4-0.4-0.7-1-0.7-1.7s0.3-1.2,0.7-1.7C564.9,243.8,565.5,243.6,566.1,243.6L566.1,243.6z M566.6,245.5
					c-0.1-0.1-0.3-0.2-0.5-0.2s-0.4,0.1-0.5,0.2c-0.1,0.1-0.2,0.3-0.2,0.5s0.1,0.4,0.2,0.5c0.1,0.1,0.3,0.2,0.5,0.2s0.4-0.1,0.5-0.2
					c0.1-0.1,0.2-0.3,0.2-0.5S566.7,245.6,566.6,245.5z"/>
				
					<rect x="576.4" y="228.3" transform="matrix(1.426608e-02 -0.9999 0.9999 1.426608e-02 344.3661 807.6378)" class="st2" width="10.8" height="1.7"/>
				<path class="st2" d="M563.5,234.3l0.1-6.6c0-0.7,0.3-1.4,0.8-1.9s1.2-0.8,1.9-0.8v1.7c-0.3,0-0.6,0.1-0.8,0.3s-0.3,0.5-0.3,0.8
					l-0.1,6.6L563.5,234.3z"/>
			</g>
			<g>
				<path class="st2" d="M485.6,226.7l-3.7-3.4l0.5-0.6l-0.5,0.6c-0.3-0.3-0.4-0.8-0.1-1.2c0-0.1,0.1-0.1,0.2-0.2l0.9-0.8
					c-0.1-0.3-0.1-0.3-0.1-0.3c-0.1,0-0.4,0.2-0.6,0.3c-0.9,0.5-2.1,1.3-3.9,0.8l-0.1,0.1v0.1l0.7,0.7l0,0c0.2,0.2,0.3,0.5,0.3,0.8
					v0.5H479l0,0h0.2c0,0.4-0.3,0.7-0.6,0.7c-3.8,0.9-7.1,1.6-10.4,2.1c-3.2,0.5-6.5,0.9-10.4,1.2c-0.6,0.4-1,0.7-1.2,1.1
					c-0.2,0.4-0.2,0.9-0.2,1.6c0,1,0.3,1.8,0.6,2.7c0.5,1.5,1.2,3.2,1.1,6.4l1.1,6.3l0,0l0,0c0.1,0.3,0.2,0.4,0.4,0.4
					c0.4,0,1-0.2,1.4-0.4l0,0c0.1,0,0.1-0.1,0.2-0.1l2.1-0.4l0,0l0,0c0.1,0,0.2,0,0.3-0.1c0.1,0,0.1,0,0.2,0h-0.1l0,0
					c-0.1-0.1-0.2-0.2-0.3-0.4c-0.2-0.6-0.6-1.2-0.9-1.7c-0.4-0.7-0.8-1.3-1.1-2l0.7-0.3l-0.7,0.3c-0.1-0.2-0.1-0.5,0-0.7
					c0.1-0.3,0.3-0.6,0.5-0.8c0.4-0.4,0.8-0.5,1.2-0.4c0.4,0,0.7,0.2,1,0.4l0.1,0.1c0.2-0.3,0.4-0.5,0.7-0.5c0.2,0,0.4,0,0.6,0.1
					c0.1-0.5,0.3-0.8,1.1-1.6l0.5,0.6l-0.5-0.6c0.1-0.1,0.3-0.2,0.4-0.2c5.3-1.2,6.5-1,6.9,0.8c0.1,0.4,0.1,0.8,0.1,1.2
					c0,1.1,0,2.6,1.1,4.6l1.4-0.2l0,0c0,0,0,0,0.1,0c0.3-0.1,1.5-0.3,2.2-0.6l-2.3-5.7l0,0c-0.1-0.4,0-0.8,0.2-1
					c1.5-1.5,1.9-2.7,2.2-3.8c0.5-1.6,1-3.1,4-5.1l0,0c0.1-0.1,0.2-0.1,0.3-0.1l2.3-0.6c0.1-0.1,0.1-0.3,0.1-0.4
					C485.6,226.9,485.6,226.8,485.6,226.7L485.6,226.7z M483.5,222.7l3.1,2.8c0.1,0.1,0.2,0.2,0.2,0.3l-0.7,0.4l0.7-0.4
					c0.2,0.5,0.3,1,0.3,1.4c0,0.5-0.2,0.9-0.5,1.3c-0.1,0.2-0.3,0.3-0.5,0.4l-0.2-0.8l0.2,0.8l-2.5,0.6c-2.5,1.7-2.9,2.9-3.3,4.2
					c-0.4,1.2-0.8,2.4-2.3,4l2.2,5.5c0,0.1,0.1,0.1,0.1,0.2c0.2,0.5,0,0.9-0.4,1.2l0,0l-0.4-0.7l0.4,0.7c-0.2,0.1-0.4,0.2-0.7,0.3
					c-0.8,0.3-2.1,0.6-2.5,0.7h-0.1l0,0l0,0l0,0l-1.8,0.2c-0.3,0.1-0.6-0.1-0.8-0.4l0.6-0.5l-0.6,0.5c-1.6-2.6-1.6-4.5-1.6-5.9
					c0-0.4,0-0.7-0.1-0.9c-0.1-0.5-0.9-0.4-4.9,0.5c-0.5,0.6-0.5,0.7-0.6,1.1c-0.1,0.3-0.1,0.6-0.2,1c0,0.2-0.1,0.4-0.3,0.5
					c-0.3,0.3-0.8,0.2-1.1-0.2l0,0c-0.3-0.4,0-0.6-0.2-0.6l0,0c0.1,0.4,0,0.8-0.3,1c-0.4,0.2-0.8,0.1-1-0.3l0.7-0.4l-0.7,0.4
					c-0.1-0.2-0.3-0.4-0.5-0.5c-0.1-0.1-0.2-0.1-0.3-0.2l0,0c0.2,0.5,0.5,0.9,0.8,1.4c0.4,0.6,0.7,1.2,1,1.8c1,0.9,1.1,1.6,0.7,2.2
					c-0.3,0.5-1,0.6-1.6,0.7c-0.1,0-0.2,0-0.3,0.1c0,0,0,0-0.1,0l-0.1-0.8l0.1,0.8l-2.1,0.4c-0.6,0.3-1.3,0.5-1.9,0.5
					c-0.9,0-1.7-0.4-1.9-1.7c0,0,0,0,0-0.1l0,0l0,0l0,0l-1.1-6.3c0-0.1,0-0.2,0-0.2l0,0c0.1-2.9-0.5-4.5-1-5.9
					c-0.4-1.1-0.8-2-0.7-3.4c0-0.9,0.1-1.6,0.4-2.3s0.9-1.2,1.8-1.8c0.1-0.1,0.2-0.1,0.3-0.1l0,0c3.9-0.3,7.2-0.7,10.5-1.2
					c3-0.5,6-1.1,9.4-1.9l-0.3-0.3c-0.2-0.1-0.3-0.3-0.3-0.5l0.7-0.1l-0.7,0.1c-0.1-0.5,0-1,0.3-1.5c0.2-0.4,0.6-0.7,1-0.9
					c0.2-0.1,0.3-0.1,0.5,0l-0.2,0.8l0.2-0.8c1.4,0.4,2.4-0.2,3.1-0.6c0.4-0.2,0.7-0.4,1-0.5c0.9-0.2,1.6,0.1,2,2
					c0.1,0.3,0,0.7-0.2,0.9l-0.5-0.6l0.5,0.6L483.5,222.7L483.5,222.7z M464.1,245.6c0.1-0.1,0.2-0.1,0.1,0
					C464.3,245.6,464.2,245.6,464.1,245.6L464.1,245.6z M479.6,244l-0.3,0.4l0,0L479.6,244L479.6,244z"/>
				<path class="st2" d="M462.4,247.5c0.4,0.1,0.8-0.1,0.9-0.5s-0.1-0.9-0.5-1c-0.7-0.3-1.1-0.9-1.4-1.7c-0.4-1-0.6-2.3-0.7-3.7
					c-0.1-0.5-0.4-0.8-0.8-0.7s-0.7,0.5-0.6,0.9c0.2,1.5,0.4,3,0.8,4.1C460.6,246.1,461.3,247.1,462.4,247.5z"/>
				<path class="st2" d="M455.7,232.5c0.4-0.1,0.7-0.5,0.6-1c-0.1-0.4-0.5-0.7-0.9-0.6c-1.2,0.3-1.5,1.8-1.8,3.4
					c-0.2,1.2-0.4,2.5-1,2.8c-0.4,0.2-0.5,0.7-0.4,1.1c0.2,0.4,0.6,0.6,1,0.4c1.2-0.6,1.5-2.3,1.8-4
					C455.2,233.6,455.4,232.5,455.7,232.5z"/>
				<path class="st2" d="M478,237.9c0.4-0.2,0.5-0.7,0.4-1.1c-0.2-0.4-0.6-0.6-1-0.4l-2.4,1.2l0.3,0.8l-0.3-0.8
					c-0.3,0.2-0.5,0.6-0.4,0.9c0.1,0.4,0.1,0.8,0.2,1.2s0.1,0.8,0.2,1.2c0.2,1,0.5,1.9,0.9,2.6c0.5,0.8,1.1,1.4,1.9,1.7
					c0.4,0.1,0.8-0.1,0.9-0.5s-0.1-0.9-0.5-1c-0.5-0.2-0.8-0.5-1.1-1c-0.3-0.6-0.5-1.3-0.7-2.1c-0.1-0.4-0.1-0.7-0.2-1.1
					c0-0.2-0.1-0.4-0.1-0.6L478,237.9z"/>
				<path class="st2" d="M474.5,238.3c0,0.5,0.4,0.8,0.8,0.8s0.7-0.4,0.7-0.8l-0.1-3.3c0-0.5-0.4-0.8-0.8-0.8s-0.7,0.4-0.7,0.8
					L474.5,238.3z"/>
				<polygon class="st2" points="462.3,241.8 460.1,241.5 460.3,239.8 462.5,240.1 				"/>
			</g>
		</g>
	</g>
</g>
<g class="st3">
	<path class="st4" d="M526,138.1h-8v-25.3l-7.8,2.3v-6l15-5.2h0.7V138.1z"/>
	<path class="st4" d="M557.3,124.7h3.5v6.1h-3.5v7.3h-7.9v-7.3h-13.3l-0.5-4.9l13.7-22.1v-0.1h7.9V124.7z M543.2,124.7h6.2v-10.5
		l-0.5,0.8L543.2,124.7z"/>
	<path class="st4" d="M569.3,130.4c1.3,0,2.3,0.4,3.1,1.1c0.8,0.7,1.2,1.7,1.2,2.9c0,1.2-0.4,2.1-1.2,2.9c-0.8,0.7-1.9,1.1-3.1,1.1
		c-1.3,0-2.3-0.4-3.1-1.1c-0.8-0.8-1.2-1.7-1.2-2.8c0-1.1,0.4-2.1,1.2-2.8C567,130.8,568.1,130.4,569.3,130.4z"/>
	<path class="st4" d="M599.8,124.7h3.5v6.1h-3.5v7.3h-7.9v-7.3h-13.3l-0.5-4.9l13.7-22.1v-0.1h7.9V124.7z M585.7,124.7h6.2v-10.5
		l-0.5,0.8L585.7,124.7z"/>
	<path class="st4" d="M606.8,110.4c0-2.1,0.7-3.8,2.1-5.1c1.4-1.3,3.2-2,5.6-2c2.4,0,4.2,0.6,5.6,1.9c1.4,1.3,2,3,2,5.3v1.7
		c0,2.1-0.7,3.8-2,5.1c-1.4,1.3-3.2,1.9-5.5,1.9c-2.3,0-4.2-0.6-5.6-1.9s-2.1-3-2.1-5.3V110.4z M611.9,112.2c0,0.8,0.2,1.5,0.7,2
		c0.5,0.5,1.1,0.8,1.9,0.8c1.6,0,2.5-1,2.5-3.1v-1.4c0-0.8-0.2-1.5-0.7-2c-0.4-0.5-1.1-0.8-1.9-0.8c-0.8,0-1.4,0.3-1.8,0.8
		c-0.5,0.5-0.7,1.2-0.7,2.1V112.2z M616,135.6l-3.7-1.9l16.7-26.8l3.7,1.9L616,135.6z M623.1,129.7c0-2.1,0.7-3.8,2.1-5.1
		c1.4-1.3,3.2-1.9,5.5-1.9c2.3,0,4.2,0.6,5.6,1.9c1.4,1.3,2.1,3,2.1,5.3v1.6c0,2.1-0.7,3.8-2,5.1c-1.4,1.3-3.2,1.9-5.6,1.9
		c-2.3,0-4.2-0.6-5.6-1.9c-1.4-1.3-2.1-3-2.1-5.3V129.7z M628.2,131.5c0,0.7,0.3,1.4,0.8,1.9c0.5,0.6,1.1,0.8,1.8,0.8
		c1.5,0,2.3-0.7,2.5-2.2l0-2.4c0-0.8-0.2-1.5-0.7-2s-1.1-0.8-1.9-0.8c-0.8,0-1.4,0.2-1.8,0.7c-0.5,0.5-0.7,1.1-0.7,1.9V131.5z"/>
</g>
<g>
	<g>
		<circle id="SVGID_35_" class="st5" cx="188.3" cy="202.3" r="175.5"/>
	</g>
	<g>
		<defs>
			<circle id="SVGID_3_" cx="188.3" cy="202.3" r="175.5"/>
		</defs>
		<clipPath id="SVGID_4_">
			<use xlink:href="#SVGID_3_"  style="overflow:visible;"/>
		</clipPath>
		<g class="st6">
			<g>
				<g>
					<path class="st7" d="M387.8,299.4h19.6c0.2,0,0.4-0.2,0.4-0.4c0-0.2-0.2-0.4-0.4-0.4h-19.6c-0.2,0-0.4,0.2-0.4,0.4
						C387.4,299.2,387.6,299.4,387.8,299.4z"/>
				</g>
				<g>
					<g>
						<path class="st7" d="M405.6,303.5c0.2,0,0.4-0.2,0.4-0.4V299c0-0.2-0.2-0.4-0.4-0.4c-0.2,0-0.4,0.2-0.4,0.4v4.1
							C405.2,303.3,405.4,303.5,405.6,303.5z"/>
					</g>
					<g>
						<path class="st7" d="M389.6,303.5c0.2,0,0.4-0.2,0.4-0.4V299c0-0.2-0.2-0.4-0.4-0.4c-0.2,0-0.4,0.2-0.4,0.4v4.1
							C389.2,303.3,389.4,303.5,389.6,303.5z"/>
					</g>
				</g>
				<g>
					<path class="st7" d="M390,295.9v-3.3c0-0.2,0.2-0.4,0.4-0.4h14.5c0.2,0,0.4,0.2,0.4,0.4v3.3c0,0.2-0.2,0.4-0.4,0.4h-14.5
						C390.1,296.3,390,296.1,390,295.9z M404.5,292.9h-13.7v2.5h13.7V292.9z"/>
				</g>
				<g>
					<g>
						<path class="st7" d="M402.2,299.4c0.2,0,0.4-0.2,0.4-0.4v-2.6c0-0.2-0.2-0.4-0.4-0.4c-0.2,0-0.4,0.2-0.4,0.4v2.6
							C401.8,299.2,402,299.4,402.2,299.4z"/>
					</g>
					<g>
						<path class="st7" d="M393.1,299.4c0.2,0,0.4-0.2,0.4-0.4v-2.6c0-0.2-0.2-0.4-0.4-0.4c-0.2,0-0.4,0.2-0.4,0.4v2.6
							C392.7,299.2,392.8,299.4,393.1,299.4z"/>
					</g>
				</g>
			</g>
			<g>
				<g>
					<g>
						<path class="st7" d="M6.3,301.1c0.2,0,0.4-0.2,0.4-0.4v-24.5c0-0.2-0.2-0.4-0.4-0.4s-0.4,0.2-0.4,0.4v24.5
							C5.9,300.9,6.1,301.1,6.3,301.1z"/>
					</g>
					<g>
						<path class="st7" d="M1.3,271.6c0-2.8,2.2-5,5-5s5,2.3,5,5s-2.2,5-5,5S1.3,274.4,1.3,271.6z M2.1,271.6c0,2.3,1.9,4.2,4.2,4.2
							s4.2-1.9,4.2-4.2s-1.9-4.2-4.2-4.2S2.1,269.3,2.1,271.6z"/>
					</g>
					<g>
						<path class="st7" d="M4.8,277.2h3c0.2,0,0.4-0.2,0.4-0.4c0-0.2-0.2-0.4-0.4-0.4h-3c-0.2,0-0.4,0.2-0.4,0.4
							C4.4,277.1,4.6,277.2,4.8,277.2z"/>
					</g>
					<g>
						<g>
							<path class="st7" d="M6.3,288.3c0.2,0,0.3-0.1,0.4-0.3c0.3-1.2,1.5-4.4,2.7-5c1.1-0.5,1.6-0.4,1.6-0.3c0.2,0,0.4-0.1,0.5-0.3
								c0.1-0.2-0.1-0.4-0.3-0.5c-0.1,0-0.8-0.2-2.1,0.4c-1.8,0.8-3.1,5-3.2,5.5C5.8,288,6,288.2,6.3,288.3
								C6.2,288.3,6.3,288.3,6.3,288.3z"/>
						</g>
						<g>
							<path class="st7" d="M10.7,282.5c0-1.5,1.2-2.7,2.7-2.7s2.7,1.2,2.7,2.7s-1.2,2.7-2.7,2.7S10.7,284,10.7,282.5z M11.5,282.5
								c0,1,0.8,1.9,1.9,1.9c1,0,1.9-0.9,1.9-1.9s-0.8-1.9-1.9-1.9S11.5,281.4,11.5,282.5z"/>
						</g>
						<g>
							<path class="st7" d="M10.6,283.8c0.2,0,0.4-0.2,0.4-0.4V281c0-0.2-0.2-0.4-0.4-0.4s-0.4,0.2-0.4,0.4v2.4
								C10.2,283.7,10.4,283.8,10.6,283.8z"/>
						</g>
					</g>
					<g>
						<g>
							<path class="st7" d="M6.3,288.3L6.3,288.3c0.3-0.1,0.4-0.3,0.4-0.5c-0.1-0.5-1.4-4.7-3.2-5.5c-1.3-0.6-2-0.4-2.1-0.4
								c-0.2,0.1-0.3,0.3-0.3,0.5c0.1,0.2,0.3,0.3,0.5,0.3c0,0,0.5-0.1,1.6,0.3c1.3,0.5,2.4,3.8,2.7,5
								C5.9,288.2,6.1,288.3,6.3,288.3z"/>
						</g>
						<g>
							<path class="st7" d="M-3.5,282.5c0-1.5,1.2-2.7,2.7-2.7s2.7,1.2,2.7,2.7s-1.2,2.7-2.7,2.7S-3.5,284-3.5,282.5z M-2.7,282.5
								c0,1,0.8,1.9,1.9,1.9s1.9-0.9,1.9-1.9s-0.8-1.9-1.9-1.9S-2.7,281.4-2.7,282.5z"/>
						</g>
						<g>
							<path class="st7" d="M2,283.8c0.2,0,0.4-0.2,0.4-0.4V281c0-0.2-0.2-0.4-0.4-0.4s-0.4,0.2-0.4,0.4v2.4
								C1.6,283.7,1.7,283.8,2,283.8z"/>
						</g>
					</g>
					<g>
						<path class="st7" d="M8.8,271.4c0.2,0,0.4-0.2,0.4-0.4c0-1.3-1.1-2.4-2.4-2.4c-0.2,0-0.4,0.2-0.4,0.4c0,0.2,0.2,0.4,0.4,0.4
							c0.9,0,1.6,0.7,1.6,1.6C8.4,271.2,8.6,271.4,8.8,271.4z"/>
					</g>
				</g>
				<g>
					<path class="st7" d="M3.1,303.1v-2.4c0-0.2,0.2-0.4,0.4-0.4h5.6c0.2,0,0.4,0.2,0.4,0.4v2.4c0,0.2-0.2,0.4-0.4,0.4H3.5
						C3.3,303.5,3.1,303.3,3.1,303.1z M8.7,301.1H3.9v1.6h4.8C8.7,302.7,8.7,301.1,8.7,301.1z"/>
				</g>
			</g>
			<g>
				<g>
					<path class="st7" d="M166.9,303.2c0.2,0,0.4-0.2,0.4-0.4v-10.7c0-0.2-0.2-0.4-0.4-0.4s-0.4,0.2-0.4,0.4v10.7
						C166.5,303,166.6,303.2,166.9,303.2z"/>
				</g>
				<g>
					<path class="st7" d="M163.3,292.1v-14.7c0-0.2,0.2-0.4,0.4-0.4h6.2c0.2,0,0.4,0.2,0.4,0.4v14.7c0,0.2-0.2,0.4-0.4,0.4h-6.2
						C163.5,292.5,163.3,292.4,163.3,292.1z M169.6,277.8h-5.5v13.9h5.5V277.8z"/>
				</g>
				<g>
					<path class="st7" d="M164.7,280.5c0-1.2,1-2.1,2.1-2.1c1.2,0,2.1,1,2.1,2.1c0,1.2-1,2.1-2.1,2.1S164.7,281.7,164.7,280.5z
						 M165.5,280.5c0,0.7,0.6,1.3,1.3,1.3s1.3-0.6,1.3-1.3c0-0.7-0.6-1.3-1.3-1.3S165.5,279.8,165.5,280.5z"/>
				</g>
				<g>
					<path class="st7" d="M164.7,284.7c0-1.2,1-2.1,2.1-2.1c1.2,0,2.1,1,2.1,2.1c0,1.2-1,2.1-2.1,2.1
						C165.7,286.9,164.7,285.9,164.7,284.7z M165.5,284.7c0,0.7,0.6,1.3,1.3,1.3s1.3-0.6,1.3-1.3s-0.6-1.3-1.3-1.3
						S165.5,284,165.5,284.7z"/>
				</g>
				<g>
					<path class="st7" d="M164.7,289c0-1.2,1-2.1,2.1-2.1c1.2,0,2.1,1,2.1,2.1s-1,2.1-2.1,2.1S164.7,290.1,164.7,289z M165.5,289
						c0,0.7,0.6,1.3,1.3,1.3s1.3-0.6,1.3-1.3c0-0.7-0.6-1.3-1.3-1.3S165.5,288.2,165.5,289z"/>
				</g>
			</g>
			<g>
				<g>
					<path class="st7" d="M136.5,311.6h14.4c0.2,0,0.4-0.2,0.4-0.4c0-0.2-0.2-0.4-0.4-0.4h-14.4c-0.2,0-0.4,0.2-0.4,0.4
						S136.3,311.6,136.5,311.6z"/>
				</g>
				<g>
					<path class="st7" d="M127.3,311.6h4.1c0.2,0,0.4-0.2,0.4-0.4c0-0.2-0.2-0.4-0.4-0.4h-4.1c-1,0-1.8-0.8-1.8-1.8s0.8-1.8,1.8-1.8
						h31.8c1,0,1.8,0.8,1.8,1.8s-0.8,1.8-1.8,1.8h-3.3c-0.2,0-0.4,0.2-0.4,0.4c0,0.2,0.2,0.4,0.4,0.4h3.3c1.4,0,2.6-1.2,2.6-2.6
						s-1.1-2.6-2.6-2.6h-31.8c-1.4,0-2.6,1.2-2.6,2.6C124.8,310.4,125.9,311.6,127.3,311.6z"/>
				</g>
				<g>
					<path class="st7" d="M150.5,311.4c0-1.6,1.3-2.9,2.9-2.9c1.5,0,2.8,1.2,2.9,2.7c0,0.1,0,0.1,0,0.2c0,1.6-1.3,2.9-2.9,2.9
						C151.8,314.3,150.5,313,150.5,311.4z M151.3,311.4c0,1.2,0.9,2.1,2.1,2.1c1.2,0,2.1-0.9,2.1-2.1c0-0.1,0-0.1,0-0.2
						c-0.1-1.1-1-2-2.1-2C152.2,309.3,151.3,310.2,151.3,311.4z"/>
				</g>
				<g>
					<path class="st7" d="M131.1,311.4c0-1.6,1.3-2.9,2.9-2.9c1.6,0,2.9,1.3,2.9,2.9s-1.3,2.9-2.9,2.9
						C132.4,314.3,131.1,313,131.1,311.4z M131.9,311.4c0,1.2,0.9,2.1,2.1,2.1c1.2,0,2.1-0.9,2.1-2.1s-0.9-2.1-2.1-2.1
						C132.8,309.3,131.9,310.2,131.9,311.4z"/>
				</g>
				<g>
					<path class="st7" d="M160.5,307.7c0.2,0,0.4-0.2,0.4-0.4V297c0-1.2-0.9-2.1-2.1-2.1h-22.9c-5.6,0-10.2,4.6-10.2,10.3v2
						c0,0.2,0.2,0.4,0.4,0.4c0.2,0,0.4-0.2,0.4-0.4v-2c0-5.2,4.2-9.5,9.4-9.5h22.9c0.7,0,1.3,0.6,1.3,1.3v10.3
						C160.1,307.6,160.3,307.7,160.5,307.7z"/>
				</g>
				<g>
					<path class="st7" d="M131.1,302.6V302c0-1.8,1.5-3.3,3.3-3.3h6c0.5,0,0.9,0.4,0.9,0.9v3c0,0.5-0.4,0.9-0.9,0.9H132
						C131.5,303.5,131.1,303.1,131.1,302.6z M134.4,299.5c-1.4,0-2.5,1.1-2.5,2.5v0.6c0,0.1,0,0.1,0.1,0.1h8.4c0.1,0,0.1,0,0.1-0.1
						v-3c0-0.1,0-0.1-0.1-0.1H134.4z"/>
				</g>
				<g>
					<path class="st7" d="M143.5,302.4v-2.7c0-0.6,0.5-1.1,1.1-1.1h11.5c0.6,0,1.1,0.5,1.1,1.1v2.7c0,0.6-0.5,1.1-1.1,1.1h-11.5
						C144,303.5,143.5,303,143.5,302.4z M144.6,299.5c-0.1,0-0.3,0.1-0.3,0.3v2.7c0,0.1,0.1,0.3,0.3,0.3h11.5c0.1,0,0.3-0.1,0.3-0.3
						v-2.7c0-0.1-0.1-0.3-0.3-0.3H144.6z"/>
				</g>
				<g>
					<path class="st7" d="M157.2,305.6v-1.2c0-0.4,0.3-0.7,0.7-0.7h2.4c0.4,0,0.7,0.3,0.7,0.7v1.2c0,0.4-0.3,0.7-0.7,0.7h-2.4
						C157.5,306.3,157.2,306,157.2,305.6z M160.1,304.5H158v1h2.1V304.5z"/>
				</g>
				<g>
					<path class="st7" d="M126.2,306.7c1.2,0,2.1-0.9,2.1-2.1c0-1-0.7-1.9-1.7-2.1c-0.2,0-0.4,0.1-0.5,0.3c0,0.2,0.1,0.4,0.3,0.5
						c0.6,0.1,1,0.7,1,1.3c0,0.7-0.6,1.3-1.3,1.3c-0.2,0-0.4,0.2-0.4,0.4C125.8,306.5,125.9,306.7,126.2,306.7z"/>
				</g>
			</g>
			<g>
				<g>
					<g>
						<path class="st7" d="M68.1,334.4h17.1c0.2,0,0.4-0.2,0.4-0.4c0-0.2-0.2-0.4-0.4-0.4H68.1c-0.2,0-0.4,0.2-0.4,0.4
							C67.7,334.2,67.8,334.4,68.1,334.4z"/>
					</g>
					<g>
						<path class="st7" d="M58.2,334.4h3.9c0.2,0,0.4-0.2,0.4-0.4c0-0.2-0.2-0.4-0.4-0.4h-3.9c-1.2,0-2.2-1-2.2-2.2s1-2.2,2.2-2.2
							h38c1.2,0,2.2,1,2.2,2.2s-1,2.2-2.2,2.2h-4.9c-0.2,0-0.4,0.2-0.4,0.4c0,0.2,0.2,0.4,0.4,0.4h4.9c1.6,0,3-1.3,3-3s-1.3-3-3-3
							h-38c-1.6,0-3,1.3-3,3C55.3,333,56.6,334.4,58.2,334.4z"/>
					</g>
					<g>
						<path class="st7" d="M61.7,334.2c0-0.1,0-0.2,0-0.2c0.1-1.8,1.6-3.2,3.4-3.2c1.9,0,3.4,1.5,3.4,3.4s-1.5,3.4-3.4,3.4
							C63.3,337.6,61.7,336.1,61.7,334.2z M62.5,334c0,0.1,0,0.1,0,0.2c0,1.4,1.2,2.6,2.6,2.6c1.4,0,2.6-1.2,2.6-2.6
							s-1.2-2.6-2.6-2.6C63.8,331.6,62.6,332.7,62.5,334z"/>
					</g>
					<g>
						<path class="st7" d="M84.9,334.2c0-1.9,1.5-3.4,3.4-3.4s3.4,1.5,3.4,3.4s-1.5,3.4-3.4,3.4S84.9,336.1,84.9,334.2z M85.7,334.2
							c0,1.4,1.2,2.6,2.6,2.6s2.6-1.2,2.6-2.6s-1.2-2.6-2.6-2.6C86.9,331.6,85.7,332.8,85.7,334.2z"/>
					</g>
					<g>
						<path class="st7" d="M97.7,329.7c0.2,0,0.4-0.2,0.4-0.4v-2.4c0-6.7-5.4-12.2-12.1-12.2h-5.8c-0.2,0-0.4,0.2-0.4,0.4
							c0,0.2,0.2,0.4,0.4,0.4H86c6.2,0,11.3,5.1,11.3,11.4v2.4C97.3,329.5,97.5,329.7,97.7,329.7z"/>
					</g>
					<g>
						<path class="st7" d="M83.8,323.9V320c0-0.5,0.4-0.9,0.9-0.9h3.8c1.7,0,3.2,1.4,3.2,3.2v1.5c0,0.5-0.4,0.9-0.9,0.9h-6.1
							C84.2,324.8,83.8,324.4,83.8,323.9z M84.7,320C84.6,320,84.6,320,84.7,320l-0.1,3.9c0,0,0,0.1,0.1,0.1h6.1c0,0,0.1,0,0.1-0.1
							v-1.5c0-1.3-1.1-2.4-2.4-2.4H84.7z"/>
					</g>
					<g>
						<path class="st7" d="M97.6,328.6c0.2,0,0.4-0.2,0.4-0.4c0-0.2-0.2-0.4-0.4-0.4c-0.9,0-1.6-0.7-1.6-1.6c0-0.8,0.5-1.5,1.3-1.6
							c0.2,0,0.4-0.3,0.3-0.5c0-0.2-0.3-0.4-0.5-0.3c-1.1,0.2-1.9,1.2-1.9,2.4C95.2,327.5,96.3,328.6,97.6,328.6z"/>
					</g>
				</g>
				<g>
					<path class="st7" d="M56.8,328.8v-20c0-0.2,0.2-0.4,0.4-0.4h23c0.2,0,0.4,0.2,0.4,0.4v20c0,0.2-0.2,0.4-0.4,0.4h-23
						C57,329.2,56.8,329,56.8,328.8z M79.7,309.2H57.6v19.2h22.2v-19.2H79.7z"/>
				</g>
				<g>
					<path class="st7" d="M60.6,326.6v-14c0-0.2,0.2-0.4,0.4-0.4h15.4c0.2,0,0.4,0.2,0.4,0.4v14c0,0.2-0.2,0.4-0.4,0.4H61
						C60.7,327,60.6,326.8,60.6,326.6z M76,313H61.4v13.2H76V313z"/>
				</g>
			</g>
			<g>
				<g>
					<path class="st7" d="M311.7,311h12.4c0.2,0,0.4-0.2,0.4-0.4c0-0.2-0.2-0.4-0.4-0.4h-12.4c-0.2,0-0.4,0.2-0.4,0.4
						C311.3,310.8,311.5,311,311.7,311z"/>
				</g>
				<g>
					<path class="st7" d="M301.4,311h5.4c0.2,0,0.4-0.2,0.4-0.4c0-0.2-0.2-0.4-0.4-0.4h-5.4c-0.6,0-1.1-0.5-1.1-1.1s0.5-1.1,1.1-1.1
						h33c0.6,0,1.1,0.5,1.1,1.1s-0.5,1.1-1.1,1.1H329c-0.2,0-0.4,0.2-0.4,0.4c0,0.2,0.2,0.4,0.4,0.4h5.4c1,0,1.8-0.8,1.8-1.9
						c0-1-0.8-1.9-1.8-1.9h-33c-1,0-1.8,0.8-1.8,1.9S300.4,311,301.4,311z"/>
				</g>
				<g>
					<g>
						<path class="st7" d="M323.6,311.3c0-1.6,1.3-3,2.9-3s2.9,1.3,2.9,3c0,1.6-1.3,3-2.9,3C325,314.3,323.6,313,323.6,311.3z
							 M324.4,311.3c0,1.2,1,2.2,2.1,2.2c1.2,0,2.1-1,2.1-2.2s-1-2.2-2.1-2.2C325.4,309.2,324.4,310.1,324.4,311.3z"/>
					</g>
					<g>
						<path class="st7" d="M306.3,311.3c0-1.6,1.3-3,2.9-3s2.9,1.3,2.9,3c0,1.6-1.3,3-2.9,3C307.7,314.3,306.3,313,306.3,311.3z
							 M307.1,311.3c0,1.2,1,2.2,2.1,2.2c1.2,0,2.1-1,2.1-2.2s-1-2.2-2.1-2.2C308.1,309.2,307.1,310.1,307.1,311.3z"/>
					</g>
				</g>
				<g>
					<path class="st7" d="M309.2,303.7v-0.2c0-1.7,1.4-3.1,3.1-3.1h13.3c1.3,0,2.4,1.1,2.4,2.5v0.8c0,1.4-1.1,2.5-2.4,2.5h-13.9
						C310.3,306.2,309.2,305,309.2,303.7z M312.2,301.2c-1.2,0-2.3,1-2.3,2.3v0.2c0,0.9,0.7,1.7,1.6,1.7h13.9c0.9,0,1.6-0.7,1.6-1.7
						v-0.8c0-0.9-0.7-1.7-1.6-1.7H312.2z"/>
				</g>
				<g>
					<path class="st7" d="M301.6,307.7c0-5.3,6.8-9.6,15.1-9.6l0,0l0,0h14.4c1.7,0,3,1.5,3,3.3v6.3c0,0.2-0.2,0.4-0.4,0.4H302
						C301.8,308.1,301.6,307.9,301.6,307.7z M333.4,301.3c0-1.4-1-2.5-2.2-2.5h-14.4l0,0l0,0c-7.7,0-14,3.7-14.3,8.4h31v-5.9H333.4z
						"/>
				</g>
				<g>
					<path class="st7" d="M318.6,306.2c0.2,0,0.4-0.2,0.4-0.4v-4.9c0-0.2-0.2-0.4-0.4-0.4s-0.4,0.2-0.4,0.4v4.9
						C318.2,306,318.3,306.2,318.6,306.2z"/>
				</g>
				<g>
					<path class="st7" d="M332.4,308.1h1.3c0.2,0,0.4-0.2,0.4-0.4c0-0.2-0.2-0.4-0.4-0.4h-1.3c-0.2,0-0.4-0.3-0.4-0.6
						c0-0.3,0.2-0.6,0.4-0.6h1.3c0.2,0,0.4-0.2,0.4-0.4c0-0.2-0.2-0.4-0.4-0.4h-1.3c-0.7,0-1.2,0.6-1.2,1.4
						C331.2,307.5,331.7,308.1,332.4,308.1z"/>
				</g>
				<g>
					<path class="st7" d="M302,307.8c1.4,0,2.6-1.1,2.6-2.4c0-0.8-0.3-1.5-0.9-1.9c-0.2-0.1-0.4-0.1-0.6,0.1
						c-0.1,0.2-0.1,0.4,0.1,0.6c0.4,0.3,0.6,0.8,0.6,1.3c0,0.9-1,1.6-1.9,1.6c-0.2,0-0.4,0.2-0.4,0.4
						C301.6,307.6,301.8,307.8,302,307.8z"/>
				</g>
			</g>
			<g>
				<g>
					<g>
						<path class="st7" d="M106.1,318.8c0-0.2,0.2-0.4,0.4-0.4h9.5c0.2,0,0.4,0.2,0.4,0.4c0,0.2-0.2,0.4-0.4,0.4h-9.5
							C106.3,319.2,106.1,319,106.1,318.8z M125.1,318.8c0-0.2,0.2-0.4,0.4-0.4h9.5c0.2,0,0.4,0.2,0.4,0.4c0,0.2-0.2,0.4-0.4,0.4
							h-9.5C125.3,319.2,125.1,319,125.1,318.8z M144,318.8c0-0.2,0.2-0.4,0.4-0.4h9.5c0.2,0,0.4,0.2,0.4,0.4c0,0.2-0.2,0.4-0.4,0.4
							h-9.5C144.2,319.2,144,319,144,318.8z M163,318.8c0-0.2,0.2-0.4,0.4-0.4h9.5c0.2,0,0.4,0.2,0.4,0.4c0,0.2-0.2,0.4-0.4,0.4
							h-9.5C163.2,319.2,163,319,163,318.8z M181.9,318.8c0-0.2,0.2-0.4,0.4-0.4h9.5c0.2,0,0.4,0.2,0.4,0.4c0,0.2-0.2,0.4-0.4,0.4
							h-9.5C182.1,319.2,181.9,319,181.9,318.8z M200.9,318.8c0-0.2,0.2-0.4,0.4-0.4h9.5c0.2,0,0.4,0.2,0.4,0.4
							c0,0.2-0.2,0.4-0.4,0.4h-9.5C201,319.2,200.9,319,200.9,318.8z M219.8,318.8c0-0.2,0.2-0.4,0.4-0.4h9.5c0.2,0,0.4,0.2,0.4,0.4
							c0,0.2-0.2,0.4-0.4,0.4h-9.5C220,319.2,219.8,319,219.8,318.8z M238.8,318.8c0-0.2,0.2-0.4,0.4-0.4h9.5c0.2,0,0.4,0.2,0.4,0.4
							c0,0.2-0.2,0.4-0.4,0.4h-9.5C238.9,319.2,238.8,319,238.8,318.8z M257.7,318.8c0-0.2,0.2-0.4,0.4-0.4h9.5
							c0.2,0,0.4,0.2,0.4,0.4c0,0.2-0.2,0.4-0.4,0.4h-9.5C257.9,319.2,257.7,319,257.7,318.8z M276.7,318.8c0-0.2,0.2-0.4,0.4-0.4
							h9.5c0.2,0,0.4,0.2,0.4,0.4c0,0.2-0.2,0.4-0.4,0.4h-9.5C276.8,319.2,276.7,319,276.7,318.8z M295.6,318.8
							c0-0.2,0.2-0.4,0.4-0.4h9.5c0.2,0,0.4,0.2,0.4,0.4c0,0.2-0.2,0.4-0.4,0.4H296C295.8,319.2,295.6,319,295.6,318.8z
							 M314.5,318.8c0-0.2,0.2-0.4,0.4-0.4h9.5c0.2,0,0.4,0.2,0.4,0.4c0,0.2-0.2,0.4-0.4,0.4h-9.5
							C314.7,319.2,314.5,319,314.5,318.8z M333.5,318.8c0-0.2,0.2-0.4,0.4-0.4h9.5c0.2,0,0.4,0.2,0.4,0.4c0,0.2-0.2,0.4-0.4,0.4
							h-9.5C333.7,319.2,333.5,319,333.5,318.8z M352.4,318.8c0-0.2,0.2-0.4,0.4-0.4h9.5c0.2,0,0.4,0.2,0.4,0.4
							c0,0.2-0.2,0.4-0.4,0.4h-9.5C352.6,319.2,352.4,319,352.4,318.8z M371.4,318.8c0-0.2,0.2-0.4,0.4-0.4h9.5
							c0.2,0,0.4,0.2,0.4,0.4c0,0.2-0.2,0.4-0.4,0.4h-9.5C371.6,319.2,371.4,319,371.4,318.8z M390.3,318.8c0-0.2,0.2-0.4,0.4-0.4
							h9.5c0.2,0,0.4,0.2,0.4,0.4c0,0.2-0.2,0.4-0.4,0.4h-9.5C390.5,319.2,390.3,319,390.3,318.8z"/>
					</g>
				</g>
				<g>
					<g>
						<path class="st7" d="M11,318.8c0-0.2,0.2-0.4,0.4-0.4H16c0.2,0,0.4,0.2,0.4,0.4c0,0.2-0.2,0.4-0.4,0.4h-4.6
							C11.2,319.2,11,319,11,318.8z M25.1,318.8c0-0.2,0.2-0.4,0.4-0.4H35c0.2,0,0.4,0.2,0.4,0.4c0,0.2-0.2,0.4-0.4,0.4h-9.5
							C25.3,319.2,25.1,319,25.1,318.8z M44,318.8c0-0.2,0.2-0.4,0.4-0.4h9.5c0.2,0,0.4,0.2,0.4,0.4c0,0.2-0.2,0.4-0.4,0.4h-9.5
							C44.2,319.2,44,319,44,318.8z"/>
					</g>
				</g>
			</g>
			<g>
				<g>
					<g>
						<path class="st7" d="M81.8,303.5h44.1c0.2,0,0.4-0.2,0.4-0.4c0-0.2-0.2-0.4-0.4-0.4H82.2v-52.4h70.2v44.8
							c0,0.2,0.2,0.4,0.4,0.4s0.4-0.2,0.4-0.4v-45.2c0-0.2-0.2-0.4-0.4-0.4h-71c-0.2,0-0.4,0.2-0.4,0.4v53.2
							C81.4,303.3,81.6,303.5,81.8,303.5z"/>
					</g>
					<g>
						<path class="st7" d="M22.8,303.5h59c0.2,0,0.4-0.2,0.4-0.4v-53c0-0.2-0.2-0.4-0.4-0.4c-0.2,0-0.4,0.2-0.4,0.4v52.6H23.2V192.4
							h58.2v42.5c0,0.2,0.2,0.4,0.4,0.4c0.2,0,0.4-0.2,0.4-0.4V192c0-0.2-0.2-0.4-0.4-0.4h-59c-0.2,0-0.4,0.2-0.4,0.4v111.1
							C22.4,303.3,22.6,303.5,22.8,303.5z"/>
					</g>
					<g>
						<path class="st7" d="M81.4,249.9v-15c0-0.2,0.2-0.4,0.4-0.4h70.3c0.1,0,0.3,0.1,0.3,0.2l10,15c0.1,0.1,0.1,0.3,0,0.4
							c-0.1,0.1-0.2,0.2-0.4,0.2H81.8C81.6,250.3,81.4,250.1,81.4,249.9z M152,235.3H82.2v14.2h79.2L152,235.3z"/>
					</g>
					<g>
						<path class="st7" d="M93.8,221c-0.1-0.1-0.1-0.3,0-0.4l4.6-10.3c0.1-0.1,0.2-0.2,0.4-0.2h36.7c0.1,0,0.3,0.1,0.4,0.2l5.2,10.3
							c0.1,0.1,0.1,0.3,0,0.4c-0.1,0.1-0.2,0.2-0.3,0.2H94.1C94,221.2,93.8,221.1,93.8,221z M135.1,210.9H99l-4.2,9.5H140
							L135.1,210.9z"/>
					</g>
					<g>
						<path class="st7" d="M109.4,303.1v-18.6c0-0.2,0.2-0.4,0.4-0.4h15c0.2,0,0.4,0.2,0.4,0.4v18.6c0,0.2-0.2,0.4-0.4,0.4h-15
							C109.6,303.5,109.4,303.3,109.4,303.1z M124.4,284.9h-14.2v17.8h14.2V284.9z"/>
					</g>
					<g>
						<path class="st7" d="M117.3,303.5c0.2,0,0.4-0.2,0.4-0.4v-14.2c0-0.2-0.2-0.4-0.4-0.4c-0.2,0-0.4,0.2-0.4,0.4v14.2
							C116.9,303.3,117.1,303.5,117.3,303.5z"/>
					</g>
					<g>
						<g>
							<path class="st7" d="M85.9,302.7v-22.9c0-4.5,3.6-8.2,8.1-8.2h1c4.5,0,8.1,3.7,8.1,8.2v22.9c0,0.4-0.3,0.8-0.8,0.8H86.7
								C86.3,303.5,85.9,303.1,85.9,302.7z M94,272.5c-4,0-7.3,3.3-7.3,7.4v22.8h15.6v-22.9c0-4.1-3.3-7.4-7.3-7.4h-1V272.5z"/>
						</g>
						<g>
							<path class="st7" d="M132,296.6c0.2,0,0.4-0.2,0.4-0.4v-16.3c0-4.1,3.3-7.4,7.3-7.4h0.9c4,0,7.3,3.3,7.3,7.4v15.5
								c0,0.2,0.2,0.4,0.4,0.4s0.4-0.2,0.4-0.4v-15.5c0-4.5-3.6-8.2-8.1-8.2h-0.9c-4.5,0-8.1,3.7-8.1,8.2v16.3
								C131.6,296.4,131.8,296.6,132,296.6z"/>
						</g>
					</g>
					<g>
						<g>
							<path class="st7" d="M54.3,302.6V292c0-2.7,2.2-4.9,4.8-4.9h0.8c2.7,0,4.8,2.2,4.8,4.9v10.6c0,0.5-0.4,0.9-0.9,0.9h-8.7
								C54.7,303.5,54.3,303.1,54.3,302.6z M59.1,288c-2.2,0-4,1.8-4,4.1v10.6c0,0,0,0.1,0.1,0.1h8.7c0,0,0.1,0,0.1-0.1V292
								c0-2.2-1.8-4.1-4-4.1h-0.9V288z"/>
						</g>
					</g>
					<g>
						<g>
							<path class="st7" d="M40,302.6V292c0-2.7,2.2-4.9,4.8-4.9h0.8c2.7,0,4.8,2.2,4.8,4.9v10.6c0,0.5-0.4,0.9-0.9,0.9h-8.7
								C40.4,303.5,40,303.1,40,302.6z M44.8,288c-2.2,0-4,1.8-4,4.1v10.6c0,0,0,0.1,0.1,0.1h8.7c0,0,0.1,0,0.1-0.1V292
								c0-2.2-1.8-4.1-4-4.1h-0.9V288z"/>
						</g>
					</g>
					<g>
						<path class="st7" d="M107.5,284.3v-3.7c0-0.2,0.2-0.4,0.4-0.4h18.9c0.2,0,0.4,0.2,0.4,0.4v3.7c0,0.2-0.2,0.4-0.4,0.4h-18.9
							C107.7,284.7,107.5,284.6,107.5,284.3z M126.4,281.1h-18.1v2.9h18.1V281.1z"/>
					</g>
					<g>
						<path class="st7" d="M113.3,277.2v-7.3c0-0.2,0.2-0.4,0.4-0.4h7.3c0.2,0,0.4,0.2,0.4,0.4v7.3c0,0.2-0.2,0.4-0.4,0.4h-7.3
							C113.5,277.6,113.3,277.4,113.3,277.2z M120.6,270.2h-6.5v6.5h6.5V270.2z"/>
					</g>
					<g>
						<path class="st7" d="M113.3,231.5v-7.3c0-0.2,0.2-0.4,0.4-0.4h7.3c0.2,0,0.4,0.2,0.4,0.4v7.3c0,0.2-0.2,0.4-0.4,0.4h-7.3
							C113.5,231.9,113.3,231.7,113.3,231.5z M120.6,224.6h-6.5v6.5h6.5V224.6z"/>
					</g>
					<g>
						<path class="st7" d="M70.1,210v-7.3c0-0.2,0.2-0.4,0.4-0.4h6.6c0.2,0,0.4,0.2,0.4,0.4v7.3c0,0.2-0.2,0.4-0.4,0.4h-6.6
							C70.3,210.4,70.1,210.3,70.1,210z M76.7,203.1h-5.9v6.5h5.9V203.1z"/>
					</g>
					<g>
						<path class="st7" d="M57.1,210v-7.3c0-0.2,0.2-0.4,0.4-0.4h6.6c0.2,0,0.4,0.2,0.4,0.4v7.3c0,0.2-0.2,0.4-0.4,0.4h-6.6
							C57.3,210.4,57.1,210.3,57.1,210z M63.7,203.1h-5.9v6.5h5.9V203.1z"/>
					</g>
					<g>
						<path class="st7" d="M40.2,210v-7.3c0-0.2,0.2-0.4,0.4-0.4h6.6c0.2,0,0.4,0.2,0.4,0.4v7.3c0,0.2-0.2,0.4-0.4,0.4h-6.6
							C40.4,210.4,40.2,210.3,40.2,210z M46.8,203.1H41v6.5h5.9v-6.5H46.8z"/>
					</g>
					<g>
						<path class="st7" d="M27.2,210v-7.3c0-0.2,0.2-0.4,0.4-0.4h6.6c0.2,0,0.4,0.2,0.4,0.4v7.3c0,0.2-0.2,0.4-0.4,0.4h-6.6
							C27.4,210.4,27.2,210.3,27.2,210z M33.8,203.1H28v6.5h5.9v-6.5H33.8z"/>
					</g>
					<g>
						<path class="st7" d="M70.1,224.4v-7.3c0-0.2,0.2-0.4,0.4-0.4h6.6c0.2,0,0.4,0.2,0.4,0.4v7.3c0,0.2-0.2,0.4-0.4,0.4h-6.6
							C70.3,224.8,70.1,224.6,70.1,224.4z M76.7,217.5h-5.9v6.5h5.9V217.5z"/>
					</g>
					<g>
						<path class="st7" d="M57.1,224.4v-7.3c0-0.2,0.2-0.4,0.4-0.4h6.6c0.2,0,0.4,0.2,0.4,0.4v7.3c0,0.2-0.2,0.4-0.4,0.4h-6.6
							C57.3,224.8,57.1,224.6,57.1,224.4z M63.7,217.5h-5.9v6.5h5.9V217.5z"/>
					</g>
					<g>
						<path class="st7" d="M40.2,224.4v-7.3c0-0.2,0.2-0.4,0.4-0.4h6.6c0.2,0,0.4,0.2,0.4,0.4v7.3c0,0.2-0.2,0.4-0.4,0.4h-6.6
							C40.4,224.8,40.2,224.6,40.2,224.4z M46.8,217.5H41v6.5h5.9v-6.5H46.8z"/>
					</g>
					<g>
						<path class="st7" d="M27.2,224.4v-7.3c0-0.2,0.2-0.4,0.4-0.4h6.6c0.2,0,0.4,0.2,0.4,0.4v7.3c0,0.2-0.2,0.4-0.4,0.4h-6.6
							C27.4,224.8,27.2,224.6,27.2,224.4z M33.8,217.5H28v6.5h5.9v-6.5H33.8z"/>
					</g>
					<g>
						<path class="st7" d="M70.1,238.8v-7.3c0-0.2,0.2-0.4,0.4-0.4h6.6c0.2,0,0.4,0.2,0.4,0.4v7.3c0,0.2-0.2,0.4-0.4,0.4h-6.6
							C70.3,239.2,70.1,239,70.1,238.8z M76.7,231.8h-5.9v6.5h5.9V231.8z"/>
					</g>
					<g>
						<path class="st7" d="M57.1,238.8v-7.3c0-0.2,0.2-0.4,0.4-0.4h6.6c0.2,0,0.4,0.2,0.4,0.4v7.3c0,0.2-0.2,0.4-0.4,0.4h-6.6
							C57.3,239.2,57.1,239,57.1,238.8z M63.7,231.8h-5.9v6.5h5.9V231.8z"/>
					</g>
					<g>
						<path class="st7" d="M40.2,238.8v-7.3c0-0.2,0.2-0.4,0.4-0.4h6.6c0.2,0,0.4,0.2,0.4,0.4v7.3c0,0.2-0.2,0.4-0.4,0.4h-6.6
							C40.4,239.2,40.2,239,40.2,238.8z M46.8,231.8H41v6.5h5.9v-6.5H46.8z"/>
					</g>
					<g>
						<path class="st7" d="M27.2,238.8v-7.3c0-0.2,0.2-0.4,0.4-0.4h6.6c0.2,0,0.4,0.2,0.4,0.4v7.3c0,0.2-0.2,0.4-0.4,0.4h-6.6
							C27.4,239.2,27.2,239,27.2,238.8z M33.8,231.8H28v6.5h5.9v-6.5H33.8z"/>
					</g>
					<g>
						<path class="st7" d="M57.1,253.1v-7.3c0-0.2,0.2-0.4,0.4-0.4h6.6c0.2,0,0.4,0.2,0.4,0.4v7.3c0,0.2-0.2,0.4-0.4,0.4h-6.6
							C57.3,253.5,57.1,253.3,57.1,253.1z M63.7,246.2h-5.9v6.5h5.9V246.2z"/>
					</g>
					<g>
						<path class="st7" d="M70.1,253.1v-7.3c0-0.2,0.2-0.4,0.4-0.4h6.6c0.2,0,0.4,0.2,0.4,0.4v7.3c0,0.2-0.2,0.4-0.4,0.4h-6.6
							C70.3,253.5,70.1,253.3,70.1,253.1z M76.7,246.2h-5.9v6.5h5.9V246.2z"/>
					</g>
					<g>
						<path class="st7" d="M40.2,253.1v-7.3c0-0.2,0.2-0.4,0.4-0.4h6.6c0.2,0,0.4,0.2,0.4,0.4v7.3c0,0.2-0.2,0.4-0.4,0.4h-6.6
							C40.4,253.5,40.2,253.3,40.2,253.1z M46.8,246.2H41v6.5h5.9v-6.5H46.8z"/>
					</g>
					<g>
						<path class="st7" d="M27.2,253.1v-7.3c0-0.2,0.2-0.4,0.4-0.4h6.6c0.2,0,0.4,0.2,0.4,0.4v7.3c0,0.2-0.2,0.4-0.4,0.4h-6.6
							C27.4,253.5,27.2,253.3,27.2,253.1z M33.8,246.2H28v6.5h5.9v-6.5H33.8z"/>
					</g>
					<g>
						<path class="st7" d="M70.1,267.5v-7.3c0-0.2,0.2-0.4,0.4-0.4h6.6c0.2,0,0.4,0.2,0.4,0.4v7.3c0,0.2-0.2,0.4-0.4,0.4h-6.6
							C70.3,267.9,70.1,267.7,70.1,267.5z M76.7,260.6h-5.9v6.5h5.9V260.6z"/>
					</g>
					<g>
						<path class="st7" d="M57.1,267.5v-7.3c0-0.2,0.2-0.4,0.4-0.4h6.6c0.2,0,0.4,0.2,0.4,0.4v7.3c0,0.2-0.2,0.4-0.4,0.4h-6.6
							C57.3,267.9,57.1,267.7,57.1,267.5z M63.7,260.6h-5.9v6.5h5.9V260.6z"/>
					</g>
					<g>
						<path class="st7" d="M40.2,267.5v-7.3c0-0.2,0.2-0.4,0.4-0.4h6.6c0.2,0,0.4,0.2,0.4,0.4v7.3c0,0.2-0.2,0.4-0.4,0.4h-6.6
							C40.4,267.9,40.2,267.7,40.2,267.5z M46.8,260.6H41v6.5h5.9v-6.5H46.8z"/>
					</g>
					<g>
						<path class="st7" d="M27.2,267.5v-7.3c0-0.2,0.2-0.4,0.4-0.4h6.6c0.2,0,0.4,0.2,0.4,0.4v7.3c0,0.2-0.2,0.4-0.4,0.4h-6.6
							C27.4,267.9,27.2,267.7,27.2,267.5z M33.8,260.6H28v6.5h5.9v-6.5H33.8z"/>
					</g>
					<g>
						<path class="st7" d="M70.1,281.9v-7.3c0-0.2,0.2-0.4,0.4-0.4h6.6c0.2,0,0.4,0.2,0.4,0.4v7.3c0,0.2-0.2,0.4-0.4,0.4h-6.6
							C70.3,282.3,70.1,282.1,70.1,281.9z M76.7,274.9h-5.9v6.5h5.9V274.9z"/>
					</g>
					<g>
						<path class="st7" d="M57.1,281.9v-7.3c0-0.2,0.2-0.4,0.4-0.4h6.6c0.2,0,0.4,0.2,0.4,0.4v7.3c0,0.2-0.2,0.4-0.4,0.4h-6.6
							C57.3,282.3,57.1,282.1,57.1,281.9z M63.7,274.9h-5.9v6.5h5.9V274.9z"/>
					</g>
					<g>
						<path class="st7" d="M40.2,281.9v-7.3c0-0.2,0.2-0.4,0.4-0.4h6.6c0.2,0,0.4,0.2,0.4,0.4v7.3c0,0.2-0.2,0.4-0.4,0.4h-6.6
							C40.4,282.3,40.2,282.1,40.2,281.9z M46.8,274.9H41v6.5h5.9v-6.5H46.8z"/>
					</g>
					<g>
						<path class="st7" d="M27.2,281.9v-7.3c0-0.2,0.2-0.4,0.4-0.4h6.6c0.2,0,0.4,0.2,0.4,0.4v7.3c0,0.2-0.2,0.4-0.4,0.4h-6.6
							C27.4,282.3,27.2,282.1,27.2,281.9z M33.8,274.9H28v6.5h5.9v-6.5H33.8z"/>
					</g>
					<g>
						<g>
							<path class="st7" d="M136.9,264.4V257c0-0.2,0.2-0.4,0.4-0.4h7.5c0.2,0,0.4,0.2,0.4,0.4v7.3c0,0.2-0.2,0.4-0.4,0.4h-7.5
								C137,264.8,136.9,264.6,136.9,264.4z M144.4,257.4h-6.7v6.5h6.7V257.4z"/>
						</g>
						<g>
							<path class="st7" d="M121.1,264.4V257c0-0.2,0.2-0.4,0.4-0.4h7.5c0.2,0,0.4,0.2,0.4,0.4v7.3c0,0.2-0.2,0.4-0.4,0.4h-7.5
								C121.2,264.8,121.1,264.6,121.1,264.4z M128.6,257.4h-6.7v6.5h6.7V257.4z"/>
						</g>
						<g>
							<path class="st7" d="M105.3,264.4V257c0-0.2,0.2-0.4,0.4-0.4h7.5c0.2,0,0.4,0.2,0.4,0.4v7.3c0,0.2-0.2,0.4-0.4,0.4h-7.5
								C105.5,264.8,105.3,264.6,105.3,264.4z M112.8,257.4h-6.7v6.5h6.7V257.4z"/>
						</g>
						<g>
							<path class="st7" d="M89.5,264.4V257c0-0.2,0.2-0.4,0.4-0.4h7.5c0.2,0,0.4,0.2,0.4,0.4v7.3c0,0.2-0.2,0.4-0.4,0.4h-7.5
								C89.7,264.8,89.5,264.6,89.5,264.4z M97,257.4h-6.7v6.5H97V257.4z"/>
						</g>
					</g>
					<g>
						<path class="st7" d="M137.3,295.8c0.2,0,0.4-0.2,0.4-0.4V288h5.2v7.4c0,0.2,0.2,0.4,0.4,0.4s0.4-0.2,0.4-0.4v-7.8
							c0-0.2-0.2-0.4-0.4-0.4h-6c-0.2,0-0.4,0.2-0.4,0.4v7.8C136.9,295.6,137,295.8,137.3,295.8z"/>
					</g>
					<g>
						<path class="st7" d="M91.1,303.1v-15.5c0-0.2,0.2-0.4,0.4-0.4h6c0.2,0,0.4,0.2,0.4,0.4v15.5c0,0.2-0.2,0.4-0.4,0.4h-6
							C91.3,303.5,91.1,303.3,91.1,303.1z M97.1,288h-5.2v14.7h5.2V288z"/>
					</g>
					<g>
						<path class="st7" d="M100.4,234.9v-14.1c0-0.2,0.2-0.4,0.4-0.4h33c0.2,0,0.4,0.2,0.4,0.4v14.1c0,0.2-0.2,0.4-0.4,0.4h-33
							C100.6,235.3,100.4,235.1,100.4,234.9z M133.4,221.2h-32.2v13.3h32.2V221.2z"/>
					</g>
					<g>
						<path class="st7" d="M22.8,198h59c0.2,0,0.4-0.2,0.4-0.4s-0.2-0.4-0.4-0.4h-59c-0.2,0-0.4,0.2-0.4,0.4
							C22.4,197.8,22.6,198,22.8,198z"/>
					</g>
					<g>
						<path class="st7" d="M68.1,298.8h13.7c0.2,0,0.4-0.2,0.4-0.4c0-0.2-0.2-0.4-0.4-0.4H68.1c-0.2,0-0.4,0.2-0.4,0.4
							C67.7,298.7,67.9,298.8,68.1,298.8z"/>
					</g>
					<g>
						<path class="st7" d="M22.8,298.8h13.7c0.2,0,0.4-0.2,0.4-0.4c0-0.2-0.2-0.4-0.4-0.4H22.8c-0.2,0-0.4,0.2-0.4,0.4
							C22.4,298.7,22.6,298.8,22.8,298.8z"/>
					</g>
					<g>
						<path class="st7" d="M52.3,282.2c0.2,0,0.4-0.2,0.4-0.4v-79.1c0-0.2-0.2-0.4-0.4-0.4s-0.4,0.2-0.4,0.4v79.1
							C51.9,282.1,52.1,282.2,52.3,282.2z"/>
					</g>
					<g>
						<path class="st7" d="M59.5,303.5c0.2,0,0.4-0.2,0.4-0.4V296c0-0.2-0.2-0.4-0.4-0.4s-0.4,0.2-0.4,0.4v7.1
							C59.1,303.3,59.3,303.5,59.5,303.5z"/>
					</g>
					<g>
						<path class="st7" d="M45.2,303.5c0.2,0,0.4-0.2,0.4-0.4V296c0-0.2-0.2-0.4-0.4-0.4s-0.4,0.2-0.4,0.4v7.1
							C44.8,303.3,45,303.5,45.2,303.5z"/>
					</g>
					<g>
						<path class="st7" d="M139.8,246.3v-5c0-0.2,0.2-0.4,0.4-0.4h8.2c0.2,0,0.4,0.2,0.4,0.4v5c0,0.2-0.2,0.4-0.4,0.4h-8.2
							C139.9,246.7,139.8,246.5,139.8,246.3z M147.9,241.7h-7.4v4.1h7.4V241.7z"/>
					</g>
					<g>
						<path class="st7" d="M84.2,246.3v-5c0-0.2,0.2-0.4,0.4-0.4h8.2c0.2,0,0.4,0.2,0.4,0.4v5c0,0.2-0.2,0.4-0.4,0.4h-8.2
							C84.4,246.7,84.2,246.5,84.2,246.3z M92.4,241.7H85v4.1h7.4V241.7z"/>
					</g>
				</g>
			</g>
			<g>
				<g>
					<path class="st7" d="M218.5,303.1v-98.8c0-0.2,0.1-0.3,0.3-0.4l39.7-13.8c0.1,0,0.3,0,0.4,0.1s0.2,0.2,0.2,0.3v112.6
						c0,0.2-0.2,0.4-0.4,0.4H219C218.6,303.5,218.5,303.3,218.5,303.1z M258.1,191l-38.9,13.5v98.1h38.9V191z"/>
				</g>
				<g>
					<g>
						<path class="st7" d="M334,303.5h34.8c0.2,0,0.4-0.2,0.4-0.4v-88.3c0-0.2-0.2-0.4-0.4-0.4h-39.7c-0.2,0-0.4,0.2-0.4,0.4v83.5
							c0,0.2,0.2,0.4,0.4,0.4s0.4-0.2,0.4-0.4v-83.1h38.9v87.5H334c-0.2,0-0.4,0.2-0.4,0.4C333.6,303.3,333.7,303.5,334,303.5z"/>
					</g>
					<g>
						<g>
							<path class="st7" d="M362,303.5c0.2,0,0.4-0.2,0.4-0.4v-76.3c0-0.2-0.2-0.4-0.4-0.4c-0.2,0-0.4,0.2-0.4,0.4v76.3
								C361.6,303.3,361.8,303.5,362,303.5z"/>
						</g>
						<g>
							<path class="st7" d="M353.3,303.5c0.2,0,0.4-0.2,0.4-0.4v-76.3c0-0.2-0.2-0.4-0.4-0.4c-0.2,0-0.4,0.2-0.4,0.4v76.3
								C352.9,303.3,353,303.5,353.3,303.5z"/>
						</g>
						<g>
							<path class="st7" d="M344.5,303.5c0.2,0,0.4-0.2,0.4-0.4v-76.3c0-0.2-0.2-0.4-0.4-0.4c-0.2,0-0.4,0.2-0.4,0.4v76.3
								C344.1,303.3,344.3,303.5,344.5,303.5z"/>
						</g>
						<g>
							<path class="st7" d="M335.8,303.5c0.2,0,0.4-0.2,0.4-0.4v-76.3c0-0.2-0.2-0.4-0.4-0.4c-0.2,0-0.4,0.2-0.4,0.4v76.3
								C335.4,303.3,335.6,303.5,335.8,303.5z"/>
						</g>
					</g>
					<g>
						<path class="st7" d="M329.1,220.2h39.7c0.2,0,0.4-0.2,0.4-0.4s-0.2-0.4-0.4-0.4h-39.7c-0.2,0-0.4,0.2-0.4,0.4
							S328.8,220.2,329.1,220.2z"/>
					</g>
					<g>
						<path class="st7" d="M340.4,303.5c0.2,0,0.4-0.2,0.4-0.4v-38.2c0-0.2-0.2-0.4-0.4-0.4c-0.2,0-0.4,0.2-0.4,0.4v38.2
							C340,303.3,340.2,303.5,340.4,303.5z"/>
					</g>
					<g>
						<path class="st7" d="M357.7,303.5c0.2,0,0.4-0.2,0.4-0.4v-38.2c0-0.2-0.2-0.4-0.4-0.4c-0.2,0-0.4,0.2-0.4,0.4v38.2
							C357.3,303.3,357.5,303.5,357.7,303.5z"/>
					</g>
					<g>
						<path class="st7" d="M357.7,244.2c0.2,0,0.4-0.2,0.4-0.4v-23.5c0-0.2-0.2-0.4-0.4-0.4c-0.2,0-0.4,0.2-0.4,0.4v23.5
							C357.3,244,357.5,244.2,357.7,244.2z"/>
					</g>
					<g>
						<path class="st7" d="M340.4,244.2c0.2,0,0.4-0.2,0.4-0.4v-23.5c0-0.2-0.2-0.4-0.4-0.4c-0.2,0-0.4,0.2-0.4,0.4v23.5
							C340,244,340.2,244.2,340.4,244.2z"/>
					</g>
				</g>
				<g>
					<g>
						<path class="st7" d="M264.4,303.5h38.1c0.2,0,0.4-0.2,0.4-0.4c0-0.2-0.2-0.4-0.4-0.4h-37.7V157h58v141.4
							c0,0.2,0.2,0.4,0.4,0.4c0.2,0,0.4-0.2,0.4-0.4V156.6c0-0.2-0.2-0.4-0.4-0.4h-58.8c-0.2,0-0.4,0.2-0.4,0.4v146.5
							C264,303.3,264.1,303.5,264.4,303.5z"/>
					</g>
					<g>
						<path class="st7" d="M277.4,156.6v-16.1c0-5,4-9,8.9-9h15c4.9,0,8.9,4,8.9,9v16.1c0,0.2-0.2,0.4-0.4,0.4h-32
							C277.6,157,277.4,156.8,277.4,156.6z M309.4,140.4c0-4.5-3.6-8.2-8.1-8.2h-15c-4.5,0-8.1,3.7-8.1,8.2v15.7h31.2V140.4z"/>
					</g>
					<g>
						<path class="st7" d="M285.7,142.8v-2.2c0-2.7,2.2-4.8,4.8-4.8h6.6c2.6,0,4.8,2.2,4.8,4.8v2.2c0,0.2-0.2,0.4-0.4,0.4h-15.4
							C285.9,143.2,285.7,143,285.7,142.8z M301.1,140.6c0-2.2-1.8-4-4-4h-6.6c-2.2,0-4,1.8-4,4v1.8h14.6V140.6z"/>
					</g>
					<g>
						<path class="st7" d="M287.4,303.1v-7.7c0-3.3,2.6-5.9,5.9-5.9h0.9c3.2,0,5.9,2.7,5.9,5.9v7.7c0,0.2-0.2,0.4-0.4,0.4h-11.8
							C287.6,303.5,287.4,303.3,287.4,303.1z M299.3,295.4c0-2.8-2.3-5.1-5.1-5.1h-0.9c-2.8,0-5.1,2.3-5.1,5.1v7.3h11v-7.3H299.3z"
							/>
					</g>
					<g>
						<path class="st7" d="M299.4,152.4v-5c0-0.2,0.2-0.4,0.4-0.4h5.6c0.2,0,0.4,0.2,0.4,0.4v5c0,0.2-0.2,0.4-0.4,0.4h-5.6
							C299.6,152.8,299.4,152.7,299.4,152.4z M304.9,147.8h-4.8v4.2h4.8V147.8z"/>
					</g>
					<g>
						<path class="st7" d="M290.6,152.4v-5c0-0.2,0.2-0.4,0.4-0.4h5.6c0.2,0,0.4,0.2,0.4,0.4v5c0,0.2-0.2,0.4-0.4,0.4H291
							C290.8,152.8,290.6,152.7,290.6,152.4z M296.1,147.8h-4.8v4.2h4.8V147.8z"/>
					</g>
					<g>
						<path class="st7" d="M281.8,152.4v-5c0-0.2,0.2-0.4,0.4-0.4h5.6c0.2,0,0.4,0.2,0.4,0.4v5c0,0.2-0.2,0.4-0.4,0.4h-5.6
							C282,152.8,281.8,152.7,281.8,152.4z M287.3,147.8h-4.8v4.2h4.8V147.8z"/>
					</g>
					<g>
						<g>
							<path class="st7" d="M314.5,299c0.2,0,0.4-0.2,0.4-0.4v-142c0-0.2-0.2-0.4-0.4-0.4c-0.2,0-0.4,0.2-0.4,0.4v142
								C314.1,298.8,314.2,299,314.5,299z"/>
						</g>
						<g>
							<path class="st7" d="M304.1,303.3c0.2,0,0.4-0.2,0.4-0.4V156.6c0-0.2-0.2-0.4-0.4-0.4s-0.4,0.2-0.4,0.4V303
								C303.7,303.1,303.9,303.3,304.1,303.3z"/>
						</g>
						<g>
							<path class="st7" d="M293.8,277.7c0.2,0,0.4-0.2,0.4-0.4V156.6c0-0.2-0.2-0.4-0.4-0.4c-0.2,0-0.4,0.2-0.4,0.4v120.7
								C293.4,277.5,293.5,277.7,293.8,277.7z"/>
						</g>
						<g>
							<path class="st7" d="M283.4,303.5c0.2,0,0.4-0.2,0.4-0.4V156.6c0-0.2-0.2-0.4-0.4-0.4c-0.2,0-0.4,0.2-0.4,0.4v146.5
								C283,303.3,283.2,303.5,283.4,303.5z"/>
						</g>
						<g>
							<path class="st7" d="M273.1,303.5c0.2,0,0.4-0.2,0.4-0.4V156.6c0-0.2-0.2-0.4-0.4-0.4c-0.2,0-0.4,0.2-0.4,0.4v146.5
								C272.7,303.3,272.9,303.5,273.1,303.5z"/>
						</g>
						<g>
							<path class="st7" d="M273.1,167h41.4c0.2,0,0.4-0.2,0.4-0.4s-0.2-0.4-0.4-0.4h-41.4c-0.2,0-0.4,0.2-0.4,0.4
								S272.9,167,273.1,167z"/>
						</g>
						<g>
							<path class="st7" d="M273.1,177.1h41.4c0.2,0,0.4-0.2,0.4-0.4s-0.2-0.4-0.4-0.4h-41.4c-0.2,0-0.4,0.2-0.4,0.4
								C272.7,176.9,272.9,177.1,273.1,177.1z"/>
						</g>
						<g>
							<path class="st7" d="M273.1,187.1h41.4c0.2,0,0.4-0.2,0.4-0.4s-0.2-0.4-0.4-0.4h-41.4c-0.2,0-0.4,0.2-0.4,0.4
								C272.7,187,272.9,187.1,273.1,187.1z"/>
						</g>
						<g>
							<path class="st7" d="M273.1,197.2h41.4c0.2,0,0.4-0.2,0.4-0.4s-0.2-0.4-0.4-0.4h-41.4c-0.2,0-0.4,0.2-0.4,0.4
								S272.9,197.2,273.1,197.2z"/>
						</g>
						<g>
							<path class="st7" d="M273.1,207.3h41.4c0.2,0,0.4-0.2,0.4-0.4s-0.2-0.4-0.4-0.4h-41.4c-0.2,0-0.4,0.2-0.4,0.4
								S272.9,207.3,273.1,207.3z"/>
						</g>
						<g>
							<path class="st7" d="M273.1,217.3h41.4c0.2,0,0.4-0.2,0.4-0.4s-0.2-0.4-0.4-0.4h-41.4c-0.2,0-0.4,0.2-0.4,0.4
								S272.9,217.3,273.1,217.3z"/>
						</g>
						<g>
							<path class="st7" d="M273.1,227.4h41.4c0.2,0,0.4-0.2,0.4-0.4s-0.2-0.4-0.4-0.4h-41.4c-0.2,0-0.4,0.2-0.4,0.4
								S272.9,227.4,273.1,227.4z"/>
						</g>
						<g>
							<path class="st7" d="M273.1,237.4h41.4c0.2,0,0.4-0.2,0.4-0.4s-0.2-0.4-0.4-0.4h-41.4c-0.2,0-0.4,0.2-0.4,0.4
								C272.7,237.3,272.9,237.4,273.1,237.4z"/>
						</g>
						<g>
							<path class="st7" d="M273.1,247.5h41.4c0.2,0,0.4-0.2,0.4-0.4s-0.2-0.4-0.4-0.4h-41.4c-0.2,0-0.4,0.2-0.4,0.4
								S272.9,247.5,273.1,247.5z"/>
						</g>
						<g>
							<path class="st7" d="M273.1,257.6h41.4c0.2,0,0.4-0.2,0.4-0.4c0-0.2-0.2-0.4-0.4-0.4h-41.4c-0.2,0-0.4,0.2-0.4,0.4
								S272.9,257.6,273.1,257.6z"/>
						</g>
						<g>
							<path class="st7" d="M273.1,267.6h41.4c0.2,0,0.4-0.2,0.4-0.4c0-0.2-0.2-0.4-0.4-0.4h-41.4c-0.2,0-0.4,0.2-0.4,0.4
								S272.9,267.6,273.1,267.6z"/>
						</g>
						<g>
							<path class="st7" d="M273.1,277.7h41.4c0.2,0,0.4-0.2,0.4-0.4c0-0.2-0.2-0.4-0.4-0.4h-41.4c-0.2,0-0.4,0.2-0.4,0.4
								S272.9,277.7,273.1,277.7z"/>
						</g>
					</g>
					<g>
						<path class="st7" d="M293.8,303.5c0.2,0,0.4-0.2,0.4-0.4v-7.3c0-0.2-0.2-0.4-0.4-0.4c-0.2,0-0.4,0.2-0.4,0.4v7.3
							C293.4,303.3,293.5,303.5,293.8,303.5z"/>
					</g>
				</g>
				<g>
					<g>
						<path class="st7" d="M250.5,303.5c0.2,0,0.4-0.2,0.4-0.4v-45.9c0-0.2-0.2-0.4-0.4-0.4h-8.7c-0.2,0-0.4,0.2-0.4,0.4v33.3
							c0,0.2,0.2,0.4,0.4,0.4s0.4-0.2,0.4-0.4v-32.9h7.9v45.5C250.1,303.3,250.3,303.5,250.5,303.5z"/>
					</g>
					<g>
						<path class="st7" d="M226.9,303.5c0.2,0,0.4-0.2,0.4-0.4v-45.5h7.9v32.9c0,0.2,0.2,0.4,0.4,0.4s0.4-0.2,0.4-0.4v-33.3
							c0-0.2-0.2-0.4-0.4-0.4h-8.7c-0.2,0-0.4,0.2-0.4,0.4v45.9C226.5,303.3,226.6,303.5,226.9,303.5z"/>
					</g>
				</g>
				<g>
					<path class="st7" d="M226.5,294.7v-4.1c0-0.2,0.2-0.4,0.4-0.4h23.7c0.2,0,0.4,0.2,0.4,0.4v4.1c0,0.2-0.2,0.4-0.4,0.4h-23.7
						C226.6,295.1,226.5,294.9,226.5,294.7z M250.1,291.1h-22.9v3.3h22.9V291.1z"/>
				</g>
				<g>
					<path class="st7" d="M238.7,303.5c0.2,0,0.4-0.2,0.4-0.4v-5.2c0-0.2-0.2-0.4-0.4-0.4s-0.4,0.2-0.4,0.4v5.2
						C238.3,303.3,238.5,303.5,238.7,303.5z"/>
				</g>
			</g>
			<g>
				<path class="st7" d="M-8,303.5h133.9c0.2,0,0.4-0.2,0.4-0.4c0-0.2-0.2-0.4-0.4-0.4H-8c-0.2,0-0.4,0.2-0.4,0.4
					S-8.2,303.5-8,303.5z"/>
			</g>
			<g>
				<path class="st7" d="M160.5,303.5h143.1c0.2,0,0.4-0.2,0.4-0.4c0-0.2-0.2-0.4-0.4-0.4H160.5c-0.2,0-0.4,0.2-0.4,0.4
					S160.3,303.5,160.5,303.5z"/>
			</g>
			<g>
				<path class="st7" d="M333.8,303.5H412c0.2,0,0.4-0.2,0.4-0.4c0-0.2-0.2-0.4-0.4-0.4h-78.1c-0.2,0-0.4,0.2-0.4,0.4
					C333.4,303.3,333.6,303.5,333.8,303.5z"/>
			</g>
			<g>
				<g>
					<g>
						<g>
							<path class="st7" d="M194.6,282.9v-24.6c0-4.2,3.4-7.7,7.6-7.7h1.9c4.2,0,7.6,3.4,7.6,7.7v24.6c0,4.2-3.4,7.7-7.6,7.7h-1.9
								C198,290.6,194.6,287.1,194.6,282.9z M202.2,251.4c-3.8,0-6.8,3.1-6.8,6.9v24.6c0,3.8,3.1,6.9,6.8,6.9h1.9
								c3.8,0,6.8-3.1,6.8-6.9v-24.6c0-3.8-3.1-6.9-6.8-6.9H202.2z"/>
						</g>
						<g>
							<path class="st7" d="M180.1,286.8v-15.4c0-2.7,2.2-5,4.9-5h1.2c2.7,0,4.9,2.2,4.9,5v15.4c0,2.7-2.2,5-4.9,5H185
								C182.3,291.7,180.1,289.5,180.1,286.8z M185,267.2c-2.3,0-4.1,1.9-4.1,4.2v15.4c0,2.3,1.9,4.2,4.1,4.2h1.2
								c2.3,0,4.1-1.9,4.1-4.2v-15.4c0-2.3-1.9-4.2-4.1-4.2H185z"/>
						</g>
						<g>
							<path class="st7" d="M203.2,303.5c0.2,0,0.4-0.2,0.4-0.4v-12.9c0-0.2-0.2-0.4-0.4-0.4s-0.4,0.2-0.4,0.4v12.9
								C202.8,303.3,203,303.5,203.2,303.5z"/>
						</g>
						<g>
							<path class="st7" d="M185.6,303.5c0.2,0,0.4-0.2,0.4-0.4v-11.7c0-0.2-0.2-0.4-0.4-0.4s-0.4,0.2-0.4,0.4v11.7
								C185.2,303.3,185.4,303.5,185.6,303.5z"/>
						</g>
					</g>
					<g>
						<path class="st7" d="M197.2,303.5c0.2,0,0.4-0.2,0.4-0.4v-4.4c0-0.2-0.2-0.4-0.4-0.4s-0.4,0.2-0.4,0.4v4.4
							C196.8,303.3,197,303.5,197.2,303.5z"/>
					</g>
					<g>
						<path class="st7" d="M195,296.8v-4.5c0-1.2,1-2.2,2.2-2.2s2.2,1,2.2,2.2v4.5c0,1.2-1,2.2-2.2,2.2S195,298.1,195,296.8z
							 M195.8,292.4v4.5c0,0.8,0.6,1.4,1.4,1.4c0.8,0,1.4-0.6,1.4-1.4v-4.5c0-0.8-0.6-1.4-1.4-1.4
							C196.4,290.9,195.8,291.6,195.8,292.4z"/>
					</g>
					<g>
						<path class="st7" d="M190.7,303.5c0.2,0,0.4-0.2,0.4-0.4v-2.9c0-0.2-0.2-0.4-0.4-0.4s-0.4,0.2-0.4,0.4v2.9
							C190.3,303.3,190.5,303.5,190.7,303.5z"/>
					</g>
					<g>
						<path class="st7" d="M188.5,298.3v-3.6c0-1.2,1-2.2,2.2-2.2s2.2,1,2.2,2.2v3.6c0,1.2-1,2.2-2.2,2.2S188.5,299.5,188.5,298.3z
							 M189.3,294.7v3.6c0,0.8,0.6,1.4,1.4,1.4c0.8,0,1.4-0.6,1.4-1.4v-3.6c0-0.8-0.6-1.4-1.4-1.4
							C189.9,293.2,189.3,293.9,189.3,294.7z"/>
					</g>
					<g>
						<path class="st7" d="M181.9,303.5c0.2,0,0.4-0.2,0.4-0.4v-2.9c0-0.2-0.2-0.4-0.4-0.4s-0.4,0.2-0.4,0.4v2.9
							C181.5,303.3,181.7,303.5,181.9,303.5z"/>
					</g>
					<g>
						<path class="st7" d="M179.7,298.3v-2.1c0-1.2,1-2.2,2.2-2.2s2.2,1,2.2,2.2v2.1c0,1.2-1,2.2-2.2,2.2S179.7,299.5,179.7,298.3z
							 M180.5,296.2v2.1c0,0.8,0.6,1.4,1.4,1.4c0.8,0,1.4-0.6,1.4-1.4v-2.1c0-0.8-0.6-1.4-1.4-1.4
							C181.1,294.7,180.5,295.4,180.5,296.2z"/>
					</g>
				</g>
				<g>
					<path class="st7" d="M203.2,290.6c0.2,0,0.4-0.2,0.4-0.4V260c0-0.2-0.2-0.4-0.4-0.4s-0.4,0.2-0.4,0.4v30.2
						C202.8,290.4,203,290.6,203.2,290.6z"/>
				</g>
				<g>
					<path class="st7" d="M185.6,292.6c0.2,0,0.4-0.2,0.4-0.4v-17.8c0-0.2-0.2-0.4-0.4-0.4s-0.4,0.2-0.4,0.4v17.8
						C185.2,292.5,185.4,292.6,185.6,292.6z"/>
				</g>
				<g>
					<path class="st7" d="M203.2,277.6c0.1,0,0.2,0,0.3-0.1c0.2-0.2,0.1-0.4,0-0.6l-3.7-3.6c-0.2-0.2-0.4-0.1-0.6,0
						c-0.2,0.2-0.1,0.4,0,0.6l3.7,3.6C203,277.5,203.1,277.6,203.2,277.6z"/>
				</g>
				<g>
					<path class="st7" d="M203.2,283.7c0.1,0,0.2,0,0.3-0.1c0.2-0.2,0.1-0.4,0-0.6l-3.7-3.6c-0.2-0.2-0.4-0.1-0.6,0
						c-0.2,0.2-0.1,0.4,0,0.6l3.7,3.6C203,283.7,203.1,283.7,203.2,283.7z"/>
				</g>
				<g>
					<path class="st7" d="M185.6,283.1c0.1,0,0.2,0,0.3-0.1c0.2-0.2,0.1-0.4,0-0.6l-3.7-3.6c-0.2-0.2-0.4-0.1-0.6,0
						c-0.2,0.2-0.1,0.4,0,0.6l3.7,3.6C185.4,283,185.5,283.1,185.6,283.1z"/>
				</g>
				<g>
					<path class="st7" d="M185.6,277.8c0.1,0,0.2,0,0.3-0.1l3.7-3.6c0.2-0.2,0.2-0.4,0-0.6s-0.4-0.2-0.6,0l-3.7,3.6
						c-0.2,0.2-0.2,0.4,0,0.6C185.4,277.8,185.5,277.8,185.6,277.8z"/>
				</g>
				<g>
					<path class="st7" d="M203.2,288.6c0.1,0,0.2,0,0.3-0.1l3.7-3.6c0.2-0.2,0.2-0.4,0-0.6s-0.4-0.2-0.6,0l-3.7,3.6
						c-0.2,0.2-0.2,0.4,0,0.6C203,288.6,203.1,288.6,203.2,288.6z"/>
				</g>
				<g>
					<path class="st7" d="M203.2,273.3c0.1,0,0.2,0,0.3-0.1l3.7-3.6c0.2-0.2,0.2-0.4,0-0.6s-0.4-0.2-0.6,0l-3.7,3.6
						c-0.2,0.2-0.2,0.4,0,0.6C203,273.3,203.1,273.3,203.2,273.3z"/>
				</g>
				<g>
					<path class="st7" d="M203.2,268.5c0.1,0,0.2,0,0.3-0.1l3.7-3.6c0.2-0.2,0.2-0.4,0-0.6s-0.4-0.2-0.6,0l-3.7,3.6
						c-0.2,0.2-0.2,0.4,0,0.6C203,268.5,203.1,268.5,203.2,268.5z"/>
				</g>
			</g>
			<g>
				<g>
					<g>
						<g>
							<path class="st7" d="M374.8,285.7v-16.4c0-2.9,2.3-5.3,5.2-5.3h1.3c2.9,0,5.2,2.4,5.2,5.3v16.4c0,2.9-2.3,5.3-5.2,5.3H380
								C377.2,291,374.8,288.6,374.8,285.7z M380.1,264.8c-2.4,0-4.4,2-4.4,4.5v16.4c0,2.5,2,4.5,4.4,4.5h1.3c2.4,0,4.4-2,4.4-4.5
								v-16.4c0-2.5-2-4.5-4.4-4.5H380.1z"/>
						</g>
						<g>
							<path class="st7" d="M380.7,303.5c0.2,0,0.4-0.2,0.4-0.4v-12.5c0-0.2-0.2-0.4-0.4-0.4c-0.2,0-0.4,0.2-0.4,0.4v12.5
								C380.3,303.3,380.5,303.5,380.7,303.5z"/>
						</g>
					</g>
					<g>
						<path class="st7" d="M376.8,303.5c0.2,0,0.4-0.2,0.4-0.4V300c0-0.2-0.2-0.4-0.4-0.4c-0.2,0-0.4,0.2-0.4,0.4v3.1
							C376.4,303.3,376.5,303.5,376.8,303.5z"/>
					</g>
					<g>
						<path class="st7" d="M374.4,298v-2.3c0-1.3,1-2.4,2.3-2.4s2.3,1.1,2.3,2.4v2.3c0,1.3-1,2.4-2.3,2.4
							C375.5,300.3,374.4,299.3,374.4,298z M375.2,295.7v2.3c0,0.9,0.7,1.6,1.5,1.6c0.9,0,1.5-0.7,1.5-1.6v-2.3
							c0-0.9-0.7-1.6-1.5-1.6C375.9,294.2,375.2,294.9,375.2,295.7z"/>
					</g>
				</g>
				<g>
					<path class="st7" d="M380.7,291.9c0.2,0,0.4-0.2,0.4-0.4v-19c0-0.2-0.2-0.4-0.4-0.4c-0.2,0-0.4,0.2-0.4,0.4v19
						C380.3,291.8,380.5,291.9,380.7,291.9z"/>
				</g>
				<g>
					<path class="st7" d="M380.7,281.7c0.1,0,0.2,0,0.3-0.1c0.2-0.2,0.1-0.4,0-0.6l-3.9-3.8c-0.2-0.2-0.4-0.1-0.6,0
						c-0.2,0.2-0.1,0.4,0,0.6l3.9,3.8C380.5,281.7,380.6,281.7,380.7,281.7z"/>
				</g>
				<g>
					<path class="st7" d="M380.7,276.2c0.1,0,0.2,0,0.3-0.1l3.9-3.8c0.2-0.2,0.2-0.4,0-0.6s-0.4-0.2-0.6,0l-3.9,3.8
						c-0.2,0.2-0.2,0.4,0,0.6C380.5,276.1,380.6,276.2,380.7,276.2z"/>
				</g>
			</g>
			<g>
				<path class="st7" d="M141,264.8c0.2,0,0.4-0.2,0.4-0.4v-6.9c0-0.2-0.2-0.4-0.4-0.4s-0.4,0.2-0.4,0.4v6.9
					C140.6,264.6,140.8,264.8,141,264.8z"/>
			</g>
			<g>
				<path class="st7" d="M125.2,264.5c0.2,0,0.4-0.2,0.4-0.4v-6.9c0-0.2-0.2-0.4-0.4-0.4c-0.2,0-0.4,0.2-0.4,0.4v6.9
					C124.8,264.4,125,264.5,125.2,264.5z"/>
			</g>
			<g>
				<path class="st7" d="M109.4,264.5c0.2,0,0.4-0.2,0.4-0.4v-6.9c0-0.2-0.2-0.4-0.4-0.4c-0.2,0-0.4,0.2-0.4,0.4v6.9
					C109,264.4,109.2,264.5,109.4,264.5z"/>
			</g>
			<g>
				<path class="st7" d="M93.6,264.5c0.2,0,0.4-0.2,0.4-0.4v-6.9c0-0.2-0.2-0.4-0.4-0.4c-0.2,0-0.4,0.2-0.4,0.4v6.9
					C93.2,264.4,93.4,264.5,93.6,264.5z"/>
			</g>
			<g>
				<path class="st7" d="M117.3,277.3c0.2,0,0.4-0.2,0.4-0.4V270c0-0.2-0.2-0.4-0.4-0.4c-0.2,0-0.4,0.2-0.4,0.4v6.9
					C116.9,277.2,117.1,277.3,117.3,277.3z"/>
			</g>
			<g>
				<path class="st7" d="M117.3,231.7c0.2,0,0.4-0.2,0.4-0.4v-6.9c0-0.2-0.2-0.4-0.4-0.4c-0.2,0-0.4,0.2-0.4,0.4v6.9
					C116.9,231.5,117.1,231.7,117.3,231.7z"/>
			</g>
			<g>
				<path class="st7" d="M144.2,246.7c0.2,0,0.4-0.2,0.4-0.4v-5c0-0.2-0.2-0.4-0.4-0.4s-0.4,0.2-0.4,0.4v5
					C143.9,246.5,144,246.7,144.2,246.7z"/>
			</g>
			<g>
				<path class="st7" d="M88.7,246.7c0.2,0,0.4-0.2,0.4-0.4v-5c0-0.2-0.2-0.4-0.4-0.4c-0.2,0-0.4,0.2-0.4,0.4v5
					C88.3,246.5,88.4,246.7,88.7,246.7z"/>
			</g>
			<g>
				<path class="st7" d="M73.8,210.4c0.2,0,0.4-0.2,0.4-0.4v-7.3c0-0.2-0.2-0.4-0.4-0.4c-0.2,0-0.4,0.2-0.4,0.4v7.3
					C73.4,210.3,73.6,210.4,73.8,210.4z"/>
			</g>
			<g>
				<path class="st7" d="M60.8,210.4c0.2,0,0.4-0.2,0.4-0.4v-7.3c0-0.2-0.2-0.4-0.4-0.4s-0.4,0.2-0.4,0.4v7.3
					C60.4,210.3,60.6,210.4,60.8,210.4z"/>
			</g>
			<g>
				<path class="st7" d="M43.9,210.4c0.2,0,0.4-0.2,0.4-0.4v-7.3c0-0.2-0.2-0.4-0.4-0.4s-0.4,0.2-0.4,0.4v7.3
					C43.5,210.3,43.7,210.4,43.9,210.4z"/>
			</g>
			<g>
				<path class="st7" d="M30.9,210.4c0.2,0,0.4-0.2,0.4-0.4v-7.3c0-0.2-0.2-0.4-0.4-0.4c-0.2,0-0.4,0.2-0.4,0.4v7.3
					C30.5,210.3,30.7,210.4,30.9,210.4z"/>
			</g>
			<g>
				<g>
					<path class="st7" d="M43.9,224.8c0.2,0,0.4-0.2,0.4-0.4v-7.3c0-0.2-0.2-0.4-0.4-0.4s-0.4,0.2-0.4,0.4v7.3
						C43.5,224.6,43.7,224.8,43.9,224.8z"/>
				</g>
				<g>
					<path class="st7" d="M30.9,224.8c0.2,0,0.4-0.2,0.4-0.4v-7.3c0-0.2-0.2-0.4-0.4-0.4c-0.2,0-0.4,0.2-0.4,0.4v7.3
						C30.5,224.6,30.7,224.8,30.9,224.8z"/>
				</g>
			</g>
			<g>
				<g>
					<path class="st7" d="M43.9,239.1c0.2,0,0.4-0.2,0.4-0.4v-7.3c0-0.2-0.2-0.4-0.4-0.4s-0.4,0.2-0.4,0.4v7.3
						C43.5,239,43.7,239.1,43.9,239.1z"/>
				</g>
				<g>
					<path class="st7" d="M30.9,239.1c0.2,0,0.4-0.2,0.4-0.4v-7.3c0-0.2-0.2-0.4-0.4-0.4c-0.2,0-0.4,0.2-0.4,0.4v7.3
						C30.5,239,30.7,239.1,30.9,239.1z"/>
				</g>
			</g>
			<g>
				<g>
					<path class="st7" d="M43.9,253.5c0.2,0,0.4-0.2,0.4-0.4v-7.3c0-0.2-0.2-0.4-0.4-0.4s-0.4,0.2-0.4,0.4v7.3
						C43.5,253.3,43.7,253.5,43.9,253.5z"/>
				</g>
				<g>
					<path class="st7" d="M30.9,253.5c0.2,0,0.4-0.2,0.4-0.4v-7.3c0-0.2-0.2-0.4-0.4-0.4c-0.2,0-0.4,0.2-0.4,0.4v7.3
						C30.5,253.3,30.7,253.5,30.9,253.5z"/>
				</g>
			</g>
			<g>
				<g>
					<path class="st7" d="M43.9,267.9c0.2,0,0.4-0.2,0.4-0.4v-7.3c0-0.2-0.2-0.4-0.4-0.4s-0.4,0.2-0.4,0.4v7.3
						C43.5,267.7,43.7,267.9,43.9,267.9z"/>
				</g>
				<g>
					<path class="st7" d="M30.9,267.9c0.2,0,0.4-0.2,0.4-0.4v-7.3c0-0.2-0.2-0.4-0.4-0.4c-0.2,0-0.4,0.2-0.4,0.4v7.3
						C30.5,267.7,30.7,267.9,30.9,267.9z"/>
				</g>
			</g>
			<g>
				<g>
					<path class="st7" d="M43.9,282.2c0.2,0,0.4-0.2,0.4-0.4v-7.3c0-0.2-0.2-0.4-0.4-0.4s-0.4,0.2-0.4,0.4v7.3
						C43.5,282.1,43.7,282.2,43.9,282.2z"/>
				</g>
				<g>
					<path class="st7" d="M30.9,282.2c0.2,0,0.4-0.2,0.4-0.4v-7.3c0-0.2-0.2-0.4-0.4-0.4c-0.2,0-0.4,0.2-0.4,0.4v7.3
						C30.5,282.1,30.7,282.2,30.9,282.2z"/>
				</g>
			</g>
			<g>
				<g>
					<path class="st7" d="M73.8,282.2c0.2,0,0.4-0.2,0.4-0.4v-7.3c0-0.2-0.2-0.4-0.4-0.4c-0.2,0-0.4,0.2-0.4,0.4v7.3
						C73.4,282.1,73.6,282.2,73.8,282.2z"/>
				</g>
				<g>
					<path class="st7" d="M60.8,282.2c0.2,0,0.4-0.2,0.4-0.4v-7.3c0-0.2-0.2-0.4-0.4-0.4s-0.4,0.2-0.4,0.4v7.3
						C60.4,282.1,60.6,282.2,60.8,282.2z"/>
				</g>
			</g>
			<g>
				<g>
					<path class="st7" d="M73.8,267.9c0.2,0,0.4-0.2,0.4-0.4v-7.3c0-0.2-0.2-0.4-0.4-0.4c-0.2,0-0.4,0.2-0.4,0.4v7.3
						C73.4,267.7,73.6,267.9,73.8,267.9z"/>
				</g>
				<g>
					<path class="st7" d="M60.8,267.9c0.2,0,0.4-0.2,0.4-0.4v-7.3c0-0.2-0.2-0.4-0.4-0.4s-0.4,0.2-0.4,0.4v7.3
						C60.4,267.7,60.6,267.9,60.8,267.9z"/>
				</g>
			</g>
			<g>
				<path class="st7" d="M73.8,224.8c0.2,0,0.4-0.2,0.4-0.4v-7.3c0-0.2-0.2-0.4-0.4-0.4c-0.2,0-0.4,0.2-0.4,0.4v7.3
					C73.4,224.6,73.6,224.8,73.8,224.8z"/>
			</g>
			<g>
				<path class="st7" d="M60.8,224.8c0.2,0,0.4-0.2,0.4-0.4v-7.3c0-0.2-0.2-0.4-0.4-0.4s-0.4,0.2-0.4,0.4v7.3
					C60.4,224.6,60.6,224.8,60.8,224.8z"/>
			</g>
			<g>
				<path class="st7" d="M73.8,239.1c0.2,0,0.4-0.2,0.4-0.4v-7.3c0-0.2-0.2-0.4-0.4-0.4c-0.2,0-0.4,0.2-0.4,0.4v7.3
					C73.4,239,73.6,239.1,73.8,239.1z"/>
			</g>
			<g>
				<path class="st7" d="M73.8,253.5c0.2,0,0.4-0.2,0.4-0.4v-7.3c0-0.2-0.2-0.4-0.4-0.4c-0.2,0-0.4,0.2-0.4,0.4v7.3
					C73.4,253.3,73.6,253.5,73.8,253.5z"/>
			</g>
			<g>
				<path class="st7" d="M60.8,239.1c0.2,0,0.4-0.2,0.4-0.4v-7.3c0-0.2-0.2-0.4-0.4-0.4s-0.4,0.2-0.4,0.4v7.3
					C60.4,239,60.6,239.1,60.8,239.1z"/>
			</g>
			<g>
				<path class="st7" d="M60.8,253.5c0.2,0,0.4-0.2,0.4-0.4v-7.3c0-0.2-0.2-0.4-0.4-0.4s-0.4,0.2-0.4,0.4v7.3
					C60.4,253.3,60.6,253.5,60.8,253.5z"/>
			</g>
			<g>
				<g>
					<path class="st7" d="M152.1,239.2c1.1,0,1.7-0.4,2.3-1.3c0.1-0.2,0-0.4-0.1-0.5c-0.2-0.1-0.4,0-0.5,0.1
						c-0.4,0.7-0.8,0.9-1.6,0.9c-1.3,0-2.3-1.3-2.3-2.9c0-0.2-0.2-0.4-0.4-0.4s-0.4,0.2-0.4,0.4C149,237.5,150.4,239.2,152.1,239.2z
						"/>
				</g>
				<g>
					<path class="st7" d="M146.8,239.2c1.7,0,3.1-1.7,3.1-3.7c0-0.2-0.2-0.4-0.4-0.4s-0.4,0.2-0.4,0.4c0,1.6-1,2.9-2.3,2.9
						s-2.3-1.3-2.3-2.9c0-0.2-0.2-0.4-0.4-0.4s-0.4,0.2-0.4,0.4C143.7,237.5,145.1,239.2,146.8,239.2z"/>
				</g>
				<g>
					<path class="st7" d="M141.4,239.2c1.7,0,3.1-1.7,3.1-3.7c0-0.2-0.2-0.4-0.4-0.4s-0.4,0.2-0.4,0.4c0,1.6-1,2.9-2.3,2.9
						s-2.3-1.3-2.3-2.9c0-0.2-0.2-0.4-0.4-0.4s-0.4,0.2-0.4,0.4C138.4,237.5,139.7,239.2,141.4,239.2z"/>
				</g>
				<g>
					<path class="st7" d="M136.1,239.2c1.7,0,3.1-1.7,3.1-3.7c0-0.2-0.2-0.4-0.4-0.4s-0.4,0.2-0.4,0.4c0,1.6-1,2.9-2.3,2.9
						s-2.3-1.3-2.3-2.9c0-0.2-0.2-0.4-0.4-0.4s-0.4,0.2-0.4,0.4C133,237.5,134.4,239.2,136.1,239.2z"/>
				</g>
				<g>
					<path class="st7" d="M130.7,239.2c1.7,0,3.1-1.7,3.1-3.7c0-0.2-0.2-0.4-0.4-0.4s-0.4,0.2-0.4,0.4c0,1.6-1,2.9-2.3,2.9
						s-2.3-1.3-2.3-2.9c0-0.2-0.2-0.4-0.4-0.4s-0.4,0.2-0.4,0.4C127.7,237.5,129,239.2,130.7,239.2z"/>
				</g>
				<g>
					<path class="st7" d="M125.4,239.2c1.7,0,3.1-1.7,3.1-3.7c0-0.2-0.2-0.4-0.4-0.4s-0.4,0.2-0.4,0.4c0,1.6-1,2.9-2.3,2.9
						s-2.3-1.3-2.3-2.9c0-0.2-0.2-0.4-0.4-0.4c-0.2,0-0.4,0.2-0.4,0.4C122.3,237.5,123.7,239.2,125.4,239.2z"/>
				</g>
				<g>
					<path class="st7" d="M120,239.2c1.7,0,3.1-1.7,3.1-3.7c0-0.2-0.2-0.4-0.4-0.4c-0.2,0-0.4,0.2-0.4,0.4c0,1.6-1,2.9-2.3,2.9
						s-2.3-1.3-2.3-2.9c0-0.2-0.2-0.4-0.4-0.4s-0.4,0.2-0.4,0.4C117,237.5,118.4,239.2,120,239.2z"/>
				</g>
				<g>
					<path class="st7" d="M114.7,239.2c1.7,0,3.1-1.7,3.1-3.7c0-0.2-0.2-0.4-0.4-0.4s-0.4,0.2-0.4,0.4c0,1.6-1,2.9-2.3,2.9
						c-0.7,0-1.5-0.9-1.8-1.3c-0.1-0.2-0.4-0.2-0.5-0.1c-0.2,0.1-0.2,0.4-0.1,0.6C112.4,237.7,113.4,239.2,114.7,239.2z"/>
				</g>
			</g>
			<g>
				<g>
					<path class="st7" d="M115,239.1c1.2,0,1.8-0.8,2.3-1.6c0.1-0.2,0-0.4-0.1-0.5c-0.2-0.1-0.4,0-0.5,0.1c-0.5,0.8-0.9,1.1-1.6,1.1
						c-1.3,0-2.3-1.3-2.3-2.9c0-0.2-0.2-0.4-0.4-0.4c-0.2,0-0.4,0.2-0.4,0.4C111.9,237.4,113.3,239.1,115,239.1z"/>
				</g>
				<g>
					<path class="st7" d="M109.6,239.1c1.7,0,3.1-1.7,3.1-3.7c0-0.2-0.2-0.4-0.4-0.4c-0.2,0-0.4,0.2-0.4,0.4c0,1.6-1,2.9-2.3,2.9
						s-2.3-1.3-2.3-2.9c0-0.2-0.2-0.4-0.4-0.4c-0.2,0-0.4,0.2-0.4,0.4C106.6,237.4,107.9,239.1,109.6,239.1z"/>
				</g>
				<g>
					<path class="st7" d="M104.3,239.1c1.7,0,3.1-1.7,3.1-3.7c0-0.2-0.2-0.4-0.4-0.4c-0.2,0-0.4,0.2-0.4,0.4c0,1.6-1,2.9-2.3,2.9
						s-2.3-1.3-2.3-2.9c0-0.2-0.2-0.4-0.4-0.4c-0.2,0-0.4,0.2-0.4,0.4C101.2,237.4,102.6,239.1,104.3,239.1z"/>
				</g>
				<g>
					<path class="st7" d="M98.9,239.1c1.7,0,3.1-1.7,3.1-3.7c0-0.2-0.2-0.4-0.4-0.4c-0.2,0-0.4,0.2-0.4,0.4c0,1.6-1,2.9-2.3,2.9
						s-2.3-1.3-2.3-2.9c0-0.2-0.2-0.4-0.4-0.4c-0.2,0-0.4,0.2-0.4,0.4C95.9,237.4,97.3,239.1,98.9,239.1z"/>
				</g>
				<g>
					<path class="st7" d="M93.6,239.1c1.7,0,3.1-1.7,3.1-3.7c0-0.2-0.2-0.4-0.4-0.4c-0.2,0-0.4,0.2-0.4,0.4c0,1.6-1,2.9-2.3,2.9
						s-2.3-1.3-2.3-2.9c0-0.2-0.2-0.4-0.4-0.4c-0.2,0-0.4,0.2-0.4,0.4C90.5,237.4,91.9,239.1,93.6,239.1z"/>
				</g>
				<g>
					<path class="st7" d="M88.3,239.1c1.7,0,3.1-1.7,3.1-3.7c0-0.2-0.2-0.4-0.4-0.4c-0.2,0-0.4,0.2-0.4,0.4c0,1.6-1,2.9-2.3,2.9
						s-2.3-1.3-2.3-3c0-0.2-0.2-0.4-0.4-0.4s-0.4,0.2-0.4,0.4C85.2,237.4,86.6,239.1,88.3,239.1z"/>
				</g>
				<g>
					<path class="st7" d="M82.9,239.1c1.7,0,3.1-1.7,3.1-3.7c0-0.2-0.2-0.4-0.4-0.4s-0.4,0.2-0.4,0.4c0,1.6-1,2.9-2.3,2.9
						c-0.3,0-0.6-0.1-0.9-0.2c-0.2-0.1-0.4,0-0.5,0.2s0,0.4,0.2,0.5C82,239,82.5,239.1,82.9,239.1z"/>
				</g>
			</g>
			<g>
				<g>
					<path class="st7" d="M133.4,214c1.1,0,2.3-1,2.8-1.8c0.1-0.2,0.1-0.4-0.1-0.6c-0.2-0.1-0.4-0.1-0.6,0.1
						c-0.5,0.7-1.5,1.4-2.2,1.4c-1.3,0-2.3-1-2.3-2.3c0-0.2-0.2-0.4-0.4-0.4s-0.4,0.2-0.4,0.4C130.3,212.7,131.7,214,133.4,214z"/>
				</g>
				<g>
					<path class="st7" d="M128,214c1.7,0,3.1-1.4,3.1-3.1c0-0.2-0.2-0.4-0.4-0.4s-0.4,0.2-0.4,0.4c0,1.3-1,2.3-2.3,2.3
						s-2.3-1-2.3-2.3c0-0.2-0.2-0.4-0.4-0.4c-0.2,0-0.4,0.2-0.4,0.4C125,212.7,126.4,214,128,214z"/>
				</g>
				<g>
					<path class="st7" d="M122.7,214c1.7,0,3.1-1.4,3.1-3.1c0-0.2-0.2-0.4-0.4-0.4c-0.2,0-0.4,0.2-0.4,0.4c0,1.3-1,2.3-2.3,2.3
						s-2.3-1-2.3-2.3c0-0.2-0.2-0.4-0.4-0.4c-0.2,0-0.4,0.2-0.4,0.4C119.6,212.7,121,214,122.7,214z"/>
				</g>
				<g>
					<path class="st7" d="M117.4,214c1.7,0,3.1-1.4,3.1-3.1c0-0.2-0.2-0.4-0.4-0.4c-0.2,0-0.4,0.2-0.4,0.4c0,1.3-1,2.3-2.3,2.3
						s-2.3-1-2.3-2.3c0-0.2-0.2-0.4-0.4-0.4c-0.2,0-0.4,0.2-0.4,0.4C114.3,212.7,115.7,214,117.4,214z"/>
				</g>
				<g>
					<path class="st7" d="M112,214c1.7,0,3.1-1.4,3.1-3.1c0-0.2-0.2-0.4-0.4-0.4c-0.2,0-0.4,0.2-0.4,0.4c0,1.3-1,2.3-2.3,2.3
						s-2.3-1-2.3-2.3c0-0.2-0.2-0.4-0.4-0.4s-0.4,0.2-0.4,0.4C108.9,212.7,110.3,214,112,214z"/>
				</g>
				<g>
					<path class="st7" d="M106.7,214c1.7,0,3.1-1.4,3.1-3.1c0-0.2-0.2-0.4-0.4-0.4s-0.4,0.2-0.4,0.4c0,1.3-1,2.3-2.3,2.3
						s-2.3-1-2.3-2.3c0-0.2-0.2-0.4-0.4-0.4c-0.2,0-0.4,0.2-0.4,0.4C103.6,212.7,105,214,106.7,214z"/>
				</g>
				<g>
					<path class="st7" d="M101.3,214c1.7,0,3.1-1.4,3.1-3.1c0-0.2-0.2-0.4-0.4-0.4c-0.2,0-0.4,0.2-0.4,0.4c0,1.3-1,2.3-2.3,2.3
						s-2.3-1-2.3-2.3c0-0.2-0.2-0.4-0.4-0.4c-0.2,0-0.4,0.2-0.4,0.4C98.3,212.7,99.6,214,101.3,214z"/>
				</g>
			</g>
			<g>
				<path class="st7" d="M240.2,209.7v-5.2c0-0.2,0.2-0.4,0.4-0.4h11.3c0.2,0,0.4,0.2,0.4,0.4v5.2c0,0.2-0.2,0.4-0.4,0.4h-11.3
					C240.3,210.1,240.2,209.9,240.2,209.7z M251.4,204.9H241v4.4h10.5v-4.4H251.4z"/>
			</g>
			<g>
				<path class="st7" d="M240.2,219.3v-5.2c0-0.2,0.2-0.4,0.4-0.4h11.3c0.2,0,0.4,0.2,0.4,0.4v5.2c0,0.2-0.2,0.4-0.4,0.4h-11.3
					C240.3,219.7,240.2,219.5,240.2,219.3z M251.4,214.5H241v4.4h10.5v-4.4H251.4z"/>
			</g>
			<g>
				<path class="st7" d="M225.2,219.3v-5.2c0-0.2,0.2-0.4,0.4-0.4h11.3c0.2,0,0.4,0.2,0.4,0.4v5.2c0,0.2-0.2,0.4-0.4,0.4h-11.3
					C225.3,219.7,225.2,219.5,225.2,219.3z M236.4,214.5H226v4.4h10.5v-4.4H236.4z"/>
			</g>
			<g>
				<path class="st7" d="M240.2,229.3v-5.2c0-0.2,0.2-0.4,0.4-0.4h11.3c0.2,0,0.4,0.2,0.4,0.4v5.2c0,0.2-0.2,0.4-0.4,0.4h-11.3
					C240.3,229.7,240.2,229.5,240.2,229.3z M251.4,224.5H241v4.4h10.5v-4.4H251.4z"/>
			</g>
			<g>
				<path class="st7" d="M225.2,229.3v-5.2c0-0.2,0.2-0.4,0.4-0.4h11.3c0.2,0,0.4,0.2,0.4,0.4v5.2c0,0.2-0.2,0.4-0.4,0.4h-11.3
					C225.3,229.7,225.2,229.5,225.2,229.3z M236.4,224.5H226v4.4h10.5v-4.4H236.4z"/>
			</g>
			<g>
				<path class="st7" d="M240.2,239.2V234c0-0.2,0.2-0.4,0.4-0.4h11.3c0.2,0,0.4,0.2,0.4,0.4v5.2c0,0.2-0.2,0.4-0.4,0.4h-11.3
					C240.3,239.6,240.2,239.4,240.2,239.2z M251.4,234.4H241v4.4h10.5v-4.4H251.4z"/>
			</g>
			<g>
				<path class="st7" d="M225.2,239.2V234c0-0.2,0.2-0.4,0.4-0.4h11.3c0.2,0,0.4,0.2,0.4,0.4v5.2c0,0.2-0.2,0.4-0.4,0.4h-11.3
					C225.3,239.6,225.2,239.4,225.2,239.2z M236.4,234.4H226v4.4h10.5v-4.4H236.4z"/>
			</g>
			<g>
				<path class="st7" d="M240.2,249.1v-5.2c0-0.2,0.2-0.4,0.4-0.4h11.3c0.2,0,0.4,0.2,0.4,0.4v5.2c0,0.2-0.2,0.4-0.4,0.4h-11.3
					C240.3,249.5,240.2,249.4,240.2,249.1z M251.4,244.3H241v4.4h10.5v-4.4H251.4z"/>
			</g>
			<g>
				<path class="st7" d="M225.2,249.1v-5.2c0-0.2,0.2-0.4,0.4-0.4h11.3c0.2,0,0.4,0.2,0.4,0.4v5.2c0,0.2-0.2,0.4-0.4,0.4h-11.3
					C225.3,249.5,225.2,249.4,225.2,249.1z M236.4,244.3H226v4.4h10.5v-4.4H236.4z"/>
			</g>
			<g>
				<g>
					<path class="st7" d="M346,166.1h14.2c0.2,0,0.4-0.2,0.4-0.4s-0.2-0.4-0.4-0.4H346c-0.2,0-0.4,0.2-0.4,0.4
						C345.6,165.9,345.8,166.1,346,166.1z"/>
				</g>
			</g>
		</g>
	</g>
</g>
<g class="st3">
	<path class="st4" d="M142,110.9h-27v-5.8L127.4,92c3.1-3.5,4.6-6.3,4.6-8.3c0-1.7-0.4-2.9-1.1-3.8c-0.7-0.9-1.8-1.3-3.2-1.3
		c-1.4,0-2.5,0.6-3.3,1.7s-1.3,2.6-1.3,4.3h-9c0-2.4,0.6-4.6,1.8-6.6c1.2-2,2.8-3.6,4.9-4.7s4.5-1.7,7.1-1.7c4.2,0,7.4,1,9.7,2.9
		s3.4,4.7,3.4,8.3c0,1.5-0.3,3-0.9,4.5c-0.6,1.4-1.4,3-2.6,4.5c-1.2,1.6-3.1,3.7-5.8,6.4l-5,5.8H142V110.9z"/>
	<path class="st4" d="M154.7,87.8h4.2c3.3,0,5-1.6,5-4.9c0-1.3-0.4-2.3-1.2-3.1c-0.8-0.8-1.9-1.2-3.4-1.2c-1.2,0-2.2,0.3-3.1,1
		c-0.9,0.7-1.3,1.5-1.3,2.6h-9c0-2,0.6-3.9,1.7-5.4c1.1-1.6,2.7-2.8,4.7-3.7c2-0.9,4.2-1.3,6.6-1.3c4.3,0,7.7,1,10.1,2.9
		c2.5,2,3.7,4.7,3.7,8.1c0,1.7-0.5,3.2-1.5,4.7c-1,1.5-2.5,2.7-4.5,3.6c2.1,0.7,3.7,1.9,4.8,3.4s1.8,3.4,1.8,5.6
		c0,3.5-1.3,6.2-4,8.3c-2.7,2.1-6.1,3.1-10.5,3.1c-2.5,0-4.9-0.5-7.1-1.4c-2.2-1-3.8-2.3-4.9-4c-1.1-1.7-1.7-3.7-1.7-5.8h9
		c0,1.2,0.5,2.2,1.4,3.1c1,0.9,2.1,1.3,3.5,1.3c1.6,0,2.8-0.4,3.8-1.3c0.9-0.9,1.4-2,1.4-3.4c0-1.9-0.5-3.3-1.5-4.1
		c-1-0.8-2.3-1.2-4-1.2h-4.4V87.8z"/>
	<path class="st4" d="M183.7,102.2c1.4,0,2.6,0.4,3.5,1.3c0.9,0.8,1.4,1.9,1.4,3.2s-0.5,2.4-1.4,3.2c-0.9,0.8-2.1,1.3-3.5,1.3
		c-1.4,0-2.6-0.4-3.5-1.3c-0.9-0.8-1.4-1.9-1.4-3.2s0.5-2.4,1.4-3.2C181.1,102.7,182.2,102.2,183.7,102.2z"/>
	<path class="st4" d="M195,92l2.4-19.8h22.6v7h-15.3l-0.9,7.7c0.6-0.4,1.5-0.7,2.5-1c1-0.3,2-0.4,3-0.4c3.8,0,6.8,1.1,8.9,3.4
		c2.1,2.3,3.1,5.5,3.1,9.6c0,2.5-0.6,4.7-1.7,6.7c-1.1,2-2.7,3.6-4.7,4.6s-4.4,1.6-7.1,1.6c-2.4,0-4.7-0.5-6.8-1.5
		c-2.1-1-3.8-2.4-5-4.1c-1.2-1.7-1.8-3.7-1.8-5.9h9c0.1,1.4,0.5,2.5,1.4,3.4c0.8,0.8,1.9,1.2,3.2,1.2c3,0,4.5-2.2,4.5-6.7
		c0-4.1-1.8-6.2-5.5-6.2c-2.1,0-3.6,0.7-4.7,2L195,92z"/>
	<path class="st4" d="M226,79.7c0-2.4,0.8-4.3,2.3-5.8c1.6-1.5,3.6-2.2,6.3-2.2c2.7,0,4.8,0.7,6.3,2.2c1.5,1.5,2.3,3.4,2.3,5.9v1.9
		c0,2.4-0.8,4.3-2.3,5.8c-1.5,1.5-3.6,2.2-6.2,2.2c-2.6,0-4.7-0.7-6.3-2.2c-1.6-1.4-2.4-3.4-2.4-5.9V79.7z M231.7,81.7
		c0,0.9,0.3,1.7,0.8,2.2s1.2,0.9,2.1,0.9c1.9,0,2.8-1.2,2.8-3.5v-1.6c0-0.9-0.2-1.7-0.7-2.3c-0.5-0.6-1.2-0.9-2.1-0.9
		c-0.9,0-1.6,0.3-2.1,0.9s-0.8,1.4-0.8,2.3V81.7z M236.3,108l-4.2-2.1l18.9-30.2l4.2,2.1L236.3,108z M244.4,101.4
		c0-2.4,0.8-4.3,2.4-5.8c1.6-1.5,3.7-2.2,6.3-2.2c2.6,0,4.7,0.7,6.3,2.2c1.6,1.4,2.3,3.4,2.3,6v1.9c0,2.4-0.8,4.3-2.3,5.8
		c-1.5,1.5-3.6,2.2-6.3,2.2c-2.6,0-4.7-0.7-6.3-2.2c-1.6-1.4-2.4-3.4-2.4-5.9V101.4z M250.1,103.5c0,0.8,0.3,1.6,0.9,2.2
		s1.3,0.9,2.1,0.9c1.7,0,2.6-0.8,2.8-2.4l0-2.7c0-0.9-0.3-1.7-0.8-2.3c-0.5-0.6-1.2-0.9-2.1-0.9c-0.9,0-1.5,0.3-2,0.8
		c-0.5,0.5-0.8,1.3-0.8,2.2V103.5z"/>
</g>
<g class="st3">
	<path class="st4" d="M150.4,118.9v8.6c0,1.4-0.4,2.4-1.3,3.2c-0.9,0.8-2,1.2-3.5,1.2c-1.5,0-2.6-0.4-3.5-1.2
		c-0.9-0.8-1.3-1.9-1.3-3.3v-8.5h2.2v8.6c0,0.9,0.2,1.5,0.7,2s1.1,0.7,1.9,0.7c1.7,0,2.6-0.9,2.6-2.7v-8.5H150.4z"/>
	<path class="st4" d="M157.5,124.1c-0.3,0-0.6-0.1-0.9-0.1c-1,0-1.6,0.4-2,1.1v6.5h-2.1v-9.5h2l0.1,1.1c0.5-0.8,1.2-1.2,2.1-1.2
		c0.3,0,0.6,0,0.8,0.1L157.5,124.1z"/>
	<path class="st4" d="M167.2,127c0,1.5-0.3,2.7-1,3.5s-1.6,1.3-2.7,1.3c-1.1,0-2-0.4-2.6-1.2l-0.1,1h-1.9v-13.5h2.1v4.9
		c0.6-0.7,1.4-1.1,2.5-1.1c1.2,0,2.1,0.4,2.7,1.3s1,2.1,1,3.6V127z M165.1,126.8c0-1-0.2-1.8-0.5-2.3s-0.9-0.8-1.6-0.8
		c-0.9,0-1.6,0.4-2,1.2v3.9c0.4,0.8,1,1.2,2,1.2c0.7,0,1.2-0.2,1.5-0.7s0.6-1.3,0.6-2.3V126.8z"/>
	<path class="st4" d="M174.7,131.7c-0.1-0.2-0.2-0.5-0.2-0.9c-0.7,0.7-1.5,1.1-2.5,1.1c-1,0-1.7-0.3-2.3-0.8s-0.9-1.2-0.9-2
		c0-1,0.4-1.8,1.1-2.3s1.8-0.8,3.2-0.8h1.3v-0.6c0-0.5-0.1-0.9-0.4-1.2s-0.7-0.4-1.3-0.4c-0.5,0-0.9,0.1-1.2,0.4
		c-0.3,0.2-0.5,0.6-0.5,0.9h-2.1c0-0.5,0.2-1,0.5-1.5s0.8-0.8,1.4-1.1s1.3-0.4,2-0.4c1.1,0,2,0.3,2.7,0.8s1,1.3,1,2.4v4.3
		c0,0.9,0.1,1.5,0.4,2v0.1H174.7z M172.3,130.1c0.4,0,0.8-0.1,1.2-0.3s0.7-0.5,0.8-0.8v-1.8h-1.2c-0.8,0-1.4,0.1-1.8,0.4
		s-0.6,0.7-0.6,1.2c0,0.4,0.1,0.7,0.4,1S171.9,130.1,172.3,130.1z"/>
	<path class="st4" d="M180.7,122.2l0.1,1.1c0.7-0.8,1.6-1.3,2.8-1.3c2,0,3,1.1,3,3.4v6.3h-2.1v-6.2c0-0.6-0.1-1-0.4-1.3
		c-0.3-0.3-0.7-0.4-1.3-0.4c-0.9,0-1.5,0.4-1.9,1.2v6.8h-2.1v-9.5H180.7z"/>
	<path class="st4" d="M198.9,131.7c-0.1-0.2-0.2-0.5-0.2-0.9c-0.7,0.7-1.5,1.1-2.5,1.1c-1,0-1.7-0.3-2.3-0.8s-0.9-1.2-0.9-2
		c0-1,0.4-1.8,1.1-2.3s1.8-0.8,3.2-0.8h1.3v-0.6c0-0.5-0.1-0.9-0.4-1.2s-0.7-0.4-1.3-0.4c-0.5,0-0.9,0.1-1.2,0.4
		c-0.3,0.2-0.5,0.6-0.5,0.9h-2.1c0-0.5,0.2-1,0.5-1.5s0.8-0.8,1.4-1.1s1.3-0.4,2-0.4c1.1,0,2,0.3,2.7,0.8s1,1.3,1,2.4v4.3
		c0,0.9,0.1,1.5,0.4,2v0.1H198.9z M196.6,130.1c0.4,0,0.8-0.1,1.2-0.3s0.7-0.5,0.8-0.8v-1.8h-1.2c-0.8,0-1.4,0.1-1.8,0.4
		s-0.6,0.7-0.6,1.2c0,0.4,0.1,0.7,0.4,1S196.1,130.1,196.6,130.1z"/>
	<path class="st4" d="M207.9,124.1c-0.3,0-0.6-0.1-0.9-0.1c-1,0-1.6,0.4-2,1.1v6.5H203v-9.5h2l0.1,1.1c0.5-0.8,1.2-1.2,2.1-1.2
		c0.3,0,0.6,0,0.8,0.1L207.9,124.1z"/>
	<path class="st4" d="M213.3,131.9c-1.4,0-2.5-0.4-3.3-1.3c-0.8-0.9-1.3-2-1.3-3.4v-0.3c0-0.9,0.2-1.8,0.5-2.5
		c0.4-0.7,0.9-1.3,1.5-1.7s1.4-0.6,2.2-0.6c1.3,0,2.3,0.4,3,1.2s1.1,2,1.1,3.5v0.9h-6.2c0.1,0.8,0.3,1.4,0.8,1.9s1,0.7,1.7,0.7
		c1,0,1.8-0.4,2.4-1.2l1.2,1.1c-0.4,0.6-0.9,1-1.5,1.3C214.8,131.7,214.1,131.9,213.3,131.9z M213,123.7c-0.6,0-1.1,0.2-1.4,0.6
		s-0.6,1-0.7,1.7h4.1v-0.2c0-0.7-0.2-1.3-0.6-1.6S213.6,123.7,213,123.7z"/>
	<path class="st4" d="M224.5,131.7c-0.1-0.2-0.2-0.5-0.2-0.9c-0.7,0.7-1.5,1.1-2.5,1.1c-1,0-1.7-0.3-2.3-0.8s-0.9-1.2-0.9-2
		c0-1,0.4-1.8,1.1-2.3s1.8-0.8,3.2-0.8h1.3v-0.6c0-0.5-0.1-0.9-0.4-1.2s-0.7-0.4-1.3-0.4c-0.5,0-0.9,0.1-1.2,0.4
		c-0.3,0.2-0.5,0.6-0.5,0.9h-2.1c0-0.5,0.2-1,0.5-1.5s0.8-0.8,1.4-1.1s1.3-0.4,2-0.4c1.1,0,2,0.3,2.7,0.8s1,1.3,1,2.4v4.3
		c0,0.9,0.1,1.5,0.4,2v0.1H224.5z M222.1,130.1c0.4,0,0.8-0.1,1.2-0.3s0.7-0.5,0.8-0.8v-1.8H223c-0.8,0-1.4,0.1-1.8,0.4
		s-0.6,0.7-0.6,1.2c0,0.4,0.1,0.7,0.4,1S221.7,130.1,222.1,130.1z"/>
	<path class="st4" d="M233.8,129.1c0-0.4-0.2-0.7-0.5-0.9s-0.8-0.4-1.6-0.5s-1.3-0.3-1.8-0.6c-1.1-0.5-1.6-1.3-1.6-2.2
		c0-0.8,0.3-1.5,1-2.1s1.6-0.8,2.6-0.8c1.1,0,2.1,0.3,2.8,0.8s1.1,1.3,1.1,2.2h-2.1c0-0.4-0.2-0.8-0.5-1c-0.3-0.3-0.7-0.4-1.2-0.4
		c-0.5,0-0.9,0.1-1.1,0.3s-0.4,0.5-0.4,0.9c0,0.3,0.1,0.6,0.4,0.8s0.8,0.4,1.7,0.5c0.8,0.2,1.5,0.4,2,0.7c0.5,0.3,0.8,0.6,1.1,0.9
		s0.3,0.8,0.3,1.3c0,0.9-0.4,1.5-1.1,2.1s-1.6,0.8-2.8,0.8c-0.8,0-1.5-0.1-2.1-0.4s-1.1-0.7-1.4-1.2s-0.5-1-0.5-1.6h2.1
		c0,0.5,0.2,0.9,0.6,1.2c0.4,0.3,0.8,0.4,1.4,0.4c0.6,0,1-0.1,1.3-0.3S233.8,129.4,233.8,129.1z"/>
</g>
<g class="st3">
	<path class="st4" d="M533.9,153.5h-2.5v4.9h-2.2v-12.8h4.5c1.5,0,2.6,0.3,3.4,1c0.8,0.7,1.2,1.6,1.2,2.9c0,0.9-0.2,1.6-0.6,2.2
		c-0.4,0.6-1,1-1.7,1.3l2.9,5.3v0.1h-2.4L533.9,153.5z M531.4,151.7h2.3c0.8,0,1.3-0.2,1.8-0.6c0.4-0.4,0.6-0.9,0.6-1.6
		c0-0.7-0.2-1.2-0.6-1.6s-1-0.6-1.7-0.6h-2.3V151.7z"/>
	<path class="st4" d="M545.9,157.4c-0.6,0.7-1.5,1.1-2.7,1.1c-1,0-1.8-0.3-2.3-0.9s-0.8-1.5-0.8-2.6v-6.2h2.1v6.1
		c0,1.2,0.5,1.8,1.5,1.8c1,0,1.7-0.4,2.1-1.1v-6.8h2.1v9.5h-2L545.9,157.4z"/>
	<path class="st4" d="M555.2,150.8c-0.3,0-0.6-0.1-0.9-0.1c-1,0-1.6,0.4-2,1.1v6.5h-2.1v-9.5h2l0.1,1.1c0.5-0.8,1.2-1.2,2.1-1.2
		c0.3,0,0.6,0,0.8,0.1L555.2,150.8z"/>
	<path class="st4" d="M561.9,158.4c-0.1-0.2-0.2-0.5-0.2-0.9c-0.7,0.7-1.5,1.1-2.5,1.1c-1,0-1.7-0.3-2.3-0.8s-0.9-1.2-0.9-2
		c0-1,0.4-1.8,1.1-2.3s1.8-0.8,3.2-0.8h1.3v-0.6c0-0.5-0.1-0.9-0.4-1.2s-0.7-0.4-1.3-0.4c-0.5,0-0.9,0.1-1.2,0.4
		c-0.3,0.2-0.5,0.6-0.5,0.9h-2.1c0-0.5,0.2-1,0.5-1.5s0.8-0.8,1.4-1.1s1.3-0.4,2-0.4c1.1,0,2,0.3,2.7,0.8s1,1.3,1,2.4v4.3
		c0,0.9,0.1,1.5,0.4,2v0.1H561.9z M559.6,156.8c0.4,0,0.8-0.1,1.2-0.3s0.7-0.5,0.8-0.8v-1.8h-1.2c-0.8,0-1.4,0.1-1.8,0.4
		s-0.6,0.7-0.6,1.2c0,0.4,0.1,0.7,0.4,1S559.1,156.8,559.6,156.8z"/>
	<path class="st4" d="M568.3,158.4h-2.1v-13.5h2.1V158.4z"/>
	<path class="st4" d="M580.7,158.4c-0.1-0.2-0.2-0.5-0.2-0.9c-0.7,0.7-1.5,1.1-2.5,1.1c-1,0-1.7-0.3-2.3-0.8s-0.9-1.2-0.9-2
		c0-1,0.4-1.8,1.1-2.3s1.8-0.8,3.2-0.8h1.3v-0.6c0-0.5-0.1-0.9-0.4-1.2s-0.7-0.4-1.3-0.4c-0.5,0-0.9,0.1-1.2,0.4
		c-0.3,0.2-0.5,0.6-0.5,0.9H575c0-0.5,0.2-1,0.5-1.5s0.8-0.8,1.4-1.1s1.3-0.4,2-0.4c1.1,0,2,0.3,2.7,0.8s1,1.3,1,2.4v4.3
		c0,0.9,0.1,1.5,0.4,2v0.1H580.7z M578.4,156.8c0.4,0,0.8-0.1,1.2-0.3s0.7-0.5,0.8-0.8v-1.8h-1.2c-0.8,0-1.4,0.1-1.8,0.4
		s-0.6,0.7-0.6,1.2c0,0.4,0.1,0.7,0.4,1S577.9,156.8,578.4,156.8z"/>
	<path class="st4" d="M589.8,150.8c-0.3,0-0.6-0.1-0.9-0.1c-1,0-1.6,0.4-2,1.1v6.5h-2.1v-9.5h2l0.1,1.1c0.5-0.8,1.2-1.2,2.1-1.2
		c0.3,0,0.6,0,0.8,0.1L589.8,150.8z"/>
	<path class="st4" d="M595.2,158.6c-1.4,0-2.5-0.4-3.3-1.3c-0.8-0.9-1.3-2-1.3-3.4v-0.3c0-0.9,0.2-1.8,0.5-2.5
		c0.4-0.7,0.9-1.3,1.5-1.7s1.4-0.6,2.2-0.6c1.3,0,2.3,0.4,3,1.2s1.1,2,1.1,3.5v0.9h-6.2c0.1,0.8,0.3,1.4,0.8,1.9s1,0.7,1.7,0.7
		c1,0,1.8-0.4,2.4-1.2l1.2,1.1c-0.4,0.6-0.9,1-1.5,1.3C596.7,158.4,595.9,158.6,595.2,158.6z M594.9,150.4c-0.6,0-1.1,0.2-1.4,0.6
		s-0.6,1-0.7,1.7h4.1v-0.2c0-0.7-0.2-1.3-0.6-1.6S595.5,150.4,594.9,150.4z"/>
	<path class="st4" d="M606.3,158.4c-0.1-0.2-0.2-0.5-0.2-0.9c-0.7,0.7-1.5,1.1-2.5,1.1c-1,0-1.7-0.3-2.3-0.8s-0.9-1.2-0.9-2
		c0-1,0.4-1.8,1.1-2.3s1.8-0.8,3.2-0.8h1.3v-0.6c0-0.5-0.1-0.9-0.4-1.2s-0.7-0.4-1.3-0.4c-0.5,0-0.9,0.1-1.2,0.4
		c-0.3,0.2-0.5,0.6-0.5,0.9h-2.1c0-0.5,0.2-1,0.5-1.5s0.8-0.8,1.4-1.1s1.3-0.4,2-0.4c1.1,0,2,0.3,2.7,0.8s1,1.3,1,2.4v4.3
		c0,0.9,0.1,1.5,0.4,2v0.1H606.3z M604,156.8c0.4,0,0.8-0.1,1.2-0.3s0.7-0.5,0.8-0.8v-1.8h-1.2c-0.8,0-1.4,0.1-1.8,0.4
		s-0.6,0.7-0.6,1.2c0,0.4,0.1,0.7,0.4,1S603.5,156.8,604,156.8z"/>
	<path class="st4" d="M615.7,155.8c0-0.4-0.2-0.7-0.5-0.9s-0.8-0.4-1.6-0.5s-1.3-0.3-1.8-0.6c-1.1-0.5-1.6-1.3-1.6-2.2
		c0-0.8,0.3-1.5,1-2.1s1.6-0.8,2.6-0.8c1.1,0,2.1,0.3,2.8,0.8s1.1,1.3,1.1,2.2h-2.1c0-0.4-0.2-0.8-0.5-1c-0.3-0.3-0.7-0.4-1.2-0.4
		c-0.5,0-0.9,0.1-1.1,0.3s-0.4,0.5-0.4,0.9c0,0.3,0.1,0.6,0.4,0.8s0.8,0.4,1.7,0.5c0.8,0.2,1.5,0.4,2,0.7c0.5,0.3,0.8,0.6,1.1,0.9
		s0.3,0.8,0.3,1.3c0,0.9-0.4,1.5-1.1,2.1s-1.6,0.8-2.8,0.8c-0.8,0-1.5-0.1-2.1-0.4s-1.1-0.7-1.4-1.2s-0.5-1-0.5-1.6h2.1
		c0,0.5,0.2,0.9,0.6,1.2c0.4,0.3,0.8,0.4,1.4,0.4c0.6,0,1-0.1,1.3-0.3S615.7,156.1,615.7,155.8z"/>
</g>
</svg>
