<?xml version="1.0" encoding="utf-8"?>
<!-- Generator: Adobe Illustrator 24.3.0, SVG Export Plug-In . SVG Version: 6.00 Build 0)  -->
<svg version="1.1" id="Layer_1" xmlns="http://www.w3.org/2000/svg" xmlns:xlink="http://www.w3.org/1999/xlink" x="0px" y="0px"
	 viewBox="0 0 339.2 300.3" style="enable-background:new 0 0 339.2 300.3;" xml:space="preserve">
<style type="text/css">
	.st0{fill:#F36D26;}
	.st1{fill:#D1D3D4;}
	.st2{fill:#00AEA5;}
	.st3{fill:#00A7CC;}
	.st4{fill:#58595B;}
	.st5{font-family:'Roboto-Black';}
	.st6{font-size:44px;}
</style>
<g>
	<path class="st0" d="M164.4,179.2l-6.1-31.6c-0.1-0.4-0.2-0.7-0.3-1.1c-2.2-8.7-10.1-15.2-19.5-15.2H115c-9.7,0-17.8,6.9-19.7,16
		c0,0.1,0,0.2-0.1,0.2l-11,57.4c-0.7,3.8,1.8,7.5,5.6,8.2h0c3.8,0.7,7.5-1.8,8.2-5.6l7.3-38.1v37.9v3.1V278c0,4.8,3.9,8.7,8.7,8.7
		h0.8c4.8,0,8.7-3.9,8.7-8.7v-67.4h6.9V278c0,4.8,3.9,8.7,8.7,8.7h0.8c4.8,0,8.7-3.9,8.7-8.7v-67.4v-3.1v-36.1l2,10.5
		c0.7,3.8,4.4,6.3,8.2,5.6C162.7,186.7,165.2,183.1,164.4,179.2z"/>
	
		<ellipse transform="matrix(0.3827 -0.9239 0.9239 0.3827 -22.0904 183.9509)" class="st0" cx="126.6" cy="108.5" rx="18.1" ry="18.1"/>
</g>
<g>
	<g>
		<path class="st1" d="M302.5,43.5c-3.2,0-6.2,0.6-9,1.6c-8.1-20.6-28.2-35.2-51.7-35.2c-21.8,0-40.6,12.5-49.7,30.8
			c-3.1-1-6.4-1.6-9.9-1.6c-17.7,0-32,14.3-32,32c0,17.7,14.3,32,32,32c5.6,0,10.9-1.5,15.5-4c10.1,13.3,26.1,21.8,44.1,21.8
			c20.6,0,38.6-11.3,48.2-28c3.7,2,8,3.2,12.5,3.2c14.5,0,26.3-11.8,26.3-26.3C328.8,55.3,317,43.5,302.5,43.5z"/>
	</g>
	<g>
		<path class="st1" d="M169,98c0,2.2-1.8,4-4,4c-2.2,0-4-1.8-4-4s1.8-4,4-4C167.3,94,169,95.8,169,98z"/>
	</g>
	<g>
		<path class="st1" d="M158.2,104.7c0,1.3-1.1,2.4-2.4,2.4c-1.3,0-2.4-1.1-2.4-2.4s1.1-2.4,2.4-2.4
			C157.1,102.2,158.2,103.3,158.2,104.7z"/>
	</g>
	<g>
		<path class="st1" d="M238.1,146.2c0,2.2-1.8,4-4,4c-2.2,0-4-1.8-4-4c0-2.2,1.8-4,4-4C236.3,142.3,238.1,144,238.1,146.2z"/>
	</g>
	<g>
		<path class="st1" d="M236.6,157.4c0,1.3-1.1,2.4-2.4,2.4c-1.3,0-2.4-1.1-2.4-2.4c0-1.3,1.1-2.4,2.4-2.4
			C235.5,154.9,236.6,156,236.6,157.4z"/>
	</g>
	<g>
		<path class="st1" d="M240,132.9c0,3.2-2.6,5.8-5.8,5.8c-3.2,0-5.8-2.6-5.8-5.8c0-3.2,2.6-5.8,5.8-5.8
			C237.4,127.1,240,129.7,240,132.9z"/>
	</g>
	<g>
		<path class="st1" d="M23.4,154.4c0,2.2-1.8,4-4,4c-2.2,0-4-1.8-4-4c0-2.2,1.8-4,4-4C21.6,150.4,23.4,152.2,23.4,154.4z"/>
	</g>
	<g>
		<path class="st1" d="M21.8,165.5c0,1.3-1.1,2.4-2.4,2.4c-1.3,0-2.4-1.1-2.4-2.4c0-1.3,1.1-2.4,2.4-2.4
			C20.7,163.1,21.8,164.2,21.8,165.5z"/>
	</g>
	<g>
		<path class="st1" d="M25.2,141.1c0,3.2-2.6,5.8-5.8,5.8c-3.2,0-5.8-2.6-5.8-5.8s2.6-5.8,5.8-5.8C22.6,135.2,25.2,137.9,25.2,141.1
			z"/>
	</g>
	<g>
		<path class="st1" d="M181.3,109.1c0,3.2-2.6,5.8-5.8,5.8c-3.2,0-5.8-2.6-5.8-5.8s2.6-5.8,5.8-5.8
			C178.7,103.3,181.3,105.9,181.3,109.1z"/>
	</g>
	<g>
		<path class="st1" d="M98.3,104.8c0,2.2-1.8,4-4,4c-2.2,0-4-1.8-4-4s1.8-4,4-4C96.5,100.8,98.3,102.6,98.3,104.8z"/>
	</g>
	<g>
		<path class="st1" d="M87.4,111.5c0,1.3-1.1,2.4-2.4,2.4c-1.3,0-2.4-1.1-2.4-2.4c0-1.3,1.1-2.4,2.4-2.4
			C86.3,109.1,87.4,110.2,87.4,111.5z"/>
	</g>
</g>
<path class="st0" d="M154.6,186.8L154.6,186.8c-3.3-1.7-4.5-5.8-2.8-9l12.9-24.3c1.7-3.3,5.8-4.5,9-2.8h0c3.3,1.7,4.5,5.8,2.8,9
	L163.7,184C161.9,187.2,157.9,188.5,154.6,186.8z"/>
<path class="st0" d="M161.6,144.7L161.6,144.7c0.1-0.2,0.5-0.3,0.7-0.2l11.5,6.6c0.2,0.1,0.3,0.5,0.2,0.7l0,0
	c-0.1,0.2-0.5,0.3-0.7,0.2l-11.5-6.6C161.6,145.3,161.5,145,161.6,144.7z"/>
<path class="st2" d="M167.1,193.1h-0.4h-5.2c0,0,0,0,0,0v0h-0.7c-2.1,0-3.8,1.8-3.8,4v3.8c0,1.3,1,2.4,2.3,2.4
	c1.3,0,2.3-1.1,2.3-2.4v-2.5h5.3v86.9c0,1.6,1.2,2.9,2.8,2.9h0c1.5,0,2.8-1.3,2.8-2.9v-86.9C172.2,195.5,169.9,193.1,167.1,193.1z"
	/>
<g>
	<g>
		<ellipse class="st2" cx="196.9" cy="127.4" rx="15.6" ry="16.4"/>
		<path class="st2" d="M220.6,177.7l-2.2-14.8c0-0.2-0.1-0.5-0.2-0.7l0-0.2l0,0c-2.1-8-9-13.9-17.3-13.9h-7.9
			c-8.7,0-16,6.5-17.6,15.2l-7.2,32.1c-0.4,1.6,0.5,3.2,1.9,3.8c1.6,0.7,3.5-0.2,4.1-2l9.9-30.3h2.3l-13.3,51.5
			c-0.4,1.4,0.6,2.8,2,2.8h9.5l7.1,64.4c0.2,1.5,1.3,2.5,2.7,2.5h5.3c1.4,0,2.6-1.1,2.7-2.5l7.1-64.4h9.5c1.4,0,2.4-1.4,2-2.8
			l-13.3-51.5h2.3l4.8,12.5c0.6,1.8,2.4,2.7,4.1,2C220.1,180.9,220.9,179.2,220.6,177.7z"/>
	</g>
	<path class="st2" d="M217.1,181.5L217.1,181.5c-1.8-0.5-2.9-2.3-2.4-4.1l4.6-17.3c0.5-1.8,2.3-2.9,4.1-2.4l0,0
		c1.8,0.5,2.9,2.3,2.4,4.1l-4.6,17.3C220.7,180.9,218.8,182,217.1,181.5z"/>
	<path class="st2" d="M221.2,158.3L221.2,158.3c0.1-0.2,0.5-0.3,0.7-0.2l11.5,6.6c0.2,0.1,0.3,0.5,0.2,0.7l0,0
		c-0.1,0.2-0.5,0.3-0.7,0.2l-11.5-6.6C221.1,158.8,221.1,158.5,221.2,158.3z"/>
</g>
<g>
	<g>
		<path class="st3" d="M106.7,216.3L97,166.1c-0.1-0.3-0.2-0.6-0.3-0.9c-1.9-7.6-8.8-13.3-17-13.3H59.2c-8.5,0-15.5,6-17.2,14
			c0,0.1,0,0.1-0.1,0.2l-5.5,27.6c-0.6,3.3,1.5,6.6,4.9,7.2h0c3.3,0.6,6.6-1.5,7.2-4.9l2.2-10.7v33.1v2.7v58.9
			c0,4.2,3.4,7.6,7.6,7.6h0.7c4.2,0,7.6-3.4,7.6-7.6v-58.9h6v58.9c0,4.2,3.4,7.6,7.6,7.6h0.7c4.2,0,7.6-3.4,7.6-7.6v-58.9v-2.7
			v-31.6l6.1,31.8c0.6,3.3,3.9,5.5,7.2,4.9C105.1,222.9,107.3,219.6,106.7,216.3z"/>
		
			<ellipse transform="matrix(0.3827 -0.9239 0.9239 0.3827 -79.086 145.4624)" class="st3" cx="69.3" cy="131.9" rx="15.9" ry="15.9"/>
	</g>
	<path class="st3" d="M45.8,200.7L45.8,200.7c3.1-1.7,4.3-5.6,2.7-8.7l-10.3-19.4c-1.7-3.1-5.6-4.3-8.7-2.7h0
		c-3.1,1.7-4.3,5.6-2.7,8.7L37.1,198C38.7,201.2,42.6,202.4,45.8,200.7z"/>
</g>
<path class="st3" d="M33,171.8L33,171.8c0,0.3-0.2,0.5-0.5,0.6l-13.2,1.7c-0.3,0-0.5-0.2-0.6-0.5l0,0c0-0.3,0.2-0.5,0.5-0.6
	l13.2-1.7C32.7,171.3,33,171.5,33,171.8z"/>
<text transform="matrix(1 0 0 1 179.6716 83.2505)" class="st4 st5 st6">20.5%</text>
</svg>
