<?xml version="1.0" encoding="utf-8"?>
<!-- Generator: Adobe Illustrator 24.3.0, SVG Export Plug-In . SVG Version: 6.00 Build 0)  -->
<svg version="1.1" id="Layer_1" xmlns="http://www.w3.org/2000/svg" xmlns:xlink="http://www.w3.org/1999/xlink" x="0px" y="0px"
	 viewBox="0 0 742.7 616.9" style="enable-background:new 0 0 742.7 616.9;" xml:space="preserve">
<style type="text/css">
	.st0{clip-path:url(#SVGID_2_);fill:#5AAF95;}
	.st1{clip-path:url(#SVGID_4_);fill:#5AAF95;}
	.st2{clip-path:url(#SVGID_6_);fill:#2FC0D2;}
	.st3{clip-path:url(#SVGID_8_);fill:#2FC0D2;}
	.st4{clip-path:url(#SVGID_10_);fill:#F36D26;}
	.st5{clip-path:url(#SVGID_12_);fill:#F36D26;}
	.st6{fill:#5AAF95;}
	.st7{fill:#2FC0D2;}
	.st8{fill:#F36D26;}
	.st9{enable-background:new    ;}
	.st10{fill:#F36D28;}
	.st11{fill:#58595B;}
</style>
<g>
	<g>
		<g>
			<defs>
				<path id="SVGID_1_" d="M430.1-32.2V75.4C578.9,90.9,617,168.1,617,168.1L703,86L430.1-32.2z"/>
			</defs>
			<clipPath id="SVGID_2_">
				<use xlink:href="#SVGID_1_"  style="overflow:visible;"/>
			</clipPath>
			<circle class="st0" cx="430.1" cy="360.9" r="331.1"/>
		</g>
	</g>
	<g>
		<g>
			<defs>
				<path id="SVGID_3_" d="M430.1-32.2V75.4C578.9,90.9,617,168.1,617,168.1L703,86L430.1-32.2z"/>
			</defs>
			<clipPath id="SVGID_4_">
				<use xlink:href="#SVGID_3_"  style="overflow:visible;"/>
			</clipPath>
			<circle class="st1" cx="430.1" cy="360.9" r="298"/>
		</g>
	</g>
</g>
<g>
	<g>
		<g>
			<defs>
				<path id="SVGID_5_" d="M430.1-32.2v153.1c132.6,0,240,107.5,240,240l-4.2,30l176.9,31.3l-19.5-293L430.1-32.2z"/>
			</defs>
			<clipPath id="SVGID_6_">
				<use xlink:href="#SVGID_5_"  style="overflow:visible;"/>
			</clipPath>
			<circle class="st2" cx="430.1" cy="360.9" r="285.6"/>
		</g>
	</g>
	<g>
		<g>
			<defs>
				<path id="SVGID_7_" d="M430.1-32.2v153.1c132.6,0,240,107.5,240,240l-4.2,30l176.9,31.3l-19.5-293L430.1-32.2z"/>
			</defs>
			<clipPath id="SVGID_8_">
				<use xlink:href="#SVGID_7_"  style="overflow:visible;"/>
			</clipPath>
			<circle class="st3" cx="430.1" cy="360.9" r="252.4"/>
		</g>
	</g>
</g>
<g>
	<g>
		<g>
			<defs>
				<path id="SVGID_9_" d="M430.1-32.2v198.6c107.4,0,194.5,87.1,194.5,194.5c0,88.6-59.3,163.3-140.3,186.8l57.5,165l227.6-12.4
					l53.8-571.1L430.1-32.2z"/>
			</defs>
			<clipPath id="SVGID_10_">
				<use xlink:href="#SVGID_9_"  style="overflow:visible;"/>
			</clipPath>
			<circle class="st4" cx="430.1" cy="360.9" r="240"/>
		</g>
	</g>
	<g>
		<g>
			<defs>
				<path id="SVGID_11_" d="M430.1-32.2v198.6c107.4,0,194.5,87.1,194.5,194.5c0,88.6-59.3,163.3-140.3,186.8l57.5,165l227.6-12.4
					l53.8-571.1L430.1-32.2z"/>
			</defs>
			<clipPath id="SVGID_12_">
				<use xlink:href="#SVGID_11_"  style="overflow:visible;"/>
			</clipPath>
			<circle class="st5" cx="430.1" cy="360.9" r="206.9"/>
		</g>
	</g>
</g>
<g>
	<path class="st6" d="M550.3,357.6l-19.8-48.9c-0.3-0.8-0.8-1.4-1.3-2c0,0-4.4-6.8-19.8-6.8c-15.4,0-19.8,6.8-19.8,6.8
		c-0.5,0.6-1,1.2-1.3,2l-19.8,48.9c-1.3,3.2,0.2,6.8,3.4,8.1c0.8,0.3,1.6,0.5,2.3,0.5c2.4,0,4.7-1.5,5.7-3.9l10.7-26.4l1.4,35.2
		l-3.7,57.2c-0.3,4.4,3,8.2,7.4,8.5c0.2,0,0.4,0,0.5,0c4.1,0,7.6-3.2,7.9-7.5l3.1-56.1c0,0,0-2.2,2.2-2.2s2.2,2.2,2.2,2.2l3.1,56.1
		c0.3,4.2,3.8,7.5,7.9,7.5c0.2,0,0.4,0,0.5,0c4.4-0.3,7.7-4.1,7.4-8.5l-3.7-57.2l1.4-35.2l10.7,26.4c1,2.4,3.3,3.9,5.7,3.9
		c0.8,0,1.6-0.1,2.3-0.5C550.1,364.4,551.6,360.8,550.3,357.6z"/>
	<path class="st6" d="M509.4,293.2c8.5,0,15.4-7,15.4-15.6s-6.9-15.6-15.4-15.6c-8.5,0-15.4,7-15.4,15.6
		C494,286.3,500.9,293.2,509.4,293.2z"/>
</g>
<g>
	<path class="st7" d="M468.5,357.6l-19.8-48.9c-0.3-0.8-0.8-1.4-1.3-2c0,0-4.4-6.8-19.8-6.8s-19.8,6.8-19.8,6.8
		c-0.5,0.6-1,1.2-1.3,2l-19.8,48.9c-1.3,3.2,0.2,6.8,3.4,8.1c0.8,0.3,1.6,0.5,2.3,0.5c2.4,0,4.7-1.5,5.7-3.9l10.7-26.4l1.4,35.2
		l-3.7,57.2c-0.3,4.4,3,8.2,7.4,8.5c0.2,0,0.4,0,0.5,0c4.1,0,7.6-3.2,7.9-7.5l3.1-56.1c0,0,0-2.2,2.2-2.2s2.2,2.2,2.2,2.2l3.1,56.1
		c0.3,4.2,3.8,7.5,7.9,7.5c0.2,0,0.4,0,0.5,0c4.4-0.3,7.7-4.1,7.4-8.5l-3.7-57.2l1.4-35.2l10.7,26.4c1,2.4,3.3,3.9,5.7,3.9
		c0.8,0,1.6-0.1,2.3-0.5C468.3,364.4,469.8,360.8,468.5,357.6z"/>
	<path class="st7" d="M427.6,293.2c8.5,0,15.4-7,15.4-15.6s-6.9-15.6-15.4-15.6s-15.4,7-15.4,15.6
		C412.2,286.3,419.1,293.2,427.6,293.2z"/>
</g>
<g>
	<path class="st8" d="M386.8,357.6L367,308.7c-0.3-0.8-0.8-1.4-1.3-2c0,0-4.4-6.8-19.8-6.8s-19.8,6.8-19.8,6.8c-0.5,0.6-1,1.2-1.3,2
		L305,357.6c-1.3,3.2,0.2,6.8,3.4,8.1c0.8,0.3,1.6,0.5,2.3,0.5c2.4,0,4.7-1.5,5.7-3.9l10.7-26.4l1.4,35.2l-3.7,57.2
		c-0.3,4.4,3,8.2,7.4,8.5c0.2,0,0.4,0,0.5,0c4.1,0,7.6-3.2,7.9-7.5l3.1-56.1c0,0,0-2.2,2.2-2.2s2.2,2.2,2.2,2.2l3.1,56.1
		c0.3,4.2,3.8,7.5,7.9,7.5c0.2,0,0.4,0,0.5,0c4.4-0.3,7.7-4.1,7.4-8.5l-3.7-57.2l1.4-35.2l10.7,26.4c1,2.4,3.3,3.9,5.7,3.9
		c0.8,0,1.6-0.1,2.3-0.5C386.6,364.4,388.1,360.8,386.8,357.6z"/>
	<path class="st8" d="M345.9,293.2c8.5,0,15.4-7,15.4-15.6s-6.9-15.6-15.4-15.6s-15.4,7-15.4,15.6
		C330.5,286.3,337.4,293.2,345.9,293.2z"/>
</g>
<g class="st9">
	<path class="st6" d="M331.3,64.4h-5.9V45.5l-5.8,1.7v-4.5l11.2-3.9h0.5V64.4z"/>
	<path class="st6" d="M356.8,42l-9.6,22.4H341l9.6-21h-12.2v-4.6h18.4V42z"/>
	<path class="st6" d="M363.6,58.7c0.9,0,1.7,0.3,2.3,0.8s0.9,1.3,0.9,2.1s-0.3,1.6-0.9,2.1s-1.4,0.8-2.3,0.8c-0.9,0-1.7-0.3-2.3-0.8
		s-0.9-1.3-0.9-2.1s0.3-1.6,0.9-2.1S362.7,58.7,363.6,58.7z"/>
	<path class="st6" d="M376.1,49.2h2.8c2.2,0,3.3-1.1,3.3-3.3c0-0.8-0.3-1.5-0.8-2.1s-1.3-0.8-2.2-0.8c-0.8,0-1.5,0.2-2,0.7
		s-0.9,1-0.9,1.7h-5.9c0-1.3,0.4-2.5,1.1-3.6c0.8-1.1,1.8-1.9,3.1-2.5s2.8-0.9,4.4-0.9c2.8,0,5.1,0.7,6.7,2s2.4,3.1,2.4,5.4
		c0,1.1-0.3,2.1-1,3.1s-1.7,1.8-2.9,2.4c1.4,0.5,2.4,1.2,3.2,2.2s1.2,2.2,1.2,3.7c0,2.3-0.9,4.1-2.6,5.5s-4.1,2.1-6.9,2.1
		c-1.7,0-3.2-0.3-4.7-1s-2.5-1.5-3.3-2.7s-1.1-2.4-1.1-3.9h6c0,0.8,0.3,1.5,0.9,2s1.4,0.9,2.3,0.9c1,0,1.9-0.3,2.5-0.9
		s0.9-1.3,0.9-2.2c0-1.3-0.3-2.2-1-2.7s-1.5-0.8-2.7-0.8h-2.9V49.2z"/>
	<path class="st6" d="M391.6,43.8c0-1.6,0.5-2.9,1.5-3.8s2.4-1.5,4.1-1.5c1.8,0,3.1,0.5,4.2,1.5s1.5,2.3,1.5,3.9v1.3
		c0,1.6-0.5,2.9-1.5,3.8s-2.4,1.4-4.1,1.4c-1.7,0-3.1-0.5-4.2-1.4s-1.6-2.3-1.6-3.9V43.8z M395.4,45.1c0,0.6,0.2,1.1,0.5,1.5
		c0.3,0.4,0.8,0.6,1.4,0.6c1.2,0,1.8-0.8,1.8-2.3v-1c0-0.6-0.2-1.1-0.5-1.5c-0.3-0.4-0.8-0.6-1.4-0.6c-0.6,0-1,0.2-1.4,0.6
		c-0.3,0.4-0.5,0.9-0.5,1.5V45.1z M398.4,62.5l-2.8-1.4l12.5-20l2.8,1.4L398.4,62.5z M403.7,58.2c0-1.6,0.5-2.9,1.6-3.8
		s2.4-1.4,4.1-1.4c1.7,0,3.1,0.5,4.2,1.4s1.5,2.3,1.5,4v1.2c0,1.6-0.5,2.9-1.5,3.8s-2.4,1.4-4.1,1.4c-1.7,0-3.1-0.5-4.2-1.4
		s-1.6-2.3-1.6-3.9V58.2z M407.5,59.5c0,0.5,0.2,1,0.6,1.4s0.8,0.6,1.4,0.6c1.1,0,1.8-0.5,1.8-1.6l0-1.8c0-0.6-0.2-1.1-0.5-1.5
		c-0.3-0.4-0.8-0.6-1.4-0.6c-0.6,0-1,0.2-1.4,0.5c-0.3,0.4-0.5,0.8-0.5,1.4V59.5z"/>
</g>
<g class="st9">
	<path class="st7" d="M319.7,112.7h-20.8v-4.5l9.6-10.1c2.4-2.7,3.5-4.8,3.5-6.4c0-1.3-0.3-2.3-0.8-2.9s-1.4-1-2.4-1
		c-1.1,0-1.9,0.4-2.6,1.3c-0.7,0.9-1,2-1,3.4h-6.9c0-1.8,0.5-3.5,1.4-5.1c0.9-1.6,2.2-2.8,3.8-3.6s3.4-1.3,5.5-1.3
		c3.2,0,5.7,0.7,7.5,2.2s2.6,3.6,2.6,6.4c0,1.2-0.2,2.3-0.7,3.4c-0.4,1.1-1.1,2.3-2,3.5s-2.4,2.9-4.5,4.9l-3.9,4.5h11.8V112.7z"/>
	<path class="st7" d="M339.9,82.4v5.4h-0.3c-2.6,0-4.7,0.6-6.4,1.9c-1.7,1.2-2.7,3-3.1,5.2c1.6-1.5,3.5-2.3,5.9-2.3
		c2.6,0,4.6,0.9,6.2,2.8s2.3,4.4,2.3,7.4c0,1.9-0.4,3.6-1.3,5.2s-2.1,2.8-3.8,3.7c-1.6,0.9-3.4,1.3-5.3,1.3c-2.1,0-4-0.5-5.7-1.4
		c-1.7-1-3-2.3-3.9-4.1s-1.4-3.9-1.4-6.2v-2.8c0-3.1,0.7-5.8,2-8.3c1.3-2.5,3.2-4.4,5.6-5.8s5.2-2.1,8.1-2.1H339.9z M333.7,97.9
		c-0.9,0-1.7,0.2-2.3,0.6s-1.1,0.9-1.4,1.6v2.1c0,3.8,1.3,5.7,3.9,5.7c1.1,0,1.9-0.5,2.6-1.4s1.1-2.1,1.1-3.5c0-1.5-0.4-2.7-1.1-3.6
		C335.8,98.3,334.9,97.9,333.7,97.9z"/>
	<path class="st7" d="M351.9,106c1.1,0,2,0.3,2.7,1c0.7,0.7,1.1,1.5,1.1,2.5s-0.4,1.8-1.1,2.5s-1.6,1-2.7,1c-1.1,0-2-0.3-2.7-1
		s-1.1-1.5-1.1-2.5s0.4-1.8,1.1-2.5S350.8,106,351.9,106z"/>
	<path class="st7" d="M366.6,94.9h3.3c2.6,0,3.9-1.3,3.9-3.8c0-1-0.3-1.8-0.9-2.4c-0.6-0.6-1.5-0.9-2.6-0.9c-0.9,0-1.7,0.3-2.4,0.8
		s-1,1.2-1,2h-6.9c0-1.6,0.4-3,1.3-4.2s2.1-2.2,3.6-2.9s3.3-1,5.1-1c3.3,0,5.9,0.8,7.8,2.3s2.9,3.6,2.9,6.3c0,1.3-0.4,2.5-1.2,3.6
		c-0.8,1.1-1.9,2.1-3.4,2.8c1.6,0.6,2.8,1.4,3.7,2.6c0.9,1.2,1.4,2.6,1.4,4.3c0,2.7-1,4.8-3.1,6.4s-4.7,2.4-8.1,2.4
		c-2,0-3.8-0.4-5.4-1.1c-1.7-0.7-2.9-1.8-3.8-3.1c-0.9-1.3-1.3-2.8-1.3-4.5h7c0,0.9,0.4,1.7,1.1,2.4s1.6,1,2.7,1
		c1.2,0,2.2-0.3,2.9-1c0.7-0.7,1.1-1.5,1.1-2.6c0-1.5-0.4-2.6-1.1-3.2s-1.8-0.9-3.1-0.9h-3.4V94.9z"/>
	<path class="st7" d="M384.6,88.6c0-1.8,0.6-3.3,1.8-4.5s2.8-1.7,4.8-1.7c2.1,0,3.7,0.6,4.9,1.7c1.2,1.1,1.8,2.7,1.8,4.6v1.5
		c0,1.8-0.6,3.3-1.8,4.5s-2.8,1.7-4.8,1.7c-2,0-3.6-0.6-4.8-1.7c-1.2-1.1-1.8-2.6-1.8-4.6V88.6z M389,90.2c0,0.7,0.2,1.3,0.6,1.7
		s0.9,0.7,1.6,0.7c1.4,0,2.2-0.9,2.2-2.7v-1.2c0-0.7-0.2-1.3-0.6-1.7s-0.9-0.7-1.6-0.7c-0.7,0-1.2,0.2-1.6,0.7s-0.6,1-0.6,1.8V90.2z
		 M392.6,110.5l-3.2-1.6l14.6-23.3l3.2,1.6L392.6,110.5z M398.8,105.4c0-1.9,0.6-3.3,1.8-4.5s2.8-1.7,4.8-1.7c2,0,3.7,0.6,4.9,1.7
		s1.8,2.7,1.8,4.6v1.4c0,1.9-0.6,3.3-1.8,4.5s-2.8,1.7-4.8,1.7c-2,0-3.6-0.6-4.8-1.7c-1.2-1.1-1.8-2.6-1.8-4.6V105.4z M403.2,107
		c0,0.6,0.2,1.2,0.7,1.7c0.4,0.5,1,0.7,1.6,0.7c1.3,0,2-0.6,2.2-1.9l0-2.1c0-0.7-0.2-1.3-0.6-1.7s-0.9-0.7-1.6-0.7
		c-0.7,0-1.2,0.2-1.6,0.6c-0.4,0.4-0.6,1-0.6,1.7V107z"/>
</g>
<g class="st9">
	<path class="st10" d="M303.7,150h3.5v6.1h-3.5v7.2h-7.9v-7.2h-13.2l-0.5-4.8l13.7-22v-0.1h7.9V150z M289.7,150h6.1v-10.5l-0.5,0.8
		L289.7,150z"/>
	<path class="st10" d="M334.5,163.3h-23.8v-5.2l11-11.5c2.7-3.1,4.1-5.5,4.1-7.3c0-1.5-0.3-2.6-1-3.4s-1.6-1.1-2.8-1.1
		c-1.2,0-2.2,0.5-2.9,1.5s-1.1,2.3-1.1,3.8H310c0-2.1,0.5-4,1.6-5.8s2.5-3.2,4.4-4.2s3.9-1.5,6.2-1.5c3.7,0,6.5,0.9,8.5,2.6
		s3,4.1,3,7.3c0,1.3-0.2,2.7-0.8,3.9s-1.3,2.6-2.3,4s-2.8,3.3-5.1,5.6l-4.4,5.1h13.4V163.3z"/>
	<path class="st10" d="M343.5,155.7c1.2,0,2.3,0.4,3.1,1.1s1.2,1.7,1.2,2.8s-0.4,2.1-1.2,2.8s-1.9,1.1-3.1,1.1
		c-1.3,0-2.3-0.4-3.1-1.1s-1.2-1.7-1.2-2.8s0.4-2.1,1.2-2.8S342.2,155.7,343.5,155.7z"/>
	<path class="st10" d="M376.7,133.4l-12.8,29.9h-8.3l12.8-28h-16.3v-6.1h24.6V133.4z"/>
	<path class="st10" d="M380.8,135.8c0-2.1,0.7-3.8,2.1-5.1s3.2-1.9,5.5-1.9c2.3,0,4.2,0.6,5.6,1.9s2,3,2,5.2v1.7
		c0,2.1-0.7,3.8-2,5.1s-3.2,1.9-5.5,1.9c-2.3,0-4.1-0.6-5.5-1.9s-2.1-3-2.1-5.2V135.8z M385.9,137.6c0,0.8,0.2,1.5,0.7,2
		s1.1,0.8,1.9,0.8c1.6,0,2.5-1,2.5-3.1v-1.4c0-0.8-0.2-1.5-0.7-2c-0.4-0.5-1.1-0.8-1.9-0.8c-0.8,0-1.4,0.3-1.8,0.8s-0.7,1.2-0.7,2.1
		V137.6z M389.9,160.8l-3.7-1.9l16.7-26.7l3.7,1.9L389.9,160.8z M397,154.9c0-2.1,0.7-3.8,2.1-5.1s3.2-1.9,5.5-1.9
		c2.3,0,4.2,0.6,5.6,1.9s2.1,3,2.1,5.3v1.6c0,2.1-0.7,3.8-2,5.1s-3.2,1.9-5.5,1.9c-2.3,0-4.1-0.6-5.5-1.9s-2.1-3-2.1-5.2V154.9z
		 M402.1,156.7c0,0.7,0.2,1.4,0.8,1.9c0.5,0.6,1.1,0.8,1.8,0.8c1.5,0,2.3-0.7,2.5-2.1l0-2.4c0-0.8-0.2-1.5-0.7-2s-1.1-0.8-1.9-0.8
		c-0.8,0-1.4,0.2-1.8,0.7c-0.5,0.5-0.7,1.1-0.7,1.9V156.7z"/>
</g>
<g class="st9">
	<path class="st11" d="M232.6,65V42.3h7.8c2.6,0,4.5,0.5,5.9,1.5s2,2.6,2,4.6c0,1-0.3,2-0.8,2.8c-0.6,0.8-1.4,1.5-2.5,1.9
		c1.2,0.3,2.2,1,2.9,1.9s1,2,1,3.3c0,2.1-0.7,3.8-2.1,4.9c-1.4,1.1-3.3,1.7-5.9,1.7H232.6z M236.5,51.8h3.9c1.2,0,2.2-0.3,2.9-0.8
		c0.7-0.6,1-1.3,1-2.4c0-1.1-0.3-1.9-1-2.4s-1.6-0.8-3-0.8h-3.8V51.8z M236.5,54.8v7.1h4.4c1.2,0,2.2-0.3,2.9-0.9
		c0.7-0.6,1-1.5,1-2.6c0-2.4-1.2-3.6-3.6-3.6H236.5z"/>
	<path class="st11" d="M256.4,65h-3.8V41h3.8V65z"/>
	<path class="st11" d="M270.7,65c-0.2-0.3-0.3-0.8-0.4-1.6c-1.2,1.3-2.7,1.9-4.4,1.9c-1.7,0-3.1-0.5-4.2-1.5c-1.1-1-1.6-2.2-1.6-3.6
		c0-1.8,0.7-3.2,2-4.1c1.3-1,3.3-1.4,5.7-1.4h2.3v-1.1c0-0.9-0.2-1.6-0.7-2.1c-0.5-0.5-1.2-0.8-2.2-0.8c-0.9,0-1.6,0.2-2.1,0.6
		c-0.6,0.4-0.8,1-0.8,1.6h-3.8c0-0.9,0.3-1.8,0.9-2.6c0.6-0.8,1.5-1.4,2.5-1.9c1.1-0.5,2.2-0.7,3.5-0.7c2,0,3.6,0.5,4.7,1.5
		c1.2,1,1.8,2.4,1.8,4.2v7.6c0,1.5,0.2,2.7,0.6,3.6V65H270.7z M266.5,62.3c0.8,0,1.5-0.2,2.1-0.5c0.7-0.4,1.2-0.9,1.5-1.5v-3.2h-2
		c-1.4,0-2.5,0.2-3.2,0.7c-0.7,0.5-1.1,1.2-1.1,2.1c0,0.7,0.2,1.3,0.7,1.7C265,62.1,265.7,62.3,266.5,62.3z"/>
	<path class="st11" d="M284.8,62.3c0.9,0,1.7-0.3,2.4-0.8c0.6-0.6,1-1.2,1-2h3.6c0,1.1-0.4,2-1,2.9c-0.6,0.9-1.4,1.6-2.5,2.2
		c-1.1,0.5-2.2,0.8-3.4,0.8c-2.4,0-4.2-0.8-5.6-2.3c-1.4-1.5-2.1-3.6-2.1-6.3v-0.4c0-2.6,0.7-4.6,2.1-6.2s3.2-2.3,5.6-2.3
		c2,0,3.6,0.6,4.9,1.8s1.9,2.7,2,4.6h-3.6c0-1-0.4-1.8-1-2.4c-0.6-0.6-1.4-0.9-2.4-0.9c-1.2,0-2.2,0.4-2.8,1.3c-0.7,0.9-1,2.2-1,4.1
		v0.6c0,1.8,0.3,3.2,1,4.1C282.6,61.9,283.6,62.3,284.8,62.3z"/>
	<path class="st11" d="M300.1,57.8l-1.7,1.7V65h-3.8V41h3.8v13.8l1.2-1.5l4.7-5.3h4.6l-6.3,7l7,9.9h-4.4L300.1,57.8z"/>
</g>
<g class="st9">
	<path class="st11" d="M30.6,106.4l3.5-17.1h3.9L32.8,112H29l-4.3-16.6L20.3,112h-3.8l-5.2-22.8h3.9l3.5,17.1L23,89.3h3.3
		L30.6,106.4z"/>
	<path class="st11" d="M44.3,97c1.2-1.4,2.8-2.2,4.7-2.2c3.6,0,5.4,2.1,5.5,6.2v11h-3.8v-10.9c0-1.2-0.3-2-0.8-2.5
		c-0.5-0.5-1.2-0.7-2.2-0.7c-1.5,0-2.7,0.7-3.4,2V112h-3.8V88h3.8V97z"/>
	<path class="st11" d="M58.4,90.7c0-0.6,0.2-1.1,0.6-1.5c0.4-0.4,0.9-0.6,1.6-0.6s1.2,0.2,1.6,0.6c0.4,0.4,0.6,0.9,0.6,1.5
		c0,0.6-0.2,1-0.6,1.4c-0.4,0.4-0.9,0.6-1.6,0.6s-1.2-0.2-1.6-0.6C58.5,91.8,58.4,91.3,58.4,90.7z M62.4,112h-3.8V95.1h3.8V112z"/>
	<path class="st11" d="M71.3,91v4.1h3v2.8h-3v9.4c0,0.6,0.1,1.1,0.4,1.4c0.3,0.3,0.7,0.4,1.4,0.4c0.4,0,0.9-0.1,1.3-0.2v2.9
		c-0.9,0.2-1.7,0.4-2.5,0.4c-2.9,0-4.4-1.6-4.4-4.8v-9.6h-2.8v-2.8h2.8V91H71.3z"/>
	<path class="st11" d="M84.6,112.3c-2.4,0-4.4-0.8-5.9-2.3c-1.5-1.5-2.2-3.5-2.2-6.1v-0.5c0-1.7,0.3-3.2,1-4.5
		c0.7-1.3,1.6-2.4,2.7-3.1c1.2-0.7,2.5-1.1,3.9-1.1c2.3,0,4.1,0.7,5.3,2.2c1.3,1.5,1.9,3.5,1.9,6.2v1.5h-11c0.1,1.4,0.6,2.5,1.4,3.3
		c0.8,0.8,1.8,1.2,3.1,1.2c1.7,0,3.2-0.7,4.2-2.1l2,2c-0.7,1-1.6,1.8-2.7,2.4C87.3,112.1,86,112.3,84.6,112.3z M84.2,97.9
		c-1,0-1.9,0.4-2.5,1.1c-0.6,0.7-1,1.7-1.2,3h7.2v-0.3c-0.1-1.3-0.4-2.2-1-2.9C86,98.2,85.2,97.9,84.2,97.9z"/>
	<path class="st11" d="M95.4,114h-3l9-24.7h3L95.4,114z"/>
	<path class="st11" d="M120.1,106.7h-8.8l-1.8,5.3h-4.1l8.6-22.8h3.5l8.6,22.8H122L120.1,106.7z M112.4,103.6h6.6l-3.3-9.4
		L112.4,103.6z"/>
	<path class="st11" d="M137.8,107.4c0-0.7-0.3-1.2-0.8-1.5c-0.6-0.4-1.5-0.7-2.8-0.9c-1.3-0.3-2.4-0.6-3.2-1c-1.9-0.9-2.8-2.2-2.8-4
		c0-1.5,0.6-2.7,1.8-3.7c1.2-1,2.8-1.5,4.7-1.5c2,0,3.7,0.5,4.9,1.5c1.2,1,1.9,2.3,1.9,3.9h-3.8c0-0.7-0.3-1.3-0.8-1.8
		c-0.5-0.5-1.3-0.7-2.2-0.7c-0.8,0-1.5,0.2-2,0.6c-0.5,0.4-0.8,0.9-0.8,1.5c0,0.6,0.2,1,0.7,1.4c0.5,0.3,1.5,0.6,3,1
		c1.5,0.3,2.7,0.7,3.5,1.2c0.8,0.5,1.5,1,1.9,1.6c0.4,0.6,0.6,1.4,0.6,2.3c0,1.5-0.6,2.8-1.9,3.7c-1.3,0.9-2.9,1.4-5,1.4
		c-1.4,0-2.6-0.2-3.7-0.8c-1.1-0.5-1.9-1.2-2.5-2.1c-0.6-0.9-0.9-1.8-0.9-2.8h3.7c0.1,0.9,0.4,1.6,1,2.1s1.5,0.7,2.5,0.7
		c1,0,1.8-0.2,2.3-0.6C137.5,108.6,137.8,108.1,137.8,107.4z"/>
	<path class="st11" d="M144.8,90.7c0-0.6,0.2-1.1,0.6-1.5c0.4-0.4,0.9-0.6,1.6-0.6s1.2,0.2,1.6,0.6c0.4,0.4,0.6,0.9,0.6,1.5
		c0,0.6-0.2,1-0.6,1.4c-0.4,0.4-0.9,0.6-1.6,0.6s-1.2-0.2-1.6-0.6C145,91.8,144.8,91.3,144.8,90.7z M148.8,112h-3.8V95.1h3.8V112z"
		/>
	<path class="st11" d="M163.1,112c-0.2-0.3-0.3-0.8-0.4-1.6c-1.2,1.3-2.7,1.9-4.4,1.9c-1.7,0-3.1-0.5-4.2-1.5
		c-1.1-1-1.6-2.2-1.6-3.6c0-1.8,0.7-3.2,2-4.1c1.3-1,3.3-1.4,5.7-1.4h2.3v-1.1c0-0.9-0.2-1.6-0.7-2.1c-0.5-0.5-1.2-0.8-2.2-0.8
		c-0.9,0-1.6,0.2-2.1,0.6c-0.6,0.4-0.8,1-0.8,1.6h-3.8c0-0.9,0.3-1.8,0.9-2.6c0.6-0.8,1.5-1.4,2.5-1.9c1.1-0.5,2.2-0.7,3.5-0.7
		c2,0,3.6,0.5,4.7,1.5c1.2,1,1.8,2.4,1.8,4.2v7.6c0,1.5,0.2,2.7,0.6,3.6v0.3H163.1z M158.9,109.3c0.8,0,1.5-0.2,2.1-0.5
		c0.7-0.4,1.2-0.9,1.5-1.5v-3.2h-2c-1.4,0-2.5,0.2-3.2,0.7c-0.7,0.5-1.1,1.2-1.1,2.1c0,0.7,0.2,1.3,0.7,1.7
		C157.5,109.1,158.1,109.3,158.9,109.3z"/>
	<path class="st11" d="M173.8,95.1l0.1,2c1.2-1.5,2.9-2.3,4.9-2.3c3.5,0,5.3,2,5.4,6V112h-3.8v-11c0-1.1-0.2-1.9-0.7-2.4
		c-0.5-0.5-1.2-0.8-2.3-0.8c-1.5,0-2.7,0.7-3.4,2.1v12h-3.8V95.1H173.8z"/>
	<path class="st11" d="M195.5,103.9h-8.2v-3.1h8.2V103.9z"/>
	<path class="st11" d="M203.1,112h-3.9V89.3h3.9V112z"/>
	<path class="st11" d="M211.1,95.1l0.1,2c1.2-1.5,2.9-2.3,4.9-2.3c3.5,0,5.3,2,5.4,6V112h-3.8v-11c0-1.1-0.2-1.9-0.7-2.4
		c-0.5-0.5-1.2-0.8-2.3-0.8c-1.5,0-2.7,0.7-3.4,2.1v12h-3.8V95.1H211.1z"/>
	<path class="st11" d="M224.7,103.5c0-2.6,0.6-4.7,1.8-6.3c1.2-1.6,2.8-2.4,4.9-2.4c1.8,0,3.2,0.6,4.3,1.9V88h3.8v24h-3.4l-0.2-1.8
		c-1.1,1.4-2.7,2.1-4.5,2.1c-2,0-3.6-0.8-4.8-2.4C225.3,108.4,224.7,106.2,224.7,103.5z M228.5,103.8c0,1.7,0.3,3.1,1,4
		c0.7,1,1.6,1.4,2.8,1.4c1.6,0,2.7-0.7,3.4-2.1V100c-0.7-1.4-1.8-2-3.4-2c-1.2,0-2.2,0.5-2.8,1.5
		C228.8,100.4,228.5,101.8,228.5,103.8z"/>
	<path class="st11" d="M243.5,90.7c0-0.6,0.2-1.1,0.6-1.5c0.4-0.4,0.9-0.6,1.6-0.6s1.2,0.2,1.6,0.6c0.4,0.4,0.6,0.9,0.6,1.5
		c0,0.6-0.2,1-0.6,1.4c-0.4,0.4-0.9,0.6-1.6,0.6s-1.2-0.2-1.6-0.6C243.7,91.8,243.5,91.3,243.5,90.7z M247.5,112h-3.8V95.1h3.8V112z
		"/>
	<path class="st11" d="M261.8,112c-0.2-0.3-0.3-0.8-0.4-1.6c-1.2,1.3-2.7,1.9-4.4,1.9c-1.7,0-3.1-0.5-4.2-1.5
		c-1.1-1-1.6-2.2-1.6-3.6c0-1.8,0.7-3.2,2-4.1c1.3-1,3.3-1.4,5.7-1.4h2.3v-1.1c0-0.9-0.2-1.6-0.7-2.1c-0.5-0.5-1.2-0.8-2.2-0.8
		c-0.9,0-1.6,0.2-2.1,0.6c-0.6,0.4-0.8,1-0.8,1.6h-3.8c0-0.9,0.3-1.8,0.9-2.6c0.6-0.8,1.5-1.4,2.5-1.9c1.1-0.5,2.2-0.7,3.5-0.7
		c2,0,3.6,0.5,4.7,1.5c1.2,1,1.8,2.4,1.8,4.2v7.6c0,1.5,0.2,2.7,0.6,3.6v0.3H261.8z M257.6,109.3c0.8,0,1.5-0.2,2.1-0.5
		c0.7-0.4,1.2-0.9,1.5-1.5v-3.2h-2c-1.4,0-2.5,0.2-3.2,0.7c-0.7,0.5-1.1,1.2-1.1,2.1c0,0.7,0.2,1.3,0.7,1.7
		C256.1,109.1,256.8,109.3,257.6,109.3z"/>
	<path class="st11" d="M272.5,95.1l0.1,2c1.2-1.5,2.9-2.3,4.9-2.3c3.5,0,5.3,2,5.4,6V112h-3.8v-11c0-1.1-0.2-1.9-0.7-2.4
		c-0.5-0.5-1.2-0.8-2.3-0.8c-1.5,0-2.7,0.7-3.4,2.1v12h-3.8V95.1H272.5z"/>
</g>
<g class="st9">
	<path class="st11" d="M161.8,155.8c-0.2,2.4-1.1,4.3-2.7,5.7s-3.6,2-6.2,2c-1.8,0-3.4-0.4-4.8-1.3c-1.4-0.9-2.4-2.1-3.2-3.7
		c-0.8-1.6-1.1-3.4-1.2-5.5v-2.1c0-2.1,0.4-4,1.1-5.7c0.8-1.6,1.9-2.9,3.3-3.8c1.4-0.9,3.1-1.3,4.9-1.3c2.5,0,4.5,0.7,6.1,2
		s2.4,3.3,2.7,5.8h-3.9c-0.2-1.6-0.7-2.8-1.4-3.5c-0.8-0.7-1.9-1.1-3.4-1.1c-1.7,0-3,0.6-4,1.9c-0.9,1.3-1.4,3.1-1.4,5.5v2
		c0,2.5,0.4,4.3,1.3,5.6c0.9,1.3,2.2,1.9,3.9,1.9c1.6,0,2.7-0.3,3.5-1c0.8-0.7,1.3-1.9,1.5-3.5H161.8z"/>
	<path class="st11" d="M164.2,154.6c0-1.7,0.3-3.1,1-4.5s1.6-2.3,2.8-3.1c1.2-0.7,2.6-1.1,4.1-1.1c2.3,0,4.1,0.7,5.6,2.2
		s2.2,3.4,2.3,5.8l0,0.9c0,1.7-0.3,3.2-1,4.5s-1.6,2.3-2.8,3c-1.2,0.7-2.6,1.1-4.1,1.1c-2.4,0-4.3-0.8-5.7-2.4
		c-1.4-1.6-2.1-3.7-2.1-6.4V154.6z M168,154.9c0,1.7,0.4,3.1,1.1,4.1s1.7,1.5,3,1.5s2.3-0.5,3-1.5c0.7-1,1.1-2.5,1.1-4.4
		c0-1.7-0.4-3.1-1.1-4.1s-1.7-1.5-3-1.5c-1.2,0-2.2,0.5-3,1.5C168.4,151.5,168,153,168,154.9z"/>
	<path class="st11" d="M187.2,163.2h-3.8v-24h3.8V163.2z"/>
	<path class="st11" d="M190.6,154.6c0-1.7,0.3-3.1,1-4.5s1.6-2.3,2.8-3.1c1.2-0.7,2.6-1.1,4.1-1.1c2.3,0,4.1,0.7,5.6,2.2
		s2.2,3.4,2.3,5.8l0,0.9c0,1.7-0.3,3.2-1,4.5s-1.6,2.3-2.8,3c-1.2,0.7-2.6,1.1-4.1,1.1c-2.4,0-4.3-0.8-5.7-2.4
		c-1.4-1.6-2.1-3.7-2.1-6.4V154.6z M194.4,154.9c0,1.7,0.4,3.1,1.1,4.1s1.7,1.5,3,1.5s2.3-0.5,3-1.5c0.7-1,1.1-2.5,1.1-4.4
		c0-1.7-0.4-3.1-1.1-4.1s-1.7-1.5-3-1.5c-1.2,0-2.2,0.5-3,1.5C194.8,151.5,194.4,153,194.4,154.9z"/>
	<path class="st11" d="M219.8,161.5c-1.1,1.3-2.7,2-4.8,2c-1.8,0-3.2-0.5-4.2-1.6c-0.9-1.1-1.4-2.6-1.4-4.7v-11h3.8v10.9
		c0,2.1,0.9,3.2,2.7,3.2c1.8,0,3.1-0.7,3.7-2v-12.1h3.8v16.9h-3.6L219.8,161.5z"/>
	<path class="st11" d="M236.2,149.8c-0.5-0.1-1-0.1-1.5-0.1c-1.7,0-2.9,0.7-3.5,2v11.6h-3.8v-16.9h3.6l0.1,1.9
		c0.9-1.5,2.2-2.2,3.8-2.2c0.5,0,1,0.1,1.3,0.2L236.2,149.8z"/>
	<path class="st11" d="M245.7,163.5c-2.4,0-4.4-0.8-5.9-2.3c-1.5-1.5-2.2-3.5-2.2-6.1v-0.5c0-1.7,0.3-3.2,1-4.5
		c0.7-1.3,1.6-2.4,2.7-3.1c1.2-0.7,2.5-1.1,3.9-1.1c2.3,0,4.1,0.7,5.3,2.2c1.3,1.5,1.9,3.5,1.9,6.2v1.5h-11c0.1,1.4,0.6,2.5,1.4,3.3
		c0.8,0.8,1.8,1.2,3.1,1.2c1.7,0,3.2-0.7,4.2-2.1l2,2c-0.7,1-1.6,1.8-2.7,2.4C248.4,163.2,247.1,163.5,245.7,163.5z M245.3,149
		c-1,0-1.9,0.4-2.5,1.1c-0.6,0.7-1,1.7-1.2,3h7.2v-0.3c-0.1-1.3-0.4-2.2-1-2.9C247.1,149.4,246.3,149,245.3,149z"/>
	<path class="st11" d="M254.7,154.6c0-2.6,0.6-4.7,1.8-6.3c1.2-1.6,2.8-2.4,4.9-2.4c1.8,0,3.2,0.6,4.3,1.9v-8.7h3.8v24h-3.4
		l-0.2-1.8c-1.1,1.4-2.7,2.1-4.5,2.1c-2,0-3.6-0.8-4.8-2.4C255.3,159.5,254.7,157.4,254.7,154.6z M258.5,154.9c0,1.7,0.3,3.1,1,4
		c0.7,1,1.6,1.4,2.8,1.4c1.6,0,2.7-0.7,3.4-2.1v-7.2c-0.7-1.4-1.8-2-3.4-2c-1.2,0-2.2,0.5-2.8,1.5
		C258.9,151.5,258.5,153,258.5,154.9z"/>
</g>
</svg>
