<?xml version="1.0" encoding="utf-8"?>
<svg version="1.1" id="Layer_1" x="0px" y="0px" viewBox="0 0 37 39" style="enable-background:new 0 0 200 200;" xmlns="http://www.w3.org/2000/svg">
  <style type="text/css">
	.st0{fill:#AEC2C1;}
	.st1{fill:none;stroke:#FFFFFF;stroke-width:1.25;stroke-linecap:round;stroke-linejoin:round;stroke-miterlimit:10;}
	.st2{fill:#FFFFFF;}
</style>
  <g transform="matrix(1, 0, 0, 1, -81.60672, -71.072594)">
    <path class="st1" d="M102.3,80.9l-2.5-2.1l-2.5,2.1c-0.3,0.3-0.8,0-0.8-0.4V74h6.5v6.6C103.1,81,102.7,81.2,102.3,80.9z"/>
    <path class="st1" d="M95.2,94L92.8,92L90.3,94c-0.3,0.3-0.8,0-0.8-0.4v-6.6h6.5v6.6C96.1,94.1,95.6,94.3,95.2,94z"/>
    <path class="st1" d="M110.5,96.2l-2.5-2.1l-2.5,2.1c-0.3,0.3-0.8,0-0.8-0.4v-6.6h6.5v6.6C111.3,96.3,110.8,96.5,110.5,96.2z"/>
    <path class="st1" d="M96.1,87.6v-0.5h-6.5v0.5h-2.7c-1.2,0-2.2,1-2.2,2.2v13.6c0,1.2,1,2.2,2.2,2.2h12c1.2,0,2.2-1,2.2-2.2V89.8 c0-1.2-1-2.2-2.2-2.2H96.1z"/>
    <path class="st1" d="M111.3,89.8v-0.5h-6.5v0.5h-1.6c-1.2,0-2.2,1-2.2,2.2v11.5c0,1.2,1,2.2,2.2,2.2h9.8c1.2,0,2.2-1,2.2-2.2V92 c0-1.2-1-2.2-2.2-2.2H111.3z"/>
    <path class="st1" d="M108.1,74.5h-4.9V74h-6.5v0.5h-4.9c-1.2,0-2.2,1-2.2,2.2v10.4h6.5v0.5h2.7c1.2,0,2.2,1,2.2,2.2V92 c0-1.2,1-2.2,2.2-2.2h1.6v-0.5h5.5V76.7C110.2,75.5,109.3,74.5,108.1,74.5z"/>
    <line class="st1" x1="97.1" y1="103.4" x2="98.8" y2="103.4"/>
    <line class="st1" x1="96.1" y1="101.3" x2="98.8" y2="101.3"/>
    <line class="st1" x1="111.3" y1="103.4" x2="113" y2="103.4"/>
    <line class="st1" x1="110.2" y1="101.3" x2="113" y2="101.3"/>
  </g>
</svg>