<?xml version="1.0" encoding="utf-8"?>
<svg version="1.1" id="Layer_1" x="0px" y="0px" viewBox="0 0 80 80" style="enable-background:new 0 0 200 200;" preserveAspectRatio="xMinYMin" xmlns="http://www.w3.org/2000/svg">
  <style type="text/css">
	.st0{fill:#AEC2C1;}
	.st1{fill:none;stroke:#FFFFFF;stroke-width:1.25;stroke-linecap:round;stroke-linejoin:round;stroke-miterlimit:10;}
	.st2{fill:#FFFFFF;}
</style>
  <g transform="matrix(2.242945, 0, 0, 2.242945, -185.028763, -165.218842)" style="">
    <circle class="st1" cx="89.6" cy="102.9" r="2.7"/>
    <circle class="st1" cx="110.1" cy="102.9" r="2.7"/>
    <path class="st1" d="M84.2,98v4.3c0,0.3,0.3,0.6,0.6,0.6h2.1c0-1.5,1.2-2.7,2.7-2.7s2.7,1.2,2.7,2.7h15.1c0-1.5,1.2-2.7,2.7-2.7 s2.7,1.2,2.7,2.7h2.1c0.3,0,0.6-0.3,0.6-0.6V98H84.2z"/>
    <path class="st1" d="M115.6,98H84.2v-1.1c0-0.6,0.5-1.1,1.1-1.1h29.2c0.6,0,1.1,0.5,1.1,1.1V98z"/>
    <path class="st1" d="M85,76L85,76c-0.4,0.3-0.6,0.9-0.3,1.3l1.5,2.4c0.5,0.7,0.7,1.6,0.7,2.5v13.6h2.2V81.7c0-0.9-0.3-1.8-0.8-2.6 l-1.9-2.9C86.1,75.8,85.4,75.7,85,76z"/>
    <path class="st1" d="M101,95.8h-9.7v-8.7c0-0.6,0.4-1,1-1h8.7V95.8z"/>
    <rect x="94.5" y="86.1" class="st1" width="3.2" height="3.2"/>
    <path class="st1" d="M110.7,95.8H101v-9.7h8.7c0.6,0,1,0.4,1,1V95.8z"/>
    <rect x="104.2" y="86.1" class="st1" width="3.2" height="3.2"/>
    <path class="st1" d="M105.8,86.1h-9.7v-8.7c0-0.6,0.4-1,1-1h7.7c0.6,0,1,0.4,1,1V86.1z"/>
    <rect x="99.3" y="76.4" class="st1" width="3.2" height="3.2"/>
  </g>
</svg>