<?xml version="1.0" encoding="utf-8"?>
<!-- Generator: Adobe Illustrator 24.3.0, SVG Export Plug-In . SVG Version: 6.00 Build 0)  -->
<svg version="1.1" id="Layer_1" xmlns="http://www.w3.org/2000/svg" xmlns:xlink="http://www.w3.org/1999/xlink" x="0px" y="0px"
	 viewBox="0 0 894.3 889.7" style="enable-background:new 0 0 894.3 889.7;" xml:space="preserve">
<style type="text/css">
	.st0{fill:#BCD0CC;}
	.st1{fill:#2FC0D2;}
	.st2{fill:#CCCCCC;}
	.st3{fill:#F1F2F1;}
	.st4{fill:#F36D26;}
	.st5{fill:none;stroke:#CCCCCC;stroke-miterlimit:10;}
</style>
<g>
	<path class="st0" d="M445.2,10.1C204.5,10.1,9.3,205.3,9.3,446c0,29.3,2.9,57.8,8.4,85.5L445.2,446V10.1z"/>
	<path class="st0" d="M445.2,881.9V446L17.8,531.5C57.5,731.3,233.8,881.9,445.2,881.9z"/>
	<path class="st1" d="M445.2,882.5V446.6L292.6,854.2C292.6,854.2,363.8,883.8,445.2,882.5z"/>
</g>
<path class="st2" d="M63.2,446c0,214,173.5,387.5,387.5,387.5V58.6C236.6,58.6,63.2,232.1,63.2,446z"/>
<path class="st3" d="M79.3,446c0,205.1,166.2,371.3,371.3,371.3V74.7C245.5,74.7,79.3,241,79.3,446z"/>
<path class="st0" d="M784.5,721.3L446.7,446V10.2c211.5,0,387.7,150.6,427.4,350.4c5.5,27.6,8.4,56.2,8.4,85.5
	C882.5,550.5,845.8,646.3,784.5,721.3z"/>
<path class="st4" d="M446.7,881.9V446l337.9,275.3C704.6,819.3,583,881.9,446.7,881.9z"/>
<path class="st2" d="M834.1,446c0-214-173.5-387.5-387.5-387.5v774.9C660.6,833.5,834.1,660,834.1,446z"/>
<path class="st3" d="M818,446C818,241,651.7,74.7,446.7,74.7v742.6C651.7,817.3,818,651.1,818,446z"/>
<line class="st5" x1="446.7" y1="817.3" x2="446.7" y2="74.7"/>
<g>
	<path class="st0" d="M361.8,462l-33-80.7c-0.5-1.3-2.2-3.4-2.2-3.4s-7.3-11-33-11c-25.7,0-33,11-33,11s-1.6,2.2-2.2,3.4l-33,80.7
		c-2.2,5.3,0.4,11.3,5.6,13.4c1.3,0.5,2.6,0.8,3.9,0.8c4,0,7.9-2.4,9.5-6.4l19.8-48.4l0,0.5l-25.7,91.8c0,0,10.6-3,26-5.2l-4.6,70.4
		c-0.4,6.5,4.5,12.1,10.9,12.5c0.3,0,0.5,0,0.8,0c6.1,0,11.3-4.8,11.7-11l4.9-74c1.8-0.1,3.6-0.1,5.4-0.1c1.8,0,3.6,0,5.4,0.1
		l4.9,74c0.4,6.2,5.6,11,11.7,11c0.3,0,0.5,0,0.8,0c6.5-0.4,11.4-6,10.9-12.5l-4.6-70.4c15.4,2.2,26,5.2,26,5.2L323,421.9l0-0.5
		l19.8,48.4c1.6,4,5.5,6.4,9.5,6.4c1.3,0,2.6-0.3,3.9-0.8C361.5,473.3,364,467.3,361.8,462z"/>
	<path class="st0" d="M293.6,355.8c14.2,0,25.7-11.5,25.7-25.7c0-14.2-11.5-25.7-25.7-25.7c-14.2,0-25.7,11.5-25.7,25.7
		C267.9,344.3,279.4,355.8,293.6,355.8z"/>
</g>
<g>
	<path class="st0" d="M670.1,455.3l-34.4-84c-0.5-1.3-1.3-2.5-2.3-3.4c0,0-7.6-11.6-34.3-11.6c-26.7,0-34.3,11.6-34.3,11.6
		c-0.9,1-1.7,2.1-2.3,3.4l-34.4,84c-2.2,5.5,0.4,11.7,5.8,13.9c1.3,0.5,2.7,0.8,4,0.8c4.2,0,8.2-2.5,9.9-6.6l18.6-45.4l2.5,60.4
		l-6.5,98.2c-0.5,7.6,5.2,14.1,12.8,14.6c0.3,0,0.6,0,0.9,0c7.2,0,13.2-5.6,13.7-12.8l5.4-96.2c0,0,0-3.8,3.8-3.8s3.8,3.8,3.8,3.8
		l5.4,96.2c0.5,7.3,6.5,12.8,13.7,12.8c0.3,0,0.6,0,0.9,0c7.6-0.5,13.3-7,12.8-14.6l-6.5-98.2l2.5-60.4l18.6,45.4
		c1.7,4.1,5.7,6.6,9.9,6.6c1.3,0,2.7-0.3,4-0.8C669.7,467,672.3,460.8,670.1,455.3z"/>
	<path class="st0" d="M599.1,344.9c14.8,0,26.7-12,26.7-26.7c0-14.8-12-26.7-26.7-26.7c-14.8,0-26.7,12-26.7,26.7
		C572.4,332.9,584.4,344.9,599.1,344.9z"/>
</g>
</svg>
