<?xml version="1.0" encoding="utf-8"?>
<!-- Generator: Adobe Illustrator 24.2.1, SVG Export Plug-In . SVG Version: 6.00 Build 0)  -->
<svg version="1.1" id="Layer_1" xmlns="http://www.w3.org/2000/svg" xmlns:xlink="http://www.w3.org/1999/xlink" x="0px" y="0px"
	 viewBox="0 0 200 200" style="enable-background:new 0 0 200 200;" xml:space="preserve">
<style type="text/css">
	.st0{fill:#5BAF95;}
</style>
<g>
	<path class="st0" d="M32.2,128.5c-0.3,0-0.6-0.1-0.9-0.2c-1-0.4-1.7-1.4-1.7-2.5V103H14.3c-1.5,0-2.6-1.2-2.6-2.6V12.6
		c0-1.5,1.2-2.6,2.6-2.6H131c1.5,0,2.6,1.2,2.6,2.6v71c0,1.5-1.2,2.6-2.6,2.6H84.2v14.2c0,1.5-1.2,2.6-2.6,2.6H55l-20.8,24.5
		C33.7,128.2,32.9,128.5,32.2,128.5z M16.9,97.9h15.3c1.5,0,2.6,1.2,2.6,2.6v18.2l16.9-19.9c0.5-0.6,1.2-0.9,2-0.9H79V83.6
		c0-1.5,1.2-2.6,2.6-2.6h46.8V15.2H16.9V97.9z"/>
</g>
<g>
	<path class="st0" d="M135.2,192.5c-0.9,0-1.8-0.5-2.3-1.3l-14-24.2H81.6c-1.5,0-2.6-1.2-2.6-2.6V83.6c0-1.5,1.2-2.6,2.6-2.6h107.2
		c1.5,0,2.6,1.2,2.6,2.6v80.7c0,1.5-1.2,2.6-2.6,2.6h-37.3l-14,24.2C137,192,136.1,192.5,135.2,192.5z M84.2,161.7h36.2
		c0.9,0,1.8,0.5,2.3,1.3l12.5,21.6l12.5-21.6c0.5-0.8,1.3-1.3,2.3-1.3h36.2V86.2h-102V161.7z"/>
</g>
<g>
	<path class="st0" d="M109.8,134.9c-5.8,0-10.5-4.7-10.5-10.5s4.7-10.5,10.5-10.5s10.5,4.7,10.5,10.5
		C120.4,130.2,115.7,134.9,109.8,134.9z M109.8,119.1c-2.9,0-5.3,2.4-5.3,5.3s2.4,5.3,5.3,5.3s5.3-2.4,5.3-5.3
		C115.1,121.5,112.7,119.1,109.8,119.1z"/>
</g>
<g>
	<path class="st0" d="M133.9,134.9c-5.8,0-10.5-4.7-10.5-10.5s4.7-10.5,10.5-10.5s10.5,4.7,10.5,10.5S139.7,134.9,133.9,134.9z
		 M133.9,119.1c-2.9,0-5.3,2.4-5.3,5.3s2.4,5.3,5.3,5.3c2.9,0,5.3-2.4,5.3-5.3C139.1,121.5,136.8,119.1,133.9,119.1z"/>
</g>
<g>
	<path class="st0" d="M157.9,134.9c-5.8,0-10.5-4.7-10.5-10.5s4.7-10.5,10.5-10.5s10.5,4.7,10.5,10.5
		C168.5,130.2,163.7,134.9,157.9,134.9z M157.9,119.1c-2.9,0-5.3,2.4-5.3,5.3s2.4,5.3,5.3,5.3c2.9,0,5.3-2.4,5.3-5.3
		C163.2,121.5,160.8,119.1,157.9,119.1z"/>
</g>
<g>
	<path class="st0" d="M108.1,44.1h-71c-1.5,0-2.6-1.2-2.6-2.6c0-1.5,1.2-2.6,2.6-2.6h71c1.5,0,2.6,1.2,2.6,2.6
		C110.8,42.9,109.6,44.1,108.1,44.1z"/>
</g>
<g>
	<path class="st0" d="M108.1,69.6h-71c-1.5,0-2.6-1.2-2.6-2.6s1.2-2.6,2.6-2.6h71c1.5,0,2.6,1.2,2.6,2.6S109.6,69.6,108.1,69.6z"/>
</g>
</svg>
