<?xml version="1.0" encoding="utf-8"?>
<!-- Generator: Adobe Illustrator 24.2.1, SVG Export Plug-In . SVG Version: 6.00 Build 0)  -->
<svg version="1.1" id="Layer_1" xmlns="http://www.w3.org/2000/svg" xmlns:xlink="http://www.w3.org/1999/xlink" x="0px" y="0px"
	 viewBox="0 0 200 200" style="enable-background:new 0 0 200 200;" xml:space="preserve">
<style type="text/css">
	.st0{fill:none;stroke:#5BAF95;stroke-width:5;stroke-linejoin:round;stroke-miterlimit:10;}
	.st1{fill:none;stroke:#5BAF95;stroke-width:5;stroke-linecap:round;stroke-linejoin:round;stroke-miterlimit:10;}
</style>
<g>
	<path class="st0" d="M101.3,11c0,0-20.5,24.6-67.7,24.6v58.7c0,30.7,13.3,60.2,37.4,79.2c8.5,6.7,18.6,12.5,30.3,15.9
		c11.7-3.5,21.7-9.2,30.3-15.9C155.7,154.6,169,125,169,94.3V35.6C121.8,35.6,101.3,11,101.3,11z"/>
	<path class="st0" d="M101.3,169.9c-6.5-2.6-12.9-6.2-18.9-10.9C63.4,144.1,52,119.9,52,94.3V52.9c22.8-2.9,39-10.8,49.3-17.8
		c10.3,7,26.5,14.9,49.2,17.8v41.4c0,25.5-11.4,49.7-30.4,64.7C114.2,163.7,107.8,167.4,101.3,169.9z"/>
	<polyline class="st1" points="138.2,75.6 95.2,124.8 70.6,100.2 	"/>
</g>
</svg>
