<?xml version="1.0" encoding="utf-8"?>
<!-- Generator: Adobe Illustrator 24.2.1, SVG Export Plug-In . SVG Version: 6.00 Build 0)  -->
<svg version="1.1" id="Layer_1" focusable="false" xmlns="http://www.w3.org/2000/svg" xmlns:xlink="http://www.w3.org/1999/xlink"
	 x="0px" y="0px" viewBox="0 0 512 512" style="enable-background:new 0 0 512 512;" xml:space="preserve">
<style type="text/css">
	.st0{fill:#9798A0;}
</style>
<path class="st0" d="M256,8c137,0,248,111,248,248S393,504,256,504S8,393,8,256S119,8,256,8z M369.9,239L234.4,103.5
	c-9.4-9.4-24.6-9.4-33.9,0l-17,17c-9.4,9.4-9.4,24.6,0,33.9L285.1,256L183.5,357.6c-9.4,9.4-9.4,24.6,0,33.9l17,17
	c9.4,9.4,24.6,9.4,33.9,0L369.9,273C379.3,263.6,379.3,248.4,369.9,239z"/>
</svg>
