<?xml version="1.0" encoding="utf-8"?>
<!-- Generator: Adobe Illustrator 24.2.1, SVG Export Plug-In . SVG Version: 6.00 Build 0)  -->
<svg version="1.1" id="Layer_1" xmlns="http://www.w3.org/2000/svg" xmlns:xlink="http://www.w3.org/1999/xlink" x="0px" y="0px"
	 viewBox="0 0 200 200" style="enable-background:new 0 0 200 200;" xml:space="preserve">
<style type="text/css">
	.st0{fill:none;stroke:#BA5555;stroke-width:5;stroke-linejoin:round;stroke-miterlimit:10;}
	.st1{fill:none;stroke:#BA5555;stroke-width:5;stroke-linecap:round;stroke-linejoin:round;stroke-miterlimit:10;}
</style>
<path class="st0" d="M101.5,11.3c0,0-20.5,24.5-67.5,24.5v58.6c0,30.6,13.3,60.1,37.3,79c8.5,6.7,18.5,12.4,30.2,15.9
	c11.6-3.5,21.7-9.2,30.2-15.9c24-18.9,37.3-48.4,37.3-79V35.9C122,35.9,101.5,11.3,101.5,11.3z"/>
<path class="st0" d="M101.5,169.8c-6.5-2.6-12.8-6.2-18.8-10.9c-19-14.9-30.3-39-30.3-64.5V53.1c22.7-2.9,38.8-10.8,49.1-17.8
	c10.3,7,26.4,14.9,49.1,17.8v41.3c0,25.5-11.3,49.6-30.3,64.5C114.3,163.6,108,167.3,101.5,169.8z"/>
<line class="st1" x1="129.1" y1="69.6" x2="73.9" y2="127.9"/>
<line class="st1" x1="132.2" y1="127.9" x2="73.9" y2="69.6"/>
</svg>
