<?xml version="1.0" encoding="utf-8"?>
<svg preserveAspectRatio="none" viewBox="0 0 96 96" xmlns="http://www.w3.org/2000/svg">
  <rect x="25.755" y="27.421" fill="none" stroke-width="2" stroke-linecap="round" stroke-linejoin="round" stroke-miterlimit="10" width="12.575" height="59.593" style="paint-order: fill markers; stroke: rgb(255, 255, 255);"/>
  <line fill="none" stroke-width="2" stroke-linecap="round" stroke-linejoin="round" stroke-miterlimit="10" x1="25.755" y1="73.034" x2="38.33" y2="73.034" style="paint-order: fill markers; stroke: rgb(255, 255, 255);"/>
  <rect x="43.954" y="27.421" fill="none" stroke-width="2" stroke-linecap="round" stroke-linejoin="round" stroke-miterlimit="10" width="12.575" height="59.593" style="paint-order: fill markers; stroke: rgb(255, 255, 255);"/>
  <line fill="none" stroke-width="2" stroke-linecap="round" stroke-linejoin="round" stroke-miterlimit="10" x1="56.528" y1="41.401" x2="43.954" y2="41.401" style="paint-order: fill markers; stroke: rgb(255, 255, 255);"/>
  <rect x="61.918" y="27.421" fill="none" stroke-width="2" stroke-linecap="round" stroke-linejoin="round" stroke-miterlimit="10" width="12.575" height="59.593" style="paint-order: fill markers; stroke: rgb(255, 255, 255);"/>
  <line fill="none" stroke-width="2" stroke-linecap="round" stroke-linejoin="round" stroke-miterlimit="10" x1="74.492" y1="41.401" x2="61.918" y2="41.401" style="paint-order: fill markers; stroke: rgb(255, 255, 255);"/>
  <path fill-rule="evenodd" clip-rule="evenodd" d="M 38.174 5.084 C 37.158 5.709 36.377 6.646 35.831 7.583 C 36.142 7.27 36.534 6.957 36.924 6.724 C 40.439 4.459 45.046 5.474 47.311 8.911 C 48.093 10.16 48.484 11.488 48.484 12.816 C 49.03 10.942 48.796 8.832 47.624 7.115 C 45.672 3.912 41.376 2.975 38.174 5.084 L 38.174 5.084 Z" style="paint-order: fill markers; fill: rgb(255, 255, 255); stroke: rgb(255, 255, 255);"/>
  <path fill-rule="evenodd" clip-rule="evenodd" d="M 25.521 5.942 C 24.662 7.349 24.505 8.989 24.974 10.395 C 25.053 9.614 25.365 8.754 25.833 7.974 C 27.63 4.85 31.613 3.835 34.737 5.631 C 34.972 5.787 35.284 5.942 35.518 6.177 C 35.05 5.24 34.269 4.459 33.331 3.835 C 30.597 2.35 27.083 3.209 25.521 5.942 L 25.521 5.942 Z" style="paint-order: fill markers; fill: rgb(255, 255, 255); stroke: rgb(255, 255, 255);"/>
  <path fill-rule="evenodd" clip-rule="evenodd" d="M 33.722 8.52 C 34.737 8.911 35.518 9.692 35.909 10.629 C 35.518 10.239 35.05 9.927 34.503 9.769 C 32.238 8.911 29.739 10.082 28.957 12.347 C 28.88 12.581 28.802 12.738 28.802 12.972 C 28.645 12.27 28.722 11.566 28.957 10.864 C 29.582 8.754 31.769 7.739 33.722 8.52 L 33.722 8.52 Z" style="paint-order: fill markers; fill: rgb(255, 255, 255); stroke: rgb(255, 255, 255);"/>
  <path fill-rule="evenodd" clip-rule="evenodd" d="M 34.19 12.27 C 32.629 12.816 31.457 13.909 30.832 15.315 C 31.457 14.769 32.16 14.3 33.019 14.066 C 36.377 12.894 40.127 14.69 41.297 18.127 C 41.376 18.439 41.454 18.752 41.532 19.064 C 41.766 18.049 41.766 16.955 41.376 15.861 C 40.361 12.816 37.158 11.255 34.19 12.27 L 34.19 12.27 Z" style="paint-order: fill markers; fill: rgb(255, 255, 255); stroke: rgb(255, 255, 255);"/>
  <path fill-rule="evenodd" clip-rule="evenodd" d="M 40.986 10.473 C 40.127 10.864 39.501 11.488 39.112 12.192 C 39.345 12.034 39.657 11.879 39.891 11.723 C 42.157 10.707 44.812 11.723 45.828 13.987 C 46.219 14.769 46.296 15.627 46.14 16.487 C 46.843 15.315 47.077 13.909 46.452 12.581 C 45.984 11.566 45.204 10.864 44.344 10.473 C 43.407 8.911 41.845 7.817 39.891 7.427 C 39.58 7.349 39.267 7.349 39.033 7.349 C 40.517 7.817 41.766 8.832 42.626 10.082 C 42.001 10.16 41.454 10.239 40.986 10.473 L 40.986 10.473 Z" style="paint-order: fill markers; fill: rgb(255, 255, 255); stroke: rgb(255, 255, 255);"/>
  <path fill-rule="evenodd" clip-rule="evenodd" d="M 36.611 16.877 C 37.627 17.267 38.408 18.049 38.799 18.986 C 38.408 18.596 37.939 18.284 37.392 18.127 C 35.127 17.267 32.629 18.439 31.847 20.704 C 31.769 20.939 31.692 21.095 31.692 21.329 C 31.534 20.627 31.613 19.923 31.847 19.22 C 32.472 17.189 34.659 16.174 36.611 16.877 L 36.611 16.877 Z" style="paint-order: fill markers; fill: rgb(255, 255, 255); stroke: rgb(255, 255, 255);"/>
  <path fill-rule="evenodd" clip-rule="evenodd" d="M 20.678 8.52 C 22.319 8.598 23.725 9.301 24.74 10.473 C 23.959 10.16 23.178 9.927 22.24 9.927 C 18.648 9.769 15.602 12.581 15.523 16.174 C 15.523 16.487 15.523 16.799 15.523 17.112 C 14.977 16.174 14.665 15.159 14.742 13.987 C 14.899 10.864 17.554 8.443 20.678 8.52 L 20.678 8.52 Z" style="paint-order: fill markers; fill: rgb(255, 255, 255); stroke: rgb(255, 255, 255);"/>
  <path fill-rule="evenodd" clip-rule="evenodd" d="M 26.615 13.519 C 27.474 13.909 28.098 14.535 28.489 15.237 C 28.254 15.082 27.942 14.924 27.707 14.769 C 25.442 13.753 22.788 14.769 21.772 17.034 C 21.382 17.815 21.303 18.673 21.46 19.532 C 20.757 18.362 20.523 16.955 21.147 15.627 C 21.615 14.612 22.397 13.909 23.256 13.519 C 24.193 11.957 25.755 10.864 27.707 10.473 C 28.02 10.395 28.333 10.395 28.567 10.395 C 27.083 10.864 25.833 11.879 24.974 13.129 C 25.6 13.207 26.145 13.285 26.615 13.519 L 26.615 13.519 Z" style="paint-order: fill markers; fill: rgb(255, 255, 255); stroke: rgb(255, 255, 255);"/>
  <path fill-rule="evenodd" clip-rule="evenodd" d="M 27.942 16.877 C 28.957 17.267 29.739 18.049 30.129 18.986 C 29.739 18.596 29.27 18.284 28.722 18.127 C 26.458 17.267 23.959 18.439 23.178 20.704 C 23.099 20.939 23.022 21.095 23.022 21.329 C 22.865 20.627 22.943 19.923 23.178 19.22 C 23.803 17.189 25.99 16.174 27.942 16.877 L 27.942 16.877 Z" style="paint-order: fill markers; fill: rgb(255, 255, 255); stroke: rgb(255, 255, 255);"/>
</svg>