<?xml version="1.0" encoding="utf-8"?>
<svg viewBox="0 0 96 96" preserveAspectRatio="xMidYMid slice" xmlns="http://www.w3.org/2000/svg">
  <g transform="matrix(0.697604, 0, 0, 0.697604, -45.207989, -377.96759)" style="">
    <path fill-rule="evenodd" clip-rule="evenodd" d="M150.1,560.8c-0.5,0.4-0.9,0.9-1.3,1.3c5.6-3.9,13.3-3.2,18,1.9 c4.7,5.1,4.8,12.9,0.5,18.1c0.5-0.4,1-0.7,1.4-1.2c5.6-5.2,5.9-13.9,0.8-19.5C164.4,556,155.7,555.7,150.1,560.8L150.1,560.8z" style="fill: rgb(255, 255, 255);"/>
    <path fill-rule="evenodd" clip-rule="evenodd" d="M150.5,563c0.3,1.3,0.3,2.6,0,3.8c0-0.5-0.1-1-0.3-1.6c-1.2-4.4-5.7-7.1-10.1-5.9 c-1.6,0.4-2.9,1.2-3.9,2.3c0.9-1.9,2.7-3.5,4.9-4.1C145.2,556.5,149.4,558.9,150.5,563L150.5,563z" style="fill: rgb(255, 255, 255);"/>
    <path fill-rule="evenodd" clip-rule="evenodd" d="M169.3,580.5c-2.1,0.6-3.7,2.1-4.6,3.9c0.9-0.7,1.9-1.2,3-1.6 c4.6-1.4,9.4,1.2,10.8,5.8c0.1,0.4,0.2,0.8,0.3,1.2c0.4-1.3,0.4-2.8,0-4.2C177.5,581.5,173.3,579.3,169.3,580.5L169.3,580.5z" style="fill: rgb(255, 255, 255);"/>
    <path fill-rule="evenodd" clip-rule="evenodd" d="M177,589.8c-1.6,1.5-2.3,3.5-2.3,5.6c0.4-1,1.1-2,1.9-2.8 c3.4-3.3,8.9-3.2,12.3,0.2c0.3,0.3,0.6,0.6,0.8,1c-0.3-1.4-0.9-2.7-2-3.8C184.8,586.9,180,586.9,177,589.8L177,589.8z" style="fill: rgb(255, 255, 255);"/>
    <path fill-rule="evenodd" clip-rule="evenodd" d="M120.7,566.9c0.1-2.3,1.3-4.4,2.9-5.8c-0.5,1.1-0.8,2.3-0.9,3.5 c-0.3,5.2,3.6,9.6,8.8,9.9c0.5,0,0.9,0,1.3,0c-1.3,0.7-2.9,1.1-4.5,1C123.8,575.3,120.4,571.4,120.7,566.9L120.7,566.9z" style="fill: rgb(255, 255, 255);"/>
    <path fill-rule="evenodd" clip-rule="evenodd" d="M156.8,603.1c0.2-1.3,0.8-2.4,1.7-3.3c-0.1,0.4-0.3,0.8-0.3,1.3 c-0.5,3.5,1.9,6.8,5.4,7.3c1.3,0.2,2.5,0,3.6-0.5c-1.3,1.5-3.3,2.2-5.3,1.9c-1.5-0.2-2.8-1-3.8-2.1c-2.5-0.7-4.7-2.5-5.9-5 c-0.2-0.4-0.4-0.8-0.5-1.2c1.3,1.9,3.1,3.2,5.2,3.9C156.7,604.7,156.7,603.9,156.8,603.1L156.8,603.1z" style="fill: rgb(255, 255, 255);"/>
    <path fill-rule="evenodd" clip-rule="evenodd" d="M128.1,577.2c-0.5,2.8,1.4,5.5,4.2,6c0.4,0.1,0.9,0.1,1.3,0.1 c0.4,1.6,1.5,3,3.1,3.7c-0.9-1.1-1.4-2.6-1.1-4.1c0,0,0-0.1,0-0.1c0.6-0.3,1.1-0.7,1.5-1.2c-1,0.5-2.2,0.7-3.4,0.5 c-3-0.5-5-3.4-4.4-6.4c0.1-0.4,0.2-0.8,0.3-1.1C128.8,575.1,128.3,576.1,128.1,577.2L128.1,577.2z" style="fill: rgb(255, 255, 255);"/>
  </g>
  <path d="M 55.178 46.246 L 55.178 46.246 L 57.341 44.082 C 57.689 43.734 57.898 43.175 57.828 42.618 C 57.759 42.061 57.479 41.501 57.061 41.083 L 57.061 41.083 L 59.99 36.689 C 60.199 36.339 60.479 36.13 60.758 35.92 L 64.246 33.967 C 64.526 33.757 64.664 33.479 64.664 33.061 C 64.664 32.643 64.455 32.153 64.107 31.805 L 60.689 28.456 C 60.34 28.108 59.851 27.899 59.433 27.899 C 59.084 27.899 58.734 28.037 58.526 28.387 L 56.713 31.736 C 56.434 32.153 56.153 32.432 55.736 32.711 L 51.48 35.571 L 51.48 35.571 C 51.061 35.153 50.504 34.875 49.876 34.805 C 49.317 34.735 48.829 34.944 48.411 35.292 L 46.248 37.456 L 46.248 37.456 L 46.248 37.456 L 6.624 77.497 C 6.275 77.846 6.066 78.405 6.136 78.963 C 6.206 79.521 6.484 80.078 6.904 80.497 L 12.553 86.149 L 12.553 86.149 C 12.624 86.218 12.693 86.287 12.763 86.287 C 13.671 87.054 14.926 87.125 15.554 86.427 L 55.178 46.246 L 55.178 46.246 Z M 56.362 33.688 C 56.851 33.339 57.27 32.92 57.618 32.432 L 59.433 29.083 C 59.433 29.083 59.433 29.083 59.502 29.083 C 59.573 29.083 59.642 29.155 59.782 29.224 L 63.2 32.572 C 63.339 32.711 63.339 32.781 63.339 32.852 C 63.339 32.852 63.339 32.92 63.339 32.92 L 59.851 34.875 C 59.433 35.153 59.084 35.501 58.806 35.92 L 56.014 40.176 L 52.317 36.479 L 56.362 33.688 Z M 49.876 35.92 C 50.154 35.92 50.364 36.06 50.573 36.269 L 56.225 41.92 C 56.434 42.129 56.572 42.338 56.572 42.618 C 56.572 42.897 56.503 43.107 56.362 43.245 L 54.62 44.99 L 47.504 37.944 L 49.249 36.2 C 49.387 35.99 49.596 35.92 49.876 35.92 Z M 39.203 60.476 L 32.086 53.431 L 46.736 38.641 L 53.853 45.688 L 39.203 60.476 Z M 34.041 65.708 L 26.924 58.662 L 31.32 54.267 L 38.435 61.313 L 34.041 65.708 Z M 15.554 84.405 L 8.437 77.357 L 26.157 59.43 L 33.273 66.475 L 15.554 84.405 Z M 13.251 85.241 L 7.6 79.589 C 7.391 79.38 7.253 79.172 7.253 78.893 C 7.253 78.613 7.321 78.405 7.462 78.265 L 7.672 78.056 L 14.786 85.171 L 14.576 85.381 C 14.298 85.73 13.671 85.66 13.251 85.241 Z" style="fill: rgb(255, 255, 255);"/>
  <path d="M 30.971 61.663 C 31.04 61.732 31.11 61.801 31.249 61.871 C 32.437 62.848 34.041 62.988 34.877 62.15 C 35.784 61.244 35.575 59.5 34.319 58.244 C 33.133 57.058 31.388 56.779 30.413 57.755 C 29.575 58.732 29.784 60.476 30.971 61.663 Z M 33.412 58.873 C 33.483 58.941 33.552 58.941 33.552 59.011 C 34.25 59.709 34.388 60.685 33.901 61.174 C 33.412 61.663 32.437 61.522 31.738 60.824 C 31.04 60.128 30.902 59.15 31.388 58.662 C 31.877 58.244 32.785 58.313 33.412 58.873 Z" style="fill: rgb(255, 255, 255);"/>
</svg>