<?xml version="1.0" encoding="utf-8"?>
<svg viewBox="0 0 96 96" preserveAspectRatio="xMidYMid slice" xmlns="http://www.w3.org/2000/svg">
  <path fill="none" stroke-width="2" stroke-linecap="round" stroke-linejoin="round" stroke-miterlimit="10" d="M 58.471 73.517 L 51.518 70.003 C 50.601 69.544 50.068 68.627 50.068 67.635 L 50.068 64.884 C 50.296 64.655 50.448 64.348 50.755 64.044 C 51.671 62.668 52.435 61.215 52.894 59.689 C 53.81 59.383 54.422 58.619 54.422 57.625 L 54.422 54.722 C 54.422 54.11 54.116 53.501 53.658 53.118 L 53.658 48.916 C 53.658 48.916 54.498 42.344 45.635 42.344 C 36.773 42.344 37.612 48.916 37.612 48.916 L 37.612 53.118 C 37.154 53.501 36.848 54.11 36.848 54.722 L 36.848 57.625 C 36.848 58.389 37.231 59.078 37.842 59.459 C 38.605 62.668 40.439 64.884 40.439 64.884 L 40.439 67.557 C 40.439 68.551 39.905 69.391 39.065 69.926 L 32.57 73.441 C 30.66 74.435 29.514 76.421 29.514 78.561 L 29.514 80.928 L 61.603 80.928 L 61.603 78.713 C 61.756 76.497 60.458 74.51 58.471 73.517 Z" style="stroke: rgb(255, 255, 255);"/>
  <path fill="none" stroke-width="2" stroke-linecap="round" stroke-linejoin="round" stroke-miterlimit="10" d="M 69.092 74.357 L 61.986 71.302 C 61.603 71.072 61.298 70.69 61.07 70.233 C 60.84 69.85 61.145 69.315 61.603 69.315 L 66.647 69.315 C 66.647 69.315 68.481 69.468 69.932 68.858 C 70.773 68.474 71.078 67.48 70.543 66.717 C 69.015 64.578 65.883 59.459 65.805 54.187 C 65.805 54.187 65.654 46.089 57.631 46.011 C 56.026 46.011 54.728 46.392 53.658 46.852 C 53.963 47.921 53.81 48.838 53.81 48.838 L 53.81 53.04 C 54.269 53.423 54.575 54.034 54.575 54.645 L 54.575 57.548 C 54.575 58.542 53.887 59.383 53.046 59.612 C 52.513 61.14 51.823 62.668 50.908 63.967 C 50.678 64.273 50.448 64.578 50.22 64.808 L 50.22 67.557 C 50.22 68.168 50.448 68.78 50.831 69.238 L 52.817 69.238 C 53.352 69.238 53.505 69.85 53.123 70.155 C 52.969 70.233 52.894 70.385 52.741 70.461 L 58.624 73.441 C 60.61 74.435 61.833 76.421 61.833 78.636 L 61.833 80.852 L 72.07 80.852 L 72.07 78.865 C 71.918 77.033 70.849 75.198 69.092 74.357 Z" style="stroke: rgb(255, 255, 255);"/>
  <g transform="matrix(0.764051, 0, 0, 0.764051, -38.563095, -215.599411)" style="">
    <path fill-rule="evenodd" clip-rule="evenodd" d="M85.5,329.3c0,1.1,0,2.2,0.1,3.3c1.9-12,11.8-20.9,23.3-20.4 c11.5,0.5,20.7,10.2,21.7,22.3c0.2-1.1,0.3-2.2,0.3-3.3c0.5-13.6-9.3-25.1-21.8-25.6C96.6,305,86,315.6,85.5,329.3L85.5,329.3z" style="stroke: rgb(255, 255, 255); fill: rgb(255, 255, 255);"/>
    <path fill-rule="evenodd" clip-rule="evenodd" d="M88.4,331.6c1.9,1.2,3.4,2.9,4.4,4.8c-0.6-0.6-1.3-1.2-2.1-1.7 c-6.5-4.1-14.9-1.8-18.7,5.3c-1.3,2.5-1.9,5.2-1.9,7.9c-1.2-3.7-0.9-7.8,1-11.4C74.7,329.9,82.4,327.8,88.4,331.6L88.4,331.6z" style="stroke: rgb(255, 255, 255); fill: rgb(255, 255, 255);"/>
    <path fill-rule="evenodd" clip-rule="evenodd" d="M130.8,329.9c-1.7,3.4-1.9,7.3-0.9,10.7c0.2-2,0.7-3.9,1.6-5.8 c3.8-7.6,12.4-10.4,19.4-6.3c0.6,0.4,1.2,0.8,1.7,1.2c-1.1-2.2-2.8-4.1-5-5.4C141.7,320.8,134.1,323.3,130.8,329.9L130.8,329.9z" style="stroke: rgb(255, 255, 255); fill: rgb(255, 255, 255);"/>
    <path fill-rule="evenodd" clip-rule="evenodd" d="M150.6,331.9c-0.1,3.9,1.4,7.4,3.8,10c-0.7-1.8-1-3.9-1-6 c0.1-8.6,6.6-15.4,14.5-15.3c0.7,0,1.4,0.1,2,0.2c-1.9-1.4-4.2-2.2-6.7-2.3C156.4,318.5,150.8,324.4,150.6,331.9L150.6,331.9z" style="stroke: rgb(255, 255, 255); fill: rgb(255, 255, 255);"/>
    <path fill-rule="evenodd" clip-rule="evenodd" d="M58.2,374.4c-2.6-3.2-3.7-7.2-3.3-11.1c0.6,2,1.7,3.9,3,5.6 c5.7,6.9,15.4,7.6,21.8,1.4c0.6-0.5,1.1-1.1,1.5-1.7c-0.7,2.6-2,5-4,7C71.7,381,63.2,380.4,58.2,374.4L58.2,374.4z" style="stroke: rgb(255, 255, 255); fill: rgb(255, 255, 255);"/>
    <path fill-rule="evenodd" clip-rule="evenodd" d="M148.7,378.4c-1.3-1.9-1.9-4.1-1.9-6.3c0.3,0.7,0.7,1.4,1.1,2 c3.5,5.1,10.2,6.2,14.9,2.4c1.7-1.4,2.9-3.2,3.6-5.1c0.2,3.5-1.2,7-3.9,9.2c-2.1,1.7-4.5,2.1-6.9,2c-3.3-0.1-5.1-1.9-5.1-1.9 S149.3,379.5,148.7,378.4L148.7,378.4z" style="stroke: rgb(255, 255, 255); fill: rgb(255, 255, 255);"/>
    <path fill-rule="evenodd" clip-rule="evenodd" d="M78.9,378c2.7,4.2,8,5.2,11.8,2.3c0.6-0.5,1.1-1,1.6-1.6c0,0,1.6-3.3,1.8-3.1 c0,0.1-0.1-0.1-0.1-0.2c0.3-1.1,0.4-2.3,0.3-3.5c-0.6,1.9-1.7,3.6-3.4,4.9c-4.1,3.1-9.7,2-12.6-2.4c-0.4-0.6-0.7-1.2-0.9-1.9 C77.4,374.4,77.8,376.4,78.9,378L78.9,378z" style="stroke: rgb(255, 255, 255); fill: rgb(255, 255, 255);"/>
  </g>
</svg>