<?xml version="1.0" encoding="utf-8"?>
<!-- Generator: Adobe Illustrator 24.2.1, SVG Export Plug-In . SVG Version: 6.00 Build 0)  -->
<svg version="1.1" id="Layer_1" xmlns="http://www.w3.org/2000/svg" xmlns:xlink="http://www.w3.org/1999/xlink" x="0px" y="0px"
	 viewBox="0 0 300 300" style="enable-background:new 0 0 300 300;" xml:space="preserve">
<style type="text/css">
	.st0{fill:#5BAF95;}
</style>
<path class="st0" d="M153.3,280c73.3,0,132.7-58,132.7-129.6c0-71.6-59.4-129.6-132.7-129.6S20.7,78.8,20.7,150.4
	C20.7,222,80.1,280,153.3,280z M153.3,263.5c-63.9,0-115.8-50.6-115.8-113.1C37.6,88,89.4,37.3,153.3,37.3
	c63.9,0,115.8,50.6,115.8,113.1C269.1,212.9,217.3,263.5,153.3,263.5z M167.9,168.3v37l56.2-54.9l-56.2-54.9v37H82.6v35.8H167.9z"/>
</svg>
