<?xml version="1.0" encoding="utf-8"?>
<!-- Generator: Adobe Illustrator 25.0.1, SVG Export Plug-In . SVG Version: 6.00 Build 0)  -->
<svg version="1.0" id="Layer_1" xmlns="http://www.w3.org/2000/svg" x="0px"
     y="0px"
     viewBox="0 0 200 200" enable-background="new 0 0 200 200" xml:space="preserve">
<g>
	
		<circle fill="none" stroke="#000000" stroke-width="5" stroke-linecap="round" stroke-linejoin="round"
                stroke-miterlimit="10" cx="41" cy="168.5" r="15.5"/>

    <circle fill="none" stroke="#000000" stroke-width="5" stroke-linecap="round" stroke-linejoin="round"
            stroke-miterlimit="10" cx="158.8" cy="168.5" r="15.5"/>
    <path fill="none" stroke="#000000" stroke-width="5" stroke-linecap="round" stroke-linejoin="round"
          stroke-miterlimit="10" d="
		M10,140.6v24.6c0,1.8,1.5,3.3,3.3,3.3h12.2c0-8.6,6.9-15.5,15.5-15.5s15.5,6.9,15.5,15.5h86.8c0-8.6,6.9-15.5,15.5-15.5
		s15.5,6.9,15.5,15.5h12.2c1.8,0,3.3-1.5,3.3-3.3v-24.6H10z"/>
    <path fill="none" stroke="#000000" stroke-width="5" stroke-linecap="round" stroke-linejoin="round"
          stroke-miterlimit="10" d="
		M189.7,140.6H10v-11.3c0-0.6,0.5-1.1,1.1-1.1h177.6c0.6,0,1.1,0.5,1.1,1.1V140.6z"/>
    <path fill="none" stroke="#000000" stroke-width="5" stroke-linecap="round" stroke-linejoin="round"
          stroke-miterlimit="10" d="
		M14.6,14.5L14.6,14.5c-2.6,1.7-3.3,5.1-1.7,7.7l8.5,13.6c2.7,4.3,4.1,9.2,4.1,14.2v78.2h12.4V47.4c0-5.3-1.6-10.5-4.5-14.9
		L22.4,16.1C20.7,13.5,17.2,12.8,14.6,14.5z"/>
    <path fill="none" stroke="#000000" stroke-width="5" stroke-linecap="round" stroke-linejoin="round"
          stroke-miterlimit="10" d="
		M106.1,128.2H50.3V73.4c0-0.6,0.4-1,1-1h54.8V128.2z"/>

    <rect x="68.9" y="72.4" fill="none" stroke="#000000" stroke-width="5" stroke-linecap="round" stroke-linejoin="round"
          stroke-miterlimit="10" width="18.6" height="18.6"/>
    <path fill="none" stroke="#000000" stroke-width="5" stroke-linecap="round" stroke-linejoin="round"
          stroke-miterlimit="10" d="
		M161.9,128.2h-55.8V72.4h54.8c0.6,0,1,0.4,1,1V128.2z"/>

    <rect x="124.7" y="72.4" fill="none" stroke="#000000" stroke-width="5" stroke-linecap="round"
          stroke-linejoin="round" stroke-miterlimit="10" width="18.6" height="18.6"/>
    <path fill="none" stroke="#000000" stroke-width="5" stroke-linecap="round" stroke-linejoin="round"
          stroke-miterlimit="10" d="
		M134,72.4H78.2V17.7c0-0.6,0.4-1,1-1H133c0.6,0,1,0.4,1,1V72.4z"/>

    <rect x="96.8" y="16.7" fill="none" stroke="#000000" stroke-width="5" stroke-linecap="round" stroke-linejoin="round"
          stroke-miterlimit="10" width="18.6" height="18.6"/>
</g>
</svg>
