<?xml version="1.0" encoding="utf-8"?>
<!-- Generator: Adobe Illustrator 25.0.1, SVG Export Plug-In . SVG Version: 6.00 Build 0)  -->
<svg version="1.2" baseProfile="tiny" id="Layer_1" xmlns="http://www.w3.org/2000/svg" xmlns:xlink="http://www.w3.org/1999/xlink"
	 x="0px" y="0px" viewBox="0 0 200 200" overflow="visible" xml:space="preserve">
<g>
	<path fill="#5BB094" d="M166.9,116.3L156,59.6c-0.1-0.4-0.2-0.7-0.3-1c-2.2-8.6-9.9-15-19.2-15h-23.2c-9.6,0-17.5,6.8-19.4,15.8
		c0,0.1,0,0.2-0.1,0.2l-10.9,56.7c-0.7,3.8,1.7,7.4,5.5,8.1h0c3.8,0.7,7.4-1.7,8.1-5.5l7.2-37.6v37.4v3.1v66.6
		c0,4.7,3.8,8.5,8.5,8.5h0.8c4.7,0,8.5-3.8,8.5-8.5v-66.6h6.8v66.6c0,4.7,3.8,8.5,8.5,8.5h0.8c4.7,0,8.5-3.8,8.5-8.5v-66.6v-3.1
		V83.1l6.9,35.9c0.7,3.8,4.4,6.2,8.1,5.5C165.2,123.7,167.6,120.1,166.9,116.3z"/>
	
		<ellipse transform="matrix(0.3827 -0.9239 0.9239 0.3827 57.5655 128.1859)" fill="#5BB094" cx="124.7" cy="21" rx="17.9" ry="17.9"/>
</g>
<g>
	
		<ellipse transform="matrix(0.3827 -0.9239 0.9239 0.3827 10.6594 78.6235)" fill="#5BB094" cx="64.2" cy="31.3" rx="16.9" ry="16.9"/>
	<path fill="#5BB094" d="M95.3,101.3l-7.9-33.5c-0.1-0.2-0.1-0.5-0.2-0.7l0-0.2l0,0c-2.2-8.3-9.8-14.3-18.7-14.3h-8.6
		c-9.4,0-17.3,6.7-19,15.6L33,101.3c-0.4,1.6,0.5,3.3,2,3.9c1.8,0.7,3.8-0.2,4.4-2L50.2,72h2.5l-14.4,53.1c-0.4,1.5,0.7,2.9,2.2,2.9
		h10.3l7.7,66.3c0.2,1.5,1.4,2.6,2.9,2.6H67c1.5,0,2.8-1.1,2.9-2.6l7.7-66.3h10.3c1.5,0,2.6-1.4,2.2-2.9L75.7,72h2.5l10.7,31.2
		c0.6,1.8,2.6,2.7,4.4,2C94.8,104.6,95.7,102.9,95.3,101.3z"/>
</g>
</svg>
