<?xml version="1.0" encoding="utf-8"?>
<!-- Generator: Adobe Illustrator 25.0.1, SVG Export Plug-In . SVG Version: 6.00 Build 0)  -->
<svg version="1.0" id="Layer_1" xmlns="http://www.w3.org/2000/svg" xmlns:xlink="http://www.w3.org/1999/xlink" x="0px" y="0px"
	 viewBox="0 0 1024 528" enable-background="new 0 0 1024 528" xml:space="preserve">
<circle fill="#BCCBD3" cx="492.6" cy="261.5" r="203.3"/>
<g>
	<path fill="#2FBFD1" d="M289.3,261.5c0,112.3,91,203.3,203.3,203.3c75.6,0,141.5-41.2,176.5-102.4L492.6,261.5L403.8,78.6
		C336,111.6,289.3,181.1,289.3,261.5z"/>
	<path fill="#F26D26" d="M612.3,97.2L492.6,261.5l176.1-101.7C654.4,135.2,635.2,113.9,612.3,97.2z"/>
	<path fill="#385864" d="M612.3,97.2c-29-21.1-63.7-34.8-101.5-38.2c-6-0.5-12.1-0.8-18.2-0.8c-3.7,0-7.3,0.1-11,0.3l11,203
		L612.3,97.2z"/>
	<path fill="#1B75BB" d="M481.4,58.5C445.6,60.4,410,71.8,378.6,93c-5,3.4-9.9,7-14.6,10.9c-2.9,2.3-5.6,4.7-8.3,7.2l136.8,150.4
		L481.4,58.5z"/>
	<path fill="#2FBFD1" d="M628.1,413.5c26.8-23.8,47.5-54.9,58.8-91.1c1.8-5.8,3.3-11.6,4.6-17.6c0.8-3.6,1.5-7.2,2-10.8l-200.7-32.2
		L628.1,413.5z"/>
	<path fill="#2FBFD1" d="M693.7,293.8c5.7-35.4,2.1-72.6-12-107.8c-2.2-5.6-4.8-11.1-7.5-16.6c-1.7-3.3-3.4-6.5-5.2-9.7L492.9,261.6
		L693.7,293.8z"/>
</g>
<circle fill="#CCCBCB" cx="493.4" cy="261.7" r="166.4"/>
<circle fill="#F0F1F1" cx="493.4" cy="261.7" r="160.2"/>
<circle fill="none" stroke="#CCCBCB" stroke-miterlimit="10" cx="493.4" cy="261.7" r="154.1"/>
<circle cx="544" cy="86" r="6.8"/>
<polyline fill="none" stroke="#000000" stroke-width="2" stroke-miterlimit="10" points="544,86 574.5,55.5 842.2,55.5 "/>
<circle cx="421.1" cy="90.1" r="6.8"/>
<circle cx="630.9" cy="140.9" r="6.8"/>
<polyline fill="none" stroke="#000000" stroke-width="2" stroke-miterlimit="10" points="630.4,140.2 656.9,170.8 924.3,170.8 "/>
<polyline fill="none" stroke="#000000" stroke-width="2" stroke-miterlimit="10" points="421.1,90.1 403.9,61 109,61 "/>
<circle cx="434.1" cy="442.6" r="7.2"/>
<polyline fill="none" stroke="#000000" stroke-width="2" stroke-miterlimit="10" points="434.1,442.6 401.9,474.9 75.6,474.9 "/>
<g>
	<path fill="none" stroke="#1B75BB" stroke-width="2" stroke-miterlimit="10" d="M88.5,47.9h-6.3c-1.5,0-2.7-1.2-2.7-2.8
		c0-1.5,1.2-2.8,2.7-2.8h6.3c1.5,0,2.7,1.2,2.7,2.8C91.2,46.7,90,47.9,88.5,47.9z"/>
	<ellipse fill="none" stroke="#1B75BB" stroke-width="2" stroke-miterlimit="10" cx="88.5" cy="45.1" rx="2.7" ry="2.8"/>
	<path fill="none" stroke="#1B75BB" stroke-width="2" stroke-miterlimit="10" d="M73.1,51.6c0,0-9.3,14,9.9,24.1v2.8"/>
	<path fill="none" stroke="#1B75BB" stroke-width="2" stroke-miterlimit="10" d="M64.4,39.9c0,0.2,0,0.5-0.1,0.6
		c-0.6,0.9-2.3,1.4-3.6,1.3c-0.3,0-0.6,0-0.9,0l-4.6-4.7c-0.5-0.5-1.3-0.5-1.9,0l-0.7,0.7c-0.5,0.5-0.5,1.4,0,1.9l4.7,4.8
		c0,0.2,0,0.4,0,0.7c-0.1,2.9-0.1,6.1-1.1,8.8c-0.3,0.9-0.6,1.8-0.9,2.7c5.1-1.3,11.2-6.2,12.3-9.6C68.8,43.6,66.4,41.2,64.4,39.9z"
		/>
	<path fill="none" stroke="#1B75BB" stroke-width="2" stroke-miterlimit="10" d="M92.9,57.4L91,57l1.3-1.4c0.5-0.5,0.5-1.4-0.1-1.9
		l-0.7-0.7c-0.5-0.5-1.4-0.5-1.9,0.1L87,56l-0.6-0.1c0.9,1.4,1.5,2.8,2,4.3L92,61c0.7,0.2,1.4-0.3,1.6-1l0.2-1
		C94,58.3,93.6,57.6,92.9,57.4z"/>
	<line fill="none" stroke="#1B75BB" stroke-width="2" stroke-miterlimit="10" x1="85.8" y1="73.9" x2="83" y2="75.8"/>
	<path fill="none" stroke="#1B75BB" stroke-width="2" stroke-miterlimit="10" d="M70.5,63.7c-3.7,3.4-3.8,9.6-0.1,13.8l0,2.9"/>
	<path fill="none" stroke="#1B75BB" stroke-width="2" stroke-miterlimit="10" d="M83.5,63.7c-3.1-4.6-8.1-8.5-12.2-5.6"/>
	<polyline fill="none" stroke="#1B75BB" stroke-width="2" stroke-miterlimit="10" points="80.3,64.6 80.3,60.9 84,58.1 	"/>
	<line fill="none" stroke="#1B75BB" stroke-width="2" stroke-miterlimit="10" x1="70.4" y1="77.6" x2="73.1" y2="77.6"/>
	<polyline fill="none" stroke="#1B75BB" stroke-width="2" stroke-miterlimit="10" points="76.7,76.7 76.7,71.1 82.1,71.1 	"/>
	<path fill="none" stroke="#1B75BB" stroke-width="2" stroke-miterlimit="10" d="M90.7,74.1c-1.1-8.9-0.9-18.4-10.3-24
		c-0.6-0.3-0.4-1.2,0.2-1.3c1.1-0.2,2-0.4,2.7-0.8h-1.1c-1.5,0-2.7-1.2-2.7-2.8c0-1.5,1.2-2.8,2.7-2.8h0.7c-0.6-0.4-1.4-0.5-2.3-0.5
		c-0.6,0-1.1-0.4-1.3-0.9c-0.2-0.6-0.5-1.2-0.7-1.8l1.3-1.3c1.1-1.1,1.1-2.8,0-3.9c-1.1-1.1-2.8-1.1-3.8,0l-1.4,1.4
		c-1.7-0.7-3.5-0.5-5.2,0.6c-0.6,0.4-1.3,0.2-1.7-0.4c-0.4-0.6-0.8-1.1-1.4-1.4c-0.6-0.3-1.8,0-2.5,0.5c-0.4,0.3-0.2,1.4-0.1,2.2
		c0.2,1.3,1.1,3,0.6,3.7c-0.6,0.9-2.3,1.4-3.6,1.3c-0.3,0-0.6,0-0.9,0l-4.6-4.7c-0.5-0.5-1.3-0.5-1.9,0l-0.7,0.7
		c-0.5,0.5-0.5,1.4,0,1.9l4.7,4.8c0,0.2,0,0.4,0,0.7c-0.1,2.9-0.1,6.1-1.1,8.8c-3.2,8.8-2.1,16.7,4,23.5c7.1,7.8,16.4,10.1,26.4,9.3
		c2.8-0.2,4.4-2,4.5-4.9C91.2,79.2,91,76.6,90.7,74.1z"/>
</g>
<g>
	<line fill="none" stroke="#F26D26" stroke-width="2" stroke-miterlimit="10" x1="944.1" y1="164.4" x2="951.2" y2="173.6"/>
	<ellipse fill="none" stroke="#F26D26" stroke-width="2" stroke-miterlimit="10" cx="943.3" cy="161.9" rx="2.4" ry="2.5"/>
	<line fill="none" stroke="#F26D26" stroke-width="2" stroke-miterlimit="10" x1="948.8" y1="152.8" x2="944.1" y2="159.4"/>
	<line fill="none" stroke="#F26D26" stroke-width="2" stroke-miterlimit="10" x1="978.7" y1="164.4" x2="971.6" y2="173.6"/>
	<ellipse fill="none" stroke="#F26D26" stroke-width="2" stroke-miterlimit="10" cx="979.5" cy="161.9" rx="2.4" ry="2.5"/>
	<line fill="none" stroke="#F26D26" stroke-width="2" stroke-miterlimit="10" x1="973.2" y1="152.8" x2="978.7" y2="159.4"/>
	<ellipse fill="none" stroke="#F26D26" stroke-width="2" stroke-miterlimit="10" cx="955.1" cy="181.3" rx="2.4" ry="2.5"/>
	<ellipse fill="none" stroke="#F26D26" stroke-width="2" stroke-miterlimit="10" cx="967.6" cy="181.3" rx="2.4" ry="2.5"/>
	<line fill="none" stroke="#F26D26" stroke-width="2" stroke-miterlimit="10" x1="961.4" y1="176.2" x2="961.4" y2="152.8"/>
	<line fill="none" stroke="#F26D26" stroke-width="2" stroke-miterlimit="10" x1="956.1" y1="169.5" x2="967.1" y2="169.5"/>
	<line fill="none" stroke="#F26D26" stroke-width="2" stroke-miterlimit="10" x1="954.5" y1="166.2" x2="968.7" y2="166.2"/>
	<line fill="none" stroke="#F26D26" stroke-width="2" stroke-miterlimit="10" x1="951.3" y1="162.8" x2="971.8" y2="162.8"/>
	<line fill="none" stroke="#F26D26" stroke-width="2" stroke-miterlimit="10" x1="968.7" y1="156.1" x2="954.5" y2="156.1"/>
	<line fill="none" stroke="#F26D26" stroke-width="2" stroke-miterlimit="10" x1="971.8" y1="159.5" x2="951.3" y2="159.5"/>
	<line fill="none" stroke="#F26D26" stroke-width="2" stroke-miterlimit="10" x1="938.6" y1="152.8" x2="984.2" y2="152.8"/>
	<line fill="none" stroke="#F26D26" stroke-width="2" stroke-miterlimit="10" x1="938.6" y1="187.1" x2="984.2" y2="187.1"/>
	<polygon fill="none" stroke="#F26D26" stroke-width="2" stroke-miterlimit="10" points="961.4,193 948,193 947.2,187.1 
		961.4,187.1 	"/>
	<polygon fill="none" stroke="#F26D26" stroke-width="2" stroke-miterlimit="10" points="974.8,193 961.4,193 961.4,187.1 
		975.6,187.1 	"/>
	<path fill="none" stroke="#F26D26" stroke-width="2" stroke-miterlimit="10" d="M956.2,145.3c0.4,0.4,0.8,0.7,1.3,1
		c1,0.7,0.8,1.8,0.8,3.1c0,0.5-0.3,0.9-0.8,0.9h-5c-0.2,0-0.3-0.1-0.5-0.2c-0.8-0.6-1.7-0.8-2.7-0.6c-1.5,0.3-2.6,1.7-2.8,3.3
		c0,0,0,0,0,0h7h15.8h7c0,0,0,0,0,0c-0.1-1.6-1.3-2.9-2.8-3.3c-1-0.2-2,0-2.7,0.6c-0.1,0.1-0.3,0.2-0.5,0.2h-5
		c-0.5,0-0.8-0.4-0.8-0.9c0-1.3-0.2-2.4,0.8-3.1c0.5-0.3,0.9-0.6,1.3-1"/>
	<path fill="none" stroke="#F26D26" stroke-width="2" stroke-miterlimit="10" d="M954.5,187.1h5.7c0.1-0.1,0.1-0.3,0.2-0.4
		c0.2-0.5,0.5-0.8,1-0.8c0.4,0.1,0.8,0.4,1,0.8c0,0.1,0.1,0.3,0.2,0.4h5.7l5.7-5c1.1-1.1,1.3-2.9,0.5-4.3c-0.7-1.2-3-1.8-4.1-1.6
		c-1.3,0.2-2.6,0.1-3.4-1l-0.4-0.4c-0.4-0.2-0.8-0.3-1.2-0.3h-7c-0.6,0-1.2,0-1.7,0.4l-0.6,0.4c-0.8,0.9-2,1.3-3.1,1
		c-1.2-0.4-3.5,0.1-4.3,1.4c-0.8,1.3-0.5,3.2,0.5,4.3L954.5,187.1z"/>
	<ellipse fill="#F26D26" cx="938.6" cy="154.4" rx="0.8" ry="0.8"/>
	<ellipse fill="#F26D26" cx="941.7" cy="154.4" rx="0.8" ry="0.8"/>
	<ellipse fill="#F26D26" cx="944.9" cy="154.4" rx="0.8" ry="0.8"/>
	<ellipse fill="#F26D26" cx="943.3" cy="156.1" rx="0.8" ry="0.8"/>
	<ellipse fill="#F26D26" cx="940.1" cy="156.1" rx="0.8" ry="0.8"/>
	<ellipse fill="#F26D26" cx="941.7" cy="157.8" rx="0.8" ry="0.8"/>
	<ellipse fill="#F26D26" cx="944.9" cy="157.8" rx="0.8" ry="0.8"/>
	<ellipse fill="#F26D26" cx="940.1" cy="159.5" rx="0.8" ry="0.8"/>
	<ellipse fill="#F26D26" cx="938.6" cy="161.1" rx="0.8" ry="0.8"/>
	<ellipse fill="#F26D26" cx="940.1" cy="162.8" rx="0.8" ry="0.8"/>
	<ellipse fill="#F26D26" cx="940.1" cy="166.2" rx="0.8" ry="0.8"/>
	<ellipse fill="#F26D26" cx="943.3" cy="166.2" rx="0.8" ry="0.8"/>
	<ellipse fill="#F26D26" cx="938.6" cy="164.5" rx="0.8" ry="0.8"/>
	<ellipse fill="#F26D26" cx="941.7" cy="164.5" rx="0.8" ry="0.8"/>
	<ellipse fill="#F26D26" cx="938.6" cy="167.8" rx="0.8" ry="0.8"/>
	<ellipse fill="#F26D26" cx="941.7" cy="167.8" rx="0.8" ry="0.8"/>
	<ellipse fill="#F26D26" cx="944.9" cy="167.8" rx="0.8" ry="0.8"/>
	<ellipse fill="#F26D26" cx="940.1" cy="169.5" rx="0.8" ry="0.8"/>
	<ellipse fill="#F26D26" cx="943.3" cy="169.5" rx="0.8" ry="0.8"/>
	<ellipse fill="#F26D26" cx="938.6" cy="171.2" rx="0.8" ry="0.8"/>
	<ellipse fill="#F26D26" cx="941.7" cy="171.2" rx="0.8" ry="0.8"/>
	<ellipse fill="#F26D26" cx="944.9" cy="171.2" rx="0.8" ry="0.8"/>
	<ellipse fill="#F26D26" cx="940.1" cy="172.9" rx="0.8" ry="0.8"/>
	<ellipse fill="#F26D26" cx="943.3" cy="172.9" rx="0.8" ry="0.8"/>
	<ellipse fill="#F26D26" cx="938.6" cy="174.5" rx="0.8" ry="0.8"/>
	<ellipse fill="#F26D26" cx="941.7" cy="174.5" rx="0.8" ry="0.8"/>
	<ellipse fill="#F26D26" cx="944.9" cy="174.5" rx="0.8" ry="0.8"/>
	<ellipse fill="#F26D26" cx="948" cy="174.5" rx="0.8" ry="0.8"/>
	<ellipse fill="#F26D26" cx="949.6" cy="176.2" rx="0.8" ry="0.8"/>
	<ellipse fill="#F26D26" cx="946.4" cy="172.9" rx="0.8" ry="0.8"/>
	<ellipse fill="#F26D26" cx="949.6" cy="172.9" rx="0.8" ry="0.8"/>
	<ellipse fill="#F26D26" cx="951.2" cy="174.5" rx="0.8" ry="0.8"/>
	<ellipse fill="#F26D26" cx="946.4" cy="169.5" rx="0.8" ry="0.8"/>
	<ellipse fill="#F26D26" cx="948" cy="171.2" rx="0.8" ry="0.8"/>
	<ellipse fill="#F26D26" cx="940.1" cy="176.2" rx="0.8" ry="0.8"/>
	<ellipse fill="#F26D26" cx="943.3" cy="176.2" rx="0.8" ry="0.8"/>
	<ellipse fill="#F26D26" cx="938.6" cy="177.9" rx="0.8" ry="0.8"/>
	<ellipse fill="#F26D26" cx="941.7" cy="177.9" rx="0.8" ry="0.8"/>
	<ellipse fill="#F26D26" cx="944.9" cy="177.9" rx="0.8" ry="0.8"/>
	<ellipse fill="#F26D26" cx="948" cy="177.9" rx="0.8" ry="0.8"/>
	<ellipse fill="#F26D26" cx="946.4" cy="176.2" rx="0.8" ry="0.8"/>
	<ellipse fill="#F26D26" cx="946.4" cy="179.6" rx="0.8" ry="0.8"/>
	<ellipse fill="#F26D26" cx="940.1" cy="179.6" rx="0.8" ry="0.8"/>
	<ellipse fill="#F26D26" cx="943.3" cy="179.6" rx="0.8" ry="0.8"/>
	<ellipse fill="#F26D26" cx="938.6" cy="181.3" rx="0.8" ry="0.8"/>
	<ellipse fill="#F26D26" cx="941.7" cy="181.3" rx="0.8" ry="0.8"/>
	<ellipse fill="#F26D26" cx="944.9" cy="181.3" rx="0.8" ry="0.8"/>
	<ellipse fill="#F26D26" cx="948" cy="181.3" rx="0.8" ry="0.8"/>
	<ellipse fill="#F26D26" cx="940.1" cy="182.9" rx="0.8" ry="0.8"/>
	<ellipse fill="#F26D26" cx="943.3" cy="182.9" rx="0.8" ry="0.8"/>
	<ellipse fill="#F26D26" cx="940.1" cy="186.3" rx="0.8" ry="0.8"/>
	<ellipse fill="#F26D26" cx="943.3" cy="186.3" rx="0.8" ry="0.8"/>
	<ellipse fill="#F26D26" cx="938.6" cy="184.6" rx="0.8" ry="0.8"/>
	<ellipse fill="#F26D26" cx="941.7" cy="184.6" rx="0.8" ry="0.8"/>
	<ellipse fill="#F26D26" cx="944.9" cy="184.6" rx="0.8" ry="0.8"/>
	<ellipse fill="#F26D26" cx="949.6" cy="186.3" rx="0.8" ry="0.8"/>
	<ellipse fill="#F26D26" cx="948" cy="184.6" rx="0.8" ry="0.8"/>
	<ellipse fill="#F26D26" cx="946.4" cy="186.3" rx="0.8" ry="0.8"/>
	<ellipse fill="#F26D26" cx="946.4" cy="182.9" rx="0.8" ry="0.8"/>
	<ellipse fill="#F26D26" cx="949.6" cy="182.9" rx="0.8" ry="0.8"/>
	<ellipse fill="#F26D26" cx="951.2" cy="184.6" rx="0.8" ry="0.8"/>
	<ellipse fill="#F26D26" cx="938.6" cy="157.8" rx="0.8" ry="0.8"/>
	<ellipse fill="#F26D26" cx="984.2" cy="154.4" rx="0.8" ry="0.8"/>
	<ellipse fill="#F26D26" cx="981.1" cy="154.4" rx="0.8" ry="0.8"/>
	<ellipse fill="#F26D26" cx="977.9" cy="154.4" rx="0.8" ry="0.8"/>
	<ellipse fill="#F26D26" cx="979.5" cy="156.1" rx="0.8" ry="0.8"/>
	<ellipse fill="#F26D26" cx="982.6" cy="156.1" rx="0.8" ry="0.8"/>
	<ellipse fill="#F26D26" cx="981.1" cy="157.8" rx="0.8" ry="0.8"/>
	<ellipse fill="#F26D26" cx="977.9" cy="157.8" rx="0.8" ry="0.8"/>
	<ellipse fill="#F26D26" cx="982.6" cy="159.5" rx="0.8" ry="0.8"/>
	<ellipse fill="#F26D26" cx="984.2" cy="161.1" rx="0.8" ry="0.8"/>
	<ellipse fill="#F26D26" cx="982.6" cy="162.8" rx="0.8" ry="0.8"/>
	<ellipse fill="#F26D26" cx="982.6" cy="166.2" rx="0.8" ry="0.8"/>
	<ellipse fill="#F26D26" cx="979.5" cy="166.2" rx="0.8" ry="0.8"/>
	<ellipse fill="#F26D26" cx="984.2" cy="164.5" rx="0.8" ry="0.8"/>
	<ellipse fill="#F26D26" cx="981.1" cy="164.5" rx="0.8" ry="0.8"/>
	<ellipse fill="#F26D26" cx="984.2" cy="167.8" rx="0.8" ry="0.8"/>
	<ellipse fill="#F26D26" cx="981.1" cy="167.8" rx="0.8" ry="0.8"/>
	<ellipse fill="#F26D26" cx="977.9" cy="167.8" rx="0.8" ry="0.8"/>
	<ellipse fill="#F26D26" cx="982.6" cy="169.5" rx="0.8" ry="0.8"/>
	<ellipse fill="#F26D26" cx="979.5" cy="169.5" rx="0.8" ry="0.8"/>
	<ellipse fill="#F26D26" cx="984.2" cy="171.2" rx="0.8" ry="0.8"/>
	<ellipse fill="#F26D26" cx="981.1" cy="171.2" rx="0.8" ry="0.8"/>
	<ellipse fill="#F26D26" cx="977.9" cy="171.2" rx="0.8" ry="0.8"/>
	<ellipse fill="#F26D26" cx="982.6" cy="172.9" rx="0.8" ry="0.8"/>
	<ellipse fill="#F26D26" cx="979.5" cy="172.9" rx="0.8" ry="0.8"/>
	<ellipse fill="#F26D26" cx="984.2" cy="174.5" rx="0.8" ry="0.8"/>
	<ellipse fill="#F26D26" cx="981.1" cy="174.5" rx="0.8" ry="0.8"/>
	<ellipse fill="#F26D26" cx="977.9" cy="174.5" rx="0.8" ry="0.8"/>
	<ellipse fill="#F26D26" cx="974.8" cy="174.5" rx="0.8" ry="0.8"/>
	<ellipse fill="#F26D26" cx="973.2" cy="176.2" rx="0.8" ry="0.8"/>
	<ellipse fill="#F26D26" cx="976.3" cy="172.9" rx="0.8" ry="0.8"/>
	<ellipse fill="#F26D26" cx="973.2" cy="172.9" rx="0.8" ry="0.8"/>
	<ellipse fill="#F26D26" cx="971.6" cy="174.5" rx="0.8" ry="0.8"/>
	<ellipse fill="#F26D26" cx="976.3" cy="169.5" rx="0.8" ry="0.8"/>
	<ellipse fill="#F26D26" cx="974.8" cy="171.2" rx="0.8" ry="0.8"/>
	<ellipse fill="#F26D26" cx="982.6" cy="176.2" rx="0.8" ry="0.8"/>
	<ellipse fill="#F26D26" cx="979.5" cy="176.2" rx="0.8" ry="0.8"/>
	<ellipse fill="#F26D26" cx="984.2" cy="177.9" rx="0.8" ry="0.8"/>
	<ellipse fill="#F26D26" cx="981.1" cy="177.9" rx="0.8" ry="0.8"/>
	<ellipse fill="#F26D26" cx="977.9" cy="177.9" rx="0.8" ry="0.8"/>
	<ellipse fill="#F26D26" cx="974.8" cy="177.9" rx="0.8" ry="0.8"/>
	<ellipse fill="#F26D26" cx="976.3" cy="176.2" rx="0.8" ry="0.8"/>
	<ellipse fill="#F26D26" cx="976.3" cy="179.6" rx="0.8" ry="0.8"/>
	<ellipse fill="#F26D26" cx="982.6" cy="179.6" rx="0.8" ry="0.8"/>
	<ellipse fill="#F26D26" cx="979.5" cy="179.6" rx="0.8" ry="0.8"/>
	<ellipse fill="#F26D26" cx="984.2" cy="181.3" rx="0.8" ry="0.8"/>
	<ellipse fill="#F26D26" cx="981.1" cy="181.3" rx="0.8" ry="0.8"/>
	<ellipse fill="#F26D26" cx="977.9" cy="181.3" rx="0.8" ry="0.8"/>
	<ellipse fill="#F26D26" cx="974.8" cy="181.3" rx="0.8" ry="0.8"/>
	<ellipse fill="#F26D26" cx="982.6" cy="182.9" rx="0.8" ry="0.8"/>
	<ellipse fill="#F26D26" cx="979.5" cy="182.9" rx="0.8" ry="0.8"/>
	<ellipse fill="#F26D26" cx="982.6" cy="186.3" rx="0.8" ry="0.8"/>
	<ellipse fill="#F26D26" cx="979.5" cy="186.3" rx="0.8" ry="0.8"/>
	<ellipse fill="#F26D26" cx="984.2" cy="184.6" rx="0.8" ry="0.8"/>
	<ellipse fill="#F26D26" cx="981.1" cy="184.6" rx="0.8" ry="0.8"/>
	<ellipse fill="#F26D26" cx="977.9" cy="184.6" rx="0.8" ry="0.8"/>
	<ellipse fill="#F26D26" cx="973.2" cy="186.3" rx="0.8" ry="0.8"/>
	<ellipse fill="#F26D26" cx="974.8" cy="184.6" rx="0.8" ry="0.8"/>
	<ellipse fill="#F26D26" cx="976.3" cy="186.3" rx="0.8" ry="0.8"/>
	<ellipse fill="#F26D26" cx="976.3" cy="182.9" rx="0.8" ry="0.8"/>
	<ellipse fill="#F26D26" cx="973.2" cy="182.9" rx="0.8" ry="0.8"/>
	<ellipse fill="#F26D26" cx="971.6" cy="184.6" rx="0.8" ry="0.8"/>
	<ellipse fill="#F26D26" cx="984.2" cy="157.8" rx="0.8" ry="0.8"/>
</g>
<g>
	<ellipse fill="none" stroke="#2FBFD1" stroke-width="2" stroke-miterlimit="10" cx="42.9" cy="465.4" rx="2.8" ry="2.9"/>
	<ellipse fill="none" stroke="#2FBFD1" stroke-width="2" stroke-miterlimit="10" cx="42.9" cy="476" rx="2.8" ry="2.9"/>
	<ellipse fill="none" stroke="#2FBFD1" stroke-width="2" stroke-miterlimit="10" cx="42.9" cy="486.6" rx="2.8" ry="2.9"/>
	<line fill="none" stroke="#2FBFD1" stroke-width="2" stroke-miterlimit="10" x1="48.8" y1="464.2" x2="60.7" y2="464.2"/>
	<line fill="none" stroke="#2FBFD1" stroke-width="2" stroke-miterlimit="10" x1="48.8" y1="467.4" x2="60.7" y2="467.4"/>
	<line fill="none" stroke="#2FBFD1" stroke-width="2" stroke-miterlimit="10" x1="48.8" y1="474.8" x2="60.7" y2="474.8"/>
	<line fill="none" stroke="#2FBFD1" stroke-width="2" stroke-miterlimit="10" x1="48.8" y1="478" x2="60.7" y2="478"/>
	<line fill="none" stroke="#2FBFD1" stroke-width="2" stroke-miterlimit="10" x1="48.8" y1="485.4" x2="60.7" y2="485.4"/>
	<line fill="none" stroke="#2FBFD1" stroke-width="2" stroke-miterlimit="10" x1="48.8" y1="488.6" x2="60.7" y2="488.6"/>
	<rect x="41.7" y="451.1" fill="none" stroke="#2FBFD1" stroke-width="2" stroke-miterlimit="10" width="18.2" height="7.3"/>
	<polygon fill="none" stroke="#2FBFD1" stroke-width="2" stroke-miterlimit="10" points="59.9,453.6 59.9,458.5 41.7,458.5 
		41.7,453.6 33,453.6 33,498.4 67.8,498.4 67.8,453.6 	"/>
	<polygon fill="none" stroke="#2FBFD1" stroke-width="2" stroke-miterlimit="10" points="59.9,456.8 59.9,458.5 41.7,458.5 
		41.7,456.8 36.2,456.8 36.2,495.2 64.6,495.2 64.6,456.8 	"/>
	<line fill="none" stroke="#2FBFD1" stroke-width="2" stroke-miterlimit="10" x1="44.9" y1="454.4" x2="56.7" y2="454.4"/>
</g>
<g>
	<path fill="#808184" d="M746,67.6h-1.5v2.9h-1.3V63h2.6c0.9,0,1.5,0.2,2,0.6c0.5,0.4,0.7,1,0.7,1.7c0,0.5-0.1,0.9-0.4,1.3
		c-0.2,0.3-0.6,0.6-1,0.8l1.7,3.1v0.1h-1.4L746,67.6z M744.5,66.5h1.3c0.4,0,0.8-0.1,1-0.3c0.2-0.2,0.4-0.5,0.4-0.9
		c0-0.4-0.1-0.7-0.3-0.9s-0.6-0.3-1-0.3h-1.4V66.5z"/>
	<path fill="#808184" d="M752,70.6c-0.8,0-1.4-0.2-1.9-0.7s-0.7-1.2-0.7-2v-0.2c0-0.6,0.1-1.1,0.3-1.5c0.2-0.4,0.5-0.8,0.9-1
		c0.4-0.2,0.8-0.4,1.3-0.4c0.8,0,1.3,0.2,1.8,0.7c0.4,0.5,0.6,1.2,0.6,2.1v0.5h-3.6c0,0.5,0.2,0.8,0.5,1.1c0.3,0.3,0.6,0.4,1,0.4
		c0.6,0,1-0.2,1.4-0.7l0.7,0.6c-0.2,0.3-0.5,0.6-0.9,0.8S752.5,70.6,752,70.6z M751.9,65.8c-0.3,0-0.6,0.1-0.8,0.4
		c-0.2,0.2-0.3,0.6-0.4,1h2.4v-0.1c0-0.4-0.1-0.7-0.3-1S752.2,65.8,751.9,65.8z"/>
	<path fill="#808184" d="M758.3,68.9c0-0.2-0.1-0.4-0.3-0.5s-0.5-0.2-0.9-0.3s-0.8-0.2-1.1-0.3c-0.6-0.3-0.9-0.7-0.9-1.3
		c0-0.5,0.2-0.9,0.6-1.2c0.4-0.3,0.9-0.5,1.5-0.5c0.7,0,1.2,0.2,1.6,0.5c0.4,0.3,0.6,0.8,0.6,1.3h-1.3c0-0.2-0.1-0.4-0.3-0.6
		s-0.4-0.2-0.7-0.2c-0.3,0-0.5,0.1-0.7,0.2c-0.2,0.1-0.3,0.3-0.3,0.5c0,0.2,0.1,0.3,0.2,0.4c0.2,0.1,0.5,0.2,1,0.3
		c0.5,0.1,0.9,0.2,1.2,0.4c0.3,0.1,0.5,0.3,0.6,0.5s0.2,0.5,0.2,0.8c0,0.5-0.2,0.9-0.6,1.2c-0.4,0.3-1,0.5-1.6,0.5
		c-0.5,0-0.9-0.1-1.2-0.2s-0.6-0.4-0.8-0.7c-0.2-0.3-0.3-0.6-0.3-0.9h1.2c0,0.3,0.1,0.5,0.3,0.7s0.5,0.2,0.8,0.2
		c0.3,0,0.6-0.1,0.8-0.2C758.2,69.3,758.3,69.1,758.3,68.9z"/>
	<path fill="#808184" d="M765.5,67.7c0,0.9-0.2,1.5-0.6,2.1c-0.4,0.5-0.9,0.8-1.6,0.8c-0.6,0-1.1-0.2-1.5-0.6v2.6h-1.3v-7.7h1.2
		l0.1,0.6c0.4-0.4,0.9-0.7,1.5-0.7c0.7,0,1.2,0.3,1.6,0.8S765.5,66.7,765.5,67.7L765.5,67.7z M764.2,67.6c0-0.6-0.1-1-0.3-1.3
		s-0.5-0.5-1-0.5c-0.5,0-0.9,0.2-1.1,0.6v2.5c0.2,0.4,0.6,0.6,1.1,0.6c0.4,0,0.7-0.2,0.9-0.5C764.1,68.8,764.2,68.3,764.2,67.6z"/>
	<path fill="#808184" d="M766.5,63.4c0-0.2,0.1-0.4,0.2-0.5s0.3-0.2,0.5-0.2c0.2,0,0.4,0.1,0.5,0.2s0.2,0.3,0.2,0.5
		c0,0.2-0.1,0.3-0.2,0.5c-0.1,0.1-0.3,0.2-0.5,0.2c-0.2,0-0.4-0.1-0.5-0.2C766.5,63.8,766.5,63.6,766.5,63.4z M767.8,70.5h-1.3v-5.6
		h1.3V70.5z"/>
	<path fill="#808184" d="M772,66c-0.2,0-0.3,0-0.5,0c-0.6,0-1,0.2-1.2,0.7v3.8h-1.3v-5.6h1.2l0,0.6c0.3-0.5,0.7-0.7,1.3-0.7
		c0.2,0,0.3,0,0.4,0.1L772,66z"/>
	<path fill="#808184" d="M776.2,70.5c-0.1-0.1-0.1-0.3-0.1-0.5c-0.4,0.4-0.9,0.6-1.5,0.6c-0.6,0-1-0.2-1.4-0.5s-0.5-0.7-0.5-1.2
		c0-0.6,0.2-1,0.7-1.4c0.4-0.3,1.1-0.5,1.9-0.5h0.8v-0.4c0-0.3-0.1-0.5-0.2-0.7c-0.2-0.2-0.4-0.3-0.7-0.3c-0.3,0-0.5,0.1-0.7,0.2
		s-0.3,0.3-0.3,0.5h-1.3c0-0.3,0.1-0.6,0.3-0.9s0.5-0.5,0.8-0.6c0.3-0.2,0.7-0.2,1.2-0.2c0.7,0,1.2,0.2,1.6,0.5
		c0.4,0.3,0.6,0.8,0.6,1.4v2.5c0,0.5,0.1,0.9,0.2,1.2v0.1H776.2z M774.8,69.6c0.2,0,0.5-0.1,0.7-0.2s0.4-0.3,0.5-0.5v-1.1h-0.7
		c-0.5,0-0.8,0.1-1,0.2s-0.4,0.4-0.4,0.7c0,0.2,0.1,0.4,0.2,0.6C774.3,69.5,774.5,69.6,774.8,69.6z"/>
	<path fill="#808184" d="M780.1,63.5v1.4h1v0.9h-1v3.1c0,0.2,0,0.4,0.1,0.5c0.1,0.1,0.2,0.1,0.5,0.1c0.1,0,0.3,0,0.4-0.1v1
		c-0.3,0.1-0.6,0.1-0.8,0.1c-1,0-1.4-0.5-1.4-1.6v-3.2h-0.9v-0.9h0.9v-1.4H780.1z"/>
	<path fill="#808184" d="M781.6,67.6c0-0.5,0.1-1,0.3-1.5c0.2-0.4,0.5-0.8,0.9-1c0.4-0.2,0.8-0.4,1.3-0.4c0.8,0,1.4,0.2,1.8,0.7
		c0.5,0.5,0.7,1.1,0.8,1.9l0,0.3c0,0.5-0.1,1-0.3,1.5c-0.2,0.4-0.5,0.8-0.9,1c-0.4,0.2-0.8,0.4-1.4,0.4c-0.8,0-1.4-0.3-1.9-0.8
		C781.8,69.2,781.6,68.5,781.6,67.6L781.6,67.6z M782.8,67.7c0,0.6,0.1,1,0.4,1.3s0.6,0.5,1,0.5s0.8-0.2,1-0.5s0.4-0.8,0.4-1.4
		c0-0.6-0.1-1-0.4-1.3c-0.2-0.3-0.6-0.5-1-0.5c-0.4,0-0.7,0.2-1,0.5C783,66.6,782.8,67.1,782.8,67.7z"/>
	<path fill="#808184" d="M790.7,66c-0.2,0-0.3,0-0.5,0c-0.6,0-1,0.2-1.2,0.7v3.8h-1.3v-5.6h1.2l0,0.6c0.3-0.5,0.7-0.7,1.3-0.7
		c0.2,0,0.3,0,0.4,0.1L790.7,66z"/>
	<path fill="#808184" d="M793.7,68.7l1.1-3.8h1.3l-2.2,6.4c-0.3,0.9-0.9,1.4-1.7,1.4c-0.2,0-0.4,0-0.6-0.1v-1l0.2,0
		c0.3,0,0.6-0.1,0.7-0.2c0.2-0.1,0.3-0.3,0.4-0.6l0.2-0.5l-2-5.5h1.3L793.7,68.7z"/>
	<path fill="#808184" d="M799.7,70.5V63h2.2c0.7,0,1.3,0.1,1.8,0.4c0.5,0.3,0.9,0.7,1.2,1.3c0.3,0.5,0.4,1.2,0.4,1.9v0.4
		c0,0.7-0.1,1.3-0.4,1.9s-0.7,1-1.2,1.2s-1.1,0.4-1.8,0.4H799.7z M801,64v5.4h0.8c0.7,0,1.2-0.2,1.6-0.6c0.4-0.4,0.6-1,0.6-1.8v-0.4
		c0-0.8-0.2-1.4-0.5-1.9s-0.9-0.6-1.5-0.6H801z"/>
	<path fill="#808184" d="M806.4,63.4c0-0.2,0.1-0.4,0.2-0.5c0.1-0.1,0.3-0.2,0.5-0.2c0.2,0,0.4,0.1,0.5,0.2s0.2,0.3,0.2,0.5
		c0,0.2-0.1,0.3-0.2,0.5c-0.1,0.1-0.3,0.2-0.5,0.2c-0.2,0-0.4-0.1-0.5-0.2C806.5,63.8,806.4,63.6,806.4,63.4z M807.7,70.5h-1.3v-5.6
		h1.3V70.5z"/>
	<path fill="#808184" d="M812.1,68.9c0-0.2-0.1-0.4-0.3-0.5c-0.2-0.1-0.5-0.2-0.9-0.3s-0.8-0.2-1.1-0.3c-0.6-0.3-0.9-0.7-0.9-1.3
		c0-0.5,0.2-0.9,0.6-1.2c0.4-0.3,0.9-0.5,1.5-0.5c0.7,0,1.2,0.2,1.6,0.5c0.4,0.3,0.6,0.8,0.6,1.3h-1.3c0-0.2-0.1-0.4-0.3-0.6
		s-0.4-0.2-0.7-0.2c-0.3,0-0.5,0.1-0.7,0.2s-0.3,0.3-0.3,0.5c0,0.2,0.1,0.3,0.2,0.4c0.2,0.1,0.5,0.2,1,0.3s0.9,0.2,1.2,0.4
		s0.5,0.3,0.6,0.5s0.2,0.5,0.2,0.8c0,0.5-0.2,0.9-0.6,1.2c-0.4,0.3-1,0.5-1.6,0.5c-0.5,0-0.9-0.1-1.2-0.2s-0.6-0.4-0.8-0.7
		c-0.2-0.3-0.3-0.6-0.3-0.9h1.2c0,0.3,0.1,0.5,0.3,0.7s0.5,0.2,0.8,0.2c0.3,0,0.6-0.1,0.8-0.2C812,69.3,812.1,69.1,812.1,68.9z"/>
	<path fill="#808184" d="M816.8,70.6c-0.8,0-1.4-0.2-1.9-0.7s-0.7-1.2-0.7-2v-0.2c0-0.6,0.1-1.1,0.3-1.5c0.2-0.4,0.5-0.8,0.9-1
		c0.4-0.2,0.8-0.4,1.3-0.4c0.8,0,1.3,0.2,1.8,0.7c0.4,0.5,0.6,1.2,0.6,2.1v0.5h-3.6c0,0.5,0.2,0.8,0.5,1.1c0.3,0.3,0.6,0.4,1,0.4
		c0.6,0,1-0.2,1.4-0.7l0.7,0.6c-0.2,0.3-0.5,0.6-0.9,0.8S817.3,70.6,816.8,70.6z M816.6,65.8c-0.3,0-0.6,0.1-0.8,0.4
		c-0.2,0.2-0.3,0.6-0.4,1h2.4v-0.1c0-0.4-0.1-0.7-0.3-1S817,65.8,816.6,65.8z"/>
	<path fill="#808184" d="M823.3,70.5c-0.1-0.1-0.1-0.3-0.1-0.5c-0.4,0.4-0.9,0.6-1.5,0.6c-0.6,0-1-0.2-1.4-0.5s-0.5-0.7-0.5-1.2
		c0-0.6,0.2-1,0.7-1.4c0.4-0.3,1.1-0.5,1.9-0.5h0.8v-0.4c0-0.3-0.1-0.5-0.2-0.7c-0.2-0.2-0.4-0.3-0.7-0.3c-0.3,0-0.5,0.1-0.7,0.2
		s-0.3,0.3-0.3,0.5h-1.3c0-0.3,0.1-0.6,0.3-0.9s0.5-0.5,0.8-0.6s0.7-0.2,1.2-0.2c0.7,0,1.2,0.2,1.6,0.5c0.4,0.3,0.6,0.8,0.6,1.4v2.5
		c0,0.5,0.1,0.9,0.2,1.2v0.1H823.3z M821.9,69.6c0.2,0,0.5-0.1,0.7-0.2s0.4-0.3,0.5-0.5v-1.1h-0.7c-0.5,0-0.8,0.1-1,0.2
		s-0.4,0.4-0.4,0.7c0,0.2,0.1,0.4,0.2,0.6C821.4,69.5,821.6,69.6,821.9,69.6z"/>
	<path fill="#808184" d="M828.7,68.9c0-0.2-0.1-0.4-0.3-0.5c-0.2-0.1-0.5-0.2-0.9-0.3s-0.8-0.2-1.1-0.3c-0.6-0.3-0.9-0.7-0.9-1.3
		c0-0.5,0.2-0.9,0.6-1.2c0.4-0.3,0.9-0.5,1.5-0.5c0.7,0,1.2,0.2,1.6,0.5c0.4,0.3,0.6,0.8,0.6,1.3h-1.3c0-0.2-0.1-0.4-0.3-0.6
		s-0.4-0.2-0.7-0.2c-0.3,0-0.5,0.1-0.7,0.2c-0.2,0.1-0.3,0.3-0.3,0.5c0,0.2,0.1,0.3,0.2,0.4s0.5,0.2,1,0.3s0.9,0.2,1.2,0.4
		c0.3,0.1,0.5,0.3,0.6,0.5c0.1,0.2,0.2,0.5,0.2,0.8c0,0.5-0.2,0.9-0.6,1.2s-1,0.5-1.6,0.5c-0.5,0-0.9-0.1-1.2-0.2s-0.6-0.4-0.8-0.7
		c-0.2-0.3-0.3-0.6-0.3-0.9h1.2c0,0.3,0.1,0.5,0.3,0.7s0.5,0.2,0.8,0.2c0.3,0,0.6-0.1,0.8-0.2C828.6,69.3,828.7,69.1,828.7,68.9z"/>
	<path fill="#808184" d="M833.3,70.6c-0.8,0-1.4-0.2-1.9-0.7s-0.7-1.2-0.7-2v-0.2c0-0.6,0.1-1.1,0.3-1.5c0.2-0.4,0.5-0.8,0.9-1
		c0.4-0.2,0.8-0.4,1.3-0.4c0.8,0,1.3,0.2,1.8,0.7c0.4,0.5,0.6,1.2,0.6,2.1v0.5h-3.6c0,0.5,0.2,0.8,0.5,1.1c0.3,0.3,0.6,0.4,1,0.4
		c0.6,0,1-0.2,1.4-0.7l0.7,0.6c-0.2,0.3-0.5,0.6-0.9,0.8S833.8,70.6,833.3,70.6z M833.2,65.8c-0.3,0-0.6,0.1-0.8,0.4s-0.3,0.6-0.4,1
		h2.4v-0.1c0-0.4-0.1-0.7-0.3-1S833.5,65.8,833.2,65.8z"/>
	<path fill="#808184" d="M839.6,68.9c0-0.2-0.1-0.4-0.3-0.5c-0.2-0.1-0.5-0.2-0.9-0.3s-0.8-0.2-1.1-0.3c-0.6-0.3-0.9-0.7-0.9-1.3
		c0-0.5,0.2-0.9,0.6-1.2c0.4-0.3,0.9-0.5,1.5-0.5c0.7,0,1.2,0.2,1.6,0.5c0.4,0.3,0.6,0.8,0.6,1.3h-1.3c0-0.2-0.1-0.4-0.3-0.6
		s-0.4-0.2-0.7-0.2c-0.3,0-0.5,0.1-0.7,0.2s-0.3,0.3-0.3,0.5c0,0.2,0.1,0.3,0.2,0.4c0.2,0.1,0.5,0.2,1,0.3s0.9,0.2,1.2,0.4
		s0.5,0.3,0.6,0.5c0.1,0.2,0.2,0.5,0.2,0.8c0,0.5-0.2,0.9-0.6,1.2s-1,0.5-1.6,0.5c-0.5,0-0.9-0.1-1.2-0.2s-0.6-0.4-0.8-0.7
		c-0.2-0.3-0.3-0.6-0.3-0.9h1.2c0,0.3,0.1,0.5,0.3,0.7s0.5,0.2,0.8,0.2c0.3,0,0.6-0.1,0.8-0.2C839.5,69.3,839.6,69.1,839.6,68.9z"/>
</g>
<g>
	<path fill="#385864" d="M803.7,47.2h-3v-9.7l-3,0.9v-2.3l5.8-2h0.3V47.2z"/>
	<path fill="#385864" d="M807.5,50.8l-1.5-0.7l0.3-0.6c0.4-0.8,0.6-1.5,0.7-2.2V45h2.4l0,2c0,0.7-0.2,1.4-0.5,2.1
		C808.5,49.7,808.1,50.3,807.5,50.8z"/>
	<path fill="#385864" d="M818.3,33.9v2.4h-0.1c-1.1,0-2.1,0.3-2.8,0.8c-0.7,0.5-1.2,1.3-1.3,2.3c0.7-0.7,1.6-1,2.6-1
		c1.1,0,2,0.4,2.7,1.2s1,1.9,1,3.3c0,0.8-0.2,1.6-0.6,2.3c-0.4,0.7-0.9,1.2-1.6,1.6c-0.7,0.4-1.5,0.6-2.3,0.6
		c-0.9,0-1.8-0.2-2.5-0.6c-0.7-0.4-1.3-1-1.7-1.8c-0.4-0.8-0.6-1.7-0.6-2.7V41c0-1.4,0.3-2.6,0.9-3.6c0.6-1.1,1.4-1.9,2.5-2.5
		s2.3-0.9,3.6-0.9H818.3z M815.5,40.7c-0.4,0-0.7,0.1-1,0.3c-0.3,0.2-0.5,0.4-0.6,0.7v0.9c0,1.7,0.6,2.5,1.7,2.5
		c0.5,0,0.8-0.2,1.2-0.6c0.3-0.4,0.5-0.9,0.5-1.6c0-0.6-0.2-1.2-0.5-1.6C816.5,40.9,816.1,40.7,815.5,40.7z"/>
	<path fill="#385864" d="M830.4,47.2h-9.2v-2l4.2-4.4c1-1.2,1.6-2.1,1.6-2.8c0-0.6-0.1-1-0.4-1.3c-0.2-0.3-0.6-0.4-1.1-0.4
		c-0.5,0-0.8,0.2-1.1,0.6s-0.4,0.9-0.4,1.5h-3c0-0.8,0.2-1.5,0.6-2.2s1-1.2,1.7-1.6c0.7-0.4,1.5-0.6,2.4-0.6c1.4,0,2.5,0.3,3.3,1
		c0.8,0.7,1.1,1.6,1.1,2.8c0,0.5-0.1,1-0.3,1.5s-0.5,1-0.9,1.5c-0.4,0.5-1.1,1.3-2,2.2l-1.7,2h5.2V47.2z"/>
	<path fill="#385864" d="M838.7,33.9v2.4h-0.1c-1.1,0-2.1,0.3-2.8,0.8s-1.2,1.3-1.3,2.3c0.7-0.7,1.6-1,2.6-1c1.1,0,2,0.4,2.7,1.2
		s1,1.9,1,3.3c0,0.8-0.2,1.6-0.6,2.3c-0.4,0.7-0.9,1.2-1.6,1.6s-1.5,0.6-2.3,0.6c-0.9,0-1.8-0.2-2.5-0.6s-1.3-1-1.7-1.8
		c-0.4-0.8-0.6-1.7-0.6-2.7V41c0-1.4,0.3-2.6,0.9-3.6c0.6-1.1,1.4-1.9,2.5-2.5c1.1-0.6,2.3-0.9,3.6-0.9H838.7z M836,40.7
		c-0.4,0-0.7,0.1-1,0.3c-0.3,0.2-0.5,0.4-0.6,0.7v0.9c0,1.7,0.6,2.5,1.7,2.5c0.5,0,0.8-0.2,1.2-0.6c0.3-0.4,0.5-0.9,0.5-1.6
		c0-0.6-0.2-1.2-0.5-1.6C836.9,40.9,836.5,40.7,836,40.7z"/>
</g>
<g>
	<path fill="#808184" d="M116.7,76.8h-1.3v-3.3H112v3.3h-1.3v-7.5h1.3v3.1h3.4v-3.1h1.3V76.8z"/>
	<path fill="#808184" d="M120.5,76.9c-0.8,0-1.4-0.2-1.9-0.7s-0.7-1.2-0.7-2V74c0-0.6,0.1-1.1,0.3-1.5c0.2-0.4,0.5-0.8,0.9-1
		c0.4-0.2,0.8-0.4,1.3-0.4c0.8,0,1.3,0.2,1.8,0.7c0.4,0.5,0.6,1.2,0.6,2.1v0.5h-3.6c0,0.5,0.2,0.8,0.5,1.1s0.6,0.4,1,0.4
		c0.6,0,1-0.2,1.4-0.7l0.7,0.6c-0.2,0.3-0.5,0.6-0.9,0.8S121,76.9,120.5,76.9z M120.4,72.1c-0.3,0-0.6,0.1-0.8,0.4s-0.3,0.6-0.4,1
		h2.4v-0.1c0-0.4-0.1-0.7-0.3-1C121,72.2,120.7,72.1,120.4,72.1z"/>
	<path fill="#808184" d="M127,76.8c-0.1-0.1-0.1-0.3-0.1-0.5c-0.4,0.4-0.9,0.6-1.5,0.6c-0.6,0-1-0.2-1.4-0.5s-0.5-0.7-0.5-1.2
		c0-0.6,0.2-1,0.7-1.4c0.4-0.3,1.1-0.5,1.9-0.5h0.8V73c0-0.3-0.1-0.5-0.2-0.7s-0.4-0.3-0.7-0.3c-0.3,0-0.5,0.1-0.7,0.2
		c-0.2,0.1-0.3,0.3-0.3,0.5h-1.3c0-0.3,0.1-0.6,0.3-0.9s0.5-0.5,0.8-0.6s0.7-0.2,1.2-0.2c0.7,0,1.2,0.2,1.6,0.5
		c0.4,0.3,0.6,0.8,0.6,1.4v2.5c0,0.5,0.1,0.9,0.2,1.2v0.1H127z M125.6,75.9c0.2,0,0.5-0.1,0.7-0.2s0.4-0.3,0.5-0.5v-1.1h-0.7
		c-0.5,0-0.8,0.1-1,0.2c-0.2,0.2-0.4,0.4-0.4,0.7c0,0.2,0.1,0.4,0.2,0.6S125.3,75.9,125.6,75.9z"/>
	<path fill="#808184" d="M132.2,72.4c-0.2,0-0.3,0-0.5,0c-0.6,0-1,0.2-1.2,0.7v3.8h-1.3v-5.6h1.2l0,0.6c0.3-0.5,0.7-0.7,1.3-0.7
		c0.2,0,0.3,0,0.4,0.1L132.2,72.4z"/>
	<path fill="#808184" d="M134.9,69.9v1.4h1v0.9h-1v3.1c0,0.2,0,0.4,0.1,0.5c0.1,0.1,0.2,0.1,0.5,0.1c0.1,0,0.3,0,0.4-0.1v1
		c-0.3,0.1-0.6,0.1-0.8,0.1c-1,0-1.4-0.5-1.4-1.6v-3.2h-0.9v-0.9h0.9v-1.4H134.9z"/>
	<path fill="#808184" d="M139.6,76.8v-7.5h2.2c0.7,0,1.3,0.1,1.8,0.4c0.5,0.3,0.9,0.7,1.2,1.3s0.4,1.2,0.4,1.9v0.4
		c0,0.7-0.1,1.3-0.4,1.9s-0.7,1-1.2,1.2c-0.5,0.3-1.1,0.4-1.8,0.4H139.6z M140.9,70.3v5.4h0.8c0.7,0,1.2-0.2,1.6-0.6
		c0.4-0.4,0.6-1,0.6-1.8v-0.4c0-0.8-0.2-1.4-0.5-1.9s-0.9-0.6-1.5-0.6H140.9z"/>
	<path fill="#808184" d="M146.3,69.8c0-0.2,0.1-0.4,0.2-0.5c0.1-0.1,0.3-0.2,0.5-0.2s0.4,0.1,0.5,0.2s0.2,0.3,0.2,0.5
		c0,0.2-0.1,0.3-0.2,0.5s-0.3,0.2-0.5,0.2s-0.4-0.1-0.5-0.2C146.3,70.1,146.3,70,146.3,69.8z M147.6,76.8h-1.3v-5.6h1.3V76.8z"/>
	<path fill="#808184" d="M152,75.3c0-0.2-0.1-0.4-0.3-0.5c-0.2-0.1-0.5-0.2-0.9-0.3c-0.4-0.1-0.8-0.2-1.1-0.3
		c-0.6-0.3-0.9-0.7-0.9-1.3c0-0.5,0.2-0.9,0.6-1.2c0.4-0.3,0.9-0.5,1.5-0.5c0.7,0,1.2,0.2,1.6,0.5c0.4,0.3,0.6,0.8,0.6,1.3h-1.3
		c0-0.2-0.1-0.4-0.3-0.6S151.3,72,151,72c-0.3,0-0.5,0.1-0.7,0.2c-0.2,0.1-0.3,0.3-0.3,0.5c0,0.2,0.1,0.3,0.2,0.4s0.5,0.2,1,0.3
		s0.9,0.2,1.2,0.4c0.3,0.1,0.5,0.3,0.6,0.5c0.1,0.2,0.2,0.5,0.2,0.8c0,0.5-0.2,0.9-0.6,1.2c-0.4,0.3-1,0.5-1.6,0.5
		c-0.5,0-0.9-0.1-1.2-0.2s-0.6-0.4-0.8-0.7c-0.2-0.3-0.3-0.6-0.3-0.9h1.2c0,0.3,0.1,0.5,0.3,0.7s0.5,0.2,0.8,0.2
		c0.3,0,0.6-0.1,0.8-0.2S152,75.5,152,75.3z"/>
	<path fill="#808184" d="M156.7,76.9c-0.8,0-1.4-0.2-1.9-0.7c-0.5-0.5-0.7-1.2-0.7-2V74c0-0.6,0.1-1.1,0.3-1.5
		c0.2-0.4,0.5-0.8,0.9-1c0.4-0.2,0.8-0.4,1.3-0.4c0.8,0,1.3,0.2,1.8,0.7c0.4,0.5,0.6,1.2,0.6,2.1v0.5h-3.6c0,0.5,0.2,0.8,0.5,1.1
		s0.6,0.4,1,0.4c0.6,0,1-0.2,1.4-0.7l0.7,0.6c-0.2,0.3-0.5,0.6-0.9,0.8S157.1,76.9,156.7,76.9z M156.5,72.1c-0.3,0-0.6,0.1-0.8,0.4
		c-0.2,0.2-0.3,0.6-0.4,1h2.4v-0.1c0-0.4-0.1-0.7-0.3-1S156.9,72.1,156.5,72.1z"/>
	<path fill="#808184" d="M163.1,76.8c-0.1-0.1-0.1-0.3-0.1-0.5c-0.4,0.4-0.9,0.6-1.5,0.6c-0.6,0-1-0.2-1.4-0.5s-0.5-0.7-0.5-1.2
		c0-0.6,0.2-1,0.7-1.4c0.4-0.3,1.1-0.5,1.9-0.5h0.8V73c0-0.3-0.1-0.5-0.2-0.7s-0.4-0.3-0.7-0.3c-0.3,0-0.5,0.1-0.7,0.2
		s-0.3,0.3-0.3,0.5h-1.3c0-0.3,0.1-0.6,0.3-0.9s0.5-0.5,0.8-0.6c0.3-0.2,0.7-0.2,1.2-0.2c0.7,0,1.2,0.2,1.6,0.5s0.6,0.8,0.6,1.4v2.5
		c0,0.5,0.1,0.9,0.2,1.2v0.1H163.1z M161.8,75.9c0.2,0,0.5-0.1,0.7-0.2c0.2-0.1,0.4-0.3,0.5-0.5v-1.1h-0.7c-0.5,0-0.8,0.1-1,0.2
		s-0.4,0.4-0.4,0.7c0,0.2,0.1,0.4,0.2,0.6C161.3,75.8,161.5,75.9,161.8,75.9z"/>
	<path fill="#808184" d="M168.5,75.3c0-0.2-0.1-0.4-0.3-0.5c-0.2-0.1-0.5-0.2-0.9-0.3s-0.8-0.2-1.1-0.3c-0.6-0.3-0.9-0.7-0.9-1.3
		c0-0.5,0.2-0.9,0.6-1.2c0.4-0.3,0.9-0.5,1.5-0.5c0.7,0,1.2,0.2,1.6,0.5c0.4,0.3,0.6,0.8,0.6,1.3h-1.3c0-0.2-0.1-0.4-0.3-0.6
		s-0.4-0.2-0.7-0.2c-0.3,0-0.5,0.1-0.7,0.2c-0.2,0.1-0.3,0.3-0.3,0.5c0,0.2,0.1,0.3,0.2,0.4c0.2,0.1,0.5,0.2,1,0.3s0.9,0.2,1.2,0.4
		c0.3,0.1,0.5,0.3,0.6,0.5c0.1,0.2,0.2,0.5,0.2,0.8c0,0.5-0.2,0.9-0.6,1.2s-1,0.5-1.6,0.5c-0.5,0-0.9-0.1-1.2-0.2s-0.6-0.4-0.8-0.7
		c-0.2-0.3-0.3-0.6-0.3-0.9h1.2c0,0.3,0.1,0.5,0.3,0.7s0.5,0.2,0.8,0.2c0.3,0,0.6-0.1,0.8-0.2S168.5,75.5,168.5,75.3z"/>
	<path fill="#808184" d="M173.2,76.9c-0.8,0-1.4-0.2-1.9-0.7c-0.5-0.5-0.7-1.2-0.7-2V74c0-0.6,0.1-1.1,0.3-1.5
		c0.2-0.4,0.5-0.8,0.9-1s0.8-0.4,1.3-0.4c0.8,0,1.3,0.2,1.8,0.7c0.4,0.5,0.6,1.2,0.6,2.1v0.5h-3.6c0,0.5,0.2,0.8,0.5,1.1
		c0.3,0.3,0.6,0.4,1,0.4c0.6,0,1-0.2,1.4-0.7l0.7,0.6c-0.2,0.3-0.5,0.6-0.9,0.8C174.1,76.8,173.7,76.9,173.2,76.9z M173.1,72.1
		c-0.3,0-0.6,0.1-0.8,0.4c-0.2,0.2-0.3,0.6-0.4,1h2.4v-0.1c0-0.4-0.1-0.7-0.3-1S173.4,72.1,173.1,72.1z"/>
	<path fill="#808184" d="M179.4,77.4h-1l3-8.1h1L179.4,77.4z"/>
	<path fill="#808184" d="M191.9,76.8h-1.3v-3.3h-3.4v3.3H186v-7.5h1.3v3.1h3.4v-3.1h1.3V76.8z"/>
	<path fill="#808184" d="M195.3,75l1.1-3.8h1.3l-2.2,6.4c-0.3,0.9-0.9,1.4-1.7,1.4c-0.2,0-0.4,0-0.6-0.1v-1l0.2,0
		c0.3,0,0.6-0.1,0.7-0.2c0.2-0.1,0.3-0.3,0.4-0.6l0.2-0.5l-2-5.5h1.3L195.3,75z"/>
	<path fill="#808184" d="M203.4,74.1c0,0.9-0.2,1.5-0.6,2.1s-0.9,0.8-1.6,0.8c-0.6,0-1.1-0.2-1.5-0.6v2.6h-1.3v-7.7h1.2l0.1,0.6
		c0.4-0.4,0.9-0.7,1.5-0.7c0.7,0,1.2,0.3,1.6,0.8C203.2,72.4,203.4,73.1,203.4,74.1L203.4,74.1z M202.1,73.9c0-0.6-0.1-1-0.3-1.3
		c-0.2-0.3-0.5-0.5-1-0.5c-0.5,0-0.9,0.2-1.1,0.6v2.5c0.2,0.4,0.6,0.6,1.1,0.6c0.4,0,0.7-0.2,0.9-0.5
		C202,75.1,202.1,74.6,202.1,73.9z"/>
	<path fill="#808184" d="M206.9,76.9c-0.8,0-1.4-0.2-1.9-0.7c-0.5-0.5-0.7-1.2-0.7-2V74c0-0.6,0.1-1.1,0.3-1.5
		c0.2-0.4,0.5-0.8,0.9-1s0.8-0.4,1.3-0.4c0.8,0,1.3,0.2,1.8,0.7c0.4,0.5,0.6,1.2,0.6,2.1v0.5h-3.6c0,0.5,0.2,0.8,0.5,1.1
		c0.3,0.3,0.6,0.4,1,0.4c0.6,0,1-0.2,1.4-0.7l0.7,0.6c-0.2,0.3-0.5,0.6-0.9,0.8C207.8,76.8,207.3,76.9,206.9,76.9z M206.7,72.1
		c-0.3,0-0.6,0.1-0.8,0.4s-0.3,0.6-0.4,1h2.4v-0.1c0-0.4-0.1-0.7-0.3-1S207.1,72.1,206.7,72.1z"/>
	<path fill="#808184" d="M213,72.4c-0.2,0-0.3,0-0.5,0c-0.6,0-1,0.2-1.2,0.7v3.8h-1.3v-5.6h1.2l0,0.6c0.3-0.5,0.7-0.7,1.3-0.7
		c0.2,0,0.3,0,0.4,0.1L213,72.4z"/>
	<path fill="#808184" d="M215.7,69.9v1.4h1v0.9h-1v3.1c0,0.2,0,0.4,0.1,0.5c0.1,0.1,0.2,0.1,0.5,0.1c0.1,0,0.3,0,0.4-0.1v1
		c-0.3,0.1-0.6,0.1-0.8,0.1c-1,0-1.4-0.5-1.4-1.6v-3.2h-0.9v-0.9h0.9v-1.4H215.7z"/>
	<path fill="#808184" d="M219.9,76.9c-0.8,0-1.4-0.2-1.9-0.7c-0.5-0.5-0.7-1.2-0.7-2V74c0-0.6,0.1-1.1,0.3-1.5
		c0.2-0.4,0.5-0.8,0.9-1s0.8-0.4,1.3-0.4c0.8,0,1.3,0.2,1.8,0.7c0.4,0.5,0.6,1.2,0.6,2.1v0.5h-3.6c0,0.5,0.2,0.8,0.5,1.1
		c0.3,0.3,0.6,0.4,1,0.4c0.6,0,1-0.2,1.4-0.7l0.7,0.6c-0.2,0.3-0.5,0.6-0.9,0.8C220.8,76.8,220.4,76.9,219.9,76.9z M219.7,72.1
		c-0.3,0-0.6,0.1-0.8,0.4c-0.2,0.2-0.3,0.6-0.4,1h2.4v-0.1c0-0.4-0.1-0.7-0.3-1S220.1,72.1,219.7,72.1z"/>
	<path fill="#808184" d="M224.3,71.2l0,0.6c0.4-0.5,1-0.7,1.6-0.7c1.2,0,1.8,0.7,1.8,2v3.7h-1.3v-3.6c0-0.4-0.1-0.6-0.2-0.8
		c-0.2-0.2-0.4-0.3-0.7-0.3c-0.5,0-0.9,0.2-1.1,0.7v4h-1.3v-5.6H224.3z"/>
	<path fill="#808184" d="M232.1,75.3c0-0.2-0.1-0.4-0.3-0.5c-0.2-0.1-0.5-0.2-0.9-0.3s-0.8-0.2-1.1-0.3c-0.6-0.3-0.9-0.7-0.9-1.3
		c0-0.5,0.2-0.9,0.6-1.2c0.4-0.3,0.9-0.5,1.5-0.5c0.7,0,1.2,0.2,1.6,0.5c0.4,0.3,0.6,0.8,0.6,1.3H232c0-0.2-0.1-0.4-0.3-0.6
		c-0.2-0.2-0.4-0.2-0.7-0.2c-0.3,0-0.5,0.1-0.7,0.2c-0.2,0.1-0.3,0.3-0.3,0.5c0,0.2,0.1,0.3,0.2,0.4s0.5,0.2,1,0.3s0.9,0.2,1.2,0.4
		c0.3,0.1,0.5,0.3,0.6,0.5c0.1,0.2,0.2,0.5,0.2,0.8c0,0.5-0.2,0.9-0.6,1.2s-1,0.5-1.6,0.5c-0.5,0-0.9-0.1-1.2-0.2s-0.6-0.4-0.8-0.7
		c-0.2-0.3-0.3-0.6-0.3-0.9h1.2c0,0.3,0.1,0.5,0.3,0.7s0.5,0.2,0.8,0.2c0.3,0,0.6-0.1,0.8-0.2C232,75.6,232.1,75.5,232.1,75.3z"/>
	<path fill="#808184" d="M234.3,69.8c0-0.2,0.1-0.4,0.2-0.5c0.1-0.1,0.3-0.2,0.5-0.2s0.4,0.1,0.5,0.2c0.1,0.1,0.2,0.3,0.2,0.5
		c0,0.2-0.1,0.3-0.2,0.5c-0.1,0.1-0.3,0.2-0.5,0.2s-0.4-0.1-0.5-0.2C234.4,70.1,234.3,70,234.3,69.8z M235.6,76.8h-1.3v-5.6h1.3
		V76.8z"/>
	<path fill="#808184" d="M236.7,73.9c0-0.5,0.1-1,0.3-1.5c0.2-0.4,0.5-0.8,0.9-1s0.8-0.4,1.3-0.4c0.8,0,1.4,0.2,1.8,0.7
		c0.5,0.5,0.7,1.1,0.8,1.9l0,0.3c0,0.5-0.1,1-0.3,1.5s-0.5,0.8-0.9,1c-0.4,0.2-0.8,0.4-1.4,0.4c-0.8,0-1.4-0.3-1.9-0.8
		C236.9,75.6,236.7,74.9,236.7,73.9L236.7,73.9z M237.9,74.1c0,0.6,0.1,1,0.4,1.3s0.6,0.5,1,0.5s0.8-0.2,1-0.5
		c0.2-0.3,0.4-0.8,0.4-1.4c0-0.6-0.1-1-0.4-1.3c-0.2-0.3-0.6-0.5-1-0.5c-0.4,0-0.7,0.2-1,0.5C238,72.9,237.9,73.4,237.9,74.1z"/>
	<path fill="#808184" d="M244.1,71.2l0,0.6c0.4-0.5,1-0.7,1.6-0.7c1.2,0,1.8,0.7,1.8,2v3.7h-1.3v-3.6c0-0.4-0.1-0.6-0.2-0.8
		c-0.2-0.2-0.4-0.3-0.7-0.3c-0.5,0-0.9,0.2-1.1,0.7v4h-1.3v-5.6H244.1z"/>
</g>
<g>
	<path fill="#1B75BB" d="M117.5,53.6h-3v-9.7l-3,0.9v-2.3l5.8-2h0.3V53.6z"/>
	<path fill="#1B75BB" d="M121.3,57.1l-1.5-0.7l0.3-0.6c0.4-0.8,0.6-1.5,0.7-2.2v-2.3h2.4l0,2c0,0.7-0.2,1.4-0.5,2.1
		C122.3,56.1,121.8,56.6,121.3,57.1z"/>
	<path fill="#1B75BB" d="M132.7,48.4h1.3v2.3h-1.3v2.8h-3v-2.8h-5.1l-0.2-1.9l5.3-8.5v0h3V48.4z M127.3,48.4h2.4v-4l-0.2,0.3
		L127.3,48.4z"/>
	<path fill="#1B75BB" d="M142.6,40.3v2.4h-0.1c-1.1,0-2.1,0.3-2.8,0.8c-0.7,0.5-1.2,1.3-1.3,2.3c0.7-0.7,1.6-1,2.6-1
		c1.1,0,2,0.4,2.7,1.2c0.7,0.8,1,1.9,1,3.3c0,0.8-0.2,1.6-0.6,2.3c-0.4,0.7-0.9,1.2-1.6,1.6c-0.7,0.4-1.5,0.6-2.3,0.6
		c-0.9,0-1.8-0.2-2.5-0.6c-0.7-0.4-1.3-1-1.7-1.8c-0.4-0.8-0.6-1.7-0.6-2.7v-1.2c0-1.4,0.3-2.6,0.9-3.6c0.6-1.1,1.4-1.9,2.5-2.5
		c1.1-0.6,2.3-0.9,3.6-0.9H142.6z M139.8,47c-0.4,0-0.7,0.1-1,0.3c-0.3,0.2-0.5,0.4-0.6,0.7v0.9c0,1.7,0.6,2.5,1.7,2.5
		c0.5,0,0.8-0.2,1.2-0.6c0.3-0.4,0.5-0.9,0.5-1.6c0-0.6-0.2-1.2-0.5-1.6C140.8,47.3,140.3,47,139.8,47z"/>
	<path fill="#1B75BB" d="M154.8,48.2c0,1.8-0.4,3.1-1.2,4.1c-0.8,1-1.9,1.4-3.4,1.4c-1.5,0-2.6-0.5-3.4-1.5c-0.8-1-1.2-2.3-1.2-4.1
		v-2.4c0-1.8,0.4-3.1,1.2-4.1c0.8-1,1.9-1.4,3.4-1.4s2.6,0.5,3.4,1.5c0.8,1,1.2,2.3,1.2,4.1V48.2z M151.8,45.4
		c0-0.9-0.1-1.6-0.4-2.1c-0.2-0.5-0.6-0.7-1.2-0.7c-0.5,0-0.9,0.2-1.1,0.6c-0.2,0.4-0.4,1.1-0.4,2v3.4c0,1,0.1,1.7,0.4,2.1
		c0.2,0.5,0.6,0.7,1.2,0.7c0.5,0,0.9-0.2,1.1-0.7c0.2-0.4,0.4-1.1,0.4-2.1V45.4z"/>
</g>
<g>
	<path fill="#808184" d="M81,487.8h-2.9l-0.6,1.7h-1.4l2.8-7.5h1.2l2.8,7.5h-1.4L81,487.8z M78.4,486.8h2.2l-1.1-3.1L78.4,486.8z"/>
	<path fill="#808184" d="M85,489.6h-1.3v-7.9H85V489.6z"/>
	<path fill="#808184" d="M87.6,489.6h-1.3v-7.9h1.3V489.6z"/>
	<path fill="#808184" d="M91.4,486.8c0-0.5,0.1-1,0.3-1.5c0.2-0.4,0.5-0.8,0.9-1c0.4-0.2,0.8-0.4,1.3-0.4c0.8,0,1.4,0.2,1.8,0.7
		c0.5,0.5,0.7,1.1,0.8,1.9l0,0.3c0,0.5-0.1,1-0.3,1.5c-0.2,0.4-0.5,0.8-0.9,1c-0.4,0.2-0.8,0.4-1.4,0.4c-0.8,0-1.4-0.3-1.9-0.8
		C91.6,488.4,91.4,487.7,91.4,486.8L91.4,486.8z M92.6,486.9c0,0.6,0.1,1,0.4,1.3c0.2,0.3,0.6,0.5,1,0.5s0.8-0.2,1-0.5
		s0.4-0.8,0.4-1.4c0-0.6-0.1-1-0.4-1.3s-0.6-0.5-1-0.5c-0.4,0-0.7,0.2-1,0.5C92.8,485.7,92.6,486.2,92.6,486.9z"/>
	<path fill="#808184" d="M99.1,482.7v1.4h1v0.9h-1v3.1c0,0.2,0,0.4,0.1,0.5c0.1,0.1,0.2,0.1,0.5,0.1c0.1,0,0.3,0,0.4-0.1v1
		c-0.3,0.1-0.6,0.1-0.8,0.1c-1,0-1.4-0.5-1.4-1.6v-3.2H97V484h0.9v-1.4H99.1z"/>
	<path fill="#808184" d="M102.3,484.6c0.4-0.5,0.9-0.7,1.6-0.7c1.2,0,1.8,0.7,1.8,2v3.6h-1.3V486c0-0.4-0.1-0.7-0.2-0.8
		c-0.2-0.2-0.4-0.2-0.7-0.2c-0.5,0-0.9,0.2-1.1,0.7v4H101v-7.9h1.3V484.6z"/>
	<path fill="#808184" d="M109.3,489.7c-0.8,0-1.4-0.2-1.9-0.7s-0.7-1.2-0.7-2v-0.2c0-0.6,0.1-1.1,0.3-1.5s0.5-0.8,0.9-1
		c0.4-0.2,0.8-0.4,1.3-0.4c0.8,0,1.3,0.2,1.8,0.7c0.4,0.5,0.6,1.2,0.6,2.1v0.5h-3.6c0,0.5,0.2,0.8,0.5,1.1s0.6,0.4,1,0.4
		c0.6,0,1-0.2,1.4-0.7l0.7,0.6c-0.2,0.3-0.5,0.6-0.9,0.8S109.7,489.7,109.3,489.7z M109.1,484.9c-0.3,0-0.6,0.1-0.8,0.4
		s-0.3,0.6-0.4,1h2.4v-0.1c0-0.4-0.1-0.7-0.3-1S109.5,484.9,109.1,484.9z"/>
	<path fill="#808184" d="M115.4,485.2c-0.2,0-0.3,0-0.5,0c-0.6,0-1,0.2-1.2,0.7v3.8h-1.3V484h1.2l0,0.6c0.3-0.5,0.7-0.7,1.3-0.7
		c0.2,0,0.3,0,0.4,0.1L115.4,485.2z"/>
	<path fill="#808184" d="M122,488.1c0-0.2-0.1-0.4-0.3-0.5s-0.5-0.2-0.9-0.3s-0.8-0.2-1.1-0.3c-0.6-0.3-0.9-0.7-0.9-1.3
		c0-0.5,0.2-0.9,0.6-1.2c0.4-0.3,0.9-0.5,1.5-0.5c0.7,0,1.2,0.2,1.6,0.5s0.6,0.8,0.6,1.3h-1.3c0-0.2-0.1-0.4-0.3-0.6
		c-0.2-0.2-0.4-0.2-0.7-0.2c-0.3,0-0.5,0.1-0.7,0.2c-0.2,0.1-0.3,0.3-0.3,0.5c0,0.2,0.1,0.3,0.2,0.4c0.2,0.1,0.5,0.2,1,0.3
		c0.5,0.1,0.9,0.2,1.2,0.4c0.3,0.1,0.5,0.3,0.6,0.5c0.1,0.2,0.2,0.5,0.2,0.8c0,0.5-0.2,0.9-0.6,1.2c-0.4,0.3-1,0.5-1.6,0.5
		c-0.5,0-0.9-0.1-1.2-0.2s-0.6-0.4-0.8-0.7s-0.3-0.6-0.3-0.9h1.2c0,0.3,0.1,0.5,0.3,0.7c0.2,0.2,0.5,0.2,0.8,0.2
		c0.3,0,0.6-0.1,0.8-0.2S122,488.3,122,488.1z"/>
	<path fill="#808184" d="M125.5,484l0,0.6c0.4-0.5,0.9-0.7,1.6-0.7c0.7,0,1.3,0.3,1.5,0.9c0.4-0.6,1-0.9,1.7-0.9
		c0.6,0,1.1,0.2,1.4,0.5c0.3,0.3,0.5,0.8,0.5,1.5v3.7h-1.3V486c0-0.4-0.1-0.6-0.2-0.8c-0.2-0.2-0.4-0.2-0.8-0.2
		c-0.3,0-0.5,0.1-0.7,0.2c-0.2,0.2-0.3,0.4-0.4,0.6l0,3.8h-1.3v-3.7c0-0.7-0.4-1-1-1c-0.5,0-0.9,0.2-1.1,0.6v4h-1.3V484H125.5z"/>
	<path fill="#808184" d="M133.2,486.8c0-0.5,0.1-1,0.3-1.5c0.2-0.4,0.5-0.8,0.9-1c0.4-0.2,0.8-0.4,1.3-0.4c0.8,0,1.4,0.2,1.8,0.7
		c0.5,0.5,0.7,1.1,0.8,1.9l0,0.3c0,0.5-0.1,1-0.3,1.5c-0.2,0.4-0.5,0.8-0.9,1c-0.4,0.2-0.8,0.4-1.4,0.4c-0.8,0-1.4-0.3-1.9-0.8
		C133.4,488.4,133.2,487.7,133.2,486.8L133.2,486.8z M134.4,486.9c0,0.6,0.1,1,0.4,1.3c0.2,0.3,0.6,0.5,1,0.5s0.8-0.2,1-0.5
		c0.2-0.3,0.4-0.8,0.4-1.4c0-0.6-0.1-1-0.4-1.3c-0.2-0.3-0.6-0.5-1-0.5c-0.4,0-0.7,0.2-1,0.5S134.4,486.2,134.4,486.9z"/>
	<path fill="#808184" d="M141.2,487.2l-0.6,0.6v1.8h-1.3v-7.9h1.3v4.6l0.4-0.5l1.5-1.7h1.5l-2.1,2.3l2.3,3.2h-1.4L141.2,487.2z"/>
	<path fill="#808184" d="M144.9,482.6c0-0.2,0.1-0.4,0.2-0.5c0.1-0.1,0.3-0.2,0.5-0.2s0.4,0.1,0.5,0.2c0.1,0.1,0.2,0.3,0.2,0.5
		c0,0.2-0.1,0.3-0.2,0.5s-0.3,0.2-0.5,0.2s-0.4-0.1-0.5-0.2C145,482.9,144.9,482.8,144.9,482.6z M146.3,489.6H145V484h1.3V489.6z"/>
	<path fill="#808184" d="M148.7,484l0,0.6c0.4-0.5,1-0.7,1.6-0.7c1.2,0,1.8,0.7,1.8,2v3.7h-1.3V486c0-0.4-0.1-0.6-0.2-0.8
		c-0.2-0.2-0.4-0.3-0.7-0.3c-0.5,0-0.9,0.2-1.1,0.7v4h-1.3V484H148.7z"/>
	<path fill="#808184" d="M153.2,486.8c0-0.9,0.2-1.6,0.6-2.1c0.4-0.5,0.9-0.8,1.6-0.8c0.6,0,1.1,0.2,1.5,0.7l0.1-0.6h1.1v5.4
		c0,0.7-0.2,1.3-0.7,1.7c-0.5,0.4-1.1,0.6-1.8,0.6c-0.4,0-0.8-0.1-1.2-0.3c-0.4-0.2-0.7-0.4-0.9-0.7l0.6-0.8
		c0.4,0.5,0.9,0.7,1.4,0.7c0.4,0,0.7-0.1,1-0.3s0.4-0.6,0.4-1v-0.4c-0.4,0.4-0.8,0.6-1.4,0.6c-0.7,0-1.2-0.3-1.6-0.8
		C153.4,488.4,153.2,487.7,153.2,486.8z M154.4,486.9c0,0.6,0.1,1,0.3,1.3c0.2,0.3,0.5,0.5,1,0.5c0.5,0,0.9-0.2,1.1-0.6v-2.5
		c-0.2-0.4-0.6-0.6-1.1-0.6c-0.4,0-0.7,0.2-1,0.5C154.6,485.8,154.4,486.2,154.4,486.9z"/>
	<path fill="#808184" d="M161.9,486.9h-2.7v-1h2.7V486.9z"/>
	<path fill="#808184" d="M166,485.2c-0.2,0-0.3,0-0.5,0c-0.6,0-1,0.2-1.2,0.7v3.8H163V484h1.2l0,0.6c0.3-0.5,0.7-0.7,1.3-0.7
		c0.2,0,0.3,0,0.4,0.1L166,485.2z"/>
	<path fill="#808184" d="M169.1,489.7c-0.8,0-1.4-0.2-1.9-0.7c-0.5-0.5-0.7-1.2-0.7-2v-0.2c0-0.6,0.1-1.1,0.3-1.5
		c0.2-0.4,0.5-0.8,0.9-1c0.4-0.2,0.8-0.4,1.3-0.4c0.8,0,1.3,0.2,1.8,0.7c0.4,0.5,0.6,1.2,0.6,2.1v0.5h-3.6c0,0.5,0.2,0.8,0.5,1.1
		c0.3,0.3,0.6,0.4,1,0.4c0.6,0,1-0.2,1.4-0.7l0.7,0.6c-0.2,0.3-0.5,0.6-0.9,0.8C170,489.6,169.6,489.7,169.1,489.7z M169,484.9
		c-0.3,0-0.6,0.1-0.8,0.4s-0.3,0.6-0.4,1h2.4v-0.1c0-0.4-0.1-0.7-0.3-1S169.3,484.9,169,484.9z"/>
	<path fill="#808184" d="M173.7,489.6h-1.3v-7.9h1.3V489.6z"/>
	<path fill="#808184" d="M178.3,489.6c-0.1-0.1-0.1-0.3-0.1-0.5c-0.4,0.4-0.9,0.6-1.5,0.6c-0.6,0-1-0.2-1.4-0.5
		c-0.4-0.3-0.5-0.7-0.5-1.2c0-0.6,0.2-1,0.7-1.4c0.4-0.3,1.1-0.5,1.9-0.5h0.8v-0.4c0-0.3-0.1-0.5-0.2-0.7c-0.2-0.2-0.4-0.3-0.7-0.3
		c-0.3,0-0.5,0.1-0.7,0.2s-0.3,0.3-0.3,0.5h-1.3c0-0.3,0.1-0.6,0.3-0.9s0.5-0.5,0.8-0.6c0.3-0.2,0.7-0.2,1.2-0.2
		c0.7,0,1.2,0.2,1.6,0.5c0.4,0.3,0.6,0.8,0.6,1.4v2.5c0,0.5,0.1,0.9,0.2,1.2v0.1H178.3z M176.9,488.7c0.2,0,0.5-0.1,0.7-0.2
		c0.2-0.1,0.4-0.3,0.5-0.5V487h-0.7c-0.5,0-0.8,0.1-1,0.2c-0.2,0.2-0.4,0.4-0.4,0.7c0,0.2,0.1,0.4,0.2,0.6
		C176.4,488.6,176.6,488.7,176.9,488.7z"/>
	<path fill="#808184" d="M182.2,482.7v1.4h1v0.9h-1v3.1c0,0.2,0,0.4,0.1,0.5c0.1,0.1,0.2,0.1,0.5,0.1c0.1,0,0.3,0,0.4-0.1v1
		c-0.3,0.1-0.6,0.1-0.8,0.1c-1,0-1.4-0.5-1.4-1.6v-3.2H180V484h0.9v-1.4H182.2z"/>
	<path fill="#808184" d="M186.4,489.7c-0.8,0-1.4-0.2-1.9-0.7c-0.5-0.5-0.7-1.2-0.7-2v-0.2c0-0.6,0.1-1.1,0.3-1.5
		c0.2-0.4,0.5-0.8,0.9-1c0.4-0.2,0.8-0.4,1.3-0.4c0.8,0,1.3,0.2,1.8,0.7c0.4,0.5,0.6,1.2,0.6,2.1v0.5H185c0,0.5,0.2,0.8,0.5,1.1
		c0.3,0.3,0.6,0.4,1,0.4c0.6,0,1-0.2,1.4-0.7l0.7,0.6c-0.2,0.3-0.5,0.6-0.9,0.8C187.3,489.6,186.9,489.7,186.4,489.7z M186.3,484.9
		c-0.3,0-0.6,0.1-0.8,0.4c-0.2,0.2-0.3,0.6-0.4,1h2.4v-0.1c0-0.4-0.1-0.7-0.3-1C186.9,485,186.6,484.9,186.3,484.9z"/>
	<path fill="#808184" d="M189.4,486.8c0-0.9,0.2-1.5,0.6-2.1c0.4-0.5,0.9-0.8,1.6-0.8c0.6,0,1.1,0.2,1.4,0.6v-2.9h1.3v7.9h-1.1
		l-0.1-0.6c-0.4,0.5-0.9,0.7-1.5,0.7c-0.7,0-1.2-0.3-1.6-0.8C189.6,488.4,189.4,487.7,189.4,486.8z M190.7,486.9
		c0,0.6,0.1,1,0.3,1.3c0.2,0.3,0.5,0.5,0.9,0.5c0.5,0,0.9-0.2,1.1-0.7v-2.4c-0.2-0.4-0.6-0.7-1.1-0.7c-0.4,0-0.7,0.2-0.9,0.5
		C190.8,485.7,190.7,486.2,190.7,486.9z"/>
	<path fill="#808184" d="M198,486.8c0-0.9,0.2-1.5,0.6-2.1c0.4-0.5,0.9-0.8,1.6-0.8c0.6,0,1.1,0.2,1.4,0.6v-2.9h1.3v7.9h-1.1
		l-0.1-0.6c-0.4,0.5-0.9,0.7-1.5,0.7c-0.7,0-1.2-0.3-1.6-0.8C198.2,488.4,198,487.7,198,486.8z M199.2,486.9c0,0.6,0.1,1,0.3,1.3
		c0.2,0.3,0.5,0.5,0.9,0.5c0.5,0,0.9-0.2,1.1-0.7v-2.4c-0.2-0.4-0.6-0.7-1.1-0.7c-0.4,0-0.7,0.2-0.9,0.5
		C199.4,485.7,199.2,486.2,199.2,486.9z"/>
	<path fill="#808184" d="M204.1,482.6c0-0.2,0.1-0.4,0.2-0.5c0.1-0.1,0.3-0.2,0.5-0.2s0.4,0.1,0.5,0.2c0.1,0.1,0.2,0.3,0.2,0.5
		c0,0.2-0.1,0.3-0.2,0.5s-0.3,0.2-0.5,0.2s-0.4-0.1-0.5-0.2C204.2,482.9,204.1,482.8,204.1,482.6z M205.4,489.6h-1.3V484h1.3V489.6z
		"/>
	<path fill="#808184" d="M209.8,488.1c0-0.2-0.1-0.4-0.3-0.5c-0.2-0.1-0.5-0.2-0.9-0.3s-0.8-0.2-1.1-0.3c-0.6-0.3-0.9-0.7-0.9-1.3
		c0-0.5,0.2-0.9,0.6-1.2c0.4-0.3,0.9-0.5,1.5-0.5c0.7,0,1.2,0.2,1.6,0.5c0.4,0.3,0.6,0.8,0.6,1.3h-1.3c0-0.2-0.1-0.4-0.3-0.6
		c-0.2-0.2-0.4-0.2-0.7-0.2c-0.3,0-0.5,0.1-0.7,0.2c-0.2,0.1-0.3,0.3-0.3,0.5c0,0.2,0.1,0.3,0.2,0.4c0.2,0.1,0.5,0.2,1,0.3
		c0.5,0.1,0.9,0.2,1.2,0.4c0.3,0.1,0.5,0.3,0.6,0.5c0.1,0.2,0.2,0.5,0.2,0.8c0,0.5-0.2,0.9-0.6,1.2s-1,0.5-1.6,0.5
		c-0.5,0-0.9-0.1-1.2-0.2s-0.6-0.4-0.8-0.7s-0.3-0.6-0.3-0.9h1.2c0,0.3,0.1,0.5,0.3,0.7c0.2,0.2,0.5,0.2,0.8,0.2
		c0.3,0,0.6-0.1,0.8-0.2S209.8,488.3,209.8,488.1z"/>
	<path fill="#808184" d="M214.5,489.7c-0.8,0-1.4-0.2-1.9-0.7c-0.5-0.5-0.7-1.2-0.7-2v-0.2c0-0.6,0.1-1.1,0.3-1.5
		c0.2-0.4,0.5-0.8,0.9-1c0.4-0.2,0.8-0.4,1.3-0.4c0.8,0,1.3,0.2,1.8,0.7c0.4,0.5,0.6,1.2,0.6,2.1v0.5h-3.6c0,0.5,0.2,0.8,0.5,1.1
		c0.3,0.3,0.6,0.4,1,0.4c0.6,0,1-0.2,1.4-0.7l0.7,0.6c-0.2,0.3-0.5,0.6-0.9,0.8C215.4,489.6,215,489.7,214.5,489.7z M214.4,484.9
		c-0.3,0-0.6,0.1-0.8,0.4c-0.2,0.2-0.3,0.6-0.4,1h2.4v-0.1c0-0.4-0.1-0.7-0.3-1S214.7,484.9,214.4,484.9z"/>
	<path fill="#808184" d="M221,489.6c-0.1-0.1-0.1-0.3-0.1-0.5c-0.4,0.4-0.9,0.6-1.5,0.6c-0.6,0-1-0.2-1.4-0.5
		c-0.4-0.3-0.5-0.7-0.5-1.2c0-0.6,0.2-1,0.7-1.4c0.4-0.3,1.1-0.5,1.9-0.5h0.8v-0.4c0-0.3-0.1-0.5-0.2-0.7c-0.2-0.2-0.4-0.3-0.7-0.3
		c-0.3,0-0.5,0.1-0.7,0.2s-0.3,0.3-0.3,0.5h-1.3c0-0.3,0.1-0.6,0.3-0.9c0.2-0.3,0.5-0.5,0.8-0.6s0.7-0.2,1.2-0.2
		c0.7,0,1.2,0.2,1.6,0.5c0.4,0.3,0.6,0.8,0.6,1.4v2.5c0,0.5,0.1,0.9,0.2,1.2v0.1H221z M219.6,488.7c0.2,0,0.5-0.1,0.7-0.2
		c0.2-0.1,0.4-0.3,0.5-0.5V487h-0.7c-0.5,0-0.8,0.1-1,0.2c-0.2,0.2-0.4,0.4-0.4,0.7c0,0.2,0.1,0.4,0.2,0.6
		C219.1,488.6,219.3,488.7,219.6,488.7z"/>
	<path fill="#808184" d="M226.4,488.1c0-0.2-0.1-0.4-0.3-0.5c-0.2-0.1-0.5-0.2-0.9-0.3c-0.4-0.1-0.8-0.2-1.1-0.3
		c-0.6-0.3-0.9-0.7-0.9-1.3c0-0.5,0.2-0.9,0.6-1.2c0.4-0.3,0.9-0.5,1.5-0.5c0.7,0,1.2,0.2,1.6,0.5s0.6,0.8,0.6,1.3h-1.3
		c0-0.2-0.1-0.4-0.3-0.6c-0.2-0.2-0.4-0.2-0.7-0.2c-0.3,0-0.5,0.1-0.7,0.2c-0.2,0.1-0.3,0.3-0.3,0.5c0,0.2,0.1,0.3,0.2,0.4
		c0.2,0.1,0.5,0.2,1,0.3c0.5,0.1,0.9,0.2,1.2,0.4c0.3,0.1,0.5,0.3,0.6,0.5c0.1,0.2,0.2,0.5,0.2,0.8c0,0.5-0.2,0.9-0.6,1.2
		s-1,0.5-1.6,0.5c-0.5,0-0.9-0.1-1.2-0.2s-0.6-0.4-0.8-0.7c-0.2-0.3-0.3-0.6-0.3-0.9h1.2c0,0.3,0.1,0.5,0.3,0.7
		c0.2,0.2,0.5,0.2,0.8,0.2c0.3,0,0.6-0.1,0.8-0.2S226.4,488.3,226.4,488.1z"/>
	<path fill="#808184" d="M231.1,489.7c-0.8,0-1.4-0.2-1.9-0.7c-0.5-0.5-0.7-1.2-0.7-2v-0.2c0-0.6,0.1-1.1,0.3-1.5
		c0.2-0.4,0.5-0.8,0.9-1c0.4-0.2,0.8-0.4,1.3-0.4c0.8,0,1.3,0.2,1.8,0.7c0.4,0.5,0.6,1.2,0.6,2.1v0.5h-3.6c0,0.5,0.2,0.8,0.5,1.1
		c0.3,0.3,0.6,0.4,1,0.4c0.6,0,1-0.2,1.4-0.7l0.7,0.6c-0.2,0.3-0.5,0.6-0.9,0.8C231.9,489.6,231.5,489.7,231.1,489.7z M230.9,484.9
		c-0.3,0-0.6,0.1-0.8,0.4s-0.3,0.6-0.4,1h2.4v-0.1c0-0.4-0.1-0.7-0.3-1S231.3,484.9,230.9,484.9z"/>
	<path fill="#808184" d="M237.3,488.1c0-0.2-0.1-0.4-0.3-0.5c-0.2-0.1-0.5-0.2-0.9-0.3s-0.8-0.2-1.1-0.3c-0.6-0.3-0.9-0.7-0.9-1.3
		c0-0.5,0.2-0.9,0.6-1.2c0.4-0.3,0.9-0.5,1.5-0.5c0.7,0,1.2,0.2,1.6,0.5c0.4,0.3,0.6,0.8,0.6,1.3h-1.3c0-0.2-0.1-0.4-0.3-0.6
		c-0.2-0.2-0.4-0.2-0.7-0.2c-0.3,0-0.5,0.1-0.7,0.2c-0.2,0.1-0.3,0.3-0.3,0.5c0,0.2,0.1,0.3,0.2,0.4c0.2,0.1,0.5,0.2,1,0.3
		c0.5,0.1,0.9,0.2,1.2,0.4c0.3,0.1,0.5,0.3,0.6,0.5c0.1,0.2,0.2,0.5,0.2,0.8c0,0.5-0.2,0.9-0.6,1.2s-1,0.5-1.6,0.5
		c-0.5,0-0.9-0.1-1.2-0.2s-0.6-0.4-0.8-0.7s-0.3-0.6-0.3-0.9h1.2c0,0.3,0.1,0.5,0.3,0.7c0.2,0.2,0.5,0.2,0.8,0.2
		c0.3,0,0.6-0.1,0.8-0.2S237.3,488.3,237.3,488.1z"/>
</g>
<g>
	<path fill="#2FBFD1" d="M82.3,466.4h-2.6v-8.3l-2.6,0.7v-2l4.9-1.7h0.2V466.4z"/>
	<path fill="#2FBFD1" d="M87,459.7h1.2c1,0,1.5-0.5,1.5-1.4c0-0.4-0.1-0.7-0.3-0.9s-0.6-0.4-1-0.4c-0.3,0-0.6,0.1-0.9,0.3
		c-0.3,0.2-0.4,0.5-0.4,0.7h-2.6c0-0.6,0.2-1.1,0.5-1.6c0.3-0.5,0.8-0.8,1.4-1.1c0.6-0.3,1.2-0.4,1.9-0.4c1.3,0,2.2,0.3,3,0.9
		c0.7,0.6,1.1,1.4,1.1,2.4c0,0.5-0.1,0.9-0.4,1.4c-0.3,0.4-0.7,0.8-1.3,1c0.6,0.2,1.1,0.5,1.4,1c0.3,0.4,0.5,1,0.5,1.6
		c0,1-0.4,1.8-1.2,2.4c-0.8,0.6-1.8,0.9-3,0.9c-0.7,0-1.4-0.1-2.1-0.4c-0.6-0.3-1.1-0.7-1.4-1.2s-0.5-1.1-0.5-1.7h2.6
		c0,0.3,0.1,0.6,0.4,0.9s0.6,0.4,1,0.4c0.5,0,0.8-0.1,1.1-0.4c0.3-0.3,0.4-0.6,0.4-1c0-0.6-0.1-1-0.4-1.2c-0.3-0.2-0.7-0.4-1.2-0.4
		H87V459.7z"/>
	<path fill="#2FBFD1" d="M94.5,469.4l-1.3-0.6l0.3-0.5c0.4-0.7,0.5-1.3,0.6-1.9v-1.9h2.1l0,1.7c0,0.6-0.2,1.2-0.5,1.8
		S94.9,469,94.5,469.4z"/>
	<path fill="#2FBFD1" d="M97.7,460.9l0.7-5.8h6.6v2h-4.5l-0.3,2.2c0.2-0.1,0.4-0.2,0.7-0.3c0.3-0.1,0.6-0.1,0.9-0.1
		c1.1,0,2,0.3,2.6,1c0.6,0.7,0.9,1.6,0.9,2.8c0,0.7-0.2,1.4-0.5,2s-0.8,1-1.4,1.3c-0.6,0.3-1.3,0.5-2.1,0.5c-0.7,0-1.4-0.1-2-0.4
		c-0.6-0.3-1.1-0.7-1.5-1.2c-0.4-0.5-0.5-1.1-0.5-1.7h2.6c0,0.4,0.2,0.7,0.4,1c0.2,0.2,0.5,0.4,0.9,0.4c0.9,0,1.3-0.6,1.3-1.9
		c0-1.2-0.5-1.8-1.6-1.8c-0.6,0-1.1,0.2-1.4,0.6L97.7,460.9z"/>
	<path fill="#2FBFD1" d="M111.7,466.4h-2.6v-8.3l-2.6,0.7v-2l4.9-1.7h0.2V466.4z"/>
	<path fill="#2FBFD1" d="M116.5,459.7h1.2c1,0,1.5-0.5,1.5-1.4c0-0.4-0.1-0.7-0.3-0.9c-0.2-0.2-0.6-0.4-1-0.4
		c-0.3,0-0.6,0.1-0.9,0.3c-0.3,0.2-0.4,0.5-0.4,0.7h-2.6c0-0.6,0.2-1.1,0.5-1.6c0.3-0.5,0.8-0.8,1.4-1.1c0.6-0.3,1.2-0.4,1.9-0.4
		c1.3,0,2.2,0.3,3,0.9s1.1,1.4,1.1,2.4c0,0.5-0.1,0.9-0.4,1.4c-0.3,0.4-0.7,0.8-1.3,1c0.6,0.2,1.1,0.5,1.4,1s0.5,1,0.5,1.6
		c0,1-0.4,1.8-1.2,2.4c-0.8,0.6-1.8,0.9-3,0.9c-0.7,0-1.4-0.1-2.1-0.4c-0.6-0.3-1.1-0.7-1.4-1.2c-0.3-0.5-0.5-1.1-0.5-1.7h2.6
		c0,0.3,0.1,0.6,0.4,0.9s0.6,0.4,1,0.4c0.5,0,0.8-0.1,1.1-0.4s0.4-0.6,0.4-1c0-0.6-0.1-1-0.4-1.2c-0.3-0.2-0.7-0.4-1.2-0.4h-1.3
		V459.7z"/>
</g>
<g>
	<path fill="#808184" d="M775.5,183.7c-0.1,0.8-0.4,1.4-0.9,1.9c-0.5,0.4-1.2,0.7-2.1,0.7c-0.6,0-1.1-0.1-1.6-0.4
		c-0.5-0.3-0.8-0.7-1.1-1.2s-0.4-1.1-0.4-1.8v-0.7c0-0.7,0.1-1.3,0.4-1.9c0.3-0.5,0.6-1,1.1-1.2s1-0.4,1.6-0.4c0.8,0,1.5,0.2,2,0.7
		c0.5,0.4,0.8,1.1,0.9,1.9h-1.3c-0.1-0.5-0.2-0.9-0.5-1.2s-0.6-0.4-1.1-0.4c-0.6,0-1,0.2-1.3,0.6c-0.3,0.4-0.5,1-0.5,1.8v0.7
		c0,0.8,0.1,1.4,0.4,1.9s0.7,0.6,1.3,0.6c0.5,0,0.9-0.1,1.2-0.3c0.3-0.2,0.4-0.6,0.5-1.1H775.5z"/>
	<path fill="#808184" d="M779.8,186.1c-0.1-0.1-0.1-0.3-0.1-0.5c-0.4,0.4-0.9,0.6-1.5,0.6c-0.6,0-1-0.2-1.4-0.5s-0.5-0.7-0.5-1.2
		c0-0.6,0.2-1,0.7-1.4c0.4-0.3,1.1-0.5,1.9-0.5h0.8v-0.4c0-0.3-0.1-0.5-0.2-0.7c-0.2-0.2-0.4-0.3-0.7-0.3c-0.3,0-0.5,0.1-0.7,0.2
		c-0.2,0.1-0.3,0.3-0.3,0.5h-1.3c0-0.3,0.1-0.6,0.3-0.9c0.2-0.3,0.5-0.5,0.8-0.6c0.3-0.2,0.7-0.2,1.2-0.2c0.7,0,1.2,0.2,1.6,0.5
		c0.4,0.3,0.6,0.8,0.6,1.4v2.5c0,0.5,0.1,0.9,0.2,1.2v0.1H779.8z M778.5,185.2c0.2,0,0.5-0.1,0.7-0.2c0.2-0.1,0.4-0.3,0.5-0.5v-1.1
		H779c-0.5,0-0.8,0.1-1,0.2s-0.4,0.4-0.4,0.7c0,0.2,0.1,0.4,0.2,0.6C778,185.1,778.2,185.2,778.5,185.2z"/>
	<path fill="#808184" d="M783.3,180.5l0,0.6c0.4-0.5,1-0.7,1.6-0.7c1.2,0,1.8,0.7,1.8,2v3.7h-1.3v-3.6c0-0.4-0.1-0.6-0.2-0.8
		s-0.4-0.3-0.7-0.3c-0.5,0-0.9,0.2-1.1,0.7v4h-1.3v-5.6H783.3z"/>
	<path fill="#808184" d="M790.3,185.2c0.3,0,0.6-0.1,0.8-0.3s0.3-0.4,0.3-0.7h1.2c0,0.3-0.1,0.7-0.3,1c-0.2,0.3-0.5,0.5-0.8,0.7
		s-0.7,0.3-1.1,0.3c-0.8,0-1.4-0.3-1.9-0.8c-0.5-0.5-0.7-1.2-0.7-2.1v-0.1c0-0.8,0.2-1.5,0.7-2c0.5-0.5,1.1-0.8,1.9-0.8
		c0.7,0,1.2,0.2,1.6,0.6c0.4,0.4,0.6,0.9,0.7,1.5h-1.2c0-0.3-0.1-0.6-0.3-0.8s-0.5-0.3-0.8-0.3c-0.4,0-0.7,0.1-0.9,0.4
		s-0.3,0.7-0.3,1.3v0.2c0,0.6,0.1,1.1,0.3,1.4C789.6,185.1,789.9,185.2,790.3,185.2z"/>
	<path fill="#808184" d="M796,186.2c-0.8,0-1.4-0.2-1.9-0.7c-0.5-0.5-0.7-1.2-0.7-2v-0.2c0-0.6,0.1-1.1,0.3-1.5
		c0.2-0.4,0.5-0.8,0.9-1c0.4-0.2,0.8-0.4,1.3-0.4c0.8,0,1.3,0.2,1.8,0.7s0.6,1.2,0.6,2.1v0.5h-3.6c0,0.5,0.2,0.8,0.5,1.1
		c0.3,0.3,0.6,0.4,1,0.4c0.6,0,1-0.2,1.4-0.7l0.7,0.6c-0.2,0.3-0.5,0.6-0.9,0.8C796.9,186.1,796.4,186.2,796,186.2z M795.8,181.4
		c-0.3,0-0.6,0.1-0.8,0.4s-0.3,0.6-0.4,1h2.4v-0.1c0-0.4-0.1-0.7-0.3-1C796.5,181.5,796.2,181.4,795.8,181.4z"/>
	<path fill="#808184" d="M802.1,181.7c-0.2,0-0.3,0-0.5,0c-0.6,0-1,0.2-1.2,0.7v3.8h-1.3v-5.6h1.2l0,0.6c0.3-0.5,0.7-0.7,1.3-0.7
		c0.2,0,0.3,0,0.4,0.1L802.1,181.7z"/>
	<path fill="#808184" d="M806.1,184.6c0-0.2-0.1-0.4-0.3-0.5c-0.2-0.1-0.5-0.2-0.9-0.3s-0.8-0.2-1.1-0.3c-0.6-0.3-0.9-0.7-0.9-1.3
		c0-0.5,0.2-0.9,0.6-1.2c0.4-0.3,0.9-0.5,1.5-0.5c0.7,0,1.2,0.2,1.6,0.5c0.4,0.3,0.6,0.8,0.6,1.3H806c0-0.2-0.1-0.4-0.3-0.6
		c-0.2-0.2-0.4-0.2-0.7-0.2c-0.3,0-0.5,0.1-0.7,0.2s-0.3,0.3-0.3,0.5c0,0.2,0.1,0.3,0.2,0.4c0.2,0.1,0.5,0.2,1,0.3
		c0.5,0.1,0.9,0.2,1.2,0.4c0.3,0.1,0.5,0.3,0.6,0.5s0.2,0.5,0.2,0.8c0,0.5-0.2,0.9-0.6,1.2c-0.4,0.3-1,0.5-1.6,0.5
		c-0.5,0-0.9-0.1-1.2-0.2s-0.6-0.4-0.8-0.7c-0.2-0.3-0.3-0.6-0.3-0.9h1.2c0,0.3,0.1,0.5,0.3,0.7c0.2,0.2,0.5,0.2,0.8,0.2
		c0.3,0,0.6-0.1,0.8-0.2C806,185,806.1,184.8,806.1,184.6z"/>
	<path fill="#808184" d="M813.4,183.1c0,0.8-0.1,1.5-0.3,2.2c-0.2,0.7-0.5,1.4-1,1.9c-0.4,0.6-0.9,1-1.3,1.2l-0.2-0.7
		c0.5-0.4,0.9-1,1.2-1.8c0.3-0.8,0.5-1.8,0.5-2.8v-0.1c0-1-0.1-1.8-0.4-2.6s-0.6-1.4-1.1-1.9l-0.2-0.1l0.2-0.7
		c0.4,0.2,0.9,0.6,1.3,1.1c0.4,0.5,0.7,1.1,0.9,1.8c0.2,0.7,0.3,1.4,0.4,2.1L813.4,183.1z"/>
	<path fill="#808184" d="M814.8,186.1v-7.5h2.2c0.7,0,1.3,0.1,1.8,0.4c0.5,0.3,0.9,0.7,1.2,1.3c0.3,0.5,0.4,1.2,0.4,1.9v0.4
		c0,0.7-0.1,1.3-0.4,1.9c-0.3,0.5-0.7,1-1.2,1.2s-1.1,0.4-1.8,0.4H814.8z M816.1,179.7v5.4h0.8c0.7,0,1.2-0.2,1.6-0.6
		c0.4-0.4,0.6-1,0.6-1.8v-0.4c0-0.8-0.2-1.4-0.5-1.9c-0.4-0.4-0.9-0.6-1.5-0.6H816.1z"/>
	<path fill="#808184" d="M821.5,179.1c0-0.2,0.1-0.4,0.2-0.5c0.1-0.1,0.3-0.2,0.5-0.2c0.2,0,0.4,0.1,0.5,0.2s0.2,0.3,0.2,0.5
		c0,0.2-0.1,0.3-0.2,0.5c-0.1,0.1-0.3,0.2-0.5,0.2c-0.2,0-0.4-0.1-0.5-0.2C821.6,179.4,821.5,179.3,821.5,179.1z M822.9,186.1h-1.3
		v-5.6h1.3V186.1z"/>
	<path fill="#808184" d="M823.9,183.3c0-0.9,0.2-1.6,0.6-2.1c0.4-0.5,0.9-0.8,1.6-0.8c0.6,0,1.1,0.2,1.5,0.7l0.1-0.6h1.1v5.4
		c0,0.7-0.2,1.3-0.7,1.7s-1.1,0.6-1.8,0.6c-0.4,0-0.8-0.1-1.2-0.3c-0.4-0.2-0.7-0.4-0.9-0.7l0.6-0.8c0.4,0.5,0.9,0.7,1.4,0.7
		c0.4,0,0.7-0.1,1-0.3c0.2-0.2,0.4-0.6,0.4-1v-0.4c-0.4,0.4-0.8,0.6-1.4,0.6c-0.7,0-1.2-0.3-1.6-0.8
		C824.1,184.9,823.9,184.2,823.9,183.3z M825.2,183.4c0,0.6,0.1,1,0.3,1.3c0.2,0.3,0.5,0.5,1,0.5c0.5,0,0.9-0.2,1.1-0.6v-2.5
		c-0.2-0.4-0.6-0.6-1.1-0.6c-0.4,0-0.7,0.2-1,0.5S825.2,182.8,825.2,183.4z"/>
	<path fill="#808184" d="M832.5,186.2c-0.8,0-1.4-0.2-1.9-0.7c-0.5-0.5-0.7-1.2-0.7-2v-0.2c0-0.6,0.1-1.1,0.3-1.5
		c0.2-0.4,0.5-0.8,0.9-1s0.8-0.4,1.3-0.4c0.8,0,1.3,0.2,1.8,0.7c0.4,0.5,0.6,1.2,0.6,2.1v0.5h-3.6c0,0.5,0.2,0.8,0.5,1.1
		c0.3,0.3,0.6,0.4,1,0.4c0.6,0,1-0.2,1.4-0.7l0.7,0.6c-0.2,0.3-0.5,0.6-0.9,0.8C833.4,186.1,833,186.2,832.5,186.2z M832.4,181.4
		c-0.3,0-0.6,0.1-0.8,0.4c-0.2,0.2-0.3,0.6-0.4,1h2.4v-0.1c0-0.4-0.1-0.7-0.3-1C833,181.5,832.7,181.4,832.4,181.4z"/>
	<path fill="#808184" d="M838.8,184.6c0-0.2-0.1-0.4-0.3-0.5c-0.2-0.1-0.5-0.2-0.9-0.3s-0.8-0.2-1.1-0.3c-0.6-0.3-0.9-0.7-0.9-1.3
		c0-0.5,0.2-0.9,0.6-1.2c0.4-0.3,0.9-0.5,1.5-0.5c0.7,0,1.2,0.2,1.6,0.5c0.4,0.3,0.6,0.8,0.6,1.3h-1.3c0-0.2-0.1-0.4-0.3-0.6
		c-0.2-0.2-0.4-0.2-0.7-0.2c-0.3,0-0.5,0.1-0.7,0.2c-0.2,0.1-0.3,0.3-0.3,0.5c0,0.2,0.1,0.3,0.2,0.4c0.2,0.1,0.5,0.2,1,0.3
		c0.5,0.1,0.9,0.2,1.2,0.4c0.3,0.1,0.5,0.3,0.6,0.5s0.2,0.5,0.2,0.8c0,0.5-0.2,0.9-0.6,1.2c-0.4,0.3-1,0.5-1.6,0.5
		c-0.5,0-0.9-0.1-1.2-0.2s-0.6-0.4-0.8-0.7c-0.2-0.3-0.3-0.6-0.3-0.9h1.2c0,0.3,0.1,0.5,0.3,0.7c0.2,0.2,0.5,0.2,0.8,0.2
		c0.3,0,0.6-0.1,0.8-0.2C838.7,185,838.8,184.8,838.8,184.6z"/>
	<path fill="#808184" d="M842.7,179.2v1.4h1v0.9h-1v3.1c0,0.2,0,0.4,0.1,0.5c0.1,0.1,0.2,0.1,0.5,0.1c0.1,0,0.3,0,0.4-0.1v1
		c-0.3,0.1-0.6,0.1-0.8,0.1c-1,0-1.4-0.5-1.4-1.6v-3.2h-0.9v-0.9h0.9v-1.4H842.7z"/>
	<path fill="#808184" d="M844.6,179.1c0-0.2,0.1-0.4,0.2-0.5s0.3-0.2,0.5-0.2c0.2,0,0.4,0.1,0.5,0.2s0.2,0.3,0.2,0.5
		c0,0.2-0.1,0.3-0.2,0.5c-0.1,0.1-0.3,0.2-0.5,0.2c-0.2,0-0.4-0.1-0.5-0.2C844.6,179.4,844.6,179.3,844.6,179.1z M845.9,186.1h-1.3
		v-5.6h1.3V186.1z"/>
	<path fill="#808184" d="M849.2,184.5l1.2-4h1.3l-1.9,5.6h-1.1l-1.9-5.6h1.3L849.2,184.5z"/>
	<path fill="#808184" d="M854.6,186.2c-0.8,0-1.4-0.2-1.9-0.7c-0.5-0.5-0.7-1.2-0.7-2v-0.2c0-0.6,0.1-1.1,0.3-1.5
		c0.2-0.4,0.5-0.8,0.9-1s0.8-0.4,1.3-0.4c0.8,0,1.3,0.2,1.8,0.7c0.4,0.5,0.6,1.2,0.6,2.1v0.5h-3.6c0,0.5,0.2,0.8,0.5,1.1
		c0.3,0.3,0.6,0.4,1,0.4c0.6,0,1-0.2,1.4-0.7l0.7,0.6c-0.2,0.3-0.5,0.6-0.9,0.8C855.5,186.1,855.1,186.2,854.6,186.2z M854.5,181.4
		c-0.3,0-0.6,0.1-0.8,0.4c-0.2,0.2-0.3,0.6-0.4,1h2.4v-0.1c0-0.4-0.1-0.7-0.3-1C855.1,181.5,854.8,181.4,854.5,181.4z"/>
	<path fill="#808184" d="M860.8,186.8h-1l3-8.1h1L860.8,186.8z"/>
	<path fill="#808184" d="M870.1,183.2h-1.5v2.9h-1.3v-7.5h2.6c0.9,0,1.5,0.2,2,0.6c0.5,0.4,0.7,1,0.7,1.7c0,0.5-0.1,0.9-0.4,1.3
		c-0.2,0.3-0.6,0.6-1,0.8l1.7,3.1v0.1h-1.4L870.1,183.2z M868.7,182.2h1.3c0.4,0,0.8-0.1,1-0.3c0.2-0.2,0.4-0.5,0.4-0.9
		c0-0.4-0.1-0.7-0.3-0.9s-0.6-0.3-1-0.3h-1.4V182.2z"/>
	<path fill="#808184" d="M876.2,186.2c-0.8,0-1.4-0.2-1.9-0.7c-0.5-0.5-0.7-1.2-0.7-2v-0.2c0-0.6,0.1-1.1,0.3-1.5
		c0.2-0.4,0.5-0.8,0.9-1s0.8-0.4,1.3-0.4c0.8,0,1.3,0.2,1.8,0.7s0.6,1.2,0.6,2.1v0.5h-3.6c0,0.5,0.2,0.8,0.5,1.1
		c0.3,0.3,0.6,0.4,1,0.4c0.6,0,1-0.2,1.4-0.7l0.7,0.6c-0.2,0.3-0.5,0.6-0.9,0.8C877.1,186.1,876.7,186.2,876.2,186.2z M876.1,181.4
		c-0.3,0-0.6,0.1-0.8,0.4c-0.2,0.2-0.3,0.6-0.4,1h2.4v-0.1c0-0.4-0.1-0.7-0.3-1C876.7,181.5,876.4,181.4,876.1,181.4z"/>
	<path fill="#808184" d="M882.5,184.6c0-0.2-0.1-0.4-0.3-0.5s-0.5-0.2-0.9-0.3s-0.8-0.2-1.1-0.3c-0.6-0.3-0.9-0.7-0.9-1.3
		c0-0.5,0.2-0.9,0.6-1.2c0.4-0.3,0.9-0.5,1.5-0.5c0.7,0,1.2,0.2,1.6,0.5c0.4,0.3,0.6,0.8,0.6,1.3h-1.3c0-0.2-0.1-0.4-0.3-0.6
		c-0.2-0.2-0.4-0.2-0.7-0.2c-0.3,0-0.5,0.1-0.7,0.2c-0.2,0.1-0.3,0.3-0.3,0.5c0,0.2,0.1,0.3,0.2,0.4s0.5,0.2,1,0.3
		c0.5,0.1,0.9,0.2,1.2,0.4c0.3,0.1,0.5,0.3,0.6,0.5s0.2,0.5,0.2,0.8c0,0.5-0.2,0.9-0.6,1.2c-0.4,0.3-1,0.5-1.6,0.5
		c-0.5,0-0.9-0.1-1.2-0.2s-0.6-0.4-0.8-0.7c-0.2-0.3-0.3-0.6-0.3-0.9h1.2c0,0.3,0.1,0.5,0.3,0.7c0.2,0.2,0.5,0.2,0.8,0.2
		c0.3,0,0.6-0.1,0.8-0.2C882.4,185,882.5,184.8,882.5,184.6z"/>
	<path fill="#808184" d="M889.7,183.4c0,0.9-0.2,1.5-0.6,2.1c-0.4,0.5-0.9,0.8-1.6,0.8c-0.6,0-1.1-0.2-1.5-0.6v2.6h-1.3v-7.7h1.2
		l0.1,0.6c0.4-0.4,0.9-0.7,1.5-0.7c0.7,0,1.2,0.3,1.6,0.8C889.5,181.7,889.7,182.4,889.7,183.4L889.7,183.4z M888.4,183.3
		c0-0.6-0.1-1-0.3-1.3s-0.5-0.5-1-0.5c-0.5,0-0.9,0.2-1.1,0.6v2.5c0.2,0.4,0.6,0.6,1.1,0.6c0.4,0,0.7-0.2,0.9-0.5
		C888.3,184.4,888.4,183.9,888.4,183.3z"/>
	<path fill="#808184" d="M890.7,179.1c0-0.2,0.1-0.4,0.2-0.5s0.3-0.2,0.5-0.2c0.2,0,0.4,0.1,0.5,0.2s0.2,0.3,0.2,0.5
		c0,0.2-0.1,0.3-0.2,0.5c-0.1,0.1-0.3,0.2-0.5,0.2c-0.2,0-0.4-0.1-0.5-0.2C890.7,179.4,890.7,179.3,890.7,179.1z M892,186.1h-1.3
		v-5.6h1.3V186.1z"/>
	<path fill="#808184" d="M896.2,181.7c-0.2,0-0.3,0-0.5,0c-0.6,0-1,0.2-1.2,0.7v3.8h-1.3v-5.6h1.2l0,0.6c0.3-0.5,0.7-0.7,1.3-0.7
		c0.2,0,0.3,0,0.4,0.1L896.2,181.7z"/>
	<path fill="#808184" d="M900.3,186.1c-0.1-0.1-0.1-0.3-0.1-0.5c-0.4,0.4-0.9,0.6-1.5,0.6c-0.6,0-1-0.2-1.4-0.5s-0.5-0.7-0.5-1.2
		c0-0.6,0.2-1,0.7-1.4c0.4-0.3,1.1-0.5,1.9-0.5h0.8v-0.4c0-0.3-0.1-0.5-0.2-0.7c-0.2-0.2-0.4-0.3-0.7-0.3c-0.3,0-0.5,0.1-0.7,0.2
		c-0.2,0.1-0.3,0.3-0.3,0.5h-1.3c0-0.3,0.1-0.6,0.3-0.9c0.2-0.3,0.5-0.5,0.8-0.6c0.3-0.2,0.7-0.2,1.2-0.2c0.7,0,1.2,0.2,1.6,0.5
		c0.4,0.3,0.6,0.8,0.6,1.4v2.5c0,0.5,0.1,0.9,0.2,1.2v0.1H900.3z M899,185.2c0.2,0,0.5-0.1,0.7-0.2c0.2-0.1,0.4-0.3,0.5-0.5v-1.1
		h-0.7c-0.5,0-0.8,0.1-1,0.2s-0.4,0.4-0.4,0.7c0,0.2,0.1,0.4,0.2,0.6C898.5,185.1,898.7,185.2,899,185.2z"/>
	<path fill="#808184" d="M904.2,179.2v1.4h1v0.9h-1v3.1c0,0.2,0,0.4,0.1,0.5c0.1,0.1,0.2,0.1,0.5,0.1c0.1,0,0.3,0,0.4-0.1v1
		c-0.3,0.1-0.6,0.1-0.8,0.1c-1,0-1.4-0.5-1.4-1.6v-3.2h-0.9v-0.9h0.9v-1.4H904.2z"/>
	<path fill="#808184" d="M905.8,183.3c0-0.5,0.1-1,0.3-1.5c0.2-0.4,0.5-0.8,0.9-1c0.4-0.2,0.8-0.4,1.3-0.4c0.8,0,1.4,0.2,1.8,0.7
		c0.5,0.5,0.7,1.1,0.8,1.9l0,0.3c0,0.5-0.1,1-0.3,1.5c-0.2,0.4-0.5,0.8-0.9,1c-0.4,0.2-0.8,0.4-1.4,0.4c-0.8,0-1.4-0.3-1.9-0.8
		C906,184.9,905.8,184.2,905.8,183.3L905.8,183.3z M907,183.4c0,0.6,0.1,1,0.4,1.3c0.2,0.3,0.6,0.5,1,0.5s0.8-0.2,1-0.5
		s0.4-0.8,0.4-1.4c0-0.6-0.1-1-0.4-1.3s-0.6-0.5-1-0.5c-0.4,0-0.7,0.2-1,0.5C907.1,182.2,907,182.7,907,183.4z"/>
	<path fill="#808184" d="M914.9,181.7c-0.2,0-0.3,0-0.5,0c-0.6,0-1,0.2-1.2,0.7v3.8H912v-5.6h1.2l0,0.6c0.3-0.5,0.7-0.7,1.3-0.7
		c0.2,0,0.3,0,0.4,0.1L914.9,181.7z"/>
	<path fill="#808184" d="M917.9,184.3l1.1-3.8h1.3l-2.2,6.4c-0.3,0.9-0.9,1.4-1.7,1.4c-0.2,0-0.4,0-0.6-0.1v-1l0.2,0
		c0.3,0,0.6-0.1,0.7-0.2c0.2-0.1,0.3-0.3,0.4-0.6l0.2-0.5l-2-5.5h1.3L917.9,184.3z"/>
	<path fill="#808184" d="M923.2,183.1c0,0.8-0.1,1.5-0.3,2.2c-0.2,0.7-0.5,1.4-1,1.9c-0.4,0.6-0.9,1-1.3,1.2l-0.2-0.7
		c0.5-0.4,0.9-1,1.2-1.8c0.3-0.8,0.5-1.8,0.5-2.8v-0.1c0-1-0.1-1.8-0.4-2.6s-0.6-1.4-1.1-1.9l-0.2-0.1l0.2-0.7
		c0.4,0.2,0.9,0.6,1.3,1.1c0.4,0.5,0.7,1.1,0.9,1.8c0.2,0.7,0.3,1.4,0.4,2.1L923.2,183.1z"/>
</g>
<g>
	<path fill="#F26D26" d="M899.2,157.8c-0.7,0.6-1.4,0.9-2.2,0.9c-1.2,0-2.1-0.4-2.8-1.2c-0.7-0.8-1-1.9-1-3.2c0-0.8,0.2-1.6,0.6-2.3
		c0.4-0.7,0.9-1.3,1.6-1.7c0.7-0.4,1.5-0.6,2.3-0.6c0.9,0,1.6,0.2,2.3,0.7s1.2,1.1,1.6,1.8c0.4,0.8,0.6,1.7,0.6,2.8v1.2
		c0,1.4-0.3,2.7-0.9,3.8c-0.6,1.1-1.4,1.9-2.4,2.5c-1.1,0.6-2.3,0.9-3.7,0.9h-0.2v-2.4l0.6,0C897.8,160.5,898.9,159.6,899.2,157.8z
		 M897.8,156.5c0.7,0,1.1-0.3,1.4-0.9v-1.3c0-0.8-0.1-1.5-0.4-1.9c-0.3-0.4-0.7-0.6-1.1-0.6c-0.4,0-0.8,0.2-1.1,0.7s-0.4,1-0.4,1.7
		c0,0.7,0.1,1.2,0.4,1.6C896.9,156.3,897.3,156.5,897.8,156.5z"/>
	<path fill="#F26D26" d="M906.3,155.1h1.4c1.1,0,1.7-0.6,1.7-1.7c0-0.4-0.1-0.8-0.4-1.1c-0.3-0.3-0.7-0.4-1.1-0.4
		c-0.4,0-0.8,0.1-1,0.4c-0.3,0.2-0.4,0.5-0.4,0.9h-3c0-0.7,0.2-1.3,0.6-1.8c0.4-0.5,0.9-1,1.6-1.3c0.7-0.3,1.4-0.5,2.2-0.5
		c1.5,0,2.6,0.3,3.4,1s1.3,1.6,1.3,2.7c0,0.6-0.2,1.1-0.5,1.6s-0.8,0.9-1.5,1.2c0.7,0.3,1.2,0.6,1.6,1.1c0.4,0.5,0.6,1.1,0.6,1.9
		c0,1.2-0.5,2.1-1.4,2.8c-0.9,0.7-2.1,1.1-3.6,1.1c-0.9,0-1.7-0.2-2.4-0.5c-0.7-0.3-1.3-0.8-1.7-1.4c-0.4-0.6-0.6-1.2-0.6-2h3.1
		c0,0.4,0.2,0.8,0.5,1c0.3,0.3,0.7,0.4,1.2,0.4c0.5,0,1-0.1,1.3-0.4c0.3-0.3,0.5-0.7,0.5-1.1c0-0.7-0.2-1.1-0.5-1.4
		c-0.3-0.3-0.8-0.4-1.4-0.4h-1.5V155.1z"/>
	<path fill="#F26D26" d="M923.1,151.4l-4.9,11.5h-3.2l4.9-10.8h-6.3v-2.3h9.5V151.4z"/>
</g>
<g>
	<path fill="#5BAF93" d="M452.6,268.3h-6.2v-19.6l-6.1,1.8v-4.7l11.7-4h0.6V268.3z"/>
	<path fill="#5BAF93" d="M470.4,258.1c-1.3,1.2-2.8,1.8-4.5,1.8c-2.4,0-4.3-0.8-5.7-2.4c-1.4-1.6-2.1-3.8-2.1-6.5
		c0-1.7,0.4-3.3,1.2-4.7c0.8-1.5,1.9-2.6,3.3-3.5c1.4-0.9,3-1.3,4.7-1.3c1.8,0,3.3,0.4,4.8,1.3c1.4,0.9,2.5,2.1,3.3,3.7
		c0.8,1.6,1.2,3.5,1.2,5.6v2.4c0,2.9-0.6,5.5-1.7,7.6c-1.1,2.2-2.8,3.8-4.9,5c-2.1,1.2-4.6,1.7-7.4,1.7h-0.4v-4.9l1.2,0
		C467.6,263.6,469.9,261.7,470.4,258.1z M467.6,255.4c1.3,0,2.3-0.6,2.9-1.7v-2.6c0-1.7-0.3-3-0.9-3.8c-0.6-0.8-1.3-1.2-2.3-1.2
		c-0.9,0-1.6,0.5-2.2,1.4c-0.6,0.9-0.9,2-0.9,3.4c0,1.4,0.3,2.5,0.9,3.3C465.8,255,466.6,255.4,467.6,255.4z"/>
	<path fill="#5BAF93" d="M480.6,275.5l-3.1-1.5l0.6-1.2c0.9-1.6,1.3-3.1,1.3-4.5v-4.6h4.9l0,4c0,1.4-0.4,2.8-1.1,4.3
		C482.5,273.4,481.6,274.6,480.6,275.5z"/>
	<path fill="#5BAF93" d="M498.7,268.3h-6.2v-19.6l-6.1,1.8v-4.7l11.7-4h0.6V268.3z"/>
	<path fill="#5BAF93" d="M510.4,252.5h2.9c2.3,0,3.4-1.1,3.4-3.4c0-0.9-0.3-1.6-0.8-2.1c-0.5-0.6-1.3-0.8-2.3-0.8
		c-0.8,0-1.5,0.2-2.1,0.7c-0.6,0.5-0.9,1.1-0.9,1.8h-6.1c0-1.4,0.4-2.6,1.2-3.7c0.8-1.1,1.9-1.9,3.2-2.6c1.4-0.6,2.9-0.9,4.6-0.9
		c3,0,5.3,0.7,7,2c1.7,1.3,2.5,3.2,2.5,5.6c0,1.1-0.3,2.2-1,3.2c-0.7,1-1.7,1.8-3.1,2.5c1.4,0.5,2.5,1.3,3.3,2.3
		c0.8,1,1.2,2.3,1.2,3.9c0,2.4-0.9,4.3-2.7,5.7c-1.8,1.4-4.2,2.1-7.2,2.1c-1.7,0-3.4-0.3-4.8-1c-1.5-0.7-2.6-1.6-3.4-2.8
		c-0.8-1.2-1.1-2.5-1.1-4h6.2c0,0.8,0.3,1.5,1,2.1c0.7,0.6,1.5,0.9,2.4,0.9c1.1,0,1.9-0.3,2.6-0.9c0.6-0.6,1-1.4,1-2.3
		c0-1.3-0.3-2.3-1-2.8c-0.7-0.6-1.6-0.8-2.8-0.8h-3V252.5z"/>
	<path fill="#5BAF93" d="M544.5,248.9c0,1.3-0.3,2.4-1,3.4c-0.6,1-1.5,1.8-2.6,2.4c1.3,0.6,2.3,1.5,3,2.5c0.7,1.1,1.1,2.4,1.1,3.8
		c0,2.4-0.8,4.2-2.5,5.6c-1.6,1.4-3.9,2.1-6.8,2.1c-2.9,0-5.2-0.7-6.8-2.1c-1.7-1.4-2.5-3.2-2.5-5.6c0-1.4,0.4-2.7,1.1-3.8
		s1.8-2,3.1-2.6c-1.1-0.6-2-1.4-2.7-2.4c-0.6-1-1-2.1-1-3.4c0-2.3,0.8-4.1,2.4-5.5c1.6-1.3,3.7-2,6.3-2c2.7,0,4.8,0.7,6.4,2
		C543.7,244.7,544.5,246.6,544.5,248.9z M538.9,260.5c0-1.1-0.3-1.9-0.8-2.5c-0.6-0.6-1.3-0.9-2.2-0.9c-0.9,0-1.7,0.3-2.2,0.9
		c-0.6,0.6-0.9,1.4-0.9,2.5c0,1.1,0.3,1.9,0.9,2.5c0.6,0.6,1.3,0.9,2.3,0.9c0.9,0,1.6-0.3,2.2-0.9
		C538.6,262.4,538.9,261.6,538.9,260.5z M535.8,246.1c-0.8,0-1.5,0.3-1.9,0.8c-0.4,0.5-0.6,1.3-0.6,2.3c0,0.9,0.2,1.7,0.7,2.3
		c0.4,0.6,1.1,0.9,1.9,0.9c0.8,0,1.5-0.3,1.9-0.9c0.4-0.6,0.6-1.3,0.6-2.3s-0.2-1.7-0.6-2.2C537.3,246.4,536.6,246.1,535.8,246.1z"
		/>
</g>
<g>
	<path fill="#5BAF93" d="M424.5,303.2h-8.4l-1.9,5.2h-2.7l7.6-20h2.3l7.7,20h-2.7L424.5,303.2z M417,301h6.8l-3.4-9.4L417,301z"/>
	<path fill="#5BAF93" d="M433.7,293.5l0.1,1.9c1.1-1.4,2.6-2.1,4.5-2.1c3.1,0,4.7,1.8,4.8,5.3v9.8h-2.5v-9.8c0-1.1-0.3-1.9-0.7-2.4
		c-0.5-0.5-1.2-0.8-2.2-0.8c-0.8,0-1.5,0.2-2.2,0.7c-0.6,0.4-1.1,1-1.5,1.7v10.6h-2.5v-14.9H433.7z"/>
	<path fill="#5BAF93" d="M448.7,293.5l0.1,1.9c1.1-1.4,2.6-2.1,4.5-2.1c3.1,0,4.7,1.8,4.8,5.3v9.8h-2.5v-9.8c0-1.1-0.3-1.9-0.7-2.4
		c-0.5-0.5-1.2-0.8-2.2-0.8c-0.8,0-1.5,0.2-2.2,0.7c-0.6,0.4-1.1,1-1.5,1.7v10.6h-2.5v-14.9H448.7z"/>
	<path fill="#5BAF93" d="M470.5,306.9c-1,1.2-2.4,1.7-4.4,1.7c-1.6,0-2.8-0.5-3.6-1.4c-0.8-0.9-1.2-2.3-1.3-4.1v-9.7h2.5v9.6
		c0,2.3,0.9,3.4,2.7,3.4c1.9,0,3.2-0.7,3.9-2.2v-10.8h2.5v14.9h-2.4L470.5,306.9z"/>
	<path fill="#5BAF93" d="M485.4,308.4c-0.1-0.3-0.3-0.8-0.4-1.6c-1.2,1.2-2.6,1.8-4.2,1.8c-1.5,0-2.7-0.4-3.6-1.2
		c-0.9-0.8-1.4-1.9-1.4-3.2c0-1.5,0.6-2.7,1.8-3.6c1.2-0.9,2.8-1.3,5-1.3h2.5v-1.2c0-0.9-0.3-1.6-0.8-2.1c-0.5-0.5-1.3-0.8-2.3-0.8
		c-0.9,0-1.7,0.2-2.3,0.7c-0.6,0.5-0.9,1-0.9,1.7h-2.6c0-0.7,0.3-1.5,0.8-2.2c0.5-0.7,1.2-1.2,2.1-1.6c0.9-0.4,1.9-0.6,3-0.6
		c1.7,0,3.1,0.4,4,1.3c1,0.9,1.5,2,1.5,3.5v6.8c0,1.4,0.2,2.5,0.5,3.3v0.2H485.4z M481.2,306.5c0.8,0,1.6-0.2,2.3-0.6
		c0.7-0.4,1.2-0.9,1.6-1.6v-3h-2c-3.1,0-4.7,0.9-4.7,2.7c0,0.8,0.3,1.4,0.8,1.9C479.7,306.2,480.4,306.5,481.2,306.5z"/>
	<path fill="#5BAF93" d="M493.7,308.4h-2.5v-21.1h2.5V308.4z"/>
	<path fill="#5BAF93" d="M505.1,308.4v-20h5.6c1.7,0,3.3,0.4,4.6,1.2c1.3,0.8,2.4,1.9,3.1,3.3c0.7,1.4,1.1,3,1.1,4.9v1.3
		c0,1.9-0.4,3.5-1.1,5c-0.7,1.4-1.8,2.5-3.1,3.3c-1.4,0.8-2.9,1.1-4.7,1.2H505.1z M507.7,290.5v15.7h2.8c2,0,3.6-0.6,4.7-1.9
		c1.1-1.3,1.7-3.1,1.7-5.4v-1.2c0-2.3-0.5-4-1.6-5.3c-1.1-1.3-2.6-1.9-4.5-1.9H507.7z"/>
	<path fill="#5BAF93" d="M528.8,308.7c-2,0-3.7-0.7-4.9-2c-1.3-1.3-1.9-3.1-1.9-5.3v-0.5c0-1.5,0.3-2.8,0.8-3.9
		c0.6-1.2,1.4-2.1,2.4-2.7c1-0.7,2.1-1,3.3-1c1.9,0,3.4,0.6,4.5,1.9c1.1,1.3,1.6,3.1,1.6,5.5v1.1h-10.1c0,1.5,0.5,2.6,1.3,3.6
		c0.8,0.9,1.9,1.4,3.1,1.4c0.9,0,1.7-0.2,2.3-0.5c0.6-0.4,1.2-0.9,1.6-1.5l1.6,1.2C533.1,307.7,531.2,308.7,528.8,308.7z
		 M528.4,295.3c-1,0-1.9,0.4-2.6,1.1c-0.7,0.7-1.1,1.8-1.3,3.1h7.4v-0.2c-0.1-1.3-0.4-2.3-1-3C530.3,295.7,529.5,295.3,528.4,295.3z
		"/>
	<path fill="#5BAF93" d="M546,308.4c-0.1-0.3-0.3-0.8-0.4-1.6c-1.2,1.2-2.6,1.8-4.2,1.8c-1.5,0-2.7-0.4-3.6-1.2
		c-0.9-0.8-1.4-1.9-1.4-3.2c0-1.5,0.6-2.7,1.8-3.6c1.2-0.9,2.8-1.3,5-1.3h2.5v-1.2c0-0.9-0.3-1.6-0.8-2.1c-0.5-0.5-1.3-0.8-2.3-0.8
		c-0.9,0-1.7,0.2-2.3,0.7c-0.6,0.5-0.9,1-0.9,1.7h-2.6c0-0.7,0.3-1.5,0.8-2.2c0.5-0.7,1.2-1.2,2.1-1.6c0.9-0.4,1.9-0.6,3-0.6
		c1.7,0,3.1,0.4,4,1.3c1,0.9,1.5,2,1.5,3.5v6.8c0,1.4,0.2,2.5,0.5,3.3v0.2H546z M541.8,306.5c0.8,0,1.6-0.2,2.3-0.6
		c0.7-0.4,1.2-0.9,1.6-1.6v-3h-2c-3.1,0-4.7,0.9-4.7,2.7c0,0.8,0.3,1.4,0.8,1.9C540.3,306.2,541,306.5,541.8,306.5z"/>
	<path fill="#5BAF93" d="M555.1,289.9v3.6h2.8v2h-2.8v9.2c0,0.6,0.1,1,0.4,1.3c0.2,0.3,0.7,0.4,1.3,0.4c0.3,0,0.7-0.1,1.2-0.2v2
		c-0.7,0.2-1.3,0.3-2,0.3c-1.1,0-2-0.3-2.6-1c-0.6-0.7-0.9-1.7-0.9-2.9v-9.2h-2.7v-2h2.7v-3.6H555.1z"/>
	<path fill="#5BAF93" d="M562.7,295.3c1.1-1.4,2.6-2.1,4.4-2.1c3.1,0,4.7,1.8,4.8,5.3v9.8h-2.5v-9.8c0-1.1-0.3-1.9-0.7-2.4
		c-0.5-0.5-1.2-0.8-2.2-0.8c-0.8,0-1.5,0.2-2.2,0.7c-0.6,0.4-1.1,1-1.5,1.7v10.6h-2.5v-21.1h2.5V295.3z"/>
	<path fill="#5BAF93" d="M450.7,330.7c0-1.5,0.3-2.8,0.9-3.9c0.6-1.2,1.4-2.1,2.4-2.7c1-0.6,2.2-0.9,3.5-0.9c2,0,3.7,0.7,4.9,2.1
		c1.3,1.4,1.9,3.3,1.9,5.6v0.2c0,1.4-0.3,2.7-0.8,3.9c-0.6,1.1-1.3,2-2.4,2.7c-1,0.6-2.2,1-3.6,1c-2,0-3.6-0.7-4.9-2.1
		c-1.3-1.4-1.9-3.3-1.9-5.6V330.7z M453.2,331c0,1.6,0.4,3,1.1,4c0.8,1,1.8,1.5,3.1,1.5c1.3,0,2.3-0.5,3.1-1.5
		c0.8-1,1.1-2.4,1.1-4.3c0-1.6-0.4-3-1.2-4s-1.8-1.5-3.1-1.5c-1.3,0-2.3,0.5-3,1.5C453.6,327.7,453.2,329.1,453.2,331z"/>
	<path fill="#5BAF93" d="M467.7,338.3v-12.9h-2.3v-2h2.3v-1.5c0-1.6,0.4-2.8,1.3-3.7c0.9-0.9,2.1-1.3,3.6-1.3c0.6,0,1.2,0.1,1.7,0.2
		l-0.1,2c-0.4-0.1-0.9-0.1-1.4-0.1c-0.8,0-1.5,0.2-1.9,0.7c-0.4,0.5-0.7,1.2-0.7,2.1v1.6h3.2v2h-3.2v12.9H467.7z"/>
	<path fill="#5BAF93" d="M487,318.3l6.5,16.3l6.5-16.3h3.4v20h-2.6v-7.8l0.2-8.4l-6.6,16.2h-2l-6.6-16.2l0.3,8.4v7.8h-2.6v-20H487z"
		/>
	<path fill="#5BAF93" d="M513.4,338.5c-2,0-3.7-0.7-4.9-2c-1.3-1.3-1.9-3.1-1.9-5.3v-0.5c0-1.5,0.3-2.8,0.8-3.9
		c0.6-1.2,1.4-2.1,2.4-2.7c1-0.7,2.1-1,3.3-1c1.9,0,3.4,0.6,4.5,1.9c1.1,1.3,1.6,3.1,1.6,5.5v1.1h-10.1c0,1.5,0.5,2.6,1.3,3.6
		c0.8,0.9,1.9,1.4,3.1,1.4c0.9,0,1.7-0.2,2.3-0.5c0.6-0.4,1.2-0.9,1.6-1.5l1.6,1.2C517.8,337.6,515.9,338.5,513.4,338.5z
		 M513.1,325.2c-1,0-1.9,0.4-2.6,1.1c-0.7,0.7-1.1,1.8-1.3,3.1h7.4v-0.2c-0.1-1.3-0.4-2.3-1-3C515,325.6,514.2,325.2,513.1,325.2z"
		/>
	<path fill="#5BAF93" d="M524.3,323.4l0.1,1.9c1.1-1.4,2.6-2.1,4.5-2.1c3.1,0,4.7,1.8,4.8,5.3v9.8H531v-9.8c0-1.1-0.3-1.9-0.7-2.4
		c-0.5-0.5-1.2-0.8-2.2-0.8c-0.8,0-1.5,0.2-2.2,0.7c-0.6,0.4-1.1,1-1.5,1.7v10.6h-2.5v-14.9H524.3z"/>
	<path fill="#808184" d="M431.4,361.6v-9.4h-1.7v-1.4h1.7v-1.1c0-1.2,0.3-2.1,0.9-2.7c0.6-0.6,1.5-1,2.6-1c0.4,0,0.9,0.1,1.3,0.2
		l-0.1,1.5c-0.3-0.1-0.6-0.1-1-0.1c-0.6,0-1.1,0.2-1.4,0.5c-0.3,0.4-0.5,0.9-0.5,1.5v1.1h2.3v1.4h-2.3v9.4H431.4z"/>
	<path fill="#808184" d="M442.5,352.5c-0.3,0-0.6-0.1-0.9-0.1c-1.2,0-2,0.5-2.5,1.6v7.7h-1.9v-10.8h1.8l0,1.3c0.6-1,1.5-1.5,2.6-1.5
		c0.4,0,0.6,0,0.8,0.1V352.5z"/>
	<path fill="#808184" d="M443.3,356.1c0-1.1,0.2-2,0.6-2.9s1-1.5,1.7-2c0.7-0.5,1.6-0.7,2.5-0.7c1.5,0,2.7,0.5,3.6,1.5
		c0.9,1,1.4,2.4,1.4,4.1v0.1c0,1.1-0.2,2-0.6,2.8c-0.4,0.8-1,1.5-1.7,2c-0.8,0.5-1.6,0.7-2.6,0.7c-1.5,0-2.7-0.5-3.6-1.5
		c-0.9-1-1.4-2.4-1.4-4.1V356.1z M445.2,356.3c0,1.2,0.3,2.2,0.8,2.9c0.6,0.7,1.3,1.1,2.2,1.1c0.9,0,1.7-0.4,2.2-1.1
		c0.6-0.7,0.8-1.8,0.8-3.1c0-1.2-0.3-2.2-0.8-2.9c-0.6-0.7-1.3-1.1-2.2-1.1c-0.9,0-1.7,0.4-2.2,1.1
		C445.5,353.9,445.2,355,445.2,356.3z"/>
	<path fill="#808184" d="M457,350.8l0,1.2c0.8-0.9,1.9-1.4,3.2-1.4c1.5,0,2.5,0.6,3.1,1.7c0.4-0.5,0.8-0.9,1.4-1.3
		c0.6-0.3,1.3-0.5,2-0.5c2.4,0,3.6,1.3,3.6,3.8v7.3h-1.9v-7.2c0-0.8-0.2-1.4-0.5-1.7c-0.4-0.4-0.9-0.6-1.8-0.6
		c-0.7,0-1.3,0.2-1.7,0.6c-0.5,0.4-0.7,1-0.8,1.7v7.2H462v-7.1c0-1.6-0.8-2.4-2.3-2.4c-1.2,0-2,0.5-2.5,1.6v7.9h-1.9v-10.8H457z"/>
	<path fill="#808184" d="M482.9,355.1c-1.6-0.5-2.8-1.1-3.6-1.7c-0.8-0.7-1.1-1.5-1.1-2.6c0-1.1,0.5-2.1,1.4-2.9
		c0.9-0.8,2.1-1.1,3.6-1.1c1,0,1.9,0.2,2.7,0.6c0.8,0.4,1.4,0.9,1.8,1.6c0.4,0.7,0.6,1.4,0.6,2.2h-1.9c0-0.9-0.3-1.6-0.8-2.1
		c-0.6-0.5-1.4-0.8-2.4-0.8c-0.9,0-1.7,0.2-2.2,0.6c-0.5,0.4-0.8,1-0.8,1.7c0,0.6,0.3,1.1,0.8,1.5c0.5,0.4,1.4,0.8,2.6,1.1
		c1.2,0.3,2.2,0.7,2.8,1.1c0.7,0.4,1.2,0.9,1.5,1.4c0.3,0.5,0.5,1.2,0.5,1.9c0,1.2-0.5,2.1-1.4,2.8c-0.9,0.7-2.2,1.1-3.7,1.1
		c-1,0-1.9-0.2-2.8-0.6c-0.9-0.4-1.5-0.9-2-1.6c-0.5-0.7-0.7-1.4-0.7-2.3h1.9c0,0.9,0.3,1.6,1,2.1c0.7,0.5,1.5,0.8,2.6,0.8
		c1,0,1.8-0.2,2.3-0.6s0.8-1,0.8-1.7s-0.3-1.3-0.8-1.7C485.2,355.9,484.3,355.5,482.9,355.1z"/>
	<path fill="#808184" d="M492.3,350.8l0.1,1.2c0.8-0.9,1.9-1.4,3.2-1.4c1.5,0,2.5,0.6,3.1,1.7c0.4-0.5,0.8-0.9,1.4-1.3
		c0.6-0.3,1.3-0.5,2-0.5c2.4,0,3.6,1.3,3.6,3.8v7.3h-1.9v-7.2c0-0.8-0.2-1.4-0.5-1.7c-0.4-0.4-0.9-0.6-1.8-0.6
		c-0.7,0-1.3,0.2-1.7,0.6c-0.5,0.4-0.7,1-0.8,1.7v7.2h-1.9v-7.1c0-1.6-0.8-2.4-2.3-2.4c-1.2,0-2,0.5-2.5,1.6v7.9h-1.9v-10.8H492.3z"
		/>
	<path fill="#808184" d="M507.7,356.1c0-1.1,0.2-2,0.6-2.9s1-1.5,1.7-2c0.7-0.5,1.6-0.7,2.5-0.7c1.5,0,2.7,0.5,3.6,1.5
		c0.9,1,1.4,2.4,1.4,4.1v0.1c0,1.1-0.2,2-0.6,2.8c-0.4,0.8-1,1.5-1.7,2c-0.8,0.5-1.6,0.7-2.6,0.7c-1.5,0-2.7-0.5-3.6-1.5
		c-0.9-1-1.4-2.4-1.4-4.1V356.1z M509.6,356.3c0,1.2,0.3,2.2,0.8,2.9c0.6,0.7,1.3,1.1,2.2,1.1c0.9,0,1.7-0.4,2.2-1.1
		c0.6-0.7,0.8-1.8,0.8-3.1c0-1.2-0.3-2.2-0.8-2.9c-0.6-0.7-1.3-1.1-2.2-1.1c-0.9,0-1.7,0.4-2.2,1.1
		C509.9,353.9,509.6,355,509.6,356.3z"/>
	<path fill="#808184" d="M522.7,356.6l-1.2,1.2v3.8h-1.9v-15.4h1.9v9.3l1-1.2l3.4-3.6h2.3l-4.2,4.5l4.7,6.3h-2.2L522.7,356.6z"/>
	<path fill="#808184" d="M530,347.9c0-0.3,0.1-0.6,0.3-0.8c0.2-0.2,0.5-0.3,0.8-0.3c0.4,0,0.6,0.1,0.8,0.3c0.2,0.2,0.3,0.5,0.3,0.8
		c0,0.3-0.1,0.6-0.3,0.8c-0.2,0.2-0.5,0.3-0.8,0.3c-0.4,0-0.6-0.1-0.8-0.3C530.1,348.5,530,348.2,530,347.9z M532,361.6h-1.9v-10.8
		h1.9V361.6z"/>
	<path fill="#808184" d="M536.4,350.8l0.1,1.4c0.8-1,1.9-1.6,3.2-1.6c2.3,0,3.4,1.3,3.5,3.9v7.2h-1.9v-7.2c0-0.8-0.2-1.4-0.5-1.7
		c-0.4-0.4-0.9-0.6-1.6-0.6c-0.6,0-1.1,0.2-1.6,0.5c-0.5,0.3-0.8,0.7-1.1,1.3v7.7h-1.9v-10.8H536.4z"/>
	<path fill="#808184" d="M545.3,356.1c0-1.7,0.4-3,1.2-4c0.8-1,1.8-1.5,3.1-1.5c1.3,0,2.4,0.5,3.1,1.4l0.1-1.2h1.7v10.6
		c0,1.4-0.4,2.5-1.2,3.3c-0.8,0.8-1.9,1.2-3.4,1.2c-0.8,0-1.5-0.2-2.3-0.5c-0.7-0.3-1.3-0.8-1.7-1.4l1-1.1c0.8,1,1.8,1.5,2.9,1.5
		c0.9,0,1.6-0.3,2.1-0.8c0.5-0.5,0.8-1.2,0.8-2.1v-0.9c-0.7,0.9-1.8,1.3-3,1.3c-1.3,0-2.3-0.5-3.1-1.5
		C545.7,359.3,545.3,357.9,545.3,356.1z M547.1,356.3c0,1.2,0.3,2.2,0.8,2.9c0.5,0.7,1.2,1,2.1,1c1.2,0,2-0.5,2.6-1.6v-4.9
		c-0.6-1-1.4-1.6-2.6-1.6c-0.9,0-1.6,0.4-2.1,1.1C547.4,353.9,547.1,355,547.1,356.3z"/>
</g>
<g>
	<path fill="#59AE94" d="M513.9,185.1l-10.4-25.7c-0.2-0.4-0.4-0.8-0.7-1.1c0,0-2.3-3.5-10.4-3.5c-8.1,0-10.4,3.5-10.4,3.5
		c-0.3,0.3-0.5,0.6-0.7,1.1L471,185.1c-0.7,1.7,0.1,3.6,1.8,4.3c0.4,0.2,0.8,0.2,1.2,0.2c1.3,0,2.5-0.8,3-2l5.6-13.9l0.7,18.5l-2,30
		c-0.2,2.3,1.6,4.3,3.9,4.5c0.1,0,0.2,0,0.3,0c2.2,0,4-1.7,4.1-3.9l1.6-29.4c0,0,0-1.2,1.2-1.2c1.2,0,1.2,1.2,1.2,1.2l1.6,29.4
		c0.1,2.2,2,3.9,4.1,3.9c0.1,0,0.2,0,0.3,0c2.3-0.2,4-2.2,3.9-4.5l-2-30l0.8-18.5l5.6,13.9c0.5,1.3,1.7,2,3,2c0.4,0,0.8-0.1,1.2-0.2
		C513.8,188.7,514.6,186.8,513.9,185.1z"/>
	<path fill="#59AE94" d="M492.5,151.3c4.5,0,8.1-3.7,8.1-8.2c0-4.5-3.6-8.2-8.1-8.2c-4.5,0-8.1,3.7-8.1,8.2
		C484.4,147.7,488,151.3,492.5,151.3z"/>
</g>
<g>
	<path fill="none" stroke="#385864" stroke-width="2" stroke-miterlimit="10" d="M903.5,71.7c-4.8-9.4-4.2-17.5-5.8-24.2
		c-1-4.2-3.2-7.5-7.5-8.5c-3.6-0.9-7,1.6-7.4,5.1c-0.1,1.3-1.2,2.3-2.5,2.3l0,0c-1.3,0-2.3-1-2.5-2.3c-0.4-3.5-3.8-6-7.4-5.1
		c-4.3,1-6.5,4.3-7.5,8.5c-1.6,6.6-1,15.6-5.8,25c-2.3,4.6,2.2,4.2,7,4.1c6.2-0.2,12.9-1.7,14.4-8.2c0.9-3.8-0.8-10-0.8-13.9l0,0
		c0-1.4,1.1-2.4,2.4-2.4h0c1.4,0,2.4,1.1,2.4,2.4l0,0c0,3.9-1.7,10.1-0.8,13.9c1.5,6.5,8.2,8,14.4,8.2
		C901.4,76.7,905.9,76.2,903.5,71.7z"/>
	<path fill="none" stroke="#385864" stroke-width="2" stroke-miterlimit="10" d="M880.5,46.3L880.5,46.3c-1.4,0-2.5-1.1-2.5-2.5
		V33.3h4.9v10.6C882.9,45.2,881.8,46.3,880.5,46.3z"/>
	<rect x="878" y="36.6" fill="none" stroke="#385864" stroke-width="2" stroke-miterlimit="10" width="4.9" height="3.3"/>
	<path fill="none" stroke="#385864" stroke-width="2" stroke-miterlimit="10" d="M880.5,46.3L880.5,46.3c-1.4,0-2.5-1.1-2.5-2.5
		v-0.7h4.9v0.7C882.9,45.2,881.8,46.3,880.5,46.3z"/>
	<path fill="none" stroke="#385864" stroke-width="2" stroke-miterlimit="10" d="M893.5,63.6c0-8.1-5.9-14.7-13.1-14.7"/>
	<path fill="none" stroke="#385864" stroke-width="2" stroke-miterlimit="10" d="M890.3,43.1c0,3.2-4.4,5.7-9.8,5.7"/>
	<path fill="none" stroke="#385864" stroke-width="2" stroke-miterlimit="10" d="M867.4,63.6c0-8.1,5.9-14.7,13.1-14.7"/>
	<path fill="none" stroke="#385864" stroke-width="2" stroke-miterlimit="10" d="M870.6,43.1c0,3.2,4.4,5.7,9.8,5.7"/>
	<circle fill="#385864" stroke="#385864" stroke-miterlimit="10" cx="865.7" cy="43.1" r="0.8"/>
	<circle fill="#385864" stroke="#385864" stroke-miterlimit="10" cx="868.2" cy="40.7" r="0.8"/>
	<circle fill="#385864" stroke="#385864" stroke-miterlimit="10" cx="873.1" cy="40.7" r="0.8"/>
	<circle fill="#385864" stroke="#385864" stroke-miterlimit="10" cx="868.2" cy="45.6" r="0.8"/>
	<circle fill="#385864" stroke="#385864" stroke-miterlimit="10" cx="870.6" cy="43.1" r="0.8"/>
	<circle fill="#385864" stroke="#385864" stroke-miterlimit="10" cx="875.5" cy="43.1" r="0.8"/>
	<circle fill="#385864" stroke="#385864" stroke-miterlimit="10" cx="885.4" cy="43.1" r="0.8"/>
	<circle fill="#385864" stroke="#385864" stroke-miterlimit="10" cx="887.8" cy="40.7" r="0.8"/>
	<circle fill="#385864" stroke="#385864" stroke-miterlimit="10" cx="892.7" cy="40.7" r="0.8"/>
	<circle fill="#385864" stroke="#385864" stroke-miterlimit="10" cx="892.7" cy="45.6" r="0.8"/>
	<circle fill="#385864" stroke="#385864" stroke-miterlimit="10" cx="890.3" cy="43.1" r="0.8"/>
	<circle fill="#385864" stroke="#385864" stroke-miterlimit="10" cx="895.2" cy="43.1" r="0.8"/>
	<circle fill="#385864" stroke="#385864" stroke-miterlimit="10" cx="865.7" cy="48" r="0.8"/>
	<circle fill="#385864" stroke="#385864" stroke-miterlimit="10" cx="870.6" cy="48" r="0.8"/>
	<circle fill="#385864" stroke="#385864" stroke-miterlimit="10" cx="890.3" cy="48" r="0.8"/>
	<circle fill="#385864" stroke="#385864" stroke-miterlimit="10" cx="895.2" cy="48" r="0.8"/>
	<circle fill="#385864" stroke="#385864" stroke-miterlimit="10" cx="863.3" cy="50.5" r="0.8"/>
	<circle fill="#385864" stroke="#385864" stroke-miterlimit="10" cx="863.3" cy="55.4" r="0.8"/>
	<circle fill="#385864" stroke="#385864" stroke-miterlimit="10" cx="865.7" cy="52.9" r="0.8"/>
	<circle fill="#385864" stroke="#385864" stroke-miterlimit="10" cx="868.2" cy="50.5" r="0.8"/>
	<circle fill="#385864" stroke="#385864" stroke-miterlimit="10" cx="868.2" cy="55.4" r="0.8"/>
	<circle fill="#385864" stroke="#385864" stroke-miterlimit="10" cx="873.1" cy="55.4" r="0.8"/>
	<circle fill="#385864" stroke="#385864" stroke-miterlimit="10" cx="870.6" cy="52.9" r="0.8"/>
	<circle fill="#385864" stroke="#385864" stroke-miterlimit="10" cx="875.5" cy="52.9" r="0.8"/>
	<circle fill="#385864" stroke="#385864" stroke-miterlimit="10" cx="878" cy="55.4" r="0.8"/>
	<circle fill="#385864" stroke="#385864" stroke-miterlimit="10" cx="882.9" cy="55.4" r="0.8"/>
	<circle fill="#385864" stroke="#385864" stroke-miterlimit="10" cx="885.4" cy="52.9" r="0.8"/>
	<circle fill="#385864" stroke="#385864" stroke-miterlimit="10" cx="892.7" cy="50.5" r="0.8"/>
	<circle fill="#385864" stroke="#385864" stroke-miterlimit="10" cx="887.8" cy="55.4" r="0.8"/>
	<circle fill="#385864" stroke="#385864" stroke-miterlimit="10" cx="892.7" cy="55.4" r="0.8"/>
	<circle fill="#385864" stroke="#385864" stroke-miterlimit="10" cx="890.3" cy="52.9" r="0.8"/>
	<circle fill="#385864" stroke="#385864" stroke-miterlimit="10" cx="895.2" cy="52.9" r="0.8"/>
	<circle fill="#385864" stroke="#385864" stroke-miterlimit="10" cx="897.6" cy="50.5" r="0.8"/>
	<circle fill="#385864" stroke="#385864" stroke-miterlimit="10" cx="897.6" cy="55.4" r="0.8"/>
	<circle fill="#385864" stroke="#385864" stroke-miterlimit="10" cx="865.7" cy="57.8" r="0.8"/>
	<circle fill="#385864" stroke="#385864" stroke-miterlimit="10" cx="870.6" cy="57.8" r="0.8"/>
	<circle fill="#385864" stroke="#385864" stroke-miterlimit="10" cx="875.5" cy="57.8" r="0.8"/>
	<circle fill="#385864" stroke="#385864" stroke-miterlimit="10" cx="885.4" cy="57.8" r="0.8"/>
	<circle fill="#385864" stroke="#385864" stroke-miterlimit="10" cx="890.3" cy="57.8" r="0.8"/>
	<circle fill="#385864" stroke="#385864" stroke-miterlimit="10" cx="895.2" cy="57.8" r="0.8"/>
	<circle fill="#385864" stroke="#385864" stroke-miterlimit="10" cx="863.3" cy="60.3" r="0.8"/>
	<circle fill="#385864" stroke="#385864" stroke-miterlimit="10" cx="863.3" cy="65.2" r="0.8"/>
	<circle fill="#385864" stroke="#385864" stroke-miterlimit="10" cx="860.8" cy="62.8" r="0.8"/>
	<circle fill="#385864" stroke="#385864" stroke-miterlimit="10" cx="865.7" cy="62.8" r="0.8"/>
	<circle fill="#385864" stroke="#385864" stroke-miterlimit="10" cx="868.2" cy="60.3" r="0.8"/>
	<circle fill="#385864" stroke="#385864" stroke-miterlimit="10" cx="873.1" cy="60.3" r="0.8"/>
	<circle fill="#385864" stroke="#385864" stroke-miterlimit="10" cx="868.2" cy="65.2" r="0.8"/>
	<circle fill="#385864" stroke="#385864" stroke-miterlimit="10" cx="873.1" cy="65.2" r="0.8"/>
	<circle fill="#385864" stroke="#385864" stroke-miterlimit="10" cx="870.6" cy="62.8" r="0.8"/>
	<circle fill="#385864" stroke="#385864" stroke-miterlimit="10" cx="875.5" cy="62.8" r="0.8"/>
	<circle fill="#385864" stroke="#385864" stroke-miterlimit="10" cx="878" cy="60.3" r="0.8"/>
	<circle fill="#385864" stroke="#385864" stroke-miterlimit="10" cx="882.9" cy="60.3" r="0.8"/>
	<circle fill="#385864" stroke="#385864" stroke-miterlimit="10" cx="878" cy="65.2" r="0.8"/>
	<circle fill="#385864" stroke="#385864" stroke-miterlimit="10" cx="882.9" cy="65.2" r="0.8"/>
	<circle fill="#385864" stroke="#385864" stroke-miterlimit="10" cx="885.4" cy="62.8" r="0.8"/>
	<circle fill="#385864" stroke="#385864" stroke-miterlimit="10" cx="887.8" cy="60.3" r="0.8"/>
	<circle fill="#385864" stroke="#385864" stroke-miterlimit="10" cx="892.7" cy="60.3" r="0.8"/>
	<circle fill="#385864" stroke="#385864" stroke-miterlimit="10" cx="887.8" cy="65.2" r="0.8"/>
	<circle fill="#385864" stroke="#385864" stroke-miterlimit="10" cx="892.7" cy="65.2" r="0.8"/>
	<circle fill="#385864" stroke="#385864" stroke-miterlimit="10" cx="890.3" cy="62.8" r="0.8"/>
	<circle fill="#385864" stroke="#385864" stroke-miterlimit="10" cx="895.2" cy="62.8" r="0.8"/>
	<circle fill="#385864" stroke="#385864" stroke-miterlimit="10" cx="897.6" cy="60.3" r="0.8"/>
	<circle fill="#385864" stroke="#385864" stroke-miterlimit="10" cx="897.6" cy="65.2" r="0.8"/>
	<circle fill="#385864" stroke="#385864" stroke-miterlimit="10" cx="900.1" cy="62.8" r="0.8"/>
	<circle fill="#385864" stroke="#385864" stroke-miterlimit="10" cx="860.8" cy="67.7" r="0.8"/>
	<circle fill="#385864" stroke="#385864" stroke-miterlimit="10" cx="865.7" cy="67.7" r="0.8"/>
	<circle fill="#385864" stroke="#385864" stroke-miterlimit="10" cx="870.6" cy="67.7" r="0.8"/>
	<circle fill="#385864" stroke="#385864" stroke-miterlimit="10" cx="875.5" cy="67.7" r="0.8"/>
	<circle fill="#385864" stroke="#385864" stroke-miterlimit="10" cx="885.4" cy="67.7" r="0.8"/>
	<circle fill="#385864" stroke="#385864" stroke-miterlimit="10" cx="890.3" cy="67.7" r="0.8"/>
	<circle fill="#385864" stroke="#385864" stroke-miterlimit="10" cx="895.2" cy="67.7" r="0.8"/>
	<circle fill="#385864" stroke="#385864" stroke-miterlimit="10" cx="900.1" cy="67.7" r="0.8"/>
	<circle fill="#385864" stroke="#385864" stroke-miterlimit="10" cx="863.3" cy="70.1" r="0.8"/>
	<circle fill="#385864" stroke="#385864" stroke-miterlimit="10" cx="858.4" cy="75" r="0.8"/>
	<circle fill="#385864" stroke="#385864" stroke-miterlimit="10" cx="863.3" cy="75" r="0.8"/>
	<circle fill="#385864" stroke="#385864" stroke-miterlimit="10" cx="860.8" cy="72.6" r="0.8"/>
	<circle fill="#385864" stroke="#385864" stroke-miterlimit="10" cx="865.7" cy="72.6" r="0.8"/>
	<circle fill="#385864" stroke="#385864" stroke-miterlimit="10" cx="868.2" cy="70.1" r="0.8"/>
	<circle fill="#385864" stroke="#385864" stroke-miterlimit="10" cx="873.1" cy="70.1" r="0.8"/>
	<circle fill="#385864" stroke="#385864" stroke-miterlimit="10" cx="868.2" cy="75" r="0.8"/>
	<circle fill="#385864" stroke="#385864" stroke-miterlimit="10" cx="873.1" cy="75" r="0.8"/>
	<circle fill="#385864" stroke="#385864" stroke-miterlimit="10" cx="870.6" cy="72.6" r="0.8"/>
	<circle fill="#385864" stroke="#385864" stroke-miterlimit="10" cx="875.5" cy="72.6" r="0.8"/>
	<circle fill="#385864" stroke="#385864" stroke-miterlimit="10" cx="878" cy="70.1" r="0.8"/>
	<circle fill="#385864" stroke="#385864" stroke-miterlimit="10" cx="882.9" cy="70.1" r="0.8"/>
	<circle fill="#385864" stroke="#385864" stroke-miterlimit="10" cx="885.4" cy="72.6" r="0.8"/>
	<circle fill="#385864" stroke="#385864" stroke-miterlimit="10" cx="887.8" cy="70.1" r="0.8"/>
	<circle fill="#385864" stroke="#385864" stroke-miterlimit="10" cx="892.7" cy="70.1" r="0.8"/>
	<circle fill="#385864" stroke="#385864" stroke-miterlimit="10" cx="892.7" cy="75" r="0.8"/>
	<circle fill="#385864" stroke="#385864" stroke-miterlimit="10" cx="890.3" cy="72.6" r="0.8"/>
	<circle fill="#385864" stroke="#385864" stroke-miterlimit="10" cx="895.2" cy="72.6" r="0.8"/>
	<circle fill="#385864" stroke="#385864" stroke-miterlimit="10" cx="897.6" cy="70.1" r="0.8"/>
	<circle fill="#385864" stroke="#385864" stroke-miterlimit="10" cx="897.6" cy="75" r="0.8"/>
	<circle fill="#385864" stroke="#385864" stroke-miterlimit="10" cx="900.1" cy="72.6" r="0.8"/>
	<circle fill="#385864" stroke="#385864" stroke-miterlimit="10" cx="902.5" cy="75" r="0.8"/>
</g>
</svg>
