<?xml version="1.0" encoding="utf-8"?>
<!-- Generator: Adobe Illustrator 25.0.1, SVG Export Plug-In . SVG Version: 6.00 Build 0)  -->
<svg version="1.0" id="Layer_1" xmlns="http://www.w3.org/2000/svg" xmlns:xlink="http://www.w3.org/1999/xlink" x="0px" y="0px"
	 viewBox="0 0 1024 528" enable-background="new 0 0 1024 528" xml:space="preserve">
<circle fill="#BCCBD3" cx="493.4" cy="261.6" r="202.5"/>
<g>
	<path fill="#2FBFD1" d="M290.9,261.6c0,111.9,90.7,202.5,202.5,202.5c75.3,0,141-41.1,175.9-102L493.4,261.6L404.9,79.4
		C337.4,112.2,290.9,181.5,290.9,261.6z"/>
	<path fill="#F26D26" d="M612.7,97.9L493.4,261.6l175.4-101.3C654.7,135.8,635.5,114.5,612.7,97.9z"/>
	<path fill="#385864" d="M612.7,97.9c-28.9-21.1-63.5-34.7-101.1-38c-6-0.5-12-0.8-18.2-0.8c-3.7,0-7.3,0.1-10.9,0.3l10.9,202.3
		L612.7,97.9z"/>
	<path fill="#1B75BB" d="M482.3,59.3c-35.7,1.9-71.2,13.2-102.4,34.4c-5,3.4-9.8,7-14.6,10.8c-2.8,2.3-5.6,4.7-8.3,7.1l136.3,149.9
		L482.3,59.3z"/>
	<path fill="#2FBFD1" d="M628.4,413c26.7-23.8,47.3-54.7,58.6-90.8c1.8-5.7,3.3-11.6,4.6-17.6c0.8-3.6,1.5-7.2,2-10.8l-200-32.1
		L628.4,413z"/>
	<path fill="#2FBFD1" d="M693.8,293.7c5.7-35.3,2.1-72.3-12-107.4c-2.2-5.6-4.7-11.1-7.5-16.5c-1.7-3.3-3.4-6.5-5.2-9.6L493.8,261.7
		L693.8,293.7z"/>
</g>
<circle fill="#CCCBCB" cx="494.3" cy="261.8" r="165.8"/>
<circle fill="#F0F1F1" cx="494.3" cy="261.8" r="159.6"/>
<circle fill="none" stroke="#CCCBCB" stroke-miterlimit="10" cx="494.3" cy="261.8" r="153.5"/>
<circle cx="544.6" cy="86.7" r="6.8"/>
<polyline fill="none" stroke="#000000" stroke-width="2" stroke-miterlimit="10" points="544.6,86.7 575,56.3 841.7,56.3 "/>
<circle cx="422.2" cy="90.9" r="6.8"/>
<circle cx="631.2" cy="141.4" r="6.8"/>
<polyline fill="none" stroke="#000000" stroke-width="2" stroke-miterlimit="10" points="630.7,140.7 657.1,171.2 923.6,171.2 "/>
<polyline fill="none" stroke="#000000" stroke-width="2" stroke-miterlimit="10" points="422.2,90.9 405.1,61.8 111.2,61.8 "/>
<circle cx="435.2" cy="442" r="7.1"/>
<polyline fill="none" stroke="#000000" stroke-width="2" stroke-miterlimit="10" points="435.2,442 403,474.2 77.9,474.2 "/>
<g>
	<path fill="none" stroke="#385864" stroke-width="2" stroke-miterlimit="10" d="M902.5,72.5c-4.8-9.4-4.2-17.5-5.8-24.2
		c-1-4.2-3.2-7.5-7.5-8.5c-3.6-0.9-7,1.6-7.4,5.1c-0.1,1.3-1.2,2.3-2.5,2.3l0,0c-1.3,0-2.3-1-2.5-2.3c-0.4-3.5-3.8-6-7.4-5.1
		c-4.3,1-6.5,4.3-7.5,8.5c-1.6,6.6-1,15.6-5.8,25c-2.3,4.6,2.2,4.2,7,4.1c6.2-0.2,12.9-1.7,14.4-8.2c0.9-3.8-0.8-10-0.8-13.9v0
		c0-1.4,1.1-2.4,2.4-2.4h0c1.4,0,2.4,1.1,2.4,2.4v0c0,3.9-1.7,10.1-0.8,13.9c1.5,6.5,8.2,8,14.4,8.2C900.4,77.5,904.8,77,902.5,72.5
		z"/>
	<path fill="none" stroke="#385864" stroke-width="2" stroke-miterlimit="10" d="M879.4,47.1L879.4,47.1c-1.4,0-2.5-1.1-2.5-2.5
		V34.1h4.9v10.6C881.9,46,880.8,47.1,879.4,47.1z"/>
	<rect x="877" y="37.4" fill="none" stroke="#385864" stroke-width="2" stroke-miterlimit="10" width="4.9" height="3.3"/>
	<path fill="none" stroke="#385864" stroke-width="2" stroke-miterlimit="10" d="M879.4,47.1L879.4,47.1c-1.4,0-2.5-1.1-2.5-2.5
		v-0.7h4.9v0.7C881.9,46,880.8,47.1,879.4,47.1z"/>
	<path fill="none" stroke="#385864" stroke-width="2" stroke-miterlimit="10" d="M892.5,64.4c0-8.1-5.9-14.7-13.1-14.7"/>
	<path fill="none" stroke="#385864" stroke-width="2" stroke-miterlimit="10" d="M889.3,43.9c0,3.2-4.4,5.7-9.8,5.7"/>
	<path fill="none" stroke="#385864" stroke-width="2" stroke-miterlimit="10" d="M866.3,64.4c0-8.1,5.9-14.7,13.1-14.7"/>
	<path fill="none" stroke="#385864" stroke-width="2" stroke-miterlimit="10" d="M869.6,43.9c0,3.2,4.4,5.7,9.8,5.7"/>
	<circle fill="#385864" stroke="#385864" stroke-miterlimit="10" cx="864.7" cy="43.9" r="0.8"/>
	<circle fill="#385864" stroke="#385864" stroke-miterlimit="10" cx="867.2" cy="41.5" r="0.8"/>
	<circle fill="#385864" stroke="#385864" stroke-miterlimit="10" cx="872.1" cy="41.5" r="0.8"/>
	<circle fill="#385864" stroke="#385864" stroke-miterlimit="10" cx="867.2" cy="46.4" r="0.8"/>
	<circle fill="#385864" stroke="#385864" stroke-miterlimit="10" cx="869.6" cy="43.9" r="0.8"/>
	<circle fill="#385864" stroke="#385864" stroke-miterlimit="10" cx="874.5" cy="43.9" r="0.8"/>
	<circle fill="#385864" stroke="#385864" stroke-miterlimit="10" cx="884.3" cy="43.9" r="0.8"/>
	<circle fill="#385864" stroke="#385864" stroke-miterlimit="10" cx="886.8" cy="41.5" r="0.8"/>
	<circle fill="#385864" stroke="#385864" stroke-miterlimit="10" cx="891.7" cy="41.5" r="0.8"/>
	<circle fill="#385864" stroke="#385864" stroke-miterlimit="10" cx="891.7" cy="46.4" r="0.8"/>
	<circle fill="#385864" stroke="#385864" stroke-miterlimit="10" cx="889.3" cy="43.9" r="0.8"/>
	<circle fill="#385864" stroke="#385864" stroke-miterlimit="10" cx="894.2" cy="43.9" r="0.8"/>
	<circle fill="#385864" stroke="#385864" stroke-miterlimit="10" cx="864.7" cy="48.8" r="0.8"/>
	<circle fill="#385864" stroke="#385864" stroke-miterlimit="10" cx="869.6" cy="48.8" r="0.8"/>
	<circle fill="#385864" stroke="#385864" stroke-miterlimit="10" cx="889.3" cy="48.8" r="0.8"/>
	<circle fill="#385864" stroke="#385864" stroke-miterlimit="10" cx="894.2" cy="48.8" r="0.8"/>
	<circle fill="#385864" stroke="#385864" stroke-miterlimit="10" cx="862.3" cy="51.3" r="0.8"/>
	<circle fill="#385864" stroke="#385864" stroke-miterlimit="10" cx="862.3" cy="56.2" r="0.8"/>
	<circle fill="#385864" stroke="#385864" stroke-miterlimit="10" cx="864.7" cy="53.8" r="0.8"/>
	<circle fill="#385864" stroke="#385864" stroke-miterlimit="10" cx="867.2" cy="51.3" r="0.8"/>
	<circle fill="#385864" stroke="#385864" stroke-miterlimit="10" cx="867.2" cy="56.2" r="0.8"/>
	<circle fill="#385864" stroke="#385864" stroke-miterlimit="10" cx="872.1" cy="56.2" r="0.8"/>
	<circle fill="#385864" stroke="#385864" stroke-miterlimit="10" cx="869.6" cy="53.8" r="0.8"/>
	<circle fill="#385864" stroke="#385864" stroke-miterlimit="10" cx="874.5" cy="53.8" r="0.8"/>
	<circle fill="#385864" stroke="#385864" stroke-miterlimit="10" cx="877" cy="56.2" r="0.8"/>
	<circle fill="#385864" stroke="#385864" stroke-miterlimit="10" cx="881.9" cy="56.2" r="0.8"/>
	<circle fill="#385864" stroke="#385864" stroke-miterlimit="10" cx="884.3" cy="53.8" r="0.8"/>
	<circle fill="#385864" stroke="#385864" stroke-miterlimit="10" cx="891.7" cy="51.3" r="0.8"/>
	<circle fill="#385864" stroke="#385864" stroke-miterlimit="10" cx="886.8" cy="56.2" r="0.8"/>
	<circle fill="#385864" stroke="#385864" stroke-miterlimit="10" cx="891.7" cy="56.2" r="0.8"/>
	<circle fill="#385864" stroke="#385864" stroke-miterlimit="10" cx="889.3" cy="53.8" r="0.8"/>
	<circle fill="#385864" stroke="#385864" stroke-miterlimit="10" cx="894.2" cy="53.8" r="0.8"/>
	<circle fill="#385864" stroke="#385864" stroke-miterlimit="10" cx="896.6" cy="51.3" r="0.8"/>
	<circle fill="#385864" stroke="#385864" stroke-miterlimit="10" cx="896.6" cy="56.2" r="0.8"/>
	<circle fill="#385864" stroke="#385864" stroke-miterlimit="10" cx="864.7" cy="58.7" r="0.8"/>
	<circle fill="#385864" stroke="#385864" stroke-miterlimit="10" cx="869.6" cy="58.7" r="0.8"/>
	<circle fill="#385864" stroke="#385864" stroke-miterlimit="10" cx="874.5" cy="58.7" r="0.8"/>
	<circle fill="#385864" stroke="#385864" stroke-miterlimit="10" cx="884.3" cy="58.7" r="0.8"/>
	<circle fill="#385864" stroke="#385864" stroke-miterlimit="10" cx="889.3" cy="58.7" r="0.8"/>
	<circle fill="#385864" stroke="#385864" stroke-miterlimit="10" cx="894.2" cy="58.7" r="0.8"/>
	<circle fill="#385864" stroke="#385864" stroke-miterlimit="10" cx="862.3" cy="61.1" r="0.8"/>
	<circle fill="#385864" stroke="#385864" stroke-miterlimit="10" cx="862.3" cy="66" r="0.8"/>
	<circle fill="#385864" stroke="#385864" stroke-miterlimit="10" cx="859.8" cy="63.6" r="0.8"/>
	<circle fill="#385864" stroke="#385864" stroke-miterlimit="10" cx="864.7" cy="63.6" r="0.8"/>
	<circle fill="#385864" stroke="#385864" stroke-miterlimit="10" cx="867.2" cy="61.1" r="0.8"/>
	<circle fill="#385864" stroke="#385864" stroke-miterlimit="10" cx="872.1" cy="61.1" r="0.8"/>
	<circle fill="#385864" stroke="#385864" stroke-miterlimit="10" cx="867.2" cy="66" r="0.8"/>
	<circle fill="#385864" stroke="#385864" stroke-miterlimit="10" cx="872.1" cy="66" r="0.8"/>
	<circle fill="#385864" stroke="#385864" stroke-miterlimit="10" cx="869.6" cy="63.6" r="0.8"/>
	<circle fill="#385864" stroke="#385864" stroke-miterlimit="10" cx="874.5" cy="63.6" r="0.8"/>
	<circle fill="#385864" stroke="#385864" stroke-miterlimit="10" cx="877" cy="61.1" r="0.8"/>
	<circle fill="#385864" stroke="#385864" stroke-miterlimit="10" cx="881.9" cy="61.1" r="0.8"/>
	<circle fill="#385864" stroke="#385864" stroke-miterlimit="10" cx="877" cy="66" r="0.8"/>
	<circle fill="#385864" stroke="#385864" stroke-miterlimit="10" cx="881.9" cy="66" r="0.8"/>
	<circle fill="#385864" stroke="#385864" stroke-miterlimit="10" cx="884.3" cy="63.6" r="0.8"/>
	<circle fill="#385864" stroke="#385864" stroke-miterlimit="10" cx="886.8" cy="61.1" r="0.8"/>
	<circle fill="#385864" stroke="#385864" stroke-miterlimit="10" cx="891.7" cy="61.1" r="0.8"/>
	<circle fill="#385864" stroke="#385864" stroke-miterlimit="10" cx="886.8" cy="66" r="0.8"/>
	<circle fill="#385864" stroke="#385864" stroke-miterlimit="10" cx="891.7" cy="66" r="0.8"/>
	<circle fill="#385864" stroke="#385864" stroke-miterlimit="10" cx="889.3" cy="63.6" r="0.8"/>
	<circle fill="#385864" stroke="#385864" stroke-miterlimit="10" cx="894.2" cy="63.6" r="0.8"/>
	<circle fill="#385864" stroke="#385864" stroke-miterlimit="10" cx="896.6" cy="61.1" r="0.8"/>
	<circle fill="#385864" stroke="#385864" stroke-miterlimit="10" cx="896.6" cy="66" r="0.8"/>
	<circle fill="#385864" stroke="#385864" stroke-miterlimit="10" cx="899.1" cy="63.6" r="0.8"/>
	<circle fill="#385864" stroke="#385864" stroke-miterlimit="10" cx="859.8" cy="68.5" r="0.8"/>
	<circle fill="#385864" stroke="#385864" stroke-miterlimit="10" cx="864.7" cy="68.5" r="0.8"/>
	<circle fill="#385864" stroke="#385864" stroke-miterlimit="10" cx="869.6" cy="68.5" r="0.8"/>
	<circle fill="#385864" stroke="#385864" stroke-miterlimit="10" cx="874.5" cy="68.5" r="0.8"/>
	<circle fill="#385864" stroke="#385864" stroke-miterlimit="10" cx="884.3" cy="68.5" r="0.8"/>
	<circle fill="#385864" stroke="#385864" stroke-miterlimit="10" cx="889.3" cy="68.5" r="0.8"/>
	<circle fill="#385864" stroke="#385864" stroke-miterlimit="10" cx="894.2" cy="68.5" r="0.8"/>
	<circle fill="#385864" stroke="#385864" stroke-miterlimit="10" cx="899.1" cy="68.5" r="0.8"/>
	<circle fill="#385864" stroke="#385864" stroke-miterlimit="10" cx="862.3" cy="70.9" r="0.8"/>
	<circle fill="#385864" stroke="#385864" stroke-miterlimit="10" cx="857.4" cy="75.8" r="0.8"/>
	<circle fill="#385864" stroke="#385864" stroke-miterlimit="10" cx="862.3" cy="75.8" r="0.8"/>
	<circle fill="#385864" stroke="#385864" stroke-miterlimit="10" cx="859.8" cy="73.4" r="0.8"/>
	<circle fill="#385864" stroke="#385864" stroke-miterlimit="10" cx="864.7" cy="73.4" r="0.8"/>
	<circle fill="#385864" stroke="#385864" stroke-miterlimit="10" cx="867.2" cy="70.9" r="0.8"/>
	<circle fill="#385864" stroke="#385864" stroke-miterlimit="10" cx="872.1" cy="70.9" r="0.8"/>
	<circle fill="#385864" stroke="#385864" stroke-miterlimit="10" cx="867.2" cy="75.8" r="0.8"/>
	<circle fill="#385864" stroke="#385864" stroke-miterlimit="10" cx="872.1" cy="75.8" r="0.8"/>
	<circle fill="#385864" stroke="#385864" stroke-miterlimit="10" cx="869.6" cy="73.4" r="0.8"/>
	<circle fill="#385864" stroke="#385864" stroke-miterlimit="10" cx="874.5" cy="73.4" r="0.8"/>
	<circle fill="#385864" stroke="#385864" stroke-miterlimit="10" cx="877" cy="70.9" r="0.8"/>
	<circle fill="#385864" stroke="#385864" stroke-miterlimit="10" cx="881.9" cy="70.9" r="0.8"/>
	<circle fill="#385864" stroke="#385864" stroke-miterlimit="10" cx="884.3" cy="73.4" r="0.8"/>
	<circle fill="#385864" stroke="#385864" stroke-miterlimit="10" cx="886.8" cy="70.9" r="0.8"/>
	<circle fill="#385864" stroke="#385864" stroke-miterlimit="10" cx="891.7" cy="70.9" r="0.8"/>
	<circle fill="#385864" stroke="#385864" stroke-miterlimit="10" cx="891.7" cy="75.8" r="0.8"/>
	<circle fill="#385864" stroke="#385864" stroke-miterlimit="10" cx="889.3" cy="73.4" r="0.8"/>
	<circle fill="#385864" stroke="#385864" stroke-miterlimit="10" cx="894.2" cy="73.4" r="0.8"/>
	<circle fill="#385864" stroke="#385864" stroke-miterlimit="10" cx="896.6" cy="70.9" r="0.8"/>
	<circle fill="#385864" stroke="#385864" stroke-miterlimit="10" cx="896.6" cy="75.8" r="0.8"/>
	<circle fill="#385864" stroke="#385864" stroke-miterlimit="10" cx="899.1" cy="73.4" r="0.8"/>
	<circle fill="#385864" stroke="#385864" stroke-miterlimit="10" cx="901.5" cy="75.8" r="0.8"/>
</g>
<g>
	<path fill="none" stroke="#1B75BB" stroke-width="2" stroke-miterlimit="10" d="M90.8,48.8h-6.3c-1.5,0-2.7-1.2-2.7-2.8
		s1.2-2.8,2.7-2.8h6.3c1.5,0,2.7,1.2,2.7,2.8S92.3,48.8,90.8,48.8z"/>
	<ellipse fill="none" stroke="#1B75BB" stroke-width="2" stroke-miterlimit="10" cx="90.8" cy="46" rx="2.7" ry="2.8"/>
	<path fill="none" stroke="#1B75BB" stroke-width="2" stroke-miterlimit="10" d="M75.5,52.5c0,0-9.3,13.9,9.9,24v2.8"/>
	<path fill="none" stroke="#1B75BB" stroke-width="2" stroke-miterlimit="10" d="M66.8,40.7c0,0.2,0,0.5-0.1,0.6
		c-0.6,0.9-2.3,1.4-3.5,1.3c-0.3,0-0.6,0-0.9,0L57.7,38c-0.5-0.5-1.3-0.5-1.8,0l-0.7,0.7c-0.5,0.5-0.5,1.4,0,1.9l4.6,4.8
		c0,0.2,0,0.4,0,0.7c-0.1,2.9-0.1,6-1.1,8.7c-0.3,0.9-0.6,1.8-0.9,2.7c5.1-1.3,11.2-6.1,12.3-9.6C71.2,44.5,68.8,42.1,66.8,40.7z"/>
	<path fill="none" stroke="#1B75BB" stroke-width="2" stroke-miterlimit="10" d="M95.2,58.2l-1.8-0.4l1.3-1.4
		c0.5-0.5,0.5-1.4-0.1-1.9l-0.7-0.7c-0.5-0.5-1.4-0.5-1.8,0.1l-2.7,3l-0.5-0.1c0.8,1.3,1.5,2.8,2,4.3l3.6,0.9c0.7,0.2,1.4-0.3,1.6-1
		l0.2-1C96.3,59.1,95.9,58.4,95.2,58.2z"/>
	<line fill="none" stroke="#1B75BB" stroke-width="2" stroke-miterlimit="10" x1="88.1" y1="74.7" x2="85.4" y2="76.5"/>
	<path fill="none" stroke="#1B75BB" stroke-width="2" stroke-miterlimit="10" d="M72.9,64.5c-3.7,3.4-3.7,9.6-0.1,13.7l0,2.9"/>
	<path fill="none" stroke="#1B75BB" stroke-width="2" stroke-miterlimit="10" d="M85.8,64.5c-3.1-4.6-8.1-8.5-12.1-5.5"/>
	<polyline fill="none" stroke="#1B75BB" stroke-width="2" stroke-miterlimit="10" points="82.7,65.4 82.7,61.7 86.3,59 	"/>
	<line fill="none" stroke="#1B75BB" stroke-width="2" stroke-miterlimit="10" x1="72.8" y1="78.4" x2="75.5" y2="78.4"/>
	<polyline fill="none" stroke="#1B75BB" stroke-width="2" stroke-miterlimit="10" points="79.1,77.5 79.1,71.9 84.5,71.9 	"/>
	<path fill="none" stroke="#1B75BB" stroke-width="2" stroke-miterlimit="10" d="M93,74.8c-1.1-8.8-0.9-18.4-10.3-23.9
		c-0.6-0.3-0.4-1.2,0.2-1.3c1.1-0.2,2-0.4,2.7-0.8h-1.1c-1.5,0-2.7-1.2-2.7-2.8s1.2-2.8,2.7-2.8h0.7c-0.6-0.4-1.4-0.5-2.3-0.5
		c-0.6,0-1.1-0.4-1.3-0.9c-0.2-0.6-0.5-1.2-0.7-1.8l1.3-1.3c1.1-1.1,1.1-2.8,0-3.9c-1.1-1.1-2.8-1.1-3.8,0L77,36.2
		c-1.7-0.7-3.5-0.5-5.2,0.6c-0.6,0.4-1.3,0.2-1.7-0.4c-0.4-0.6-0.8-1.1-1.4-1.4c-0.6-0.3-1.8,0-2.5,0.4c-0.4,0.3-0.2,1.4-0.1,2.2
		c0.2,1.3,1.1,2.9,0.6,3.7c-0.6,0.9-2.3,1.4-3.5,1.3c-0.3,0-0.6,0-0.9,0L57.7,38c-0.5-0.5-1.3-0.5-1.8,0l-0.7,0.7
		c-0.5,0.5-0.5,1.4,0,1.9l4.6,4.8c0,0.2,0,0.4,0,0.7c-0.1,2.9-0.1,6-1.1,8.7c-3.2,8.7-2.1,16.6,4,23.4c7.1,7.8,16.3,10,26.3,9.3
		c2.8-0.2,4.4-2,4.5-4.9C93.5,80,93.3,77.4,93,74.8z"/>
</g>
<g>
	<line fill="none" stroke="#F26D26" stroke-width="2" stroke-miterlimit="10" x1="943.2" y1="164.8" x2="950.3" y2="174"/>
	<ellipse fill="none" stroke="#F26D26" stroke-width="2" stroke-miterlimit="10" cx="942.4" cy="162.3" rx="2.4" ry="2.5"/>
	<line fill="none" stroke="#F26D26" stroke-width="2" stroke-miterlimit="10" x1="947.9" y1="153.2" x2="943.2" y2="159.8"/>
	<line fill="none" stroke="#F26D26" stroke-width="2" stroke-miterlimit="10" x1="977.7" y1="164.8" x2="970.7" y2="174"/>
	<ellipse fill="none" stroke="#F26D26" stroke-width="2" stroke-miterlimit="10" cx="978.5" cy="162.3" rx="2.4" ry="2.5"/>
	<line fill="none" stroke="#F26D26" stroke-width="2" stroke-miterlimit="10" x1="972.2" y1="153.2" x2="977.7" y2="159.8"/>
	<ellipse fill="none" stroke="#F26D26" stroke-width="2" stroke-miterlimit="10" cx="954.2" cy="181.6" rx="2.4" ry="2.5"/>
	<ellipse fill="none" stroke="#F26D26" stroke-width="2" stroke-miterlimit="10" cx="966.7" cy="181.6" rx="2.4" ry="2.5"/>
	<line fill="none" stroke="#F26D26" stroke-width="2" stroke-miterlimit="10" x1="960.5" y1="176.6" x2="960.5" y2="153.2"/>
	<line fill="none" stroke="#F26D26" stroke-width="2" stroke-miterlimit="10" x1="955.2" y1="169.9" x2="966.2" y2="169.9"/>
	<line fill="none" stroke="#F26D26" stroke-width="2" stroke-miterlimit="10" x1="953.6" y1="166.6" x2="967.7" y2="166.6"/>
	<line fill="none" stroke="#F26D26" stroke-width="2" stroke-miterlimit="10" x1="950.5" y1="163.2" x2="970.9" y2="163.2"/>
	<line fill="none" stroke="#F26D26" stroke-width="2" stroke-miterlimit="10" x1="967.7" y1="156.6" x2="953.6" y2="156.6"/>
	<line fill="none" stroke="#F26D26" stroke-width="2" stroke-miterlimit="10" x1="970.9" y1="159.9" x2="950.5" y2="159.9"/>
	<line fill="none" stroke="#F26D26" stroke-width="2" stroke-miterlimit="10" x1="937.7" y1="153.2" x2="983.2" y2="153.2"/>
	<line fill="none" stroke="#F26D26" stroke-width="2" stroke-miterlimit="10" x1="937.7" y1="187.5" x2="983.2" y2="187.5"/>
	<polygon fill="none" stroke="#F26D26" stroke-width="2" stroke-miterlimit="10" points="960.5,193.3 947.1,193.3 946.4,187.5 
		960.5,187.5 	"/>
	<polygon fill="none" stroke="#F26D26" stroke-width="2" stroke-miterlimit="10" points="973.8,193.3 960.5,193.3 960.5,187.5 
		974.6,187.5 	"/>
	<path fill="none" stroke="#F26D26" stroke-width="2" stroke-miterlimit="10" d="M955.3,145.8c0.4,0.4,0.8,0.7,1.3,1
		c1,0.7,0.8,1.8,0.8,3.1c0,0.5-0.3,0.9-0.8,0.9h-5c-0.2,0-0.3-0.1-0.5-0.2c-0.8-0.6-1.7-0.8-2.7-0.6c-1.5,0.3-2.6,1.7-2.8,3.3
		c0,0,0,0,0,0h7h15.8h7c0,0,0,0,0,0c-0.1-1.6-1.3-2.9-2.8-3.3c-1-0.2-2,0-2.7,0.6c-0.1,0.1-0.3,0.2-0.5,0.2h-5
		c-0.5,0-0.8-0.4-0.8-0.9c0-1.3-0.2-2.4,0.8-3.1c0.5-0.3,0.9-0.6,1.3-1"/>
	<path fill="none" stroke="#F26D26" stroke-width="2" stroke-miterlimit="10" d="M953.6,187.5h5.7c0.1-0.1,0.1-0.3,0.2-0.4
		c0.2-0.4,0.5-0.8,1-0.8c0.4,0.1,0.8,0.4,1,0.8c0,0.1,0.1,0.3,0.2,0.4h5.7l5.7-5c1.1-1.1,1.3-2.9,0.5-4.2c-0.7-1.2-3-1.8-4.1-1.6
		c-1.3,0.2-2.6,0.1-3.4-1l-0.4-0.4c-0.4-0.2-0.8-0.3-1.2-0.3h-7c-0.6,0-1.2,0-1.7,0.4l-0.6,0.4c-0.8,0.9-2,1.3-3.1,1
		c-1.2-0.4-3.5,0.1-4.3,1.4c-0.8,1.2-0.5,3.2,0.5,4.2L953.6,187.5z"/>
	<ellipse fill="#F26D26" cx="937.7" cy="154.9" rx="0.8" ry="0.8"/>
	<ellipse fill="#F26D26" cx="940.9" cy="154.9" rx="0.8" ry="0.8"/>
	<ellipse fill="#F26D26" cx="944" cy="154.9" rx="0.8" ry="0.8"/>
	<ellipse fill="#F26D26" cx="942.4" cy="156.6" rx="0.8" ry="0.8"/>
	<ellipse fill="#F26D26" cx="939.3" cy="156.6" rx="0.8" ry="0.8"/>
	<ellipse fill="#F26D26" cx="940.9" cy="158.2" rx="0.8" ry="0.8"/>
	<ellipse fill="#F26D26" cx="944" cy="158.2" rx="0.8" ry="0.8"/>
	<ellipse fill="#F26D26" cx="939.3" cy="159.9" rx="0.8" ry="0.8"/>
	<ellipse fill="#F26D26" cx="937.7" cy="161.6" rx="0.8" ry="0.8"/>
	<ellipse fill="#F26D26" cx="939.3" cy="163.2" rx="0.8" ry="0.8"/>
	<ellipse fill="#F26D26" cx="939.3" cy="166.6" rx="0.8" ry="0.8"/>
	<ellipse fill="#F26D26" cx="942.4" cy="166.6" rx="0.8" ry="0.8"/>
	<ellipse fill="#F26D26" cx="937.7" cy="164.9" rx="0.8" ry="0.8"/>
	<ellipse fill="#F26D26" cx="940.9" cy="164.9" rx="0.8" ry="0.8"/>
	<ellipse fill="#F26D26" cx="937.7" cy="168.3" rx="0.8" ry="0.8"/>
	<ellipse fill="#F26D26" cx="940.9" cy="168.3" rx="0.8" ry="0.8"/>
	<ellipse fill="#F26D26" cx="944" cy="168.3" rx="0.8" ry="0.8"/>
	<ellipse fill="#F26D26" cx="939.3" cy="169.9" rx="0.8" ry="0.8"/>
	<ellipse fill="#F26D26" cx="942.4" cy="169.9" rx="0.8" ry="0.8"/>
	<ellipse fill="#F26D26" cx="937.7" cy="171.6" rx="0.8" ry="0.8"/>
	<ellipse fill="#F26D26" cx="940.9" cy="171.6" rx="0.8" ry="0.8"/>
	<ellipse fill="#F26D26" cx="944" cy="171.6" rx="0.8" ry="0.8"/>
	<ellipse fill="#F26D26" cx="939.3" cy="173.3" rx="0.8" ry="0.8"/>
	<ellipse fill="#F26D26" cx="942.4" cy="173.3" rx="0.8" ry="0.8"/>
	<ellipse fill="#F26D26" cx="937.7" cy="174.9" rx="0.8" ry="0.8"/>
	<ellipse fill="#F26D26" cx="940.9" cy="174.9" rx="0.8" ry="0.8"/>
	<ellipse fill="#F26D26" cx="944" cy="174.9" rx="0.8" ry="0.8"/>
	<ellipse fill="#F26D26" cx="947.1" cy="174.9" rx="0.8" ry="0.8"/>
	<ellipse fill="#F26D26" cx="948.7" cy="176.6" rx="0.8" ry="0.8"/>
	<ellipse fill="#F26D26" cx="945.6" cy="173.3" rx="0.8" ry="0.8"/>
	<ellipse fill="#F26D26" cx="948.7" cy="173.3" rx="0.8" ry="0.8"/>
	<ellipse fill="#F26D26" cx="950.3" cy="174.9" rx="0.8" ry="0.8"/>
	<ellipse fill="#F26D26" cx="945.6" cy="169.9" rx="0.8" ry="0.8"/>
	<ellipse fill="#F26D26" cx="947.1" cy="171.6" rx="0.8" ry="0.8"/>
	<ellipse fill="#F26D26" cx="939.3" cy="176.6" rx="0.8" ry="0.8"/>
	<ellipse fill="#F26D26" cx="942.4" cy="176.6" rx="0.8" ry="0.8"/>
	<ellipse fill="#F26D26" cx="937.7" cy="178.3" rx="0.8" ry="0.8"/>
	<ellipse fill="#F26D26" cx="940.9" cy="178.3" rx="0.8" ry="0.8"/>
	<ellipse fill="#F26D26" cx="944" cy="178.3" rx="0.8" ry="0.8"/>
	<ellipse fill="#F26D26" cx="947.1" cy="178.3" rx="0.8" ry="0.8"/>
	<ellipse fill="#F26D26" cx="945.6" cy="176.6" rx="0.8" ry="0.8"/>
	<ellipse fill="#F26D26" cx="945.6" cy="180" rx="0.8" ry="0.8"/>
	<ellipse fill="#F26D26" cx="939.3" cy="180" rx="0.8" ry="0.8"/>
	<ellipse fill="#F26D26" cx="942.4" cy="180" rx="0.8" ry="0.8"/>
	<ellipse fill="#F26D26" cx="937.7" cy="181.6" rx="0.8" ry="0.8"/>
	<ellipse fill="#F26D26" cx="940.9" cy="181.6" rx="0.8" ry="0.8"/>
	<ellipse fill="#F26D26" cx="944" cy="181.6" rx="0.8" ry="0.8"/>
	<ellipse fill="#F26D26" cx="947.1" cy="181.6" rx="0.8" ry="0.8"/>
	<ellipse fill="#F26D26" cx="939.3" cy="183.3" rx="0.8" ry="0.8"/>
	<ellipse fill="#F26D26" cx="942.4" cy="183.3" rx="0.8" ry="0.8"/>
	<ellipse fill="#F26D26" cx="939.3" cy="186.6" rx="0.8" ry="0.8"/>
	<ellipse fill="#F26D26" cx="942.4" cy="186.6" rx="0.8" ry="0.8"/>
	<ellipse fill="#F26D26" cx="937.7" cy="185" rx="0.8" ry="0.8"/>
	<ellipse fill="#F26D26" cx="940.9" cy="185" rx="0.8" ry="0.8"/>
	<ellipse fill="#F26D26" cx="944" cy="185" rx="0.8" ry="0.8"/>
	<ellipse fill="#F26D26" cx="948.7" cy="186.6" rx="0.8" ry="0.8"/>
	<ellipse fill="#F26D26" cx="947.1" cy="185" rx="0.8" ry="0.8"/>
	<ellipse fill="#F26D26" cx="945.6" cy="186.6" rx="0.8" ry="0.8"/>
	<ellipse fill="#F26D26" cx="945.6" cy="183.3" rx="0.8" ry="0.8"/>
	<ellipse fill="#F26D26" cx="948.7" cy="183.3" rx="0.8" ry="0.8"/>
	<ellipse fill="#F26D26" cx="950.3" cy="185" rx="0.8" ry="0.8"/>
	<ellipse fill="#F26D26" cx="937.7" cy="158.2" rx="0.8" ry="0.8"/>
	<ellipse fill="#F26D26" cx="983.2" cy="154.9" rx="0.8" ry="0.8"/>
	<ellipse fill="#F26D26" cx="980.1" cy="154.9" rx="0.8" ry="0.8"/>
	<ellipse fill="#F26D26" cx="976.9" cy="154.9" rx="0.8" ry="0.8"/>
	<ellipse fill="#F26D26" cx="978.5" cy="156.6" rx="0.8" ry="0.8"/>
	<ellipse fill="#F26D26" cx="981.6" cy="156.6" rx="0.8" ry="0.8"/>
	<ellipse fill="#F26D26" cx="980.1" cy="158.2" rx="0.8" ry="0.8"/>
	<ellipse fill="#F26D26" cx="976.9" cy="158.2" rx="0.8" ry="0.8"/>
	<ellipse fill="#F26D26" cx="981.6" cy="159.9" rx="0.8" ry="0.8"/>
	<ellipse fill="#F26D26" cx="983.2" cy="161.6" rx="0.8" ry="0.8"/>
	<ellipse fill="#F26D26" cx="981.6" cy="163.2" rx="0.8" ry="0.8"/>
	<ellipse fill="#F26D26" cx="981.6" cy="166.6" rx="0.8" ry="0.8"/>
	<ellipse fill="#F26D26" cx="978.5" cy="166.6" rx="0.8" ry="0.8"/>
	<ellipse fill="#F26D26" cx="983.2" cy="164.9" rx="0.8" ry="0.8"/>
	<ellipse fill="#F26D26" cx="980.1" cy="164.9" rx="0.8" ry="0.8"/>
	<ellipse fill="#F26D26" cx="983.2" cy="168.3" rx="0.8" ry="0.8"/>
	<ellipse fill="#F26D26" cx="980.1" cy="168.3" rx="0.8" ry="0.8"/>
	<ellipse fill="#F26D26" cx="976.9" cy="168.3" rx="0.8" ry="0.8"/>
	<ellipse fill="#F26D26" cx="981.6" cy="169.9" rx="0.8" ry="0.8"/>
	<ellipse fill="#F26D26" cx="978.5" cy="169.9" rx="0.8" ry="0.8"/>
	<ellipse fill="#F26D26" cx="983.2" cy="171.6" rx="0.8" ry="0.8"/>
	<ellipse fill="#F26D26" cx="980.1" cy="171.6" rx="0.8" ry="0.8"/>
	<ellipse fill="#F26D26" cx="976.9" cy="171.6" rx="0.8" ry="0.8"/>
	<ellipse fill="#F26D26" cx="981.6" cy="173.3" rx="0.8" ry="0.8"/>
	<ellipse fill="#F26D26" cx="978.5" cy="173.3" rx="0.8" ry="0.8"/>
	<ellipse fill="#F26D26" cx="983.2" cy="174.9" rx="0.8" ry="0.8"/>
	<ellipse fill="#F26D26" cx="980.1" cy="174.9" rx="0.8" ry="0.8"/>
	<ellipse fill="#F26D26" cx="976.9" cy="174.9" rx="0.8" ry="0.8"/>
	<ellipse fill="#F26D26" cx="973.8" cy="174.9" rx="0.8" ry="0.8"/>
	<ellipse fill="#F26D26" cx="972.2" cy="176.6" rx="0.8" ry="0.8"/>
	<ellipse fill="#F26D26" cx="975.4" cy="173.3" rx="0.8" ry="0.8"/>
	<ellipse fill="#F26D26" cx="972.2" cy="173.3" rx="0.8" ry="0.8"/>
	<ellipse fill="#F26D26" cx="970.7" cy="174.9" rx="0.8" ry="0.8"/>
	<ellipse fill="#F26D26" cx="975.4" cy="169.9" rx="0.8" ry="0.8"/>
	<ellipse fill="#F26D26" cx="973.8" cy="171.6" rx="0.8" ry="0.8"/>
	<ellipse fill="#F26D26" cx="981.6" cy="176.6" rx="0.8" ry="0.8"/>
	<ellipse fill="#F26D26" cx="978.5" cy="176.6" rx="0.8" ry="0.8"/>
	<ellipse fill="#F26D26" cx="983.2" cy="178.3" rx="0.8" ry="0.8"/>
	<ellipse fill="#F26D26" cx="980.1" cy="178.3" rx="0.8" ry="0.8"/>
	<ellipse fill="#F26D26" cx="976.9" cy="178.3" rx="0.8" ry="0.8"/>
	<ellipse fill="#F26D26" cx="973.8" cy="178.3" rx="0.8" ry="0.8"/>
	<ellipse fill="#F26D26" cx="975.4" cy="176.6" rx="0.8" ry="0.8"/>
	<ellipse fill="#F26D26" cx="975.4" cy="180" rx="0.8" ry="0.8"/>
	<ellipse fill="#F26D26" cx="981.6" cy="180" rx="0.8" ry="0.8"/>
	<ellipse fill="#F26D26" cx="978.5" cy="180" rx="0.8" ry="0.8"/>
	<ellipse fill="#F26D26" cx="983.2" cy="181.6" rx="0.8" ry="0.8"/>
	<ellipse fill="#F26D26" cx="980.1" cy="181.6" rx="0.8" ry="0.8"/>
	<ellipse fill="#F26D26" cx="976.9" cy="181.6" rx="0.8" ry="0.8"/>
	<ellipse fill="#F26D26" cx="973.8" cy="181.6" rx="0.8" ry="0.8"/>
	<ellipse fill="#F26D26" cx="981.6" cy="183.3" rx="0.8" ry="0.8"/>
	<ellipse fill="#F26D26" cx="978.5" cy="183.3" rx="0.8" ry="0.8"/>
	<ellipse fill="#F26D26" cx="981.6" cy="186.6" rx="0.8" ry="0.8"/>
	<ellipse fill="#F26D26" cx="978.5" cy="186.6" rx="0.8" ry="0.8"/>
	<ellipse fill="#F26D26" cx="983.2" cy="185" rx="0.8" ry="0.8"/>
	<ellipse fill="#F26D26" cx="980.1" cy="185" rx="0.8" ry="0.8"/>
	<ellipse fill="#F26D26" cx="976.9" cy="185" rx="0.8" ry="0.8"/>
	<ellipse fill="#F26D26" cx="972.2" cy="186.6" rx="0.8" ry="0.8"/>
	<ellipse fill="#F26D26" cx="973.8" cy="185" rx="0.8" ry="0.8"/>
	<ellipse fill="#F26D26" cx="975.4" cy="186.6" rx="0.8" ry="0.8"/>
	<ellipse fill="#F26D26" cx="975.4" cy="183.3" rx="0.8" ry="0.8"/>
	<ellipse fill="#F26D26" cx="972.2" cy="183.3" rx="0.8" ry="0.8"/>
	<ellipse fill="#F26D26" cx="970.7" cy="185" rx="0.8" ry="0.8"/>
	<ellipse fill="#F26D26" cx="983.2" cy="158.2" rx="0.8" ry="0.8"/>
</g>
<g>
	<ellipse fill="none" stroke="#2FBFD1" stroke-width="2" stroke-miterlimit="10" cx="45.4" cy="464.7" rx="2.8" ry="2.8"/>
	<ellipse fill="none" stroke="#2FBFD1" stroke-width="2" stroke-miterlimit="10" cx="45.4" cy="475.3" rx="2.8" ry="2.8"/>
	<ellipse fill="none" stroke="#2FBFD1" stroke-width="2" stroke-miterlimit="10" cx="45.4" cy="485.8" rx="2.8" ry="2.8"/>
	<line fill="none" stroke="#2FBFD1" stroke-width="2" stroke-miterlimit="10" x1="51.3" y1="463.5" x2="63.1" y2="463.5"/>
	<line fill="none" stroke="#2FBFD1" stroke-width="2" stroke-miterlimit="10" x1="51.3" y1="466.7" x2="63.1" y2="466.7"/>
	<line fill="none" stroke="#2FBFD1" stroke-width="2" stroke-miterlimit="10" x1="51.3" y1="474.1" x2="63.1" y2="474.1"/>
	<line fill="none" stroke="#2FBFD1" stroke-width="2" stroke-miterlimit="10" x1="51.3" y1="477.3" x2="63.1" y2="477.3"/>
	<line fill="none" stroke="#2FBFD1" stroke-width="2" stroke-miterlimit="10" x1="51.3" y1="484.6" x2="63.1" y2="484.6"/>
	<line fill="none" stroke="#2FBFD1" stroke-width="2" stroke-miterlimit="10" x1="51.3" y1="487.9" x2="63.1" y2="487.9"/>
	<rect x="44.2" y="450.5" fill="none" stroke="#2FBFD1" stroke-width="2" stroke-miterlimit="10" width="18.1" height="7.3"/>
	<polygon fill="none" stroke="#2FBFD1" stroke-width="2" stroke-miterlimit="10" points="62.3,452.9 62.3,457.8 44.2,457.8 
		44.2,452.9 35.5,452.9 35.5,497.6 70.2,497.6 70.2,452.9 	"/>
	<polygon fill="none" stroke="#2FBFD1" stroke-width="2" stroke-miterlimit="10" points="62.3,456.2 62.3,457.8 44.2,457.8 
		44.2,456.2 38.7,456.2 38.7,494.4 67,494.4 67,456.2 	"/>
	<line fill="none" stroke="#2FBFD1" stroke-width="2" stroke-miterlimit="10" x1="47.3" y1="453.7" x2="59.1" y2="453.7"/>
</g>
<g>
	<path fill="#808184" d="M745.8,68.4h-1.4v2.9h-1.3v-7.5h2.6c0.9,0,1.5,0.2,2,0.6c0.5,0.4,0.7,0.9,0.7,1.7c0,0.5-0.1,0.9-0.4,1.3
		c-0.2,0.3-0.6,0.6-1,0.8l1.7,3.1v0.1h-1.4L745.8,68.4z M744.4,67.3h1.3c0.4,0,0.8-0.1,1-0.3c0.2-0.2,0.4-0.5,0.4-0.9
		c0-0.4-0.1-0.7-0.3-0.9c-0.2-0.2-0.6-0.3-1-0.3h-1.4V67.3z"/>
	<path fill="#808184" d="M751.9,71.3c-0.8,0-1.4-0.2-1.9-0.7s-0.7-1.2-0.7-2v-0.2c0-0.6,0.1-1,0.3-1.5c0.2-0.4,0.5-0.8,0.9-1
		c0.4-0.2,0.8-0.4,1.3-0.4c0.8,0,1.3,0.2,1.8,0.7c0.4,0.5,0.6,1.2,0.6,2v0.5h-3.6c0,0.5,0.2,0.8,0.5,1.1c0.3,0.3,0.6,0.4,1,0.4
		c0.6,0,1-0.2,1.4-0.7l0.7,0.6c-0.2,0.3-0.5,0.6-0.9,0.8C752.8,71.2,752.3,71.3,751.9,71.3z M751.7,66.6c-0.3,0-0.6,0.1-0.8,0.4
		c-0.2,0.2-0.3,0.6-0.4,1h2.4v-0.1c0-0.4-0.1-0.7-0.3-0.9C752.3,66.7,752.1,66.6,751.7,66.6z"/>
	<path fill="#808184" d="M758.1,69.7c0-0.2-0.1-0.4-0.3-0.5c-0.2-0.1-0.5-0.2-0.9-0.3s-0.8-0.2-1.1-0.3c-0.6-0.3-0.9-0.7-0.9-1.3
		c0-0.5,0.2-0.9,0.6-1.2c0.4-0.3,0.9-0.5,1.5-0.5c0.7,0,1.2,0.2,1.6,0.5c0.4,0.3,0.6,0.8,0.6,1.3h-1.2c0-0.2-0.1-0.4-0.3-0.6
		c-0.2-0.2-0.4-0.2-0.7-0.2c-0.3,0-0.5,0.1-0.7,0.2c-0.2,0.1-0.3,0.3-0.3,0.5c0,0.2,0.1,0.3,0.2,0.4c0.2,0.1,0.5,0.2,1,0.3
		c0.5,0.1,0.9,0.2,1.2,0.4c0.3,0.1,0.5,0.3,0.6,0.5c0.1,0.2,0.2,0.5,0.2,0.8c0,0.5-0.2,0.9-0.6,1.2c-0.4,0.3-1,0.5-1.6,0.5
		c-0.5,0-0.9-0.1-1.2-0.2s-0.6-0.4-0.8-0.7c-0.2-0.3-0.3-0.6-0.3-0.9h1.2c0,0.3,0.1,0.5,0.3,0.7c0.2,0.2,0.5,0.2,0.8,0.2
		c0.3,0,0.6-0.1,0.7-0.2C758,70.1,758.1,69.9,758.1,69.7z"/>
	<path fill="#808184" d="M765.3,68.5c0,0.9-0.2,1.5-0.6,2.1c-0.4,0.5-0.9,0.8-1.6,0.8c-0.6,0-1.1-0.2-1.5-0.6v2.6h-1.2v-7.7h1.1
		l0.1,0.6c0.4-0.4,0.9-0.7,1.5-0.7c0.7,0,1.2,0.3,1.6,0.8C765.1,66.8,765.3,67.5,765.3,68.5L765.3,68.5z M764,68.4
		c0-0.6-0.1-1-0.3-1.3s-0.5-0.5-0.9-0.5c-0.5,0-0.9,0.2-1.1,0.6v2.5c0.2,0.4,0.6,0.6,1.1,0.6c0.4,0,0.7-0.2,0.9-0.5
		C763.9,69.5,764,69.1,764,68.4z"/>
	<path fill="#808184" d="M766.3,64.2c0-0.2,0.1-0.4,0.2-0.5c0.1-0.1,0.3-0.2,0.5-0.2s0.4,0.1,0.5,0.2c0.1,0.1,0.2,0.3,0.2,0.5
		c0,0.2-0.1,0.3-0.2,0.5c-0.1,0.1-0.3,0.2-0.5,0.2s-0.4-0.1-0.5-0.2C766.3,64.6,766.3,64.4,766.3,64.2z M767.6,71.2h-1.2v-5.6h1.2
		V71.2z"/>
	<path fill="#808184" d="M771.8,66.8c-0.2,0-0.3,0-0.5,0c-0.6,0-1,0.2-1.2,0.7v3.8h-1.2v-5.6h1.2l0,0.6c0.3-0.5,0.7-0.7,1.3-0.7
		c0.2,0,0.3,0,0.4,0.1L771.8,66.8z"/>
	<path fill="#808184" d="M775.9,71.2c-0.1-0.1-0.1-0.3-0.1-0.5c-0.4,0.4-0.9,0.6-1.5,0.6c-0.6,0-1-0.2-1.4-0.5
		c-0.4-0.3-0.5-0.7-0.5-1.2c0-0.6,0.2-1,0.7-1.4c0.4-0.3,1.1-0.5,1.9-0.5h0.8v-0.4c0-0.3-0.1-0.5-0.2-0.7s-0.4-0.3-0.7-0.3
		c-0.3,0-0.5,0.1-0.7,0.2c-0.2,0.1-0.3,0.3-0.3,0.5h-1.2c0-0.3,0.1-0.6,0.3-0.9c0.2-0.3,0.5-0.5,0.8-0.6c0.3-0.2,0.7-0.2,1.2-0.2
		c0.6,0,1.2,0.2,1.6,0.5c0.4,0.3,0.6,0.8,0.6,1.4v2.5c0,0.5,0.1,0.9,0.2,1.2v0.1H775.9z M774.6,70.3c0.2,0,0.5-0.1,0.7-0.2
		s0.4-0.3,0.5-0.5v-1h-0.7c-0.5,0-0.8,0.1-1,0.2s-0.3,0.4-0.3,0.7c0,0.2,0.1,0.4,0.2,0.6C774.1,70.3,774.3,70.3,774.6,70.3z"/>
	<path fill="#808184" d="M779.8,64.3v1.3h1v0.9h-1v3.1c0,0.2,0,0.4,0.1,0.5c0.1,0.1,0.2,0.1,0.4,0.1c0.1,0,0.3,0,0.4-0.1v1
		c-0.3,0.1-0.6,0.1-0.8,0.1c-1,0-1.4-0.5-1.4-1.6v-3.1h-0.9v-0.9h0.9v-1.3H779.8z"/>
	<path fill="#808184" d="M781.3,68.4c0-0.5,0.1-1,0.3-1.5s0.5-0.8,0.9-1s0.8-0.4,1.3-0.4c0.7,0,1.4,0.2,1.8,0.7
		c0.5,0.5,0.7,1.1,0.8,1.9l0,0.3c0,0.5-0.1,1-0.3,1.5c-0.2,0.4-0.5,0.8-0.9,1c-0.4,0.2-0.8,0.4-1.4,0.4c-0.8,0-1.4-0.3-1.9-0.8
		C781.6,70,781.3,69.3,781.3,68.4L781.3,68.4z M782.6,68.5c0,0.6,0.1,1,0.4,1.3c0.2,0.3,0.6,0.5,1,0.5s0.7-0.2,1-0.5
		c0.2-0.3,0.4-0.8,0.4-1.4c0-0.6-0.1-1-0.4-1.3c-0.2-0.3-0.6-0.5-1-0.5c-0.4,0-0.7,0.2-1,0.5C782.7,67.4,782.6,67.9,782.6,68.5z"/>
	<path fill="#808184" d="M790.4,66.8c-0.2,0-0.3,0-0.5,0c-0.6,0-1,0.2-1.2,0.7v3.8h-1.2v-5.6h1.2l0,0.6c0.3-0.5,0.7-0.7,1.3-0.7
		c0.2,0,0.3,0,0.4,0.1L790.4,66.8z"/>
	<path fill="#808184" d="M793.5,69.4l1.1-3.8h1.3l-2.2,6.4c-0.3,0.9-0.9,1.4-1.7,1.4c-0.2,0-0.4,0-0.6-0.1v-1l0.2,0
		c0.3,0,0.6-0.1,0.7-0.2c0.2-0.1,0.3-0.3,0.4-0.6l0.2-0.5l-1.9-5.5h1.3L793.5,69.4z"/>
	<path fill="#808184" d="M799.4,71.2v-7.5h2.2c0.7,0,1.2,0.1,1.8,0.4c0.5,0.3,0.9,0.7,1.2,1.3s0.4,1.2,0.4,1.9v0.4
		c0,0.7-0.1,1.3-0.4,1.9s-0.7,1-1.2,1.2c-0.5,0.3-1.1,0.4-1.8,0.4H799.4z M800.7,64.8v5.4h0.8c0.7,0,1.2-0.2,1.6-0.6
		c0.4-0.4,0.5-1,0.6-1.8v-0.4c0-0.8-0.2-1.4-0.5-1.9c-0.4-0.4-0.9-0.6-1.5-0.6H800.7z"/>
	<path fill="#808184" d="M806.1,64.2c0-0.2,0.1-0.4,0.2-0.5c0.1-0.1,0.3-0.2,0.5-0.2s0.4,0.1,0.5,0.2c0.1,0.1,0.2,0.3,0.2,0.5
		c0,0.2-0.1,0.3-0.2,0.5c-0.1,0.1-0.3,0.2-0.5,0.2s-0.4-0.1-0.5-0.2C806.1,64.6,806.1,64.4,806.1,64.2z M807.4,71.2h-1.2v-5.6h1.2
		V71.2z"/>
	<path fill="#808184" d="M811.8,69.7c0-0.2-0.1-0.4-0.3-0.5c-0.2-0.1-0.5-0.2-0.9-0.3s-0.8-0.2-1.1-0.3c-0.6-0.3-0.9-0.7-0.9-1.3
		c0-0.5,0.2-0.9,0.6-1.2c0.4-0.3,0.9-0.5,1.5-0.5c0.7,0,1.2,0.2,1.6,0.5c0.4,0.3,0.6,0.8,0.6,1.3h-1.2c0-0.2-0.1-0.4-0.3-0.6
		c-0.2-0.2-0.4-0.2-0.7-0.2c-0.3,0-0.5,0.1-0.7,0.2c-0.2,0.1-0.3,0.3-0.3,0.5c0,0.2,0.1,0.3,0.2,0.4c0.2,0.1,0.5,0.2,1,0.3
		c0.5,0.1,0.9,0.2,1.2,0.4c0.3,0.1,0.5,0.3,0.6,0.5c0.1,0.2,0.2,0.5,0.2,0.8c0,0.5-0.2,0.9-0.6,1.2c-0.4,0.3-1,0.5-1.6,0.5
		c-0.5,0-0.9-0.1-1.2-0.2s-0.6-0.4-0.8-0.7c-0.2-0.3-0.3-0.6-0.3-0.9h1.2c0,0.3,0.1,0.5,0.3,0.7c0.2,0.2,0.5,0.2,0.8,0.2
		c0.3,0,0.6-0.1,0.7-0.2C811.7,70.1,811.8,69.9,811.8,69.7z"/>
	<path fill="#808184" d="M816.4,71.3c-0.8,0-1.4-0.2-1.9-0.7s-0.7-1.2-0.7-2v-0.2c0-0.6,0.1-1,0.3-1.5c0.2-0.4,0.5-0.8,0.9-1
		s0.8-0.4,1.3-0.4c0.8,0,1.3,0.2,1.8,0.7c0.4,0.5,0.6,1.2,0.6,2v0.5H815c0,0.5,0.2,0.8,0.5,1.1c0.3,0.3,0.6,0.4,1,0.4
		c0.6,0,1-0.2,1.4-0.7l0.7,0.6c-0.2,0.3-0.5,0.6-0.9,0.8C817.3,71.2,816.9,71.3,816.4,71.3z M816.3,66.6c-0.3,0-0.6,0.1-0.8,0.4
		c-0.2,0.2-0.3,0.6-0.4,1h2.4v-0.1c0-0.4-0.1-0.7-0.3-0.9C816.9,66.7,816.6,66.6,816.3,66.6z"/>
	<path fill="#808184" d="M822.9,71.2c-0.1-0.1-0.1-0.3-0.1-0.5c-0.4,0.4-0.9,0.6-1.5,0.6c-0.6,0-1-0.2-1.4-0.5
		c-0.4-0.3-0.5-0.7-0.5-1.2c0-0.6,0.2-1,0.7-1.4c0.4-0.3,1.1-0.5,1.9-0.5h0.8v-0.4c0-0.3-0.1-0.5-0.2-0.7s-0.4-0.3-0.7-0.3
		c-0.3,0-0.5,0.1-0.7,0.2c-0.2,0.1-0.3,0.3-0.3,0.5h-1.2c0-0.3,0.1-0.6,0.3-0.9c0.2-0.3,0.5-0.5,0.8-0.6c0.3-0.2,0.7-0.2,1.2-0.2
		c0.6,0,1.2,0.2,1.6,0.5c0.4,0.3,0.6,0.8,0.6,1.4v2.5c0,0.5,0.1,0.9,0.2,1.2v0.1H822.9z M821.5,70.3c0.2,0,0.5-0.1,0.7-0.2
		s0.4-0.3,0.5-0.5v-1H822c-0.5,0-0.8,0.1-1,0.2s-0.3,0.4-0.3,0.7c0,0.2,0.1,0.4,0.2,0.6S821.2,70.3,821.5,70.3z"/>
	<path fill="#808184" d="M828.2,69.7c0-0.2-0.1-0.4-0.3-0.5c-0.2-0.1-0.5-0.2-0.9-0.3c-0.4-0.1-0.8-0.2-1.1-0.3
		c-0.6-0.3-0.9-0.7-0.9-1.3c0-0.5,0.2-0.9,0.6-1.2c0.4-0.3,0.9-0.5,1.5-0.5c0.7,0,1.2,0.2,1.6,0.5c0.4,0.3,0.6,0.8,0.6,1.3h-1.2
		c0-0.2-0.1-0.4-0.3-0.6c-0.2-0.2-0.4-0.2-0.7-0.2c-0.3,0-0.5,0.1-0.7,0.2c-0.2,0.1-0.3,0.3-0.3,0.5c0,0.2,0.1,0.3,0.2,0.4
		c0.2,0.1,0.5,0.2,1,0.3c0.5,0.1,0.9,0.2,1.2,0.4c0.3,0.1,0.5,0.3,0.6,0.5c0.1,0.2,0.2,0.5,0.2,0.8c0,0.5-0.2,0.9-0.6,1.2
		c-0.4,0.3-1,0.5-1.6,0.5c-0.5,0-0.9-0.1-1.2-0.2c-0.4-0.2-0.6-0.4-0.8-0.7c-0.2-0.3-0.3-0.6-0.3-0.9h1.2c0,0.3,0.1,0.5,0.3,0.7
		c0.2,0.2,0.5,0.2,0.8,0.2c0.3,0,0.6-0.1,0.7-0.2C828.2,70.1,828.2,69.9,828.2,69.7z"/>
	<path fill="#808184" d="M832.9,71.3c-0.8,0-1.4-0.2-1.9-0.7s-0.7-1.2-0.7-2v-0.2c0-0.6,0.1-1,0.3-1.5c0.2-0.4,0.5-0.8,0.9-1
		s0.8-0.4,1.3-0.4c0.8,0,1.3,0.2,1.8,0.7c0.4,0.5,0.6,1.2,0.6,2v0.5h-3.6c0,0.5,0.2,0.8,0.5,1.1c0.3,0.3,0.6,0.4,1,0.4
		c0.6,0,1-0.2,1.4-0.7l0.7,0.6c-0.2,0.3-0.5,0.6-0.9,0.8C833.8,71.2,833.4,71.3,832.9,71.3z M832.8,66.6c-0.3,0-0.6,0.1-0.8,0.4
		c-0.2,0.2-0.3,0.6-0.4,1h2.4v-0.1c0-0.4-0.1-0.7-0.3-0.9C833.4,66.7,833.1,66.6,832.8,66.6z"/>
	<path fill="#808184" d="M839.1,69.7c0-0.2-0.1-0.4-0.3-0.5c-0.2-0.1-0.5-0.2-0.9-0.3s-0.8-0.2-1.1-0.3c-0.6-0.3-0.9-0.7-0.9-1.3
		c0-0.5,0.2-0.9,0.6-1.2c0.4-0.3,0.9-0.5,1.5-0.5c0.7,0,1.2,0.2,1.6,0.5c0.4,0.3,0.6,0.8,0.6,1.3h-1.2c0-0.2-0.1-0.4-0.3-0.6
		c-0.2-0.2-0.4-0.2-0.7-0.2c-0.3,0-0.5,0.1-0.7,0.2c-0.2,0.1-0.3,0.3-0.3,0.5c0,0.2,0.1,0.3,0.2,0.4c0.2,0.1,0.5,0.2,1,0.3
		c0.5,0.1,0.9,0.2,1.2,0.4c0.3,0.1,0.5,0.3,0.6,0.5c0.1,0.2,0.2,0.5,0.2,0.8c0,0.5-0.2,0.9-0.6,1.2c-0.4,0.3-1,0.5-1.6,0.5
		c-0.5,0-0.9-0.1-1.2-0.2c-0.4-0.2-0.6-0.4-0.8-0.7c-0.2-0.3-0.3-0.6-0.3-0.9h1.2c0,0.3,0.1,0.5,0.3,0.7c0.2,0.2,0.5,0.2,0.8,0.2
		c0.3,0,0.6-0.1,0.7-0.2C839.1,70.1,839.1,69.9,839.1,69.7z"/>
</g>
<g>
	<path fill="#385864" d="M819.6,36.7l-4.9,11.5h-3.2l4.9-10.7h-6.2V35h9.4V36.7z"/>
	<path fill="#385864" d="M830.1,36.7l-4.9,11.5H822l4.9-10.7h-6.2V35h9.4V36.7z"/>
	<path fill="#385864" d="M840,42.8c0,1.8-0.4,3.1-1.2,4.1c-0.8,1-1.9,1.4-3.4,1.4c-1.5,0-2.6-0.5-3.4-1.4c-0.8-1-1.2-2.3-1.2-4.1
		v-2.4c0-1.8,0.4-3.1,1.2-4.1c0.8-1,1.9-1.4,3.4-1.4s2.6,0.5,3.4,1.4c0.8,1,1.2,2.3,1.2,4.1V42.8z M837,40c0-0.9-0.1-1.6-0.4-2.1
		c-0.2-0.5-0.6-0.7-1.2-0.7c-0.5,0-0.9,0.2-1.1,0.6s-0.4,1.1-0.4,2v3.3c0,1,0.1,1.7,0.4,2.1s0.6,0.7,1.2,0.7c0.5,0,0.9-0.2,1.1-0.7
		c0.2-0.4,0.4-1.1,0.4-2.1V40z"/>
</g>
<g>
	<path fill="#808184" d="M118.9,77.5h-1.3v-3.3h-3.3v3.3h-1.3v-7.5h1.3v3.1h3.3v-3.1h1.3V77.5z"/>
	<path fill="#808184" d="M122.7,77.6c-0.8,0-1.4-0.2-1.9-0.7s-0.7-1.2-0.7-2v-0.2c0-0.6,0.1-1,0.3-1.5s0.5-0.8,0.9-1
		s0.8-0.4,1.3-0.4c0.8,0,1.3,0.2,1.8,0.7c0.4,0.5,0.6,1.2,0.6,2v0.5h-3.6c0,0.5,0.2,0.8,0.5,1.1c0.3,0.3,0.6,0.4,1,0.4
		c0.6,0,1-0.2,1.4-0.7l0.7,0.6c-0.2,0.3-0.5,0.6-0.9,0.8C123.6,77.5,123.2,77.6,122.7,77.6z M122.6,72.9c-0.3,0-0.6,0.1-0.8,0.4
		c-0.2,0.2-0.3,0.6-0.4,1h2.4v-0.1c0-0.4-0.1-0.7-0.3-0.9C123.2,73,122.9,72.9,122.6,72.9z"/>
	<path fill="#808184" d="M129.1,77.5c-0.1-0.1-0.1-0.3-0.1-0.5c-0.4,0.4-0.9,0.6-1.5,0.6c-0.6,0-1-0.2-1.4-0.5
		c-0.4-0.3-0.5-0.7-0.5-1.2c0-0.6,0.2-1,0.7-1.4c0.4-0.3,1.1-0.5,1.9-0.5h0.8v-0.4c0-0.3-0.1-0.5-0.2-0.7s-0.4-0.3-0.7-0.3
		c-0.3,0-0.5,0.1-0.7,0.2c-0.2,0.1-0.3,0.3-0.3,0.5h-1.2c0-0.3,0.1-0.6,0.3-0.9s0.5-0.5,0.8-0.6s0.7-0.2,1.2-0.2
		c0.6,0,1.2,0.2,1.6,0.5s0.6,0.8,0.6,1.4v2.5c0,0.5,0.1,0.9,0.2,1.2v0.1H129.1z M127.8,76.6c0.2,0,0.5-0.1,0.7-0.2
		c0.2-0.1,0.4-0.3,0.5-0.5v-1h-0.7c-0.5,0-0.8,0.1-1,0.2c-0.2,0.2-0.3,0.4-0.3,0.7c0,0.2,0.1,0.4,0.2,0.6
		C127.3,76.6,127.5,76.6,127.8,76.6z"/>
	<path fill="#808184" d="M134.4,73.1c-0.2,0-0.3,0-0.5,0c-0.6,0-1,0.2-1.2,0.7v3.8h-1.2V72h1.2l0,0.6c0.3-0.5,0.7-0.7,1.3-0.7
		c0.2,0,0.3,0,0.4,0.1L134.4,73.1z"/>
	<path fill="#808184" d="M137,70.6V72h1v0.9h-1V76c0,0.2,0,0.4,0.1,0.5c0.1,0.1,0.2,0.1,0.4,0.1c0.1,0,0.3,0,0.4-0.1v1
		c-0.3,0.1-0.6,0.1-0.8,0.1c-1,0-1.4-0.5-1.4-1.6v-3.1h-0.9V72h0.9v-1.3H137z"/>
	<path fill="#808184" d="M141.7,77.5v-7.5h2.2c0.7,0,1.2,0.1,1.8,0.4s0.9,0.7,1.2,1.3c0.3,0.5,0.4,1.2,0.4,1.9V74
		c0,0.7-0.1,1.3-0.4,1.9c-0.3,0.5-0.7,1-1.2,1.2c-0.5,0.3-1.1,0.4-1.8,0.4H141.7z M143,71.1v5.4h0.8c0.7,0,1.2-0.2,1.6-0.6
		s0.5-1,0.6-1.8v-0.4c0-0.8-0.2-1.4-0.5-1.9s-0.9-0.6-1.5-0.6H143z"/>
	<path fill="#808184" d="M148.4,70.5c0-0.2,0.1-0.4,0.2-0.5c0.1-0.1,0.3-0.2,0.5-0.2s0.4,0.1,0.5,0.2c0.1,0.1,0.2,0.3,0.2,0.5
		c0,0.2-0.1,0.3-0.2,0.5c-0.1,0.1-0.3,0.2-0.5,0.2s-0.4-0.1-0.5-0.2C148.4,70.9,148.4,70.7,148.4,70.5z M149.7,77.5h-1.2V72h1.2
		V77.5z"/>
	<path fill="#808184" d="M154.1,76c0-0.2-0.1-0.4-0.3-0.5c-0.2-0.1-0.5-0.2-0.9-0.3s-0.8-0.2-1.1-0.3c-0.6-0.3-0.9-0.7-0.9-1.3
		c0-0.5,0.2-0.9,0.6-1.2c0.4-0.3,0.9-0.5,1.5-0.5c0.7,0,1.2,0.2,1.6,0.5c0.4,0.3,0.6,0.8,0.6,1.3H154c0-0.2-0.1-0.4-0.3-0.6
		c-0.2-0.2-0.4-0.2-0.7-0.2c-0.3,0-0.5,0.1-0.7,0.2c-0.2,0.1-0.3,0.3-0.3,0.5c0,0.2,0.1,0.3,0.2,0.4c0.2,0.1,0.5,0.2,1,0.3
		c0.5,0.1,0.9,0.2,1.2,0.4s0.5,0.3,0.6,0.5c0.1,0.2,0.2,0.5,0.2,0.8c0,0.5-0.2,0.9-0.6,1.2c-0.4,0.3-1,0.5-1.6,0.5
		c-0.5,0-0.9-0.1-1.2-0.2c-0.4-0.2-0.6-0.4-0.8-0.7s-0.3-0.6-0.3-0.9h1.2c0,0.3,0.1,0.5,0.3,0.7c0.2,0.2,0.5,0.2,0.8,0.2
		c0.3,0,0.6-0.1,0.7-0.2C154,76.4,154.1,76.2,154.1,76z"/>
	<path fill="#808184" d="M158.7,77.6c-0.8,0-1.4-0.2-1.9-0.7s-0.7-1.2-0.7-2v-0.2c0-0.6,0.1-1,0.3-1.5c0.2-0.4,0.5-0.8,0.9-1
		s0.8-0.4,1.3-0.4c0.8,0,1.3,0.2,1.8,0.7c0.4,0.5,0.6,1.2,0.6,2v0.5h-3.6c0,0.5,0.2,0.8,0.5,1.1c0.3,0.3,0.6,0.4,1,0.4
		c0.6,0,1-0.2,1.4-0.7l0.7,0.6c-0.2,0.3-0.5,0.6-0.9,0.8S159.2,77.6,158.7,77.6z M158.6,72.9c-0.3,0-0.6,0.1-0.8,0.4
		c-0.2,0.2-0.3,0.6-0.4,1h2.4v-0.1c0-0.4-0.1-0.7-0.3-0.9C159.2,73,158.9,72.9,158.6,72.9z"/>
	<path fill="#808184" d="M165.2,77.5c-0.1-0.1-0.1-0.3-0.1-0.5c-0.4,0.4-0.9,0.6-1.5,0.6c-0.6,0-1-0.2-1.4-0.5
		c-0.4-0.3-0.5-0.7-0.5-1.2c0-0.6,0.2-1,0.7-1.4c0.4-0.3,1.1-0.5,1.9-0.5h0.8v-0.4c0-0.3-0.1-0.5-0.2-0.7s-0.4-0.3-0.7-0.3
		c-0.3,0-0.5,0.1-0.7,0.2s-0.3,0.3-0.3,0.5h-1.2c0-0.3,0.1-0.6,0.3-0.9s0.5-0.5,0.8-0.6s0.7-0.2,1.2-0.2c0.6,0,1.2,0.2,1.6,0.5
		s0.6,0.8,0.6,1.4v2.5c0,0.5,0.1,0.9,0.2,1.2v0.1H165.2z M163.8,76.6c0.2,0,0.5-0.1,0.7-0.2c0.2-0.1,0.4-0.3,0.5-0.5v-1h-0.7
		c-0.5,0-0.8,0.1-1,0.2c-0.2,0.2-0.3,0.4-0.3,0.7c0,0.2,0.1,0.4,0.2,0.6S163.5,76.6,163.8,76.6z"/>
	<path fill="#808184" d="M170.6,76c0-0.2-0.1-0.4-0.3-0.5c-0.2-0.1-0.5-0.2-0.9-0.3s-0.8-0.2-1.1-0.3c-0.6-0.3-0.9-0.7-0.9-1.3
		c0-0.5,0.2-0.9,0.6-1.2c0.4-0.3,0.9-0.5,1.5-0.5c0.7,0,1.2,0.2,1.6,0.5c0.4,0.3,0.6,0.8,0.6,1.3h-1.2c0-0.2-0.1-0.4-0.3-0.6
		c-0.2-0.2-0.4-0.2-0.7-0.2c-0.3,0-0.5,0.1-0.7,0.2c-0.2,0.1-0.3,0.3-0.3,0.5c0,0.2,0.1,0.3,0.2,0.4c0.2,0.1,0.5,0.2,1,0.3
		c0.5,0.1,0.9,0.2,1.2,0.4c0.3,0.1,0.5,0.3,0.6,0.5c0.1,0.2,0.2,0.5,0.2,0.8c0,0.5-0.2,0.9-0.6,1.2c-0.4,0.3-1,0.5-1.6,0.5
		c-0.5,0-0.9-0.1-1.2-0.2c-0.4-0.2-0.6-0.4-0.8-0.7c-0.2-0.3-0.3-0.6-0.3-0.9h1.2c0,0.3,0.1,0.5,0.3,0.7c0.2,0.2,0.5,0.2,0.8,0.2
		c0.3,0,0.6-0.1,0.7-0.2C170.5,76.4,170.6,76.2,170.6,76z"/>
	<path fill="#808184" d="M175.2,77.6c-0.8,0-1.4-0.2-1.9-0.7c-0.5-0.5-0.7-1.2-0.7-2v-0.2c0-0.6,0.1-1,0.3-1.5
		c0.2-0.4,0.5-0.8,0.9-1s0.8-0.4,1.3-0.4c0.8,0,1.3,0.2,1.8,0.7c0.4,0.5,0.6,1.2,0.6,2v0.5h-3.6c0,0.5,0.2,0.8,0.5,1.1
		c0.3,0.3,0.6,0.4,1,0.4c0.6,0,1-0.2,1.4-0.7l0.7,0.6c-0.2,0.3-0.5,0.6-0.9,0.8C176.1,77.5,175.7,77.6,175.2,77.6z M175.1,72.9
		c-0.3,0-0.6,0.1-0.8,0.4c-0.2,0.2-0.3,0.6-0.4,1h2.4v-0.1c0-0.4-0.1-0.7-0.3-0.9C175.7,73,175.4,72.9,175.1,72.9z"/>
	<path fill="#808184" d="M181.4,78.2h-1l2.9-8.1h1L181.4,78.2z"/>
	<path fill="#808184" d="M193.9,77.5h-1.3v-3.3h-3.3v3.3h-1.3v-7.5h1.3v3.1h3.3v-3.1h1.3V77.5z"/>
	<path fill="#808184" d="M197.2,75.8l1.1-3.8h1.3l-2.2,6.4c-0.3,0.9-0.9,1.4-1.7,1.4c-0.2,0-0.4,0-0.6-0.1v-1l0.2,0
		c0.3,0,0.6-0.1,0.7-0.2c0.2-0.1,0.3-0.3,0.4-0.6l0.2-0.5l-1.9-5.5h1.3L197.2,75.8z"/>
	<path fill="#808184" d="M205.3,74.8c0,0.9-0.2,1.5-0.6,2.1c-0.4,0.5-0.9,0.8-1.6,0.8c-0.6,0-1.1-0.2-1.5-0.6v2.6h-1.2V72h1.1
		l0.1,0.6c0.4-0.4,0.9-0.7,1.5-0.7c0.7,0,1.2,0.3,1.6,0.8C205.1,73.1,205.3,73.8,205.3,74.8L205.3,74.8z M204,74.7
		c0-0.6-0.1-1-0.3-1.3s-0.5-0.5-0.9-0.5c-0.5,0-0.9,0.2-1.1,0.6V76c0.2,0.4,0.6,0.6,1.1,0.6c0.4,0,0.7-0.2,0.9-0.5
		C203.9,75.8,204,75.4,204,74.7z"/>
	<path fill="#808184" d="M208.7,77.6c-0.8,0-1.4-0.2-1.9-0.7s-0.7-1.2-0.7-2v-0.2c0-0.6,0.1-1,0.3-1.5c0.2-0.4,0.5-0.8,0.9-1
		s0.8-0.4,1.3-0.4c0.8,0,1.3,0.2,1.8,0.7c0.4,0.5,0.6,1.2,0.6,2v0.5h-3.6c0,0.5,0.2,0.8,0.5,1.1c0.3,0.3,0.6,0.4,1,0.4
		c0.6,0,1-0.2,1.4-0.7l0.7,0.6c-0.2,0.3-0.5,0.6-0.9,0.8S209.2,77.6,208.7,77.6z M208.6,72.9c-0.3,0-0.6,0.1-0.8,0.4
		c-0.2,0.2-0.3,0.6-0.4,1h2.4v-0.1c0-0.4-0.1-0.7-0.3-0.9S208.9,72.9,208.6,72.9z"/>
	<path fill="#808184" d="M214.9,73.1c-0.2,0-0.3,0-0.5,0c-0.6,0-1,0.2-1.2,0.7v3.8H212V72h1.2l0,0.6c0.3-0.5,0.7-0.7,1.3-0.7
		c0.2,0,0.3,0,0.4,0.1L214.9,73.1z"/>
	<path fill="#808184" d="M217.5,70.6V72h1v0.9h-1V76c0,0.2,0,0.4,0.1,0.5c0.1,0.1,0.2,0.1,0.4,0.1c0.1,0,0.3,0,0.4-0.1v1
		c-0.3,0.1-0.6,0.1-0.8,0.1c-1,0-1.4-0.5-1.4-1.6v-3.1h-0.9V72h0.9v-1.3H217.5z"/>
	<path fill="#808184" d="M221.7,77.6c-0.8,0-1.4-0.2-1.9-0.7s-0.7-1.2-0.7-2v-0.2c0-0.6,0.1-1,0.3-1.5c0.2-0.4,0.5-0.8,0.9-1
		s0.8-0.4,1.3-0.4c0.8,0,1.3,0.2,1.8,0.7c0.4,0.5,0.6,1.2,0.6,2v0.5h-3.6c0,0.5,0.2,0.8,0.5,1.1c0.3,0.3,0.6,0.4,1,0.4
		c0.6,0,1-0.2,1.4-0.7l0.7,0.6c-0.2,0.3-0.5,0.6-0.9,0.8S222.2,77.6,221.7,77.6z M221.6,72.9c-0.3,0-0.6,0.1-0.8,0.4
		c-0.2,0.2-0.3,0.6-0.4,1h2.4v-0.1c0-0.4-0.1-0.7-0.3-0.9S221.9,72.9,221.6,72.9z"/>
	<path fill="#808184" d="M226.1,72l0,0.6c0.4-0.5,0.9-0.7,1.6-0.7c1.2,0,1.7,0.7,1.8,2v3.7h-1.2v-3.6c0-0.4-0.1-0.6-0.2-0.8
		c-0.2-0.2-0.4-0.3-0.7-0.3c-0.5,0-0.9,0.2-1.1,0.7v4h-1.2V72H226.1z"/>
	<path fill="#808184" d="M233.8,76c0-0.2-0.1-0.4-0.3-0.5c-0.2-0.1-0.5-0.2-0.9-0.3s-0.8-0.2-1.1-0.3c-0.6-0.3-0.9-0.7-0.9-1.3
		c0-0.5,0.2-0.9,0.6-1.2c0.4-0.3,0.9-0.5,1.5-0.5c0.7,0,1.2,0.2,1.6,0.5c0.4,0.3,0.6,0.8,0.6,1.3h-1.2c0-0.2-0.1-0.4-0.3-0.6
		c-0.2-0.2-0.4-0.2-0.7-0.2c-0.3,0-0.5,0.1-0.7,0.2c-0.2,0.1-0.3,0.3-0.3,0.5c0,0.2,0.1,0.3,0.2,0.4c0.2,0.1,0.5,0.2,1,0.3
		c0.5,0.1,0.9,0.2,1.2,0.4c0.3,0.1,0.5,0.3,0.6,0.5c0.1,0.2,0.2,0.5,0.2,0.8c0,0.5-0.2,0.9-0.6,1.2c-0.4,0.3-1,0.5-1.6,0.5
		c-0.5,0-0.9-0.1-1.2-0.2c-0.4-0.2-0.6-0.4-0.8-0.7c-0.2-0.3-0.3-0.6-0.3-0.9h1.2c0,0.3,0.1,0.5,0.3,0.7c0.2,0.2,0.5,0.2,0.8,0.2
		c0.3,0,0.6-0.1,0.7-0.2C233.7,76.4,233.8,76.2,233.8,76z"/>
	<path fill="#808184" d="M236.1,70.5c0-0.2,0.1-0.4,0.2-0.5c0.1-0.1,0.3-0.2,0.5-0.2c0.2,0,0.4,0.1,0.5,0.2c0.1,0.1,0.2,0.3,0.2,0.5
		c0,0.2-0.1,0.3-0.2,0.5c-0.1,0.1-0.3,0.2-0.5,0.2c-0.2,0-0.4-0.1-0.5-0.2C236.1,70.9,236.1,70.7,236.1,70.5z M237.4,77.5h-1.2V72
		h1.2V77.5z"/>
	<path fill="#808184" d="M238.4,74.7c0-0.5,0.1-1,0.3-1.5c0.2-0.4,0.5-0.8,0.9-1s0.8-0.4,1.3-0.4c0.7,0,1.4,0.2,1.8,0.7
		c0.5,0.5,0.7,1.1,0.8,1.9l0,0.3c0,0.5-0.1,1-0.3,1.5c-0.2,0.4-0.5,0.8-0.9,1c-0.4,0.2-0.8,0.4-1.4,0.4c-0.8,0-1.4-0.3-1.9-0.8
		C238.7,76.3,238.4,75.6,238.4,74.7L238.4,74.7z M239.7,74.8c0,0.6,0.1,1,0.4,1.3s0.6,0.5,1,0.5c0.4,0,0.7-0.2,1-0.5
		c0.2-0.3,0.4-0.8,0.4-1.4c0-0.6-0.1-1-0.4-1.3c-0.2-0.3-0.6-0.5-1-0.5c-0.4,0-0.7,0.2-1,0.5C239.8,73.7,239.7,74.2,239.7,74.8z"/>
	<path fill="#808184" d="M245.8,72l0,0.6c0.4-0.5,0.9-0.7,1.6-0.7c1.2,0,1.7,0.7,1.8,2v3.7H248v-3.6c0-0.4-0.1-0.6-0.2-0.8
		c-0.2-0.2-0.4-0.3-0.7-0.3c-0.5,0-0.9,0.2-1.1,0.7v4h-1.2V72H245.8z"/>
</g>
<g>
	<path fill="#1B75BB" d="M121.8,44.8c0,0.6-0.2,1.2-0.5,1.7c-0.3,0.5-0.7,0.9-1.3,1.2c0.6,0.3,1.1,0.7,1.5,1.3
		c0.4,0.5,0.5,1.2,0.5,1.9c0,1.2-0.4,2.1-1.2,2.8c-0.8,0.7-1.9,1-3.3,1c-1.4,0-2.5-0.3-3.4-1s-1.2-1.6-1.2-2.8
		c0-0.7,0.2-1.3,0.5-1.9c0.4-0.5,0.9-1,1.5-1.3c-0.6-0.3-1-0.7-1.3-1.2c-0.3-0.5-0.5-1-0.5-1.7c0-1.1,0.4-2,1.2-2.7s1.8-1,3.1-1
		c1.3,0,2.4,0.3,3.1,1S121.8,43.7,121.8,44.8z M119,50.6c0-0.5-0.1-1-0.4-1.2c-0.3-0.3-0.6-0.4-1.1-0.4s-0.8,0.1-1.1,0.4
		c-0.3,0.3-0.4,0.7-0.4,1.2c0,0.5,0.1,0.9,0.4,1.2c0.3,0.3,0.7,0.5,1.1,0.5c0.4,0,0.8-0.1,1.1-0.4C118.9,51.5,119,51.1,119,50.6z
		 M117.5,43.5c-0.4,0-0.7,0.1-0.9,0.4c-0.2,0.3-0.3,0.6-0.3,1.1c0,0.5,0.1,0.8,0.3,1.1c0.2,0.3,0.5,0.4,1,0.4c0.4,0,0.7-0.1,0.9-0.4
		c0.2-0.3,0.3-0.7,0.3-1.1s-0.1-0.8-0.3-1.1C118.2,43.6,117.9,43.5,117.5,43.5z"/>
	<path fill="#1B75BB" d="M123.5,48l0.8-6.7h7.6v2.4h-5.2l-0.3,2.6c0.2-0.1,0.5-0.2,0.8-0.3c0.3-0.1,0.7-0.1,1-0.1
		c1.3,0,2.3,0.4,3,1.2c0.7,0.8,1,1.8,1,3.2c0,0.8-0.2,1.6-0.6,2.3c-0.4,0.7-0.9,1.2-1.6,1.6s-1.5,0.5-2.4,0.5
		c-0.8,0-1.6-0.2-2.3-0.5c-0.7-0.3-1.3-0.8-1.7-1.4c-0.4-0.6-0.6-1.3-0.6-2h3c0,0.5,0.2,0.9,0.5,1.1c0.3,0.3,0.6,0.4,1.1,0.4
		c1,0,1.5-0.8,1.5-2.3c0-1.4-0.6-2.1-1.9-2.1c-0.7,0-1.2,0.2-1.6,0.7L123.5,48z"/>
	<path fill="#1B75BB" d="M133.9,48l0.8-6.7h7.6v2.4h-5.2l-0.3,2.6c0.2-0.1,0.5-0.2,0.8-0.3c0.3-0.1,0.7-0.1,1-0.1
		c1.3,0,2.3,0.4,3,1.2c0.7,0.8,1,1.8,1,3.2c0,0.8-0.2,1.6-0.6,2.3c-0.4,0.7-0.9,1.2-1.6,1.6c-0.7,0.4-1.5,0.5-2.4,0.5
		c-0.8,0-1.6-0.2-2.3-0.5c-0.7-0.3-1.3-0.8-1.7-1.4c-0.4-0.6-0.6-1.3-0.6-2h3c0,0.5,0.2,0.9,0.5,1.1c0.3,0.3,0.6,0.4,1.1,0.4
		c1,0,1.5-0.8,1.5-2.3c0-1.4-0.6-2.1-1.9-2.1c-0.7,0-1.2,0.2-1.6,0.7L133.9,48z"/>
</g>
<g>
	<path fill="#808184" d="M83.3,487.1h-2.9l-0.6,1.7h-1.3l2.8-7.5h1.2l2.8,7.5h-1.4L83.3,487.1z M80.8,486H83l-1.1-3.1L80.8,486z"/>
	<path fill="#808184" d="M87.4,488.8h-1.2v-7.9h1.2V488.8z"/>
	<path fill="#808184" d="M90,488.8h-1.2v-7.9H90V488.8z"/>
	<path fill="#808184" d="M93.7,486c0-0.5,0.1-1,0.3-1.5c0.2-0.4,0.5-0.8,0.9-1c0.4-0.2,0.8-0.4,1.3-0.4c0.7,0,1.4,0.2,1.8,0.7
		s0.7,1.1,0.8,1.9l0,0.3c0,0.5-0.1,1-0.3,1.5c-0.2,0.4-0.5,0.8-0.9,1c-0.4,0.2-0.8,0.4-1.4,0.4c-0.8,0-1.4-0.3-1.9-0.8
		C93.9,487.6,93.7,486.9,93.7,486L93.7,486z M94.9,486.1c0,0.6,0.1,1,0.4,1.3s0.6,0.5,1,0.5c0.4,0,0.7-0.2,1-0.5
		c0.2-0.3,0.4-0.8,0.4-1.4c0-0.6-0.1-1-0.4-1.3c-0.2-0.3-0.6-0.5-1-0.5c-0.4,0-0.7,0.2-1,0.5C95.1,485,94.9,485.5,94.9,486.1z"/>
	<path fill="#808184" d="M101.4,481.9v1.3h1v0.9h-1v3.1c0,0.2,0,0.4,0.1,0.5s0.2,0.1,0.4,0.1c0.1,0,0.3,0,0.4-0.1v1
		c-0.3,0.1-0.6,0.1-0.8,0.1c-1,0-1.4-0.5-1.4-1.6v-3.1h-0.9v-0.9h0.9v-1.3H101.4z"/>
	<path fill="#808184" d="M104.5,483.9c0.4-0.5,0.9-0.7,1.5-0.7c1.2,0,1.8,0.7,1.8,2v3.6h-1.2v-3.6c0-0.4-0.1-0.7-0.2-0.8
		s-0.4-0.2-0.7-0.2c-0.5,0-0.9,0.2-1.1,0.7v4h-1.2v-7.9h1.2V483.9z"/>
	<path fill="#808184" d="M111.5,488.9c-0.8,0-1.4-0.2-1.9-0.7c-0.5-0.5-0.7-1.2-0.7-2V486c0-0.6,0.1-1,0.3-1.5s0.5-0.8,0.9-1
		s0.8-0.4,1.3-0.4c0.8,0,1.3,0.2,1.8,0.7c0.4,0.5,0.6,1.2,0.6,2v0.5h-3.6c0,0.5,0.2,0.8,0.5,1.1c0.3,0.3,0.6,0.4,1,0.4
		c0.6,0,1-0.2,1.4-0.7l0.7,0.6c-0.2,0.3-0.5,0.6-0.9,0.8C112.4,488.8,112,488.9,111.5,488.9z M111.4,484.2c-0.3,0-0.6,0.1-0.8,0.4
		c-0.2,0.2-0.3,0.6-0.4,1h2.4v-0.1c0-0.4-0.1-0.7-0.3-0.9C112,484.3,111.7,484.2,111.4,484.2z"/>
	<path fill="#808184" d="M117.6,484.4c-0.2,0-0.3,0-0.5,0c-0.6,0-1,0.2-1.2,0.7v3.8h-1.2v-5.6h1.2l0,0.6c0.3-0.5,0.7-0.7,1.3-0.7
		c0.2,0,0.3,0,0.4,0.1L117.6,484.4z"/>
	<path fill="#808184" d="M124.2,487.3c0-0.2-0.1-0.4-0.3-0.5c-0.2-0.1-0.5-0.2-0.9-0.3c-0.4-0.1-0.8-0.2-1.1-0.3
		c-0.6-0.3-0.9-0.7-0.9-1.3c0-0.5,0.2-0.9,0.6-1.2c0.4-0.3,0.9-0.5,1.5-0.5c0.7,0,1.2,0.2,1.6,0.5c0.4,0.3,0.6,0.8,0.6,1.3h-1.2
		c0-0.2-0.1-0.4-0.3-0.6c-0.2-0.2-0.4-0.2-0.7-0.2c-0.3,0-0.5,0.1-0.7,0.2s-0.3,0.3-0.3,0.5c0,0.2,0.1,0.3,0.2,0.4
		c0.2,0.1,0.5,0.2,1,0.3c0.5,0.1,0.9,0.2,1.2,0.4c0.3,0.1,0.5,0.3,0.6,0.5s0.2,0.5,0.2,0.8c0,0.5-0.2,0.9-0.6,1.2
		c-0.4,0.3-1,0.5-1.6,0.5c-0.5,0-0.9-0.1-1.2-0.2s-0.6-0.4-0.8-0.7c-0.2-0.3-0.3-0.6-0.3-0.9h1.2c0,0.3,0.1,0.5,0.3,0.7
		s0.5,0.2,0.8,0.2c0.3,0,0.6-0.1,0.7-0.2S124.2,487.5,124.2,487.3z"/>
	<path fill="#808184" d="M127.6,483.3l0,0.6c0.4-0.5,0.9-0.7,1.6-0.7c0.7,0,1.3,0.3,1.5,0.9c0.4-0.6,1-0.9,1.7-0.9
		c0.6,0,1.1,0.2,1.4,0.5c0.3,0.3,0.5,0.8,0.5,1.5v3.6h-1.2v-3.6c0-0.4-0.1-0.6-0.2-0.8c-0.2-0.2-0.4-0.2-0.8-0.2
		c-0.3,0-0.5,0.1-0.7,0.2s-0.3,0.4-0.4,0.6l0,3.8h-1.2v-3.7c0-0.7-0.4-1-1-1c-0.5,0-0.9,0.2-1.1,0.6v4h-1.2v-5.6H127.6z"/>
	<path fill="#808184" d="M135.3,486c0-0.5,0.1-1,0.3-1.5c0.2-0.4,0.5-0.8,0.9-1c0.4-0.2,0.8-0.4,1.3-0.4c0.7,0,1.4,0.2,1.8,0.7
		s0.7,1.1,0.8,1.9l0,0.3c0,0.5-0.1,1-0.3,1.5c-0.2,0.4-0.5,0.8-0.9,1c-0.4,0.2-0.8,0.4-1.4,0.4c-0.8,0-1.4-0.3-1.9-0.8
		C135.6,487.6,135.3,486.9,135.3,486L135.3,486z M136.6,486.1c0,0.6,0.1,1,0.4,1.3c0.2,0.3,0.6,0.5,1,0.5s0.7-0.2,1-0.5
		c0.2-0.3,0.4-0.8,0.4-1.4c0-0.6-0.1-1-0.4-1.3s-0.6-0.5-1-0.5c-0.4,0-0.7,0.2-1,0.5C136.7,485,136.6,485.5,136.6,486.1z"/>
	<path fill="#808184" d="M143.3,486.4l-0.6,0.6v1.8h-1.2v-7.9h1.2v4.5l0.4-0.5l1.5-1.7h1.5l-2.1,2.3l2.3,3.2H145L143.3,486.4z"/>
	<path fill="#808184" d="M147,481.8c0-0.2,0.1-0.4,0.2-0.5s0.3-0.2,0.5-0.2s0.4,0.1,0.5,0.2s0.2,0.3,0.2,0.5c0,0.2-0.1,0.3-0.2,0.5
		s-0.3,0.2-0.5,0.2s-0.4-0.1-0.5-0.2S147,482,147,481.8z M148.4,488.8h-1.2v-5.6h1.2V488.8z"/>
	<path fill="#808184" d="M150.8,483.3l0,0.6c0.4-0.5,0.9-0.7,1.6-0.7c1.2,0,1.7,0.7,1.8,2v3.7H153v-3.6c0-0.4-0.1-0.6-0.2-0.8
		c-0.2-0.2-0.4-0.3-0.7-0.3c-0.5,0-0.9,0.2-1.1,0.7v4h-1.2v-5.6H150.8z"/>
	<path fill="#808184" d="M155.3,486c0-0.9,0.2-1.6,0.6-2.1s0.9-0.8,1.6-0.8c0.6,0,1.1,0.2,1.5,0.7l0.1-0.6h1.1v5.4
		c0,0.7-0.2,1.3-0.7,1.7c-0.5,0.4-1.1,0.6-1.8,0.6c-0.4,0-0.8-0.1-1.2-0.3s-0.7-0.4-0.9-0.7l0.6-0.7c0.4,0.5,0.9,0.7,1.4,0.7
		c0.4,0,0.7-0.1,1-0.3c0.2-0.2,0.4-0.6,0.4-1v-0.4c-0.4,0.4-0.8,0.6-1.4,0.6c-0.6,0-1.2-0.3-1.6-0.8
		C155.5,487.6,155.3,486.9,155.3,486z M156.5,486.1c0,0.6,0.1,1,0.3,1.3c0.2,0.3,0.5,0.5,0.9,0.5c0.5,0,0.9-0.2,1.1-0.6v-2.4
		c-0.2-0.4-0.6-0.6-1.1-0.6c-0.4,0-0.7,0.2-1,0.5C156.6,485,156.5,485.5,156.5,486.1z"/>
	<path fill="#808184" d="M164,486.2h-2.7v-1h2.7V486.2z"/>
	<path fill="#808184" d="M168,484.4c-0.2,0-0.3,0-0.5,0c-0.6,0-1,0.2-1.2,0.7v3.8h-1.2v-5.6h1.2l0,0.6c0.3-0.5,0.7-0.7,1.3-0.7
		c0.2,0,0.3,0,0.4,0.1L168,484.4z"/>
	<path fill="#808184" d="M171.2,488.9c-0.8,0-1.4-0.2-1.9-0.7c-0.5-0.5-0.7-1.2-0.7-2V486c0-0.6,0.1-1,0.3-1.5
		c0.2-0.4,0.5-0.8,0.9-1c0.4-0.2,0.8-0.4,1.3-0.4c0.8,0,1.3,0.2,1.8,0.7c0.4,0.5,0.6,1.2,0.6,2v0.5h-3.6c0,0.5,0.2,0.8,0.5,1.1
		c0.3,0.3,0.6,0.4,1,0.4c0.6,0,1-0.2,1.4-0.7l0.7,0.6c-0.2,0.3-0.5,0.6-0.9,0.8C172,488.8,171.6,488.9,171.2,488.9z M171,484.2
		c-0.3,0-0.6,0.1-0.8,0.4c-0.2,0.2-0.3,0.6-0.4,1h2.4v-0.1c0-0.4-0.1-0.7-0.3-0.9C171.6,484.3,171.4,484.2,171,484.2z"/>
	<path fill="#808184" d="M175.7,488.8h-1.2v-7.9h1.2V488.8z"/>
	<path fill="#808184" d="M180.3,488.8c-0.1-0.1-0.1-0.3-0.1-0.5c-0.4,0.4-0.9,0.6-1.5,0.6c-0.6,0-1-0.2-1.4-0.5
		c-0.4-0.3-0.5-0.7-0.5-1.2c0-0.6,0.2-1,0.7-1.4c0.4-0.3,1.1-0.5,1.9-0.5h0.8v-0.4c0-0.3-0.1-0.5-0.2-0.7c-0.2-0.2-0.4-0.3-0.7-0.3
		c-0.3,0-0.5,0.1-0.7,0.2c-0.2,0.1-0.3,0.3-0.3,0.5h-1.2c0-0.3,0.1-0.6,0.3-0.9c0.2-0.3,0.5-0.5,0.8-0.6c0.3-0.2,0.7-0.2,1.2-0.2
		c0.6,0,1.2,0.2,1.6,0.5s0.6,0.8,0.6,1.4v2.5c0,0.5,0.1,0.9,0.2,1.2v0.1H180.3z M178.9,487.9c0.2,0,0.5-0.1,0.7-0.2s0.4-0.3,0.5-0.5
		v-1h-0.7c-0.5,0-0.8,0.1-1,0.2c-0.2,0.2-0.3,0.4-0.3,0.7c0,0.2,0.1,0.4,0.2,0.6C178.4,487.9,178.6,487.9,178.9,487.9z"/>
	<path fill="#808184" d="M184.1,481.9v1.3h1v0.9h-1v3.1c0,0.2,0,0.4,0.1,0.5s0.2,0.1,0.4,0.1c0.1,0,0.3,0,0.4-0.1v1
		c-0.3,0.1-0.6,0.1-0.8,0.1c-1,0-1.4-0.5-1.4-1.6v-3.1H182v-0.9h0.9v-1.3H184.1z"/>
	<path fill="#808184" d="M188.4,488.9c-0.8,0-1.4-0.2-1.9-0.7c-0.5-0.5-0.7-1.2-0.7-2V486c0-0.6,0.1-1,0.3-1.5s0.5-0.8,0.9-1
		s0.8-0.4,1.3-0.4c0.8,0,1.3,0.2,1.8,0.7c0.4,0.5,0.6,1.2,0.6,2v0.5H187c0,0.5,0.2,0.8,0.5,1.1c0.3,0.3,0.6,0.4,1,0.4
		c0.6,0,1-0.2,1.4-0.7l0.7,0.6c-0.2,0.3-0.5,0.6-0.9,0.8C189.2,488.8,188.8,488.9,188.4,488.9z M188.2,484.2c-0.3,0-0.6,0.1-0.8,0.4
		c-0.2,0.2-0.3,0.6-0.4,1h2.4v-0.1c0-0.4-0.1-0.7-0.3-0.9C188.8,484.3,188.6,484.2,188.2,484.2z"/>
	<path fill="#808184" d="M191.3,486c0-0.9,0.2-1.5,0.6-2.1c0.4-0.5,0.9-0.8,1.6-0.8c0.6,0,1.1,0.2,1.4,0.6v-2.8h1.2v7.9h-1.1
		l-0.1-0.6c-0.4,0.5-0.9,0.7-1.5,0.7c-0.6,0-1.2-0.3-1.6-0.8C191.6,487.6,191.3,486.9,191.3,486z M192.6,486.1c0,0.6,0.1,1,0.3,1.3
		c0.2,0.3,0.5,0.5,0.9,0.5c0.5,0,0.9-0.2,1.1-0.7v-2.4c-0.2-0.4-0.6-0.7-1.1-0.7c-0.4,0-0.7,0.2-0.9,0.5S192.6,485.5,192.6,486.1z"
		/>
	<path fill="#808184" d="M199.9,486c0-0.9,0.2-1.5,0.6-2.1c0.4-0.5,0.9-0.8,1.6-0.8c0.6,0,1.1,0.2,1.4,0.6v-2.8h1.2v7.9h-1.1
		l-0.1-0.6c-0.4,0.5-0.9,0.7-1.5,0.7c-0.6,0-1.2-0.3-1.6-0.8C200.1,487.6,199.9,486.9,199.9,486z M201.1,486.1c0,0.6,0.1,1,0.3,1.3
		c0.2,0.3,0.5,0.5,0.9,0.5c0.5,0,0.9-0.2,1.1-0.7v-2.4c-0.2-0.4-0.6-0.7-1.1-0.7c-0.4,0-0.7,0.2-0.9,0.5
		C201.3,485,201.1,485.5,201.1,486.1z"/>
	<path fill="#808184" d="M206,481.8c0-0.2,0.1-0.4,0.2-0.5s0.3-0.2,0.5-0.2s0.4,0.1,0.5,0.2s0.2,0.3,0.2,0.5c0,0.2-0.1,0.3-0.2,0.5
		s-0.3,0.2-0.5,0.2s-0.4-0.1-0.5-0.2S206,482,206,481.8z M207.3,488.8h-1.2v-5.6h1.2V488.8z"/>
	<path fill="#808184" d="M211.7,487.3c0-0.2-0.1-0.4-0.3-0.5c-0.2-0.1-0.5-0.2-0.9-0.3s-0.8-0.2-1.1-0.3c-0.6-0.3-0.9-0.7-0.9-1.3
		c0-0.5,0.2-0.9,0.6-1.2s0.9-0.5,1.5-0.5c0.7,0,1.2,0.2,1.6,0.5s0.6,0.8,0.6,1.3h-1.2c0-0.2-0.1-0.4-0.3-0.6s-0.4-0.2-0.7-0.2
		c-0.3,0-0.5,0.1-0.7,0.2c-0.2,0.1-0.3,0.3-0.3,0.5c0,0.2,0.1,0.3,0.2,0.4c0.2,0.1,0.5,0.2,1,0.3s0.9,0.2,1.2,0.4
		c0.3,0.1,0.5,0.3,0.6,0.5c0.1,0.2,0.2,0.5,0.2,0.8c0,0.5-0.2,0.9-0.6,1.2c-0.4,0.3-1,0.5-1.6,0.5c-0.5,0-0.9-0.1-1.2-0.2
		s-0.6-0.4-0.8-0.7s-0.3-0.6-0.3-0.9h1.2c0,0.3,0.1,0.5,0.3,0.7c0.2,0.2,0.5,0.2,0.8,0.2c0.3,0,0.6-0.1,0.7-0.2
		C211.6,487.7,211.7,487.5,211.7,487.3z"/>
	<path fill="#808184" d="M216.4,488.9c-0.8,0-1.4-0.2-1.9-0.7c-0.5-0.5-0.7-1.2-0.7-2V486c0-0.6,0.1-1,0.3-1.5
		c0.2-0.4,0.5-0.8,0.9-1s0.8-0.4,1.3-0.4c0.8,0,1.3,0.2,1.8,0.7s0.6,1.2,0.6,2v0.5H215c0,0.5,0.2,0.8,0.5,1.1c0.3,0.3,0.6,0.4,1,0.4
		c0.6,0,1-0.2,1.4-0.7l0.7,0.6c-0.2,0.3-0.5,0.6-0.9,0.8C217.2,488.8,216.8,488.9,216.4,488.9z M216.2,484.2c-0.3,0-0.6,0.1-0.8,0.4
		c-0.2,0.2-0.3,0.6-0.4,1h2.4v-0.1c0-0.4-0.1-0.7-0.3-0.9C216.8,484.3,216.6,484.2,216.2,484.2z"/>
	<path fill="#808184" d="M222.8,488.8c-0.1-0.1-0.1-0.3-0.1-0.5c-0.4,0.4-0.9,0.6-1.5,0.6c-0.6,0-1-0.2-1.4-0.5
		c-0.4-0.3-0.5-0.7-0.5-1.2c0-0.6,0.2-1,0.7-1.4c0.4-0.3,1.1-0.5,1.9-0.5h0.8v-0.4c0-0.3-0.1-0.5-0.2-0.7s-0.4-0.3-0.7-0.3
		c-0.3,0-0.5,0.1-0.7,0.2c-0.2,0.1-0.3,0.3-0.3,0.5h-1.2c0-0.3,0.1-0.6,0.3-0.9c0.2-0.3,0.5-0.5,0.8-0.6c0.3-0.2,0.7-0.2,1.2-0.2
		c0.6,0,1.2,0.2,1.6,0.5s0.6,0.8,0.6,1.4v2.5c0,0.5,0.1,0.9,0.2,1.2v0.1H222.8z M221.4,487.9c0.2,0,0.5-0.1,0.7-0.2
		c0.2-0.1,0.4-0.3,0.5-0.5v-1h-0.7c-0.5,0-0.8,0.1-1,0.2c-0.2,0.2-0.3,0.4-0.3,0.7c0,0.2,0.1,0.4,0.2,0.6
		C221,487.9,221.2,487.9,221.4,487.9z"/>
	<path fill="#808184" d="M228.2,487.3c0-0.2-0.1-0.4-0.3-0.5c-0.2-0.1-0.5-0.2-0.9-0.3s-0.8-0.2-1.1-0.3c-0.6-0.3-0.9-0.7-0.9-1.3
		c0-0.5,0.2-0.9,0.6-1.2s0.9-0.5,1.5-0.5c0.7,0,1.2,0.2,1.6,0.5s0.6,0.8,0.6,1.3h-1.2c0-0.2-0.1-0.4-0.3-0.6
		c-0.2-0.2-0.4-0.2-0.7-0.2c-0.3,0-0.5,0.1-0.7,0.2c-0.2,0.1-0.3,0.3-0.3,0.5c0,0.2,0.1,0.3,0.2,0.4c0.2,0.1,0.5,0.2,1,0.3
		s0.9,0.2,1.2,0.4c0.3,0.1,0.5,0.3,0.6,0.5s0.2,0.5,0.2,0.8c0,0.5-0.2,0.9-0.6,1.2c-0.4,0.3-1,0.5-1.6,0.5c-0.5,0-0.9-0.1-1.2-0.2
		c-0.4-0.2-0.6-0.4-0.8-0.7c-0.2-0.3-0.3-0.6-0.3-0.9h1.2c0,0.3,0.1,0.5,0.3,0.7s0.5,0.2,0.8,0.2c0.3,0,0.6-0.1,0.7-0.2
		S228.2,487.5,228.2,487.3z"/>
	<path fill="#808184" d="M232.9,488.9c-0.8,0-1.4-0.2-1.9-0.7c-0.5-0.5-0.7-1.2-0.7-2V486c0-0.6,0.1-1,0.3-1.5
		c0.2-0.4,0.5-0.8,0.9-1s0.8-0.4,1.3-0.4c0.8,0,1.3,0.2,1.8,0.7c0.4,0.5,0.6,1.2,0.6,2v0.5h-3.6c0,0.5,0.2,0.8,0.5,1.1
		c0.3,0.3,0.6,0.4,1,0.4c0.6,0,1-0.2,1.4-0.7l0.7,0.6c-0.2,0.3-0.5,0.6-0.9,0.8C233.7,488.8,233.3,488.9,232.9,488.9z M232.7,484.2
		c-0.3,0-0.6,0.1-0.8,0.4c-0.2,0.2-0.3,0.6-0.4,1h2.4v-0.1c0-0.4-0.1-0.7-0.3-0.9C233.3,484.3,233,484.2,232.7,484.2z"/>
	<path fill="#808184" d="M239.1,487.3c0-0.2-0.1-0.4-0.3-0.5c-0.2-0.1-0.5-0.2-0.9-0.3c-0.4-0.1-0.8-0.2-1.1-0.3
		c-0.6-0.3-0.9-0.7-0.9-1.3c0-0.5,0.2-0.9,0.6-1.2s0.9-0.5,1.5-0.5c0.7,0,1.2,0.2,1.6,0.5s0.6,0.8,0.6,1.3H239
		c0-0.2-0.1-0.4-0.3-0.6c-0.2-0.2-0.4-0.2-0.7-0.2c-0.3,0-0.5,0.1-0.7,0.2c-0.2,0.1-0.3,0.3-0.3,0.5c0,0.2,0.1,0.3,0.2,0.4
		c0.2,0.1,0.5,0.2,1,0.3s0.9,0.2,1.2,0.4c0.3,0.1,0.5,0.3,0.6,0.5c0.1,0.2,0.2,0.5,0.2,0.8c0,0.5-0.2,0.9-0.6,1.2
		c-0.4,0.3-1,0.5-1.6,0.5c-0.5,0-0.9-0.1-1.2-0.2c-0.4-0.2-0.6-0.4-0.8-0.7c-0.2-0.3-0.3-0.6-0.3-0.9h1.2c0,0.3,0.1,0.5,0.3,0.7
		s0.5,0.2,0.8,0.2c0.3,0,0.6-0.1,0.7-0.2C239,487.7,239.1,487.5,239.1,487.3z"/>
</g>
<g>
	<path fill="#2FBFD1" d="M84.5,459h1.2c1,0,1.5-0.5,1.5-1.4c0-0.4-0.1-0.7-0.3-0.9s-0.6-0.4-1-0.4c-0.3,0-0.6,0.1-0.9,0.3
		s-0.4,0.4-0.4,0.7H82c0-0.6,0.2-1.1,0.5-1.6c0.3-0.5,0.8-0.8,1.4-1.1c0.6-0.3,1.2-0.4,1.9-0.4c1.2,0,2.2,0.3,2.9,0.9
		s1.1,1.4,1.1,2.3c0,0.5-0.1,0.9-0.4,1.4c-0.3,0.4-0.7,0.8-1.3,1c0.6,0.2,1.1,0.5,1.4,1c0.3,0.4,0.5,1,0.5,1.6c0,1-0.4,1.8-1.2,2.4
		c-0.8,0.6-1.8,0.9-3,0.9c-0.7,0-1.4-0.1-2-0.4c-0.6-0.3-1.1-0.7-1.4-1.2s-0.5-1.1-0.5-1.7h2.6c0,0.3,0.1,0.6,0.4,0.9
		c0.3,0.3,0.6,0.4,1,0.4c0.5,0,0.8-0.1,1.1-0.4s0.4-0.6,0.4-1c0-0.6-0.1-1-0.4-1.2s-0.7-0.4-1.2-0.4h-1.3V459z"/>
	<path fill="#2FBFD1" d="M91.9,468.7l-1.3-0.6l0.3-0.5c0.4-0.7,0.5-1.3,0.6-1.9v-1.9h2.1l0,1.7c0,0.6-0.2,1.2-0.5,1.8
		C92.8,467.8,92.4,468.3,91.9,468.7z"/>
	<path fill="#2FBFD1" d="M95.2,460.2l0.7-5.7h6.5v2H98l-0.3,2.2c0.2-0.1,0.4-0.2,0.7-0.3c0.3-0.1,0.6-0.1,0.9-0.1c1.1,0,2,0.3,2.6,1
		s0.9,1.6,0.9,2.8c0,0.7-0.2,1.4-0.5,2c-0.3,0.6-0.8,1-1.4,1.3c-0.6,0.3-1.3,0.5-2.1,0.5c-0.7,0-1.4-0.1-2-0.4
		c-0.6-0.3-1.1-0.7-1.4-1.2c-0.3-0.5-0.5-1.1-0.5-1.7h2.6c0,0.4,0.2,0.7,0.4,1c0.2,0.2,0.5,0.4,0.9,0.4c0.9,0,1.3-0.6,1.3-1.9
		c0-1.2-0.5-1.8-1.6-1.8c-0.6,0-1.1,0.2-1.4,0.6L95.2,460.2z"/>
	<path fill="#2FBFD1" d="M110.2,454.3v2H110c-1,0-1.8,0.2-2.4,0.7c-0.6,0.5-1,1.1-1.2,1.9c0.6-0.6,1.3-0.9,2.2-0.9
		c1,0,1.7,0.4,2.3,1.1c0.6,0.7,0.9,1.6,0.9,2.8c0,0.7-0.2,1.4-0.5,2s-0.8,1.1-1.4,1.4c-0.6,0.3-1.3,0.5-2,0.5
		c-0.8,0-1.5-0.2-2.1-0.5c-0.6-0.4-1.1-0.9-1.5-1.6c-0.3-0.7-0.5-1.4-0.5-2.3v-1c0-1.2,0.2-2.2,0.7-3.1c0.5-0.9,1.2-1.6,2.1-2.2
		c0.9-0.5,1.9-0.8,3.1-0.8H110.2z M107.8,460.1c-0.3,0-0.6,0.1-0.9,0.2c-0.2,0.2-0.4,0.4-0.5,0.6v0.8c0,1.4,0.5,2.1,1.5,2.1
		c0.4,0,0.7-0.2,1-0.5c0.3-0.4,0.4-0.8,0.4-1.3c0-0.5-0.1-1-0.4-1.3C108.6,460.3,108.3,460.1,107.8,460.1z"/>
	<path fill="#2FBFD1" d="M119.9,461.3h1.1v2h-1.1v2.4h-2.6v-2.4h-4.3l-0.2-1.6l4.5-7.2v0h2.6V461.3z M115.3,461.3h2v-3.4l-0.2,0.3
		L115.3,461.3z"/>
</g>
<g>
	<path fill="#808184" d="M775.3,184c-0.1,0.8-0.4,1.4-0.9,1.9c-0.5,0.4-1.2,0.7-2,0.7c-0.6,0-1.1-0.1-1.6-0.4
		c-0.5-0.3-0.8-0.7-1-1.2c-0.2-0.5-0.4-1.1-0.4-1.8v-0.7c0-0.7,0.1-1.3,0.4-1.9s0.6-1,1.1-1.2s1-0.4,1.6-0.4c0.8,0,1.5,0.2,2,0.7
		c0.5,0.4,0.8,1.1,0.9,1.9H774c-0.1-0.5-0.2-0.9-0.5-1.2c-0.3-0.2-0.6-0.4-1.1-0.4c-0.6,0-1,0.2-1.3,0.6c-0.3,0.4-0.5,1-0.5,1.8v0.7
		c0,0.8,0.1,1.4,0.4,1.8c0.3,0.4,0.7,0.6,1.3,0.6c0.5,0,0.9-0.1,1.1-0.3c0.3-0.2,0.4-0.6,0.5-1.1H775.3z"/>
	<path fill="#808184" d="M779.6,186.5c-0.1-0.1-0.1-0.3-0.1-0.5c-0.4,0.4-0.9,0.6-1.5,0.6c-0.6,0-1-0.2-1.4-0.5
		c-0.4-0.3-0.5-0.7-0.5-1.2c0-0.6,0.2-1,0.7-1.4c0.4-0.3,1.1-0.5,1.9-0.5h0.8v-0.4c0-0.3-0.1-0.5-0.2-0.7c-0.2-0.2-0.4-0.3-0.7-0.3
		c-0.3,0-0.5,0.1-0.7,0.2s-0.3,0.3-0.3,0.5h-1.2c0-0.3,0.1-0.6,0.3-0.9c0.2-0.3,0.5-0.5,0.8-0.6c0.3-0.2,0.7-0.2,1.2-0.2
		c0.6,0,1.2,0.2,1.6,0.5c0.4,0.3,0.6,0.8,0.6,1.4v2.5c0,0.5,0.1,0.9,0.2,1.2v0.1H779.6z M778.2,185.6c0.2,0,0.5-0.1,0.7-0.2
		c0.2-0.1,0.4-0.3,0.5-0.5v-1h-0.7c-0.5,0-0.8,0.1-1,0.2c-0.2,0.2-0.3,0.4-0.3,0.7c0,0.2,0.1,0.4,0.2,0.6
		C777.8,185.5,778,185.6,778.2,185.6z"/>
	<path fill="#808184" d="M783.1,180.9l0,0.6c0.4-0.5,0.9-0.7,1.6-0.7c1.2,0,1.7,0.7,1.8,2v3.7h-1.2v-3.6c0-0.4-0.1-0.6-0.2-0.8
		c-0.2-0.2-0.4-0.3-0.7-0.3c-0.5,0-0.9,0.2-1.1,0.7v4h-1.2v-5.6H783.1z"/>
	<path fill="#808184" d="M790,185.6c0.3,0,0.6-0.1,0.8-0.3c0.2-0.2,0.3-0.4,0.3-0.7h1.2c0,0.3-0.1,0.7-0.3,1
		c-0.2,0.3-0.5,0.5-0.8,0.7c-0.3,0.2-0.7,0.3-1.1,0.3c-0.8,0-1.4-0.3-1.8-0.8c-0.5-0.5-0.7-1.2-0.7-2.1v-0.1c0-0.8,0.2-1.5,0.7-2
		c0.5-0.5,1.1-0.8,1.8-0.8c0.7,0,1.2,0.2,1.6,0.6s0.6,0.9,0.7,1.5h-1.2c0-0.3-0.1-0.6-0.3-0.8c-0.2-0.2-0.5-0.3-0.8-0.3
		c-0.4,0-0.7,0.1-0.9,0.4c-0.2,0.3-0.3,0.7-0.3,1.3v0.2c0,0.6,0.1,1.1,0.3,1.3C789.3,185.4,789.6,185.6,790,185.6z"/>
	<path fill="#808184" d="M795.7,186.6c-0.8,0-1.4-0.2-1.9-0.7c-0.5-0.5-0.7-1.2-0.7-2v-0.2c0-0.6,0.1-1,0.3-1.5
		c0.2-0.4,0.5-0.8,0.9-1c0.4-0.2,0.8-0.4,1.3-0.4c0.8,0,1.3,0.2,1.8,0.7c0.4,0.5,0.6,1.2,0.6,2v0.5h-3.6c0,0.5,0.2,0.8,0.5,1.1
		c0.3,0.3,0.6,0.4,1,0.4c0.6,0,1-0.2,1.4-0.7l0.7,0.6c-0.2,0.3-0.5,0.6-0.9,0.8C796.6,186.5,796.1,186.6,795.7,186.6z M795.5,181.8
		c-0.3,0-0.6,0.1-0.8,0.4c-0.2,0.2-0.3,0.6-0.4,1h2.4v-0.1c0-0.4-0.1-0.7-0.3-0.9C796.2,181.9,795.9,181.8,795.5,181.8z"/>
	<path fill="#808184" d="M801.8,182c-0.2,0-0.3,0-0.5,0c-0.6,0-1,0.2-1.2,0.7v3.8h-1.2v-5.6h1.2l0,0.6c0.3-0.5,0.7-0.7,1.3-0.7
		c0.2,0,0.3,0,0.4,0.1L801.8,182z"/>
	<path fill="#808184" d="M805.7,185c0-0.2-0.1-0.4-0.3-0.5s-0.5-0.2-0.9-0.3c-0.4-0.1-0.8-0.2-1.1-0.3c-0.6-0.3-0.9-0.7-0.9-1.3
		c0-0.5,0.2-0.9,0.6-1.2c0.4-0.3,0.9-0.5,1.5-0.5c0.7,0,1.2,0.2,1.6,0.5s0.6,0.8,0.6,1.3h-1.2c0-0.2-0.1-0.4-0.3-0.6
		c-0.2-0.2-0.4-0.2-0.7-0.2c-0.3,0-0.5,0.1-0.7,0.2s-0.3,0.3-0.3,0.5c0,0.2,0.1,0.3,0.2,0.4s0.5,0.2,1,0.3s0.9,0.2,1.2,0.4
		c0.3,0.1,0.5,0.3,0.6,0.5c0.1,0.2,0.2,0.5,0.2,0.8c0,0.5-0.2,0.9-0.6,1.2c-0.4,0.3-1,0.5-1.6,0.5c-0.5,0-0.9-0.1-1.2-0.2
		c-0.4-0.2-0.6-0.4-0.8-0.7c-0.2-0.3-0.3-0.6-0.3-0.9h1.2c0,0.3,0.1,0.5,0.3,0.7c0.2,0.2,0.5,0.2,0.8,0.2c0.3,0,0.6-0.1,0.7-0.2
		S805.7,185.2,805.7,185z"/>
	<path fill="#808184" d="M813,183.5c0,0.8-0.1,1.5-0.3,2.2c-0.2,0.7-0.5,1.3-0.9,1.9c-0.4,0.6-0.9,1-1.3,1.2l-0.2-0.7
		c0.5-0.4,0.9-1,1.2-1.8c0.3-0.8,0.4-1.7,0.4-2.8v-0.1c0-1-0.1-1.8-0.4-2.6c-0.3-0.8-0.6-1.4-1.1-1.9l-0.2-0.1l0.2-0.7
		c0.4,0.2,0.9,0.6,1.3,1.1c0.4,0.5,0.7,1.1,0.9,1.8s0.3,1.4,0.4,2.1L813,183.5z"/>
	<path fill="#808184" d="M814.4,186.5V179h2.2c0.7,0,1.2,0.1,1.8,0.4c0.5,0.3,0.9,0.7,1.2,1.3c0.3,0.5,0.4,1.2,0.4,1.9v0.4
		c0,0.7-0.1,1.3-0.4,1.9c-0.3,0.5-0.7,1-1.2,1.2c-0.5,0.3-1.1,0.4-1.8,0.4H814.4z M815.7,180v5.4h0.8c0.7,0,1.2-0.2,1.6-0.6
		c0.4-0.4,0.5-1,0.6-1.8v-0.4c0-0.8-0.2-1.4-0.5-1.9c-0.4-0.4-0.9-0.6-1.5-0.6H815.7z"/>
	<path fill="#808184" d="M821.1,179.5c0-0.2,0.1-0.4,0.2-0.5c0.1-0.1,0.3-0.2,0.5-0.2c0.2,0,0.4,0.1,0.5,0.2
		c0.1,0.1,0.2,0.3,0.2,0.5c0,0.2-0.1,0.3-0.2,0.5c-0.1,0.1-0.3,0.2-0.5,0.2c-0.2,0-0.4-0.1-0.5-0.2
		C821.2,179.8,821.1,179.7,821.1,179.5z M822.5,186.5h-1.2v-5.6h1.2V186.5z"/>
	<path fill="#808184" d="M823.5,183.6c0-0.9,0.2-1.6,0.6-2.1s0.9-0.8,1.6-0.8c0.6,0,1.1,0.2,1.5,0.7l0.1-0.6h1.1v5.4
		c0,0.7-0.2,1.3-0.7,1.7c-0.5,0.4-1.1,0.6-1.8,0.6c-0.4,0-0.8-0.1-1.2-0.3c-0.4-0.2-0.7-0.4-0.9-0.7l0.6-0.7
		c0.4,0.5,0.9,0.7,1.4,0.7c0.4,0,0.7-0.1,1-0.3c0.2-0.2,0.4-0.6,0.4-1V186c-0.4,0.4-0.8,0.6-1.4,0.6c-0.6,0-1.2-0.3-1.6-0.8
		C823.7,185.3,823.5,184.6,823.5,183.6z M824.8,183.8c0,0.6,0.1,1,0.3,1.3c0.2,0.3,0.5,0.5,0.9,0.5c0.5,0,0.9-0.2,1.1-0.6v-2.4
		c-0.2-0.4-0.6-0.6-1.1-0.6c-0.4,0-0.7,0.2-1,0.5C824.9,182.6,824.8,183.1,824.8,183.8z"/>
	<path fill="#808184" d="M832.1,186.6c-0.8,0-1.4-0.2-1.9-0.7c-0.5-0.5-0.7-1.2-0.7-2v-0.2c0-0.6,0.1-1,0.3-1.5
		c0.2-0.4,0.5-0.8,0.9-1c0.4-0.2,0.8-0.4,1.3-0.4c0.8,0,1.3,0.2,1.8,0.7c0.4,0.5,0.6,1.2,0.6,2v0.5h-3.6c0,0.5,0.2,0.8,0.5,1.1
		c0.3,0.3,0.6,0.4,1,0.4c0.6,0,1-0.2,1.4-0.7l0.7,0.6c-0.2,0.3-0.5,0.6-0.9,0.8C833,186.5,832.6,186.6,832.1,186.6z M831.9,181.8
		c-0.3,0-0.6,0.1-0.8,0.4s-0.3,0.6-0.4,1h2.4v-0.1c0-0.4-0.1-0.7-0.3-0.9C832.6,181.9,832.3,181.8,831.9,181.8z"/>
	<path fill="#808184" d="M838.3,185c0-0.2-0.1-0.4-0.3-0.5c-0.2-0.1-0.5-0.2-0.9-0.3c-0.4-0.1-0.8-0.2-1.1-0.3
		c-0.6-0.3-0.9-0.7-0.9-1.3c0-0.5,0.2-0.9,0.6-1.2c0.4-0.3,0.9-0.5,1.5-0.5c0.7,0,1.2,0.2,1.6,0.5s0.6,0.8,0.6,1.3h-1.2
		c0-0.2-0.1-0.4-0.3-0.6c-0.2-0.2-0.4-0.2-0.7-0.2c-0.3,0-0.5,0.1-0.7,0.2s-0.3,0.3-0.3,0.5c0,0.2,0.1,0.3,0.2,0.4s0.5,0.2,1,0.3
		s0.9,0.2,1.2,0.4c0.3,0.1,0.5,0.3,0.6,0.5c0.1,0.2,0.2,0.5,0.2,0.8c0,0.5-0.2,0.9-0.6,1.2c-0.4,0.3-1,0.5-1.6,0.5
		c-0.5,0-0.9-0.1-1.2-0.2c-0.4-0.2-0.6-0.4-0.8-0.7c-0.2-0.3-0.3-0.6-0.3-0.9h1.2c0,0.3,0.1,0.5,0.3,0.7c0.2,0.2,0.5,0.2,0.8,0.2
		c0.3,0,0.6-0.1,0.7-0.2S838.3,185.2,838.3,185z"/>
	<path fill="#808184" d="M842.3,179.6v1.3h1v0.9h-1v3.1c0,0.2,0,0.4,0.1,0.5c0.1,0.1,0.2,0.1,0.4,0.1c0.1,0,0.3,0,0.4-0.1v1
		c-0.3,0.1-0.6,0.1-0.8,0.1c-1,0-1.4-0.5-1.4-1.6v-3.1h-0.9v-0.9h0.9v-1.3H842.3z"/>
	<path fill="#808184" d="M844.1,179.5c0-0.2,0.1-0.4,0.2-0.5c0.1-0.1,0.3-0.2,0.5-0.2s0.4,0.1,0.5,0.2c0.1,0.1,0.2,0.3,0.2,0.5
		c0,0.2-0.1,0.3-0.2,0.5c-0.1,0.1-0.3,0.2-0.5,0.2s-0.4-0.1-0.5-0.2C844.1,179.8,844.1,179.7,844.1,179.5z M845.4,186.5h-1.2v-5.6
		h1.2V186.5z"/>
	<path fill="#808184" d="M848.7,184.9l1.2-4h1.3l-1.9,5.6h-1.1l-1.9-5.6h1.3L848.7,184.9z"/>
	<path fill="#808184" d="M854.1,186.6c-0.8,0-1.4-0.2-1.9-0.7c-0.5-0.5-0.7-1.2-0.7-2v-0.2c0-0.6,0.1-1,0.3-1.5
		c0.2-0.4,0.5-0.8,0.9-1c0.4-0.2,0.8-0.4,1.3-0.4c0.8,0,1.3,0.2,1.8,0.7c0.4,0.5,0.6,1.2,0.6,2v0.5h-3.6c0,0.5,0.2,0.8,0.5,1.1
		c0.3,0.3,0.6,0.4,1,0.4c0.6,0,1-0.2,1.4-0.7l0.7,0.6c-0.2,0.3-0.5,0.6-0.9,0.8C855,186.5,854.6,186.6,854.1,186.6z M854,181.8
		c-0.3,0-0.6,0.1-0.8,0.4s-0.3,0.6-0.4,1h2.4v-0.1c0-0.4-0.1-0.7-0.3-0.9C854.6,181.9,854.3,181.8,854,181.8z"/>
	<path fill="#808184" d="M860.3,187.1h-1l2.9-8.1h1L860.3,187.1z"/>
	<path fill="#808184" d="M869.6,183.6h-1.4v2.9h-1.3V179h2.6c0.9,0,1.5,0.2,2,0.6c0.5,0.4,0.7,0.9,0.7,1.7c0,0.5-0.1,0.9-0.4,1.3
		c-0.2,0.3-0.6,0.6-1,0.8l1.7,3.1v0.1h-1.4L869.6,183.6z M868.1,182.5h1.3c0.4,0,0.8-0.1,1-0.3s0.4-0.5,0.4-0.9
		c0-0.4-0.1-0.7-0.3-0.9c-0.2-0.2-0.6-0.3-1-0.3h-1.4V182.5z"/>
	<path fill="#808184" d="M875.6,186.6c-0.8,0-1.4-0.2-1.9-0.7c-0.5-0.5-0.7-1.2-0.7-2v-0.2c0-0.6,0.1-1,0.3-1.5
		c0.2-0.4,0.5-0.8,0.9-1c0.4-0.2,0.8-0.4,1.3-0.4c0.8,0,1.3,0.2,1.8,0.7c0.4,0.5,0.6,1.2,0.6,2v0.5h-3.6c0,0.5,0.2,0.8,0.5,1.1
		c0.3,0.3,0.6,0.4,1,0.4c0.6,0,1-0.2,1.4-0.7l0.7,0.6c-0.2,0.3-0.5,0.6-0.9,0.8C876.5,186.5,876.1,186.6,875.6,186.6z M875.5,181.8
		c-0.3,0-0.6,0.1-0.8,0.4s-0.3,0.6-0.4,1h2.4v-0.1c0-0.4-0.1-0.7-0.3-0.9C876.1,181.9,875.8,181.8,875.5,181.8z"/>
	<path fill="#808184" d="M881.8,185c0-0.2-0.1-0.4-0.3-0.5c-0.2-0.1-0.5-0.2-0.9-0.3c-0.4-0.1-0.8-0.2-1.1-0.3
		c-0.6-0.3-0.9-0.7-0.9-1.3c0-0.5,0.2-0.9,0.6-1.2c0.4-0.3,0.9-0.5,1.5-0.5c0.7,0,1.2,0.2,1.6,0.5s0.6,0.8,0.6,1.3h-1.2
		c0-0.2-0.1-0.4-0.3-0.6c-0.2-0.2-0.4-0.2-0.7-0.2c-0.3,0-0.5,0.1-0.7,0.2s-0.3,0.3-0.3,0.5c0,0.2,0.1,0.3,0.2,0.4s0.5,0.2,1,0.3
		s0.9,0.2,1.2,0.4c0.3,0.1,0.5,0.3,0.6,0.5c0.1,0.2,0.2,0.5,0.2,0.8c0,0.5-0.2,0.9-0.6,1.2c-0.4,0.3-1,0.5-1.6,0.5
		c-0.5,0-0.9-0.1-1.2-0.2c-0.4-0.2-0.6-0.4-0.8-0.7c-0.2-0.3-0.3-0.6-0.3-0.9h1.2c0,0.3,0.1,0.5,0.3,0.7c0.2,0.2,0.5,0.2,0.8,0.2
		c0.3,0,0.6-0.1,0.7-0.2S881.8,185.2,881.8,185z"/>
	<path fill="#808184" d="M889,183.7c0,0.9-0.2,1.5-0.6,2.1c-0.4,0.5-0.9,0.8-1.6,0.8c-0.6,0-1.1-0.2-1.5-0.6v2.6h-1.2v-7.7h1.1
		l0.1,0.6c0.4-0.4,0.9-0.7,1.5-0.7c0.7,0,1.2,0.3,1.6,0.8C888.8,182.1,889,182.8,889,183.7L889,183.7z M887.8,183.6
		c0-0.6-0.1-1-0.3-1.3s-0.5-0.5-0.9-0.5c-0.5,0-0.9,0.2-1.1,0.6v2.5c0.2,0.4,0.6,0.6,1.1,0.6c0.4,0,0.7-0.2,0.9-0.5
		C887.6,184.8,887.8,184.3,887.8,183.6z"/>
	<path fill="#808184" d="M890,179.5c0-0.2,0.1-0.4,0.2-0.5c0.1-0.1,0.3-0.2,0.5-0.2c0.2,0,0.4,0.1,0.5,0.2c0.1,0.1,0.2,0.3,0.2,0.5
		c0,0.2-0.1,0.3-0.2,0.5c-0.1,0.1-0.3,0.2-0.5,0.2c-0.2,0-0.4-0.1-0.5-0.2C890.1,179.8,890,179.7,890,179.5z M891.3,186.5h-1.2v-5.6
		h1.2V186.5z"/>
	<path fill="#808184" d="M895.5,182c-0.2,0-0.3,0-0.5,0c-0.6,0-1,0.2-1.2,0.7v3.8h-1.2v-5.6h1.2l0,0.6c0.3-0.5,0.7-0.7,1.3-0.7
		c0.2,0,0.3,0,0.4,0.1L895.5,182z"/>
	<path fill="#808184" d="M899.6,186.5c-0.1-0.1-0.1-0.3-0.1-0.5c-0.4,0.4-0.9,0.6-1.5,0.6c-0.6,0-1-0.2-1.4-0.5
		c-0.4-0.3-0.5-0.7-0.5-1.2c0-0.6,0.2-1,0.7-1.4c0.4-0.3,1.1-0.5,1.9-0.5h0.8v-0.4c0-0.3-0.1-0.5-0.2-0.7c-0.2-0.2-0.4-0.3-0.7-0.3
		c-0.3,0-0.5,0.1-0.7,0.2c-0.2,0.1-0.3,0.3-0.3,0.5h-1.2c0-0.3,0.1-0.6,0.3-0.9c0.2-0.3,0.5-0.5,0.8-0.6c0.3-0.2,0.7-0.2,1.2-0.2
		c0.6,0,1.2,0.2,1.6,0.5s0.6,0.8,0.6,1.4v2.5c0,0.5,0.1,0.9,0.2,1.2v0.1H899.6z M898.3,185.6c0.2,0,0.5-0.1,0.7-0.2s0.4-0.3,0.5-0.5
		v-1h-0.7c-0.5,0-0.8,0.1-1,0.2s-0.3,0.4-0.3,0.7c0,0.2,0.1,0.4,0.2,0.6C897.8,185.5,898,185.6,898.3,185.6z"/>
	<path fill="#808184" d="M903.5,179.6v1.3h1v0.9h-1v3.1c0,0.2,0,0.4,0.1,0.5c0.1,0.1,0.2,0.1,0.4,0.1c0.1,0,0.3,0,0.4-0.1v1
		c-0.3,0.1-0.6,0.1-0.8,0.1c-1,0-1.4-0.5-1.4-1.6v-3.1h-0.9v-0.9h0.9v-1.3H903.5z"/>
	<path fill="#808184" d="M905.1,183.6c0-0.5,0.1-1,0.3-1.5c0.2-0.4,0.5-0.8,0.9-1c0.4-0.2,0.8-0.4,1.3-0.4c0.7,0,1.4,0.2,1.8,0.7
		c0.5,0.5,0.7,1.1,0.8,1.9l0,0.3c0,0.5-0.1,1-0.3,1.5c-0.2,0.4-0.5,0.8-0.9,1c-0.4,0.2-0.8,0.4-1.4,0.4c-0.8,0-1.4-0.3-1.9-0.8
		C905.3,185.3,905.1,184.6,905.1,183.6L905.1,183.6z M906.3,183.7c0,0.6,0.1,1,0.4,1.3s0.6,0.5,1,0.5s0.7-0.2,1-0.5s0.4-0.8,0.4-1.4
		c0-0.6-0.1-1-0.4-1.3c-0.2-0.3-0.6-0.5-1-0.5c-0.4,0-0.7,0.2-1,0.5S906.3,183.1,906.3,183.7z"/>
	<path fill="#808184" d="M914.2,182c-0.2,0-0.3,0-0.5,0c-0.6,0-1,0.2-1.2,0.7v3.8h-1.2v-5.6h1.2l0,0.6c0.3-0.5,0.7-0.7,1.3-0.7
		c0.2,0,0.3,0,0.4,0.1L914.2,182z"/>
	<path fill="#808184" d="M917.2,184.7l1.1-3.8h1.3l-2.2,6.4c-0.3,0.9-0.9,1.4-1.7,1.4c-0.2,0-0.4,0-0.6-0.1v-1l0.2,0
		c0.3,0,0.6-0.1,0.7-0.2c0.2-0.1,0.3-0.3,0.4-0.6l0.2-0.5l-1.9-5.5h1.3L917.2,184.7z"/>
	<path fill="#808184" d="M922.4,183.5c0,0.8-0.1,1.5-0.3,2.2c-0.2,0.7-0.5,1.3-0.9,1.9c-0.4,0.6-0.9,1-1.3,1.2l-0.2-0.7
		c0.5-0.4,0.9-1,1.2-1.8c0.3-0.8,0.4-1.7,0.4-2.8v-0.1c0-1-0.1-1.8-0.4-2.6c-0.3-0.8-0.6-1.4-1.1-1.9l-0.2-0.1l0.2-0.7
		c0.4,0.2,0.9,0.6,1.3,1.1c0.4,0.5,0.7,1.1,0.9,1.8s0.3,1.4,0.4,2.1L922.4,183.5z"/>
</g>
<g>
	<path fill="#F26D26" d="M902,151.9l-4.9,11.5H894l4.9-10.7h-6.2v-2.3h9.4V151.9z"/>
	<path fill="#F26D26" d="M909.9,150.1v2.4h-0.1c-1.1,0-2.1,0.3-2.8,0.8s-1.2,1.3-1.3,2.3c0.7-0.7,1.5-1,2.6-1c1.1,0,2,0.4,2.7,1.2
		c0.7,0.8,1,1.9,1,3.3c0,0.8-0.2,1.6-0.6,2.3c-0.4,0.7-0.9,1.2-1.6,1.6c-0.7,0.4-1.5,0.6-2.3,0.6c-0.9,0-1.8-0.2-2.5-0.6
		c-0.7-0.4-1.3-1-1.7-1.8c-0.4-0.8-0.6-1.7-0.6-2.7v-1.2c0-1.3,0.3-2.6,0.9-3.6c0.6-1.1,1.4-1.9,2.5-2.5s2.3-0.9,3.6-0.9H909.9z
		 M907.2,156.8c-0.4,0-0.7,0.1-1,0.3c-0.3,0.2-0.5,0.4-0.6,0.7v0.9c0,1.7,0.6,2.5,1.7,2.5c0.5,0,0.8-0.2,1.2-0.6
		c0.3-0.4,0.5-0.9,0.5-1.6c0-0.6-0.2-1.2-0.5-1.6S907.7,156.8,907.2,156.8z"/>
	<path fill="#F26D26" d="M921.2,158.2h1.3v2.3h-1.3v2.8h-3v-2.8h-5.1l-0.2-1.8l5.2-8.4v0h3V158.2z M915.8,158.2h2.4v-4l-0.2,0.3
		L915.8,158.2z"/>
</g>
<g>
	<path fill="#5BAF93" d="M461.6,241.6v4.8h-0.3c-2.3,0-4.2,0.5-5.6,1.6c-1.5,1.1-2.4,2.6-2.7,4.6c1.4-1.4,3.1-2,5.2-2
		c2.3,0,4.1,0.8,5.5,2.5c1.4,1.7,2,3.9,2,6.6c0,1.7-0.4,3.2-1.2,4.6c-0.8,1.4-1.9,2.5-3.3,3.3c-1.4,0.8-3,1.2-4.7,1.2
		c-1.9,0-3.6-0.4-5-1.3c-1.5-0.9-2.6-2.1-3.5-3.7c-0.8-1.6-1.2-3.4-1.3-5.5v-2.5c0-2.7,0.6-5.2,1.8-7.4c1.2-2.2,2.8-3.9,5-5.1
		c2.2-1.2,4.6-1.9,7.2-1.9H461.6z M456.1,255.2c-0.8,0-1.5,0.2-2,0.6c-0.5,0.4-1,0.8-1.2,1.4v1.8c0,3.3,1.2,5,3.5,5
		c0.9,0,1.7-0.4,2.3-1.3c0.6-0.8,0.9-1.9,0.9-3.1c0-1.3-0.3-2.4-1-3.2C458,255.6,457.2,255.2,456.1,255.2z"/>
	<path fill="#5BAF93" d="M470.5,275.5l-3.1-1.5l0.6-1.2c0.8-1.6,1.3-3.1,1.3-4.5v-4.5h4.9l0,3.9c0,1.4-0.4,2.8-1.1,4.3
		C472.5,273.4,471.6,274.6,470.5,275.5z"/>
	<path fill="#5BAF93" d="M478.7,255.5l1.6-13.5h15.5v4.8h-10.5l-0.6,5.3c0.4-0.3,1-0.5,1.7-0.7c0.7-0.2,1.4-0.3,2.1-0.3
		c2.6,0,4.6,0.8,6.1,2.3c1.4,1.6,2.1,3.7,2.1,6.6c0,1.7-0.4,3.2-1.1,4.6c-0.8,1.4-1.8,2.4-3.2,3.2c-1.4,0.7-3,1.1-4.9,1.1
		c-1.7,0-3.2-0.3-4.7-1c-1.5-0.7-2.6-1.6-3.4-2.8c-0.8-1.2-1.2-2.5-1.2-4h6.1c0.1,1,0.4,1.7,0.9,2.3c0.6,0.6,1.3,0.9,2.2,0.9
		c2.1,0,3.1-1.5,3.1-4.6c0-2.8-1.3-4.2-3.8-4.2c-1.4,0-2.5,0.5-3.2,1.4L478.7,255.5z"/>
	<path fill="#5BAF93" d="M518.1,245.2l-9.9,23.2h-6.5l9.9-21.7h-12.6v-4.7h19.1V245.2z"/>
	<path fill="#5BAF93" d="M534,268.4h-6.1v-19.6l-6,1.8v-4.7l11.6-4h0.6V268.4z"/>
</g>
<g>
	<path fill="#5BAF93" d="M425.6,303.1h-8.3l-1.9,5.2h-2.7l7.6-19.9h2.3l7.6,19.9h-2.7L425.6,303.1z M418.1,300.9h6.8l-3.4-9.3
		L418.1,300.9z"/>
	<path fill="#5BAF93" d="M434.7,293.5l0.1,1.9c1.1-1.4,2.6-2.1,4.4-2.1c3.1,0,4.7,1.8,4.7,5.3v9.8h-2.5v-9.8c0-1.1-0.3-1.9-0.7-2.4
		c-0.5-0.5-1.2-0.8-2.2-0.8c-0.8,0-1.5,0.2-2.2,0.7c-0.6,0.4-1.1,1-1.5,1.7v10.6h-2.5v-14.8H434.7z"/>
	<path fill="#5BAF93" d="M449.7,293.5l0.1,1.9c1.1-1.4,2.6-2.1,4.4-2.1c3.1,0,4.7,1.8,4.7,5.3v9.8h-2.5v-9.8c0-1.1-0.3-1.9-0.7-2.4
		c-0.5-0.5-1.2-0.8-2.2-0.8c-0.8,0-1.5,0.2-2.2,0.7c-0.6,0.4-1.1,1-1.5,1.7v10.6h-2.5v-14.8H449.7z"/>
	<path fill="#5BAF93" d="M471.4,306.8c-1,1.2-2.4,1.7-4.3,1.7c-1.6,0-2.8-0.5-3.6-1.4c-0.8-0.9-1.2-2.3-1.3-4.1v-9.6h2.5v9.6
		c0,2.2,0.9,3.4,2.7,3.4c1.9,0,3.2-0.7,3.9-2.2v-10.8h2.5v14.8h-2.4L471.4,306.8z"/>
	<path fill="#5BAF93" d="M486.3,308.3c-0.1-0.3-0.3-0.8-0.4-1.6c-1.2,1.2-2.6,1.8-4.2,1.8c-1.5,0-2.7-0.4-3.6-1.2
		c-0.9-0.8-1.4-1.9-1.4-3.1c0-1.5,0.6-2.7,1.8-3.6c1.2-0.9,2.8-1.3,4.9-1.3h2.5v-1.2c0-0.9-0.3-1.6-0.8-2.1
		c-0.5-0.5-1.3-0.8-2.3-0.8c-0.9,0-1.7,0.2-2.3,0.7c-0.6,0.5-0.9,1-0.9,1.7H477c0-0.7,0.3-1.5,0.8-2.1s1.2-1.2,2.1-1.6
		c0.9-0.4,1.9-0.6,3-0.6c1.7,0,3,0.4,4,1.3c1,0.9,1.5,2,1.5,3.5v6.8c0,1.4,0.2,2.4,0.5,3.2v0.2H486.3z M482.1,306.4
		c0.8,0,1.5-0.2,2.3-0.6c0.7-0.4,1.2-0.9,1.5-1.6v-3h-2c-3.1,0-4.7,0.9-4.7,2.7c0,0.8,0.3,1.4,0.8,1.9
		C480.6,306.1,481.3,306.4,482.1,306.4z"/>
	<path fill="#5BAF93" d="M494.5,308.3h-2.5v-21h2.5V308.3z"/>
	<path fill="#5BAF93" d="M505.9,308.3v-19.9h5.6c1.7,0,3.3,0.4,4.6,1.1c1.3,0.8,2.4,1.9,3.1,3.3c0.7,1.4,1.1,3,1.1,4.9v1.3
		c0,1.9-0.4,3.5-1.1,4.9c-0.7,1.4-1.8,2.5-3.1,3.3c-1.3,0.8-2.9,1.1-4.7,1.2H505.9z M508.5,290.5v15.6h2.8c2,0,3.6-0.6,4.7-1.9
		c1.1-1.3,1.7-3.1,1.7-5.4v-1.2c0-2.3-0.5-4-1.6-5.3c-1.1-1.3-2.6-1.9-4.5-1.9H508.5z"/>
	<path fill="#5BAF93" d="M529.4,308.6c-2,0-3.6-0.7-4.9-2c-1.3-1.3-1.9-3.1-1.9-5.3v-0.5c0-1.5,0.3-2.8,0.8-3.9
		c0.6-1.2,1.3-2.1,2.4-2.7c1-0.7,2.1-1,3.3-1c1.9,0,3.4,0.6,4.5,1.9c1.1,1.3,1.6,3.1,1.6,5.4v1.1h-10c0,1.5,0.5,2.6,1.3,3.5
		c0.8,0.9,1.9,1.3,3.1,1.3c0.9,0,1.7-0.2,2.3-0.5c0.6-0.4,1.2-0.8,1.6-1.5l1.5,1.2C533.8,307.6,531.9,308.6,529.4,308.6z
		 M529.1,295.3c-1,0-1.9,0.4-2.6,1.1c-0.7,0.7-1.1,1.8-1.3,3.1h7.4v-0.2c-0.1-1.3-0.4-2.3-1-3C531,295.6,530.2,295.3,529.1,295.3z"
		/>
	<path fill="#5BAF93" d="M546.7,308.3c-0.1-0.3-0.3-0.8-0.4-1.6c-1.2,1.2-2.6,1.8-4.2,1.8c-1.5,0-2.7-0.4-3.6-1.2
		c-0.9-0.8-1.4-1.9-1.4-3.1c0-1.5,0.6-2.7,1.8-3.6c1.2-0.9,2.8-1.3,4.9-1.3h2.5v-1.2c0-0.9-0.3-1.6-0.8-2.1
		c-0.5-0.5-1.3-0.8-2.3-0.8c-0.9,0-1.7,0.2-2.3,0.7c-0.6,0.5-0.9,1-0.9,1.7h-2.5c0-0.7,0.3-1.5,0.8-2.1c0.5-0.7,1.2-1.2,2.1-1.6
		c0.9-0.4,1.9-0.6,3-0.6c1.7,0,3,0.4,4,1.3c1,0.9,1.5,2,1.5,3.5v6.8c0,1.4,0.2,2.4,0.5,3.2v0.2H546.7z M542.5,306.4
		c0.8,0,1.5-0.2,2.3-0.6c0.7-0.4,1.2-0.9,1.5-1.6v-3h-2c-3.1,0-4.7,0.9-4.7,2.7c0,0.8,0.3,1.4,0.8,1.9
		C541,306.1,541.6,306.4,542.5,306.4z"/>
	<path fill="#5BAF93" d="M555.7,289.9v3.6h2.8v2h-2.8v9.2c0,0.6,0.1,1,0.4,1.3c0.2,0.3,0.7,0.4,1.3,0.4c0.3,0,0.7-0.1,1.2-0.2v2
		c-0.7,0.2-1.3,0.3-1.9,0.3c-1.1,0-2-0.3-2.6-1c-0.6-0.7-0.9-1.7-0.9-2.9v-9.2h-2.7v-2h2.7v-3.6H555.7z"/>
	<path fill="#5BAF93" d="M563.3,295.3c1.1-1.4,2.6-2.1,4.4-2.1c3.1,0,4.7,1.8,4.7,5.3v9.8h-2.5v-9.8c0-1.1-0.3-1.9-0.7-2.4
		c-0.5-0.5-1.2-0.8-2.2-0.8c-0.8,0-1.5,0.2-2.2,0.7c-0.6,0.4-1.1,1-1.5,1.7v10.6h-2.5v-21h2.5V295.3z"/>
	<path fill="#5BAF93" d="M432.1,330.5c0-1.5,0.3-2.8,0.9-3.9c0.6-1.2,1.4-2.1,2.4-2.7c1-0.6,2.2-0.9,3.5-0.9c2,0,3.6,0.7,4.9,2.1
		c1.2,1.4,1.9,3.3,1.9,5.6v0.2c0,1.4-0.3,2.7-0.8,3.9c-0.6,1.1-1.3,2-2.4,2.7c-1,0.6-2.2,1-3.5,1c-2,0-3.6-0.7-4.9-2.1
		c-1.2-1.4-1.9-3.2-1.9-5.5V330.5z M434.6,330.8c0,1.6,0.4,3,1.1,4c0.8,1,1.8,1.5,3.1,1.5c1.3,0,2.3-0.5,3.1-1.5
		c0.8-1,1.1-2.4,1.1-4.2c0-1.6-0.4-2.9-1.2-3.9c-0.8-1-1.8-1.5-3.1-1.5c-1.3,0-2.3,0.5-3,1.5C435,327.5,434.6,329,434.6,330.8z"/>
	<path fill="#5BAF93" d="M449,338.1v-12.9h-2.3v-2h2.3v-1.5c0-1.6,0.4-2.8,1.3-3.7c0.8-0.9,2-1.3,3.6-1.3c0.6,0,1.2,0.1,1.7,0.2
		l-0.1,2c-0.4-0.1-0.9-0.1-1.4-0.1c-0.8,0-1.5,0.2-1.9,0.7c-0.4,0.5-0.7,1.2-0.7,2.1v1.6h3.2v2h-3.2v12.9H449z"/>
	<path fill="#5BAF93" d="M469.1,331.8l0.4,2.6l0.6-2.4l3.9-13.9h2.2l3.8,13.9l0.5,2.4l0.4-2.7l3.1-13.6h2.6l-4.8,19.9h-2.4
		l-4.1-14.5l-0.3-1.5l-0.3,1.5l-4.3,14.5h-2.4l-4.8-19.9h2.6L469.1,331.8z"/>
	<path fill="#5BAF93" d="M487.4,330.5c0-1.5,0.3-2.8,0.9-3.9c0.6-1.2,1.4-2.1,2.4-2.7c1-0.6,2.2-0.9,3.5-0.9c2,0,3.6,0.7,4.9,2.1
		c1.2,1.4,1.9,3.3,1.9,5.6v0.2c0,1.4-0.3,2.7-0.8,3.9c-0.6,1.1-1.3,2-2.4,2.7c-1,0.6-2.2,1-3.5,1c-2,0-3.6-0.7-4.9-2.1
		c-1.2-1.4-1.9-3.2-1.9-5.5V330.5z M489.9,330.8c0,1.6,0.4,3,1.1,4c0.8,1,1.8,1.5,3.1,1.5c1.3,0,2.3-0.5,3.1-1.5
		c0.8-1,1.1-2.4,1.1-4.2c0-1.6-0.4-2.9-1.2-3.9c-0.8-1-1.8-1.5-3.1-1.5c-1.3,0-2.3,0.5-3,1.5C490.3,327.5,489.9,329,489.9,330.8z"/>
	<path fill="#5BAF93" d="M505.9,323.3l0.1,1.6c1.1-1.3,2.6-1.9,4.4-1.9c2.1,0,3.5,0.8,4.2,2.4c0.5-0.7,1.1-1.3,1.9-1.7
		c0.8-0.4,1.7-0.7,2.8-0.7c3.2,0,4.9,1.7,5,5.2v9.9h-2.5v-9.8c0-1.1-0.2-1.8-0.7-2.4c-0.5-0.5-1.3-0.8-2.4-0.8
		c-0.9,0-1.7,0.3-2.3,0.8c-0.6,0.6-1,1.3-1.1,2.3v9.8h-2.5v-9.7c0-2.2-1.1-3.2-3.2-3.2c-1.7,0-2.8,0.7-3.4,2.1v10.8h-2.5v-14.8
		H505.9z"/>
	<path fill="#5BAF93" d="M533.8,338.3c-2,0-3.6-0.7-4.9-2c-1.3-1.3-1.9-3.1-1.9-5.3v-0.5c0-1.5,0.3-2.8,0.8-3.9
		c0.6-1.2,1.3-2.1,2.4-2.7c1-0.7,2.1-1,3.3-1c1.9,0,3.4,0.6,4.5,1.9c1.1,1.3,1.6,3.1,1.6,5.4v1.1h-10c0,1.5,0.5,2.6,1.3,3.5
		c0.8,0.9,1.9,1.3,3.1,1.3c0.9,0,1.7-0.2,2.3-0.5c0.6-0.4,1.2-0.8,1.6-1.5l1.5,1.2C538.1,337.4,536.3,338.3,533.8,338.3z
		 M533.5,325.1c-1,0-1.9,0.4-2.6,1.1c-0.7,0.7-1.1,1.8-1.3,3.1h7.4v-0.2c-0.1-1.3-0.4-2.3-1-3C535.4,325.4,534.5,325.1,533.5,325.1z
		"/>
	<path fill="#5BAF93" d="M544.6,323.3l0.1,1.9c1.1-1.4,2.6-2.1,4.4-2.1c3.1,0,4.7,1.8,4.7,5.3v9.8h-2.5v-9.8c0-1.1-0.3-1.9-0.7-2.4
		c-0.5-0.5-1.2-0.8-2.2-0.8c-0.8,0-1.5,0.2-2.2,0.7c-0.6,0.4-1.1,1-1.5,1.7v10.6h-2.5v-14.8H544.6z"/>
	<path fill="#808184" d="M432.4,361.3V352h-1.7v-1.4h1.7v-1.1c0-1.2,0.3-2.1,0.9-2.7c0.6-0.6,1.5-0.9,2.6-0.9c0.4,0,0.8,0.1,1.3,0.2
		l-0.1,1.5c-0.3-0.1-0.6-0.1-1-0.1c-0.6,0-1.1,0.2-1.4,0.5c-0.3,0.4-0.5,0.9-0.5,1.5v1.1h2.3v1.4h-2.3v9.4H432.4z"/>
	<path fill="#808184" d="M443.5,352.2c-0.3,0-0.6-0.1-0.9-0.1c-1.2,0-2,0.5-2.5,1.5v7.7h-1.8v-10.8h1.8l0,1.2c0.6-1,1.5-1.4,2.6-1.4
		c0.4,0,0.6,0,0.8,0.1V352.2z"/>
	<path fill="#808184" d="M444.3,355.8c0-1.1,0.2-2,0.6-2.9c0.4-0.8,1-1.5,1.7-2c0.7-0.5,1.6-0.7,2.5-0.7c1.5,0,2.7,0.5,3.6,1.5
		c0.9,1,1.4,2.4,1.4,4.1v0.1c0,1.1-0.2,2-0.6,2.8c-0.4,0.8-1,1.5-1.7,2c-0.7,0.5-1.6,0.7-2.6,0.7c-1.5,0-2.6-0.5-3.6-1.5
		c-0.9-1-1.4-2.4-1.4-4V355.8z M446.2,356.1c0,1.2,0.3,2.2,0.8,2.9c0.6,0.7,1.3,1.1,2.2,1.1c0.9,0,1.7-0.4,2.2-1.1
		c0.6-0.7,0.8-1.8,0.8-3.1c0-1.2-0.3-2.1-0.8-2.9c-0.6-0.7-1.3-1.1-2.2-1.1c-0.9,0-1.6,0.4-2.2,1.1
		C446.5,353.7,446.2,354.7,446.2,356.1z"/>
	<path fill="#808184" d="M458,350.5l0,1.2c0.8-0.9,1.9-1.4,3.2-1.4c1.5,0,2.5,0.6,3.1,1.7c0.4-0.5,0.8-0.9,1.4-1.3
		c0.6-0.3,1.3-0.5,2-0.5c2.4,0,3.6,1.3,3.6,3.8v7.2h-1.8v-7.1c0-0.8-0.2-1.3-0.5-1.7c-0.4-0.4-0.9-0.6-1.8-0.6
		c-0.7,0-1.3,0.2-1.7,0.6c-0.5,0.4-0.7,1-0.8,1.7v7.2h-1.9v-7.1c0-1.6-0.8-2.4-2.3-2.4c-1.2,0-2,0.5-2.5,1.5v7.9h-1.8v-10.8H458z"/>
	<path fill="#808184" d="M483.8,354.9c-1.6-0.5-2.8-1.1-3.6-1.7c-0.7-0.7-1.1-1.5-1.1-2.6c0-1.1,0.5-2.1,1.4-2.8
		c0.9-0.7,2.1-1.1,3.6-1.1c1,0,1.9,0.2,2.7,0.6c0.8,0.4,1.4,0.9,1.8,1.6c0.4,0.7,0.6,1.4,0.6,2.2h-1.9c0-0.9-0.3-1.6-0.8-2.1
		c-0.6-0.5-1.3-0.8-2.4-0.8c-0.9,0-1.7,0.2-2.2,0.6c-0.5,0.4-0.8,1-0.8,1.7c0,0.6,0.3,1.1,0.8,1.5c0.5,0.4,1.4,0.8,2.6,1.1
		c1.2,0.3,2.2,0.7,2.8,1.1c0.7,0.4,1.2,0.9,1.5,1.4c0.3,0.5,0.5,1.2,0.5,1.9c0,1.2-0.5,2.1-1.4,2.8c-0.9,0.7-2.1,1.1-3.7,1.1
		c-1,0-1.9-0.2-2.8-0.6c-0.9-0.4-1.5-0.9-2-1.6c-0.5-0.7-0.7-1.4-0.7-2.3h1.9c0,0.9,0.3,1.6,1,2.1c0.6,0.5,1.5,0.8,2.6,0.8
		c1,0,1.8-0.2,2.3-0.6c0.5-0.4,0.8-1,0.8-1.7c0-0.7-0.2-1.3-0.7-1.7C486,355.6,485.1,355.2,483.8,354.9z"/>
	<path fill="#808184" d="M493.1,350.5l0,1.2c0.8-0.9,1.9-1.4,3.2-1.4c1.5,0,2.5,0.6,3.1,1.7c0.4-0.5,0.8-0.9,1.4-1.3
		c0.6-0.3,1.3-0.5,2-0.5c2.4,0,3.6,1.3,3.6,3.8v7.2h-1.8v-7.1c0-0.8-0.2-1.3-0.5-1.7c-0.4-0.4-0.9-0.6-1.8-0.6
		c-0.7,0-1.3,0.2-1.7,0.6c-0.5,0.4-0.7,1-0.8,1.7v7.2H498v-7.1c0-1.6-0.8-2.4-2.3-2.4c-1.2,0-2,0.5-2.5,1.5v7.9h-1.8v-10.8H493.1z"
		/>
	<path fill="#808184" d="M508.5,355.8c0-1.1,0.2-2,0.6-2.9c0.4-0.8,1-1.5,1.7-2c0.7-0.5,1.6-0.7,2.5-0.7c1.5,0,2.7,0.5,3.6,1.5
		c0.9,1,1.4,2.4,1.4,4.1v0.1c0,1.1-0.2,2-0.6,2.8c-0.4,0.8-1,1.5-1.7,2c-0.7,0.5-1.6,0.7-2.6,0.7c-1.5,0-2.6-0.5-3.6-1.5
		c-0.9-1-1.4-2.4-1.4-4V355.8z M510.4,356.1c0,1.2,0.3,2.2,0.8,2.9c0.6,0.7,1.3,1.1,2.2,1.1c0.9,0,1.7-0.4,2.2-1.1
		c0.6-0.7,0.8-1.8,0.8-3.1c0-1.2-0.3-2.1-0.8-2.9c-0.6-0.7-1.3-1.1-2.2-1.1c-0.9,0-1.6,0.4-2.2,1.1
		C510.6,353.7,510.4,354.7,510.4,356.1z"/>
	<path fill="#808184" d="M523.4,356.3l-1.2,1.2v3.8h-1.8V346h1.8v9.3l1-1.2l3.4-3.6h2.2l-4.2,4.5l4.7,6.3h-2.2L523.4,356.3z"/>
	<path fill="#808184" d="M530.7,347.7c0-0.3,0.1-0.6,0.3-0.8c0.2-0.2,0.5-0.3,0.8-0.3s0.6,0.1,0.8,0.3c0.2,0.2,0.3,0.5,0.3,0.8
		s-0.1,0.5-0.3,0.7c-0.2,0.2-0.5,0.3-0.8,0.3s-0.6-0.1-0.8-0.3C530.8,348.2,530.7,348,530.7,347.7z M532.7,361.3h-1.8v-10.8h1.8
		V361.3z"/>
	<path fill="#808184" d="M537.1,350.5l0.1,1.4c0.8-1,1.9-1.6,3.2-1.6c2.3,0,3.4,1.3,3.5,3.9v7.1H542v-7.1c0-0.8-0.2-1.4-0.5-1.7
		c-0.3-0.4-0.9-0.6-1.6-0.6c-0.6,0-1.1,0.2-1.6,0.5c-0.5,0.3-0.8,0.7-1.1,1.3v7.7h-1.8v-10.8H537.1z"/>
	<path fill="#808184" d="M545.9,355.9c0-1.7,0.4-3,1.2-4c0.8-1,1.8-1.5,3.1-1.5c1.3,0,2.3,0.5,3.1,1.4l0.1-1.2h1.7v10.5
		c0,1.4-0.4,2.5-1.2,3.3c-0.8,0.8-1.9,1.2-3.3,1.2c-0.8,0-1.5-0.2-2.3-0.5c-0.7-0.3-1.3-0.8-1.7-1.4l1-1.1c0.8,1,1.8,1.5,2.9,1.5
		c0.9,0,1.6-0.3,2.1-0.8c0.5-0.5,0.8-1.2,0.8-2.1v-0.9c-0.7,0.9-1.7,1.3-3,1.3c-1.3,0-2.3-0.5-3.1-1.5
		C546.3,359,545.9,357.6,545.9,355.9z M547.8,356.1c0,1.2,0.2,2.2,0.7,2.9s1.2,1,2.1,1c1.2,0,2-0.5,2.6-1.6v-4.9
		c-0.6-1-1.4-1.5-2.5-1.5c-0.9,0-1.6,0.3-2.1,1C548,353.7,547.8,354.7,547.8,356.1z"/>
</g>
<g>
	<circle fill="#59AE94" cx="492.6" cy="142.6" r="8.7"/>
	<path fill="#59AE94" d="M508.6,178.5l-4-17.2c0-0.1-0.1-0.2-0.1-0.4l0-0.1l0,0c-1.1-4.2-5-7.4-9.6-7.4h-4.4c-4.8,0-8.9,3.5-9.8,8
		l-4,17c-0.2,0.8,0.3,1.7,1,2c0.9,0.4,1.9-0.1,2.3-1l5.5-16h1.3l-7.4,27.3c-0.2,0.7,0.4,1.5,1.1,1.5h5.3l3.9,34.1
		c0.1,0.8,0.7,1.3,1.5,1.3h2.9c0.8,0,1.4-0.6,1.5-1.3l3.9-34.1h5.3c0.8,0,1.3-0.7,1.1-1.5l-7.4-27.3h1.3l5.5,16
		c0.3,0.9,1.3,1.4,2.3,1C508.3,180.2,508.8,179.4,508.6,178.5z"/>
</g>
</svg>
