<?xml version="1.0" encoding="utf-8"?>
<!-- Generator: Adobe Illustrator 25.0.1, SVG Export Plug-In . SVG Version: 6.00 Build 0)  -->
<svg version="1.0" id="Layer_1" xmlns="http://www.w3.org/2000/svg" xmlns:xlink="http://www.w3.org/1999/xlink" x="0px" y="0px"
	 viewBox="0 0 1024 528" enable-background="new 0 0 1024 528" xml:space="preserve">
<circle fill="#BCCBD3" cx="492.7" cy="261.1" r="202.9"/>
<g>
	<path fill="#2FBFD1" d="M289.8,261.1c0,112,90.8,202.9,202.9,202.9c75.4,0,141.2-41.1,176.2-102.2L492.7,261.1L404,78.6
		C336.4,111.5,289.8,180.9,289.8,261.1z"/>
	<path fill="#F26D26" d="M612.1,97.1l-119.5,164l175.7-101.5C654.1,135.1,634.9,113.8,612.1,97.1z"/>
	<path fill="#385864" d="M612.1,97.1C583.2,76,548.5,62.4,510.8,59c-6-0.5-12.1-0.8-18.2-0.8c-3.7,0-7.3,0.1-11,0.3l11,202.6
		L612.1,97.1z"/>
	<path fill="#1B75BB" d="M481.5,58.5c-35.7,1.9-71.3,13.3-102.6,34.5c-5,3.4-9.9,7-14.6,10.9c-2.9,2.3-5.6,4.7-8.3,7.2l136.5,150.1
		L481.5,58.5z"/>
	<path fill="#2FBFD1" d="M627.9,412.8c26.7-23.8,47.4-54.8,58.7-90.9c1.8-5.7,3.3-11.6,4.6-17.6c0.8-3.6,1.5-7.2,2-10.8l-200.3-32.1
		L627.9,412.8z"/>
	<path fill="#2FBFD1" d="M693.3,293.3c5.7-35.3,2.1-72.5-12-107.5c-2.2-5.6-4.8-11.1-7.5-16.6c-1.7-3.3-3.4-6.5-5.2-9.6L493,261.2
		L693.3,293.3z"/>
</g>
<circle fill="#CCCBCB" cx="493.5" cy="261.3" r="166.1"/>
<circle fill="#F0F1F1" cx="493.5" cy="261.3" r="159.9"/>
<circle fill="none" stroke="#CCCBCB" stroke-miterlimit="10" cx="493.5" cy="261.3" r="153.8"/>
<circle cx="543.9" cy="85.9" r="6.8"/>
<polyline fill="none" stroke="#000000" stroke-width="2" stroke-miterlimit="10" points="543.9,85.9 574.4,55.5 841.5,55.5 "/>
<circle cx="421.3" cy="90.1" r="6.8"/>
<circle cx="630.6" cy="140.7" r="6.8"/>
<polyline fill="none" stroke="#000000" stroke-width="2" stroke-miterlimit="10" points="630.2,140 656.6,170.5 923.5,170.5 "/>
<polyline fill="none" stroke="#000000" stroke-width="2" stroke-miterlimit="10" points="421.3,90.1 404.2,61 109.8,61 "/>
<circle cx="434.3" cy="441.8" r="7.2"/>
<polyline fill="none" stroke="#000000" stroke-width="2" stroke-miterlimit="10" points="434.3,441.8 402.1,474 76.5,474 "/>
<g>
	<path fill="none" stroke="#385864" stroke-width="2" stroke-miterlimit="10" d="M902.4,71.7c-4.8-9.5-4.2-17.6-5.8-24.2
		c-1-4.2-3.2-7.5-7.5-8.5c-3.6-0.9-7,1.6-7.4,5.1c-0.1,1.3-1.2,2.3-2.5,2.3l0,0c-1.3,0-2.3-1-2.5-2.3c-0.4-3.5-3.8-6-7.4-5.1
		c-4.3,1-6.5,4.3-7.5,8.5c-1.6,6.6-1,15.6-5.8,25.1c-2.3,4.6,2.2,4.3,7.1,4.1c6.3-0.2,13-1.7,14.4-8.2c0.9-3.8-0.8-10.1-0.8-13.9v0
		c0-1.4,1.1-2.5,2.5-2.5h0c1.4,0,2.5,1.1,2.5,2.5v0c0,3.9-1.7,10.1-0.8,13.9c1.5,6.5,8.2,8,14.4,8.2
		C900.2,76.7,904.7,76.2,902.4,71.7z"/>
	<path fill="none" stroke="#385864" stroke-width="2" stroke-miterlimit="10" d="M879.3,46.3L879.3,46.3c-1.4,0-2.5-1.1-2.5-2.5
		V33.3h4.9v10.6C881.7,45.2,880.6,46.3,879.3,46.3z"/>
	<rect x="876.8" y="36.5" fill="none" stroke="#385864" stroke-width="2" stroke-miterlimit="10" width="4.9" height="3.3"/>
	<path fill="none" stroke="#385864" stroke-width="2" stroke-miterlimit="10" d="M879.3,46.3L879.3,46.3c-1.4,0-2.5-1.1-2.5-2.5
		v-0.7h4.9v0.7C881.7,45.2,880.6,46.3,879.3,46.3z"/>
	<path fill="none" stroke="#385864" stroke-width="2" stroke-miterlimit="10" d="M892.4,63.6c0-8.2-5.9-14.7-13.1-14.7"/>
	<path fill="none" stroke="#385864" stroke-width="2" stroke-miterlimit="10" d="M889.1,43.1c0,3.2-4.4,5.7-9.8,5.7"/>
	<path fill="none" stroke="#385864" stroke-width="2" stroke-miterlimit="10" d="M866.2,63.6c0-8.2,5.9-14.7,13.1-14.7"/>
	<path fill="none" stroke="#385864" stroke-width="2" stroke-miterlimit="10" d="M869.4,43.1c0,3.2,4.4,5.7,9.8,5.7"/>
	<circle fill="none" stroke="#385864" stroke-width="2" stroke-miterlimit="10" cx="864.5" cy="43.1" r="0.8"/>
	<circle fill="none" stroke="#385864" stroke-width="2" stroke-miterlimit="10" cx="867" cy="40.6" r="0.8"/>
	<circle fill="none" stroke="#385864" stroke-width="2" stroke-miterlimit="10" cx="871.9" cy="40.6" r="0.8"/>
	<circle fill="none" stroke="#385864" stroke-width="2" stroke-miterlimit="10" cx="867" cy="45.5" r="0.8"/>
	<circle fill="none" stroke="#385864" stroke-width="2" stroke-miterlimit="10" cx="869.4" cy="43.1" r="0.8"/>
	<circle fill="none" stroke="#385864" stroke-width="2" stroke-miterlimit="10" cx="874.4" cy="43.1" r="0.8"/>
	<circle fill="none" stroke="#385864" stroke-width="2" stroke-miterlimit="10" cx="884.2" cy="43.1" r="0.8"/>
	<circle fill="none" stroke="#385864" stroke-width="2" stroke-miterlimit="10" cx="886.6" cy="40.6" r="0.8"/>
	<circle fill="none" stroke="#385864" stroke-width="2" stroke-miterlimit="10" cx="891.6" cy="40.6" r="0.8"/>
	<circle fill="none" stroke="#385864" stroke-width="2" stroke-miterlimit="10" cx="891.6" cy="45.5" r="0.8"/>
	<circle fill="none" stroke="#385864" stroke-width="2" stroke-miterlimit="10" cx="889.1" cy="43.1" r="0.8"/>
	<circle fill="none" stroke="#385864" stroke-width="2" stroke-miterlimit="10" cx="894" cy="43.1" r="0.8"/>
	<circle fill="none" stroke="#385864" stroke-width="2" stroke-miterlimit="10" cx="864.5" cy="48" r="0.8"/>
	<circle fill="none" stroke="#385864" stroke-width="2" stroke-miterlimit="10" cx="869.4" cy="48" r="0.8"/>
	<circle fill="none" stroke="#385864" stroke-width="2" stroke-miterlimit="10" cx="889.1" cy="48" r="0.8"/>
	<circle fill="none" stroke="#385864" stroke-width="2" stroke-miterlimit="10" cx="894" cy="48" r="0.8"/>
	<circle fill="none" stroke="#385864" stroke-width="2" stroke-miterlimit="10" cx="862.1" cy="50.5" r="0.8"/>
	<circle fill="none" stroke="#385864" stroke-width="2" stroke-miterlimit="10" cx="862.1" cy="55.4" r="0.8"/>
	<circle fill="none" stroke="#385864" stroke-width="2" stroke-miterlimit="10" cx="864.5" cy="52.9" r="0.8"/>
	<circle fill="none" stroke="#385864" stroke-width="2" stroke-miterlimit="10" cx="867" cy="50.5" r="0.8"/>
	<circle fill="none" stroke="#385864" stroke-width="2" stroke-miterlimit="10" cx="867" cy="55.4" r="0.8"/>
	<circle fill="none" stroke="#385864" stroke-width="2" stroke-miterlimit="10" cx="871.9" cy="55.4" r="0.8"/>
	<circle fill="none" stroke="#385864" stroke-width="2" stroke-miterlimit="10" cx="869.4" cy="52.9" r="0.8"/>
	<circle fill="none" stroke="#385864" stroke-width="2" stroke-miterlimit="10" cx="874.4" cy="52.9" r="0.8"/>
	<circle fill="none" stroke="#385864" stroke-width="2" stroke-miterlimit="10" cx="876.8" cy="55.4" r="0.8"/>
	<circle fill="none" stroke="#385864" stroke-width="2" stroke-miterlimit="10" cx="881.7" cy="55.4" r="0.8"/>
	<circle fill="none" stroke="#385864" stroke-width="2" stroke-miterlimit="10" cx="884.2" cy="52.9" r="0.8"/>
	<circle fill="none" stroke="#385864" stroke-width="2" stroke-miterlimit="10" cx="891.6" cy="50.5" r="0.8"/>
	<circle fill="none" stroke="#385864" stroke-width="2" stroke-miterlimit="10" cx="886.6" cy="55.4" r="0.8"/>
	<circle fill="none" stroke="#385864" stroke-width="2" stroke-miterlimit="10" cx="891.6" cy="55.4" r="0.8"/>
	<circle fill="none" stroke="#385864" stroke-width="2" stroke-miterlimit="10" cx="889.1" cy="52.9" r="0.8"/>
	<circle fill="none" stroke="#385864" stroke-width="2" stroke-miterlimit="10" cx="894" cy="52.9" r="0.8"/>
	<circle fill="none" stroke="#385864" stroke-width="2" stroke-miterlimit="10" cx="896.5" cy="50.5" r="0.8"/>
	<circle fill="none" stroke="#385864" stroke-width="2" stroke-miterlimit="10" cx="896.5" cy="55.4" r="0.8"/>
	<circle fill="none" stroke="#385864" stroke-width="2" stroke-miterlimit="10" cx="864.5" cy="57.8" r="0.8"/>
	<circle fill="none" stroke="#385864" stroke-width="2" stroke-miterlimit="10" cx="869.4" cy="57.8" r="0.8"/>
	<circle fill="none" stroke="#385864" stroke-width="2" stroke-miterlimit="10" cx="874.4" cy="57.8" r="0.8"/>
	<circle fill="none" stroke="#385864" stroke-width="2" stroke-miterlimit="10" cx="884.2" cy="57.8" r="0.8"/>
	<circle fill="none" stroke="#385864" stroke-width="2" stroke-miterlimit="10" cx="889.1" cy="57.8" r="0.8"/>
	<circle fill="none" stroke="#385864" stroke-width="2" stroke-miterlimit="10" cx="894" cy="57.8" r="0.8"/>
	<circle fill="none" stroke="#385864" stroke-width="2" stroke-miterlimit="10" cx="862.1" cy="60.3" r="0.8"/>
	<circle fill="none" stroke="#385864" stroke-width="2" stroke-miterlimit="10" cx="862.1" cy="65.2" r="0.8"/>
	<circle fill="none" stroke="#385864" stroke-width="2" stroke-miterlimit="10" cx="859.6" cy="62.7" r="0.8"/>
	<circle fill="none" stroke="#385864" stroke-width="2" stroke-miterlimit="10" cx="864.5" cy="62.7" r="0.8"/>
	<circle fill="none" stroke="#385864" stroke-width="2" stroke-miterlimit="10" cx="867" cy="60.3" r="0.8"/>
	<circle fill="none" stroke="#385864" stroke-width="2" stroke-miterlimit="10" cx="871.9" cy="60.3" r="0.8"/>
	<circle fill="none" stroke="#385864" stroke-width="2" stroke-miterlimit="10" cx="867" cy="65.2" r="0.8"/>
	<circle fill="none" stroke="#385864" stroke-width="2" stroke-miterlimit="10" cx="871.9" cy="65.2" r="0.8"/>
	<circle fill="none" stroke="#385864" stroke-width="2" stroke-miterlimit="10" cx="869.4" cy="62.7" r="0.8"/>
	<circle fill="none" stroke="#385864" stroke-width="2" stroke-miterlimit="10" cx="874.4" cy="62.7" r="0.8"/>
	<circle fill="none" stroke="#385864" stroke-width="2" stroke-miterlimit="10" cx="876.8" cy="60.3" r="0.8"/>
	<circle fill="none" stroke="#385864" stroke-width="2" stroke-miterlimit="10" cx="881.7" cy="60.3" r="0.8"/>
	<circle fill="none" stroke="#385864" stroke-width="2" stroke-miterlimit="10" cx="876.8" cy="65.2" r="0.8"/>
	<circle fill="none" stroke="#385864" stroke-width="2" stroke-miterlimit="10" cx="881.7" cy="65.2" r="0.8"/>
	<circle fill="none" stroke="#385864" stroke-width="2" stroke-miterlimit="10" cx="884.2" cy="62.7" r="0.8"/>
	<circle fill="none" stroke="#385864" stroke-width="2" stroke-miterlimit="10" cx="886.6" cy="60.3" r="0.8"/>
	<circle fill="none" stroke="#385864" stroke-width="2" stroke-miterlimit="10" cx="891.6" cy="60.3" r="0.8"/>
	<circle fill="none" stroke="#385864" stroke-width="2" stroke-miterlimit="10" cx="886.6" cy="65.2" r="0.8"/>
	<circle fill="none" stroke="#385864" stroke-width="2" stroke-miterlimit="10" cx="891.6" cy="65.2" r="0.8"/>
	<circle fill="none" stroke="#385864" stroke-width="2" stroke-miterlimit="10" cx="889.1" cy="62.7" r="0.8"/>
	<circle fill="none" stroke="#385864" stroke-width="2" stroke-miterlimit="10" cx="894" cy="62.7" r="0.8"/>
	<circle fill="none" stroke="#385864" stroke-width="2" stroke-miterlimit="10" cx="896.5" cy="60.3" r="0.8"/>
	<circle fill="none" stroke="#385864" stroke-width="2" stroke-miterlimit="10" cx="896.5" cy="65.2" r="0.8"/>
	<circle fill="none" stroke="#385864" stroke-width="2" stroke-miterlimit="10" cx="898.9" cy="62.7" r="0.8"/>
	<circle fill="none" stroke="#385864" stroke-width="2" stroke-miterlimit="10" cx="859.6" cy="67.7" r="0.8"/>
	<circle fill="none" stroke="#385864" stroke-width="2" stroke-miterlimit="10" cx="864.5" cy="67.7" r="0.8"/>
	<circle fill="none" stroke="#385864" stroke-width="2" stroke-miterlimit="10" cx="869.4" cy="67.7" r="0.8"/>
	<circle fill="none" stroke="#385864" stroke-width="2" stroke-miterlimit="10" cx="874.4" cy="67.7" r="0.8"/>
	<circle fill="none" stroke="#385864" stroke-width="2" stroke-miterlimit="10" cx="884.2" cy="67.7" r="0.8"/>
	<circle fill="none" stroke="#385864" stroke-width="2" stroke-miterlimit="10" cx="889.1" cy="67.7" r="0.8"/>
	<circle fill="none" stroke="#385864" stroke-width="2" stroke-miterlimit="10" cx="894" cy="67.7" r="0.8"/>
	<circle fill="none" stroke="#385864" stroke-width="2" stroke-miterlimit="10" cx="898.9" cy="67.7" r="0.8"/>
	<circle fill="none" stroke="#385864" stroke-width="2" stroke-miterlimit="10" cx="862.1" cy="70.1" r="0.8"/>
	<circle fill="none" stroke="#385864" stroke-width="2" stroke-miterlimit="10" cx="857.1" cy="75" r="0.8"/>
	<circle fill="none" stroke="#385864" stroke-width="2" stroke-miterlimit="10" cx="862.1" cy="75" r="0.8"/>
	<circle fill="none" stroke="#385864" stroke-width="2" stroke-miterlimit="10" cx="859.6" cy="72.6" r="0.8"/>
	<circle fill="none" stroke="#385864" stroke-width="2" stroke-miterlimit="10" cx="864.5" cy="72.6" r="0.8"/>
	<circle fill="none" stroke="#385864" stroke-width="2" stroke-miterlimit="10" cx="867" cy="70.1" r="0.8"/>
	<circle fill="none" stroke="#385864" stroke-width="2" stroke-miterlimit="10" cx="871.9" cy="70.1" r="0.8"/>
	<circle fill="none" stroke="#385864" stroke-width="2" stroke-miterlimit="10" cx="867" cy="75" r="0.8"/>
	<circle fill="none" stroke="#385864" stroke-width="2" stroke-miterlimit="10" cx="871.9" cy="75" r="0.8"/>
	<circle fill="none" stroke="#385864" stroke-width="2" stroke-miterlimit="10" cx="869.4" cy="72.6" r="0.8"/>
	<circle fill="none" stroke="#385864" stroke-width="2" stroke-miterlimit="10" cx="874.4" cy="72.6" r="0.8"/>
	<circle fill="none" stroke="#385864" stroke-width="2" stroke-miterlimit="10" cx="876.8" cy="70.1" r="0.8"/>
	<circle fill="none" stroke="#385864" stroke-width="2" stroke-miterlimit="10" cx="881.7" cy="70.1" r="0.8"/>
	<circle fill="none" stroke="#385864" stroke-width="2" stroke-miterlimit="10" cx="884.2" cy="72.6" r="0.8"/>
	<circle fill="none" stroke="#385864" stroke-width="2" stroke-miterlimit="10" cx="886.6" cy="70.1" r="0.8"/>
	<circle fill="none" stroke="#385864" stroke-width="2" stroke-miterlimit="10" cx="891.6" cy="70.1" r="0.8"/>
	<circle fill="none" stroke="#385864" stroke-width="2" stroke-miterlimit="10" cx="891.6" cy="75" r="0.8"/>
	<circle fill="none" stroke="#385864" stroke-width="2" stroke-miterlimit="10" cx="889.1" cy="72.6" r="0.8"/>
	<circle fill="none" stroke="#385864" stroke-width="2" stroke-miterlimit="10" cx="894" cy="72.6" r="0.8"/>
	<circle fill="none" stroke="#385864" stroke-width="2" stroke-miterlimit="10" cx="896.5" cy="70.1" r="0.8"/>
	<circle fill="none" stroke="#385864" stroke-width="2" stroke-miterlimit="10" cx="896.5" cy="75" r="0.8"/>
	<circle fill="none" stroke="#385864" stroke-width="2" stroke-miterlimit="10" cx="898.9" cy="72.6" r="0.8"/>
	<circle fill="none" stroke="#385864" stroke-width="2" stroke-miterlimit="10" cx="901.4" cy="75" r="0.8"/>
</g>
<g>
	<path fill="none" stroke="#1B75BB" stroke-width="2" stroke-miterlimit="10" d="M89.3,47.9H83c-1.5,0-2.7-1.2-2.7-2.8
		c0-1.5,1.2-2.8,2.7-2.8h6.3c1.5,0,2.7,1.2,2.7,2.8C92,46.7,90.8,47.9,89.3,47.9z"/>
	<ellipse fill="none" stroke="#1B75BB" stroke-width="2" stroke-miterlimit="10" cx="89.3" cy="45.2" rx="2.7" ry="2.8"/>
	<path fill="none" stroke="#1B75BB" stroke-width="2" stroke-miterlimit="10" d="M74,51.6c0,0-9.3,14,9.9,24.1v2.8"/>
	<path fill="none" stroke="#1B75BB" stroke-width="2" stroke-miterlimit="10" d="M65.4,39.9c0,0.2,0,0.5-0.1,0.6
		c-0.6,0.9-2.3,1.4-3.5,1.3c-0.3,0-0.6,0-0.9,0l-4.5-4.7c-0.5-0.5-1.3-0.5-1.8,0l-0.7,0.7c-0.5,0.5-0.5,1.4,0,1.9l4.6,4.8
		c0,0.2,0,0.4,0,0.7c-0.1,2.9-0.1,6.1-1.1,8.7c-0.3,0.9-0.6,1.8-0.9,2.7c5.1-1.3,11.2-6.2,12.3-9.6C69.8,43.6,67.3,41.2,65.4,39.9z"
		/>
	<path fill="none" stroke="#1B75BB" stroke-width="2" stroke-miterlimit="10" d="M93.7,57.4l-1.8-0.4l1.3-1.4
		c0.5-0.5,0.5-1.4-0.1-1.9l-0.7-0.7c-0.5-0.5-1.4-0.5-1.8,0.1l-2.7,3l-0.6-0.1c0.9,1.4,1.5,2.8,2,4.3l3.6,0.9c0.7,0.2,1.4-0.3,1.6-1
		l0.2-1C94.9,58.3,94.4,57.6,93.7,57.4z"/>
	<line fill="none" stroke="#1B75BB" stroke-width="2" stroke-miterlimit="10" x1="86.6" y1="73.9" x2="83.9" y2="75.7"/>
	<path fill="none" stroke="#1B75BB" stroke-width="2" stroke-miterlimit="10" d="M71.4,63.7c-3.7,3.4-3.7,9.6-0.1,13.8l0,2.9"/>
	<path fill="none" stroke="#1B75BB" stroke-width="2" stroke-miterlimit="10" d="M84.4,63.7c-3.1-4.6-8.1-8.5-12.2-5.6"/>
	<polyline fill="none" stroke="#1B75BB" stroke-width="2" stroke-miterlimit="10" points="81.2,64.6 81.2,60.9 84.8,58.1 	"/>
	<line fill="none" stroke="#1B75BB" stroke-width="2" stroke-miterlimit="10" x1="71.3" y1="77.6" x2="74" y2="77.6"/>
	<polyline fill="none" stroke="#1B75BB" stroke-width="2" stroke-miterlimit="10" points="77.6,76.7 77.6,71.1 83,71.1 	"/>
	<path fill="none" stroke="#1B75BB" stroke-width="2" stroke-miterlimit="10" d="M91.6,74c-1.1-8.9-0.9-18.4-10.3-23.9
		c-0.6-0.3-0.4-1.2,0.2-1.3c1.1-0.2,2-0.4,2.7-0.8H83c-1.5,0-2.7-1.2-2.7-2.8c0-1.5,1.2-2.8,2.7-2.8h0.7c-0.6-0.4-1.4-0.5-2.3-0.5
		c-0.6,0-1.1-0.4-1.3-0.9c-0.2-0.6-0.5-1.2-0.7-1.8l1.3-1.3c1.1-1.1,1.1-2.8,0-3.9c-1.1-1.1-2.8-1.1-3.8,0l-1.4,1.4
		c-1.7-0.7-3.5-0.5-5.2,0.6c-0.6,0.4-1.3,0.2-1.7-0.4c-0.4-0.6-0.8-1.1-1.4-1.4c-0.6-0.3-1.8,0-2.5,0.4c-0.4,0.3-0.2,1.4-0.1,2.2
		c0.2,1.3,1.1,2.9,0.6,3.7c-0.6,0.9-2.3,1.4-3.5,1.3c-0.3,0-0.6,0-0.9,0l-4.5-4.7c-0.5-0.5-1.3-0.5-1.8,0l-0.7,0.7
		c-0.5,0.5-0.5,1.4,0,1.9l4.6,4.8c0,0.2,0,0.4,0,0.7c-0.1,2.9-0.1,6.1-1.1,8.7c-3.2,8.7-2.1,16.6,4,23.4c7.1,7.8,16.3,10,26.4,9.3
		c2.8-0.2,4.4-2,4.5-4.9C92.1,79.2,91.9,76.6,91.6,74z"/>
</g>
<g>
	<line fill="none" stroke="#F26D26" stroke-width="2" stroke-miterlimit="10" x1="943.1" y1="164.2" x2="950.2" y2="173.3"/>
	<ellipse fill="none" stroke="#F26D26" stroke-width="2" stroke-miterlimit="10" cx="942.4" cy="161.6" rx="2.4" ry="2.5"/>
	<line fill="none" stroke="#F26D26" stroke-width="2" stroke-miterlimit="10" x1="947.9" y1="152.5" x2="943.2" y2="159.1"/>
	<line fill="none" stroke="#F26D26" stroke-width="2" stroke-miterlimit="10" x1="977.7" y1="164.2" x2="970.6" y2="173.3"/>
	<ellipse fill="none" stroke="#F26D26" stroke-width="2" stroke-miterlimit="10" cx="978.5" cy="161.6" rx="2.4" ry="2.5"/>
	<line fill="none" stroke="#F26D26" stroke-width="2" stroke-miterlimit="10" x1="972.2" y1="152.5" x2="977.7" y2="159.1"/>
	<ellipse fill="none" stroke="#F26D26" stroke-width="2" stroke-miterlimit="10" cx="954.2" cy="181" rx="2.4" ry="2.5"/>
	<ellipse fill="none" stroke="#F26D26" stroke-width="2" stroke-miterlimit="10" cx="966.7" cy="181" rx="2.4" ry="2.5"/>
	<line fill="none" stroke="#F26D26" stroke-width="2" stroke-miterlimit="10" x1="960.4" y1="176" x2="960.4" y2="152.5"/>
	<line fill="none" stroke="#F26D26" stroke-width="2" stroke-miterlimit="10" x1="955.1" y1="169.3" x2="966.1" y2="169.3"/>
	<line fill="none" stroke="#F26D26" stroke-width="2" stroke-miterlimit="10" x1="953.6" y1="165.9" x2="967.7" y2="165.9"/>
	<line fill="none" stroke="#F26D26" stroke-width="2" stroke-miterlimit="10" x1="950.4" y1="162.6" x2="970.8" y2="162.6"/>
	<line fill="none" stroke="#F26D26" stroke-width="2" stroke-miterlimit="10" x1="967.7" y1="155.9" x2="953.6" y2="155.9"/>
	<line fill="none" stroke="#F26D26" stroke-width="2" stroke-miterlimit="10" x1="970.8" y1="159.2" x2="950.4" y2="159.2"/>
	<line fill="none" stroke="#F26D26" stroke-width="2" stroke-miterlimit="10" x1="937.7" y1="152.5" x2="983.2" y2="152.5"/>
	<line fill="none" stroke="#F26D26" stroke-width="2" stroke-miterlimit="10" x1="937.7" y1="186.8" x2="983.2" y2="186.8"/>
	<polygon fill="none" stroke="#F26D26" stroke-width="2" stroke-miterlimit="10" points="960.4,192.7 947.1,192.7 946.3,186.8 
		960.4,186.8 	"/>
	<polygon fill="none" stroke="#F26D26" stroke-width="2" stroke-miterlimit="10" points="973.8,192.7 960.4,192.7 960.4,186.8 
		974.6,186.8 	"/>
	<path fill="none" stroke="#F26D26" stroke-width="2" stroke-miterlimit="10" d="M955.2,145.1c0.4,0.4,0.8,0.7,1.3,1
		c1,0.7,0.8,1.8,0.8,3.1c0,0.5-0.3,0.9-0.8,0.9h-5c-0.2,0-0.3-0.1-0.5-0.2c-0.8-0.6-1.7-0.8-2.7-0.6c-1.5,0.3-2.6,1.7-2.8,3.3
		c0,0,0,0,0,0h7h15.8h7c0,0,0,0,0,0c-0.1-1.6-1.3-2.9-2.8-3.3c-1-0.2-2,0-2.7,0.6c-0.1,0.1-0.3,0.2-0.5,0.2h-5
		c-0.5,0-0.8-0.4-0.8-0.9c0-1.3-0.2-2.4,0.8-3.1c0.5-0.3,0.9-0.6,1.3-1"/>
	<path fill="none" stroke="#F26D26" stroke-width="2" stroke-miterlimit="10" d="M953.6,186.8h5.7c0.1-0.1,0.1-0.3,0.2-0.4
		c0.2-0.5,0.5-0.8,1-0.8c0.4,0.1,0.8,0.4,1,0.8c0,0.1,0.1,0.3,0.2,0.4h5.7l5.7-5c1.1-1.1,1.3-2.9,0.5-4.3c-0.7-1.2-3-1.8-4.1-1.6
		c-1.3,0.2-2.6,0.1-3.4-1l-0.4-0.4c-0.4-0.2-0.8-0.3-1.2-0.3h-7c-0.6,0-1.2,0-1.7,0.4l-0.6,0.4c-0.8,0.9-2,1.3-3.1,1
		c-1.2-0.4-3.5,0.1-4.3,1.4c-0.8,1.3-0.5,3.2,0.5,4.3L953.6,186.8z"/>
	<ellipse fill="#F26D26" cx="937.7" cy="154.2" rx="0.8" ry="0.8"/>
	<ellipse fill="#F26D26" cx="940.8" cy="154.2" rx="0.8" ry="0.8"/>
	<ellipse fill="#F26D26" cx="943.9" cy="154.2" rx="0.8" ry="0.8"/>
	<ellipse fill="#F26D26" cx="942.4" cy="155.9" rx="0.8" ry="0.8"/>
	<ellipse fill="#F26D26" cx="939.2" cy="155.9" rx="0.8" ry="0.8"/>
	<ellipse fill="#F26D26" cx="940.8" cy="157.6" rx="0.8" ry="0.8"/>
	<ellipse fill="#F26D26" cx="943.9" cy="157.6" rx="0.8" ry="0.8"/>
	<ellipse fill="#F26D26" cx="939.2" cy="159.2" rx="0.8" ry="0.8"/>
	<ellipse fill="#F26D26" cx="937.7" cy="160.9" rx="0.8" ry="0.8"/>
	<ellipse fill="#F26D26" cx="939.2" cy="162.6" rx="0.8" ry="0.8"/>
	<ellipse fill="#F26D26" cx="939.2" cy="165.9" rx="0.8" ry="0.8"/>
	<ellipse fill="#F26D26" cx="942.4" cy="165.9" rx="0.8" ry="0.8"/>
	<ellipse fill="#F26D26" cx="937.7" cy="164.3" rx="0.8" ry="0.8"/>
	<ellipse fill="#F26D26" cx="940.8" cy="164.3" rx="0.8" ry="0.8"/>
	<ellipse fill="#F26D26" cx="937.7" cy="167.6" rx="0.8" ry="0.8"/>
	<ellipse fill="#F26D26" cx="940.8" cy="167.6" rx="0.8" ry="0.8"/>
	<ellipse fill="#F26D26" cx="943.9" cy="167.6" rx="0.8" ry="0.8"/>
	<ellipse fill="#F26D26" cx="939.2" cy="169.3" rx="0.8" ry="0.8"/>
	<ellipse fill="#F26D26" cx="942.4" cy="169.3" rx="0.8" ry="0.8"/>
	<ellipse fill="#F26D26" cx="937.7" cy="170.9" rx="0.8" ry="0.8"/>
	<ellipse fill="#F26D26" cx="940.8" cy="170.9" rx="0.8" ry="0.8"/>
	<ellipse fill="#F26D26" cx="943.9" cy="170.9" rx="0.8" ry="0.8"/>
	<ellipse fill="#F26D26" cx="939.2" cy="172.6" rx="0.8" ry="0.8"/>
	<ellipse fill="#F26D26" cx="942.4" cy="172.6" rx="0.8" ry="0.8"/>
	<ellipse fill="#F26D26" cx="937.7" cy="174.3" rx="0.8" ry="0.8"/>
	<ellipse fill="#F26D26" cx="940.8" cy="174.3" rx="0.8" ry="0.8"/>
	<ellipse fill="#F26D26" cx="943.9" cy="174.3" rx="0.8" ry="0.8"/>
	<ellipse fill="#F26D26" cx="947.1" cy="174.3" rx="0.8" ry="0.8"/>
	<ellipse fill="#F26D26" cx="948.7" cy="176" rx="0.8" ry="0.8"/>
	<ellipse fill="#F26D26" cx="945.5" cy="172.6" rx="0.8" ry="0.8"/>
	<ellipse fill="#F26D26" cx="948.7" cy="172.6" rx="0.8" ry="0.8"/>
	<ellipse fill="#F26D26" cx="950.2" cy="174.3" rx="0.8" ry="0.8"/>
	<ellipse fill="#F26D26" cx="945.5" cy="169.3" rx="0.8" ry="0.8"/>
	<ellipse fill="#F26D26" cx="947.1" cy="170.9" rx="0.8" ry="0.8"/>
	<ellipse fill="#F26D26" cx="939.2" cy="176" rx="0.8" ry="0.8"/>
	<ellipse fill="#F26D26" cx="942.4" cy="176" rx="0.8" ry="0.8"/>
	<ellipse fill="#F26D26" cx="937.7" cy="177.6" rx="0.8" ry="0.8"/>
	<ellipse fill="#F26D26" cx="940.8" cy="177.6" rx="0.8" ry="0.8"/>
	<ellipse fill="#F26D26" cx="943.9" cy="177.6" rx="0.8" ry="0.8"/>
	<ellipse fill="#F26D26" cx="947.1" cy="177.6" rx="0.8" ry="0.8"/>
	<ellipse fill="#F26D26" cx="945.5" cy="176" rx="0.8" ry="0.8"/>
	<ellipse fill="#F26D26" cx="945.5" cy="179.3" rx="0.8" ry="0.8"/>
	<ellipse fill="#F26D26" cx="939.2" cy="179.3" rx="0.8" ry="0.8"/>
	<ellipse fill="#F26D26" cx="942.4" cy="179.3" rx="0.8" ry="0.8"/>
	<ellipse fill="#F26D26" cx="937.7" cy="181" rx="0.8" ry="0.8"/>
	<ellipse fill="#F26D26" cx="940.8" cy="181" rx="0.8" ry="0.8"/>
	<ellipse fill="#F26D26" cx="943.9" cy="181" rx="0.8" ry="0.8"/>
	<ellipse fill="#F26D26" cx="947.1" cy="181" rx="0.8" ry="0.8"/>
	<ellipse fill="#F26D26" cx="939.2" cy="182.7" rx="0.8" ry="0.8"/>
	<ellipse fill="#F26D26" cx="942.4" cy="182.7" rx="0.8" ry="0.8"/>
	<ellipse fill="#F26D26" cx="939.2" cy="186" rx="0.8" ry="0.8"/>
	<ellipse fill="#F26D26" cx="942.4" cy="186" rx="0.8" ry="0.8"/>
	<ellipse fill="#F26D26" cx="937.7" cy="184.3" rx="0.8" ry="0.8"/>
	<ellipse fill="#F26D26" cx="940.8" cy="184.3" rx="0.8" ry="0.8"/>
	<ellipse fill="#F26D26" cx="943.9" cy="184.3" rx="0.8" ry="0.8"/>
	<ellipse fill="#F26D26" cx="948.7" cy="186" rx="0.8" ry="0.8"/>
	<ellipse fill="#F26D26" cx="947.1" cy="184.3" rx="0.8" ry="0.8"/>
	<ellipse fill="#F26D26" cx="945.5" cy="186" rx="0.8" ry="0.8"/>
	<ellipse fill="#F26D26" cx="945.5" cy="182.7" rx="0.8" ry="0.8"/>
	<ellipse fill="#F26D26" cx="948.7" cy="182.7" rx="0.8" ry="0.8"/>
	<ellipse fill="#F26D26" cx="950.2" cy="184.3" rx="0.8" ry="0.8"/>
	<ellipse fill="#F26D26" cx="937.7" cy="157.6" rx="0.8" ry="0.8"/>
	<ellipse fill="#F26D26" cx="983.2" cy="154.2" rx="0.8" ry="0.8"/>
	<ellipse fill="#F26D26" cx="980.1" cy="154.2" rx="0.8" ry="0.8"/>
	<ellipse fill="#F26D26" cx="976.9" cy="154.2" rx="0.8" ry="0.8"/>
	<ellipse fill="#F26D26" cx="978.5" cy="155.9" rx="0.8" ry="0.8"/>
	<ellipse fill="#F26D26" cx="981.6" cy="155.9" rx="0.8" ry="0.8"/>
	<ellipse fill="#F26D26" cx="980.1" cy="157.6" rx="0.8" ry="0.8"/>
	<ellipse fill="#F26D26" cx="976.9" cy="157.6" rx="0.8" ry="0.8"/>
	<ellipse fill="#F26D26" cx="981.6" cy="159.2" rx="0.8" ry="0.8"/>
	<ellipse fill="#F26D26" cx="983.2" cy="160.9" rx="0.8" ry="0.8"/>
	<ellipse fill="#F26D26" cx="981.6" cy="162.6" rx="0.8" ry="0.8"/>
	<ellipse fill="#F26D26" cx="981.6" cy="165.9" rx="0.8" ry="0.8"/>
	<ellipse fill="#F26D26" cx="978.5" cy="165.9" rx="0.8" ry="0.8"/>
	<ellipse fill="#F26D26" cx="983.2" cy="164.3" rx="0.8" ry="0.8"/>
	<ellipse fill="#F26D26" cx="980.1" cy="164.3" rx="0.8" ry="0.8"/>
	<ellipse fill="#F26D26" cx="983.2" cy="167.6" rx="0.8" ry="0.8"/>
	<ellipse fill="#F26D26" cx="980.1" cy="167.6" rx="0.8" ry="0.8"/>
	<ellipse fill="#F26D26" cx="976.9" cy="167.6" rx="0.8" ry="0.8"/>
	<ellipse fill="#F26D26" cx="981.6" cy="169.3" rx="0.8" ry="0.8"/>
	<ellipse fill="#F26D26" cx="978.5" cy="169.3" rx="0.8" ry="0.8"/>
	<ellipse fill="#F26D26" cx="983.2" cy="170.9" rx="0.8" ry="0.8"/>
	<ellipse fill="#F26D26" cx="980.1" cy="170.9" rx="0.8" ry="0.8"/>
	<ellipse fill="#F26D26" cx="976.9" cy="170.9" rx="0.8" ry="0.8"/>
	<ellipse fill="#F26D26" cx="981.6" cy="172.6" rx="0.8" ry="0.8"/>
	<ellipse fill="#F26D26" cx="978.5" cy="172.6" rx="0.8" ry="0.8"/>
	<ellipse fill="#F26D26" cx="983.2" cy="174.3" rx="0.8" ry="0.8"/>
	<ellipse fill="#F26D26" cx="980.1" cy="174.3" rx="0.8" ry="0.8"/>
	<ellipse fill="#F26D26" cx="976.9" cy="174.3" rx="0.8" ry="0.8"/>
	<ellipse fill="#F26D26" cx="973.8" cy="174.3" rx="0.8" ry="0.8"/>
	<ellipse fill="#F26D26" cx="972.2" cy="176" rx="0.8" ry="0.8"/>
	<ellipse fill="#F26D26" cx="975.4" cy="172.6" rx="0.8" ry="0.8"/>
	<ellipse fill="#F26D26" cx="972.2" cy="172.6" rx="0.8" ry="0.8"/>
	<ellipse fill="#F26D26" cx="970.6" cy="174.3" rx="0.8" ry="0.8"/>
	<ellipse fill="#F26D26" cx="975.4" cy="169.3" rx="0.8" ry="0.8"/>
	<ellipse fill="#F26D26" cx="973.8" cy="170.9" rx="0.8" ry="0.8"/>
	<ellipse fill="#F26D26" cx="981.6" cy="176" rx="0.8" ry="0.8"/>
	<ellipse fill="#F26D26" cx="978.5" cy="176" rx="0.8" ry="0.8"/>
	<ellipse fill="#F26D26" cx="983.2" cy="177.6" rx="0.8" ry="0.8"/>
	<ellipse fill="#F26D26" cx="980.1" cy="177.6" rx="0.8" ry="0.8"/>
	<ellipse fill="#F26D26" cx="976.9" cy="177.6" rx="0.8" ry="0.8"/>
	<ellipse fill="#F26D26" cx="973.8" cy="177.6" rx="0.8" ry="0.8"/>
	<ellipse fill="#F26D26" cx="975.4" cy="176" rx="0.8" ry="0.8"/>
	<ellipse fill="#F26D26" cx="975.4" cy="179.3" rx="0.8" ry="0.8"/>
	<ellipse fill="#F26D26" cx="981.6" cy="179.3" rx="0.8" ry="0.8"/>
	<ellipse fill="#F26D26" cx="978.5" cy="179.3" rx="0.8" ry="0.8"/>
	<ellipse fill="#F26D26" cx="983.2" cy="181" rx="0.8" ry="0.8"/>
	<ellipse fill="#F26D26" cx="980.1" cy="181" rx="0.8" ry="0.8"/>
	<ellipse fill="#F26D26" cx="976.9" cy="181" rx="0.8" ry="0.8"/>
	<ellipse fill="#F26D26" cx="973.8" cy="181" rx="0.8" ry="0.8"/>
	<ellipse fill="#F26D26" cx="981.6" cy="182.7" rx="0.8" ry="0.8"/>
	<ellipse fill="#F26D26" cx="978.5" cy="182.7" rx="0.8" ry="0.8"/>
	<ellipse fill="#F26D26" cx="981.6" cy="186" rx="0.8" ry="0.8"/>
	<ellipse fill="#F26D26" cx="978.5" cy="186" rx="0.8" ry="0.8"/>
	<ellipse fill="#F26D26" cx="983.2" cy="184.3" rx="0.8" ry="0.8"/>
	<ellipse fill="#F26D26" cx="980.1" cy="184.3" rx="0.8" ry="0.8"/>
	<ellipse fill="#F26D26" cx="976.9" cy="184.3" rx="0.8" ry="0.8"/>
	<ellipse fill="#F26D26" cx="972.2" cy="186" rx="0.8" ry="0.8"/>
	<ellipse fill="#F26D26" cx="973.8" cy="184.3" rx="0.8" ry="0.8"/>
	<ellipse fill="#F26D26" cx="975.4" cy="186" rx="0.8" ry="0.8"/>
	<ellipse fill="#F26D26" cx="975.4" cy="182.7" rx="0.8" ry="0.8"/>
	<ellipse fill="#F26D26" cx="972.2" cy="182.7" rx="0.8" ry="0.8"/>
	<ellipse fill="#F26D26" cx="970.6" cy="184.3" rx="0.8" ry="0.8"/>
	<ellipse fill="#F26D26" cx="983.2" cy="157.6" rx="0.8" ry="0.8"/>
</g>
<g>
	<ellipse fill="none" stroke="#2FBFD1" stroke-width="2" stroke-miterlimit="10" cx="43.9" cy="464.5" rx="2.8" ry="2.8"/>
	<ellipse fill="none" stroke="#2FBFD1" stroke-width="2" stroke-miterlimit="10" cx="43.9" cy="475.1" rx="2.8" ry="2.8"/>
	<ellipse fill="none" stroke="#2FBFD1" stroke-width="2" stroke-miterlimit="10" cx="43.9" cy="485.7" rx="2.8" ry="2.8"/>
	<line fill="none" stroke="#2FBFD1" stroke-width="2" stroke-miterlimit="10" x1="49.8" y1="463.3" x2="61.6" y2="463.3"/>
	<line fill="none" stroke="#2FBFD1" stroke-width="2" stroke-miterlimit="10" x1="49.8" y1="466.6" x2="61.6" y2="466.6"/>
	<line fill="none" stroke="#2FBFD1" stroke-width="2" stroke-miterlimit="10" x1="49.8" y1="473.9" x2="61.6" y2="473.9"/>
	<line fill="none" stroke="#2FBFD1" stroke-width="2" stroke-miterlimit="10" x1="49.8" y1="477.1" x2="61.6" y2="477.1"/>
	<line fill="none" stroke="#2FBFD1" stroke-width="2" stroke-miterlimit="10" x1="49.8" y1="484.5" x2="61.6" y2="484.5"/>
	<line fill="none" stroke="#2FBFD1" stroke-width="2" stroke-miterlimit="10" x1="49.8" y1="487.7" x2="61.6" y2="487.7"/>
	<rect x="42.7" y="450.3" fill="none" stroke="#2FBFD1" stroke-width="2" stroke-miterlimit="10" width="18.1" height="7.3"/>
	<polygon fill="none" stroke="#2FBFD1" stroke-width="2" stroke-miterlimit="10" points="60.8,452.7 60.8,457.6 42.7,457.6 
		42.7,452.7 34,452.7 34,497.5 68.7,497.5 68.7,452.7 	"/>
	<polygon fill="none" stroke="#2FBFD1" stroke-width="2" stroke-miterlimit="10" points="60.8,456 60.8,457.6 42.7,457.6 42.7,456 
		37.2,456 37.2,494.2 65.6,494.2 65.6,456 	"/>
	<line fill="none" stroke="#2FBFD1" stroke-width="2" stroke-miterlimit="10" x1="45.8" y1="453.5" x2="57.7" y2="453.5"/>
</g>
<g>
	<path fill="#808184" d="M745.5,67.5H744v2.9h-1.3v-7.5h2.6c0.9,0,1.5,0.2,2,0.6c0.5,0.4,0.7,0.9,0.7,1.7c0,0.5-0.1,0.9-0.4,1.3
		s-0.6,0.6-1,0.8l1.7,3.1v0.1H747L745.5,67.5z M744,66.5h1.3c0.4,0,0.8-0.1,1-0.3c0.2-0.2,0.4-0.5,0.4-0.9c0-0.4-0.1-0.7-0.3-0.9
		c-0.2-0.2-0.6-0.3-1-0.3H744V66.5z"/>
	<path fill="#808184" d="M751.5,70.5c-0.8,0-1.4-0.2-1.9-0.7c-0.5-0.5-0.7-1.2-0.7-2v-0.2c0-0.6,0.1-1.1,0.3-1.5
		c0.2-0.4,0.5-0.8,0.9-1s0.8-0.4,1.3-0.4c0.8,0,1.3,0.2,1.8,0.7c0.4,0.5,0.6,1.2,0.6,2.1V68h-3.6c0,0.5,0.2,0.8,0.5,1.1
		c0.3,0.3,0.6,0.4,1,0.4c0.6,0,1-0.2,1.4-0.7l0.7,0.6c-0.2,0.3-0.5,0.6-0.9,0.8C752.4,70.4,752,70.5,751.5,70.5z M751.4,65.8
		c-0.3,0-0.6,0.1-0.8,0.4c-0.2,0.2-0.3,0.6-0.4,1h2.4V67c0-0.4-0.1-0.7-0.3-0.9C752,65.9,751.7,65.8,751.4,65.8z"/>
	<path fill="#808184" d="M757.8,68.9c0-0.2-0.1-0.4-0.3-0.5s-0.5-0.2-0.9-0.3c-0.4-0.1-0.8-0.2-1.1-0.3c-0.6-0.3-0.9-0.7-0.9-1.3
		c0-0.5,0.2-0.9,0.6-1.2c0.4-0.3,0.9-0.5,1.5-0.5c0.7,0,1.2,0.2,1.6,0.5s0.6,0.8,0.6,1.3h-1.2c0-0.2-0.1-0.4-0.3-0.6
		s-0.4-0.2-0.7-0.2c-0.3,0-0.5,0.1-0.7,0.2s-0.3,0.3-0.3,0.5c0,0.2,0.1,0.3,0.2,0.4c0.2,0.1,0.5,0.2,1,0.3c0.5,0.1,0.9,0.2,1.2,0.4
		c0.3,0.1,0.5,0.3,0.6,0.5s0.2,0.5,0.2,0.8c0,0.5-0.2,0.9-0.6,1.2c-0.4,0.3-1,0.5-1.6,0.5c-0.5,0-0.9-0.1-1.2-0.2
		c-0.4-0.2-0.6-0.4-0.8-0.7c-0.2-0.3-0.3-0.6-0.3-0.9h1.2c0,0.3,0.1,0.5,0.3,0.7s0.5,0.2,0.8,0.2c0.3,0,0.6-0.1,0.8-0.2
		C757.7,69.3,757.8,69.1,757.8,68.9z"/>
	<path fill="#808184" d="M764.9,67.7c0,0.9-0.2,1.5-0.6,2.1s-0.9,0.8-1.6,0.8c-0.6,0-1.1-0.2-1.5-0.6v2.6h-1.2v-7.7h1.2l0.1,0.6
		c0.4-0.4,0.9-0.7,1.5-0.7c0.7,0,1.2,0.3,1.6,0.8C764.7,66,764.9,66.7,764.9,67.7L764.9,67.7z M763.7,67.6c0-0.6-0.1-1-0.3-1.3
		c-0.2-0.3-0.5-0.5-0.9-0.5c-0.5,0-0.9,0.2-1.1,0.6v2.5c0.2,0.4,0.6,0.6,1.1,0.6c0.4,0,0.7-0.2,0.9-0.5
		C763.6,68.7,763.7,68.2,763.7,67.6z"/>
	<path fill="#808184" d="M765.9,63.4c0-0.2,0.1-0.4,0.2-0.5s0.3-0.2,0.5-0.2s0.4,0.1,0.5,0.2s0.2,0.3,0.2,0.5c0,0.2-0.1,0.3-0.2,0.5
		c-0.1,0.1-0.3,0.2-0.5,0.2s-0.4-0.1-0.5-0.2C766,63.8,765.9,63.6,765.9,63.4z M767.3,70.4H766v-5.6h1.2V70.4z"/>
	<path fill="#808184" d="M771.5,66c-0.2,0-0.3,0-0.5,0c-0.6,0-1,0.2-1.2,0.7v3.8h-1.2v-5.6h1.2l0,0.6c0.3-0.5,0.7-0.7,1.3-0.7
		c0.2,0,0.3,0,0.4,0.1L771.5,66z"/>
	<path fill="#808184" d="M775.6,70.4c-0.1-0.1-0.1-0.3-0.1-0.5c-0.4,0.4-0.9,0.6-1.5,0.6c-0.6,0-1-0.2-1.4-0.5
		c-0.4-0.3-0.5-0.7-0.5-1.2c0-0.6,0.2-1,0.7-1.4c0.4-0.3,1.1-0.5,1.9-0.5h0.8v-0.4c0-0.3-0.1-0.5-0.2-0.7s-0.4-0.3-0.7-0.3
		c-0.3,0-0.5,0.1-0.7,0.2c-0.2,0.1-0.3,0.3-0.3,0.5h-1.2c0-0.3,0.1-0.6,0.3-0.9c0.2-0.3,0.5-0.5,0.8-0.6c0.3-0.2,0.7-0.2,1.2-0.2
		c0.7,0,1.2,0.2,1.6,0.5c0.4,0.3,0.6,0.8,0.6,1.4v2.5c0,0.5,0.1,0.9,0.2,1.2v0.1H775.6z M774.2,69.5c0.2,0,0.5-0.1,0.7-0.2
		c0.2-0.1,0.4-0.3,0.5-0.5v-1h-0.7c-0.5,0-0.8,0.1-1,0.2c-0.2,0.2-0.3,0.4-0.3,0.7c0,0.2,0.1,0.4,0.2,0.6
		C773.7,69.4,774,69.5,774.2,69.5z"/>
	<path fill="#808184" d="M779.5,63.5v1.4h1v0.9h-1v3.1c0,0.2,0,0.4,0.1,0.5s0.2,0.1,0.4,0.1c0.1,0,0.3,0,0.4-0.1v1
		c-0.3,0.1-0.6,0.1-0.8,0.1c-1,0-1.4-0.5-1.4-1.6v-3.2h-0.9v-0.9h0.9v-1.4H779.5z"/>
	<path fill="#808184" d="M781,67.6c0-0.5,0.1-1,0.3-1.5c0.2-0.4,0.5-0.8,0.9-1s0.8-0.4,1.3-0.4c0.8,0,1.4,0.2,1.8,0.7
		c0.5,0.5,0.7,1.1,0.8,1.9l0,0.3c0,0.5-0.1,1-0.3,1.5c-0.2,0.4-0.5,0.8-0.9,1c-0.4,0.2-0.8,0.4-1.4,0.4c-0.8,0-1.4-0.3-1.9-0.8
		C781.3,69.2,781,68.5,781,67.6L781,67.6z M782.3,67.7c0,0.6,0.1,1,0.4,1.3c0.2,0.3,0.6,0.5,1,0.5s0.7-0.2,1-0.5s0.4-0.8,0.4-1.4
		c0-0.6-0.1-1-0.4-1.3c-0.2-0.3-0.6-0.5-1-0.5c-0.4,0-0.7,0.2-1,0.5C782.4,66.6,782.3,67.1,782.3,67.7z"/>
	<path fill="#808184" d="M790.1,66c-0.2,0-0.3,0-0.5,0c-0.6,0-1,0.2-1.2,0.7v3.8h-1.2v-5.6h1.2l0,0.6c0.3-0.5,0.7-0.7,1.3-0.7
		c0.2,0,0.3,0,0.4,0.1L790.1,66z"/>
	<path fill="#808184" d="M793.1,68.6l1.1-3.8h1.3l-2.2,6.4c-0.3,0.9-0.9,1.4-1.7,1.4c-0.2,0-0.4,0-0.6-0.1v-1l0.2,0
		c0.3,0,0.6-0.1,0.7-0.2c0.2-0.1,0.3-0.3,0.4-0.6l0.2-0.5l-2-5.5h1.3L793.1,68.6z"/>
	<path fill="#808184" d="M799.1,70.4v-7.5h2.2c0.7,0,1.2,0.1,1.8,0.4c0.5,0.3,0.9,0.7,1.2,1.3c0.3,0.5,0.4,1.2,0.4,1.9v0.4
		c0,0.7-0.1,1.3-0.4,1.9s-0.7,1-1.2,1.2c-0.5,0.3-1.1,0.4-1.8,0.4H799.1z M800.4,64v5.4h0.8c0.7,0,1.2-0.2,1.6-0.6s0.6-1,0.6-1.8
		v-0.4c0-0.8-0.2-1.4-0.5-1.9c-0.4-0.4-0.9-0.6-1.5-0.6H800.4z"/>
	<path fill="#808184" d="M805.8,63.4c0-0.2,0.1-0.4,0.2-0.5s0.3-0.2,0.5-0.2s0.4,0.1,0.5,0.2c0.1,0.1,0.2,0.3,0.2,0.5
		c0,0.2-0.1,0.3-0.2,0.5c-0.1,0.1-0.3,0.2-0.5,0.2s-0.4-0.1-0.5-0.2C805.8,63.8,805.8,63.6,805.8,63.4z M807.1,70.4h-1.2v-5.6h1.2
		V70.4z"/>
	<path fill="#808184" d="M811.5,68.9c0-0.2-0.1-0.4-0.3-0.5s-0.5-0.2-0.9-0.3s-0.8-0.2-1.1-0.3c-0.6-0.3-0.9-0.7-0.9-1.3
		c0-0.5,0.2-0.9,0.6-1.2c0.4-0.3,0.9-0.5,1.5-0.5c0.7,0,1.2,0.2,1.6,0.5c0.4,0.3,0.6,0.8,0.6,1.3h-1.2c0-0.2-0.1-0.4-0.3-0.6
		s-0.4-0.2-0.7-0.2c-0.3,0-0.5,0.1-0.7,0.2c-0.2,0.1-0.3,0.3-0.3,0.5c0,0.2,0.1,0.3,0.2,0.4c0.2,0.1,0.5,0.2,1,0.3
		c0.5,0.1,0.9,0.2,1.2,0.4s0.5,0.3,0.6,0.5s0.2,0.5,0.2,0.8c0,0.5-0.2,0.9-0.6,1.2c-0.4,0.3-1,0.5-1.6,0.5c-0.5,0-0.9-0.1-1.2-0.2
		c-0.4-0.2-0.6-0.4-0.8-0.7c-0.2-0.3-0.3-0.6-0.3-0.9h1.2c0,0.3,0.1,0.5,0.3,0.7s0.5,0.2,0.8,0.2c0.3,0,0.6-0.1,0.8-0.2
		C811.4,69.3,811.5,69.1,811.5,68.9z"/>
	<path fill="#808184" d="M816.2,70.5c-0.8,0-1.4-0.2-1.9-0.7c-0.5-0.5-0.7-1.2-0.7-2v-0.2c0-0.6,0.1-1.1,0.3-1.5
		c0.2-0.4,0.5-0.8,0.9-1s0.8-0.4,1.3-0.4c0.8,0,1.3,0.2,1.8,0.7c0.4,0.5,0.6,1.2,0.6,2.1V68h-3.6c0,0.5,0.2,0.8,0.5,1.1
		c0.3,0.3,0.6,0.4,1,0.4c0.6,0,1-0.2,1.4-0.7l0.7,0.6c-0.2,0.3-0.5,0.6-0.9,0.8C817,70.4,816.6,70.5,816.2,70.5z M816,65.8
		c-0.3,0-0.6,0.1-0.8,0.4c-0.2,0.2-0.3,0.6-0.4,1h2.4V67c0-0.4-0.1-0.7-0.3-0.9C816.6,65.9,816.3,65.8,816,65.8z"/>
	<path fill="#808184" d="M822.6,70.4c-0.1-0.1-0.1-0.3-0.1-0.5c-0.4,0.4-0.9,0.6-1.5,0.6c-0.6,0-1-0.2-1.4-0.5
		c-0.4-0.3-0.5-0.7-0.5-1.2c0-0.6,0.2-1,0.7-1.4c0.4-0.3,1.1-0.5,1.9-0.5h0.8v-0.4c0-0.3-0.1-0.5-0.2-0.7c-0.2-0.2-0.4-0.3-0.7-0.3
		c-0.3,0-0.5,0.1-0.7,0.2c-0.2,0.1-0.3,0.3-0.3,0.5h-1.2c0-0.3,0.1-0.6,0.3-0.9c0.2-0.3,0.5-0.5,0.8-0.6c0.3-0.2,0.7-0.2,1.2-0.2
		c0.7,0,1.2,0.2,1.6,0.5c0.4,0.3,0.6,0.8,0.6,1.4v2.5c0,0.5,0.1,0.9,0.2,1.2v0.1H822.6z M821.2,69.5c0.2,0,0.5-0.1,0.7-0.2
		c0.2-0.1,0.4-0.3,0.5-0.5v-1h-0.7c-0.5,0-0.8,0.1-1,0.2c-0.2,0.2-0.3,0.4-0.3,0.7c0,0.2,0.1,0.4,0.2,0.6
		C820.7,69.4,821,69.5,821.2,69.5z"/>
	<path fill="#808184" d="M828,68.9c0-0.2-0.1-0.4-0.3-0.5s-0.5-0.2-0.9-0.3c-0.4-0.1-0.8-0.2-1.1-0.3c-0.6-0.3-0.9-0.7-0.9-1.3
		c0-0.5,0.2-0.9,0.6-1.2c0.4-0.3,0.9-0.5,1.5-0.5c0.7,0,1.2,0.2,1.6,0.5c0.4,0.3,0.6,0.8,0.6,1.3h-1.2c0-0.2-0.1-0.4-0.3-0.6
		c-0.2-0.2-0.4-0.2-0.7-0.2c-0.3,0-0.5,0.1-0.7,0.2c-0.2,0.1-0.3,0.3-0.3,0.5c0,0.2,0.1,0.3,0.2,0.4c0.2,0.1,0.5,0.2,1,0.3
		c0.5,0.1,0.9,0.2,1.2,0.4s0.5,0.3,0.6,0.5c0.1,0.2,0.2,0.5,0.2,0.8c0,0.5-0.2,0.9-0.6,1.2c-0.4,0.3-1,0.5-1.6,0.5
		c-0.5,0-0.9-0.1-1.2-0.2c-0.4-0.2-0.6-0.4-0.8-0.7c-0.2-0.3-0.3-0.6-0.3-0.9h1.2c0,0.3,0.1,0.5,0.3,0.7s0.5,0.2,0.8,0.2
		c0.3,0,0.6-0.1,0.8-0.2C827.9,69.3,828,69.1,828,68.9z"/>
	<path fill="#808184" d="M832.7,70.5c-0.8,0-1.4-0.2-1.9-0.7c-0.5-0.5-0.7-1.2-0.7-2v-0.2c0-0.6,0.1-1.1,0.3-1.5
		c0.2-0.4,0.5-0.8,0.9-1c0.4-0.2,0.8-0.4,1.3-0.4c0.8,0,1.3,0.2,1.8,0.7c0.4,0.5,0.6,1.2,0.6,2.1V68h-3.6c0,0.5,0.2,0.8,0.5,1.1
		c0.3,0.3,0.6,0.4,1,0.4c0.6,0,1-0.2,1.4-0.7l0.7,0.6c-0.2,0.3-0.5,0.6-0.9,0.8C833.5,70.4,833.1,70.5,832.7,70.5z M832.5,65.8
		c-0.3,0-0.6,0.1-0.8,0.4c-0.2,0.2-0.3,0.6-0.4,1h2.4V67c0-0.4-0.1-0.7-0.3-0.9C833.1,65.9,832.9,65.8,832.5,65.8z"/>
	<path fill="#808184" d="M838.9,68.9c0-0.2-0.1-0.4-0.3-0.5s-0.5-0.2-0.9-0.3c-0.4-0.1-0.8-0.2-1.1-0.3c-0.6-0.3-0.9-0.7-0.9-1.3
		c0-0.5,0.2-0.9,0.6-1.2s0.9-0.5,1.5-0.5c0.7,0,1.2,0.2,1.6,0.5s0.6,0.8,0.6,1.3h-1.2c0-0.2-0.1-0.4-0.3-0.6
		c-0.2-0.2-0.4-0.2-0.7-0.2c-0.3,0-0.5,0.1-0.7,0.2c-0.2,0.1-0.3,0.3-0.3,0.5c0,0.2,0.1,0.3,0.2,0.4c0.2,0.1,0.5,0.2,1,0.3
		c0.5,0.1,0.9,0.2,1.2,0.4c0.3,0.1,0.5,0.3,0.6,0.5c0.1,0.2,0.2,0.5,0.2,0.8c0,0.5-0.2,0.9-0.6,1.2c-0.4,0.3-1,0.5-1.6,0.5
		c-0.5,0-0.9-0.1-1.2-0.2c-0.4-0.2-0.6-0.4-0.8-0.7c-0.2-0.3-0.3-0.6-0.3-0.9h1.2c0,0.3,0.1,0.5,0.3,0.7s0.5,0.2,0.8,0.2
		c0.3,0,0.6-0.1,0.8-0.2C838.8,69.3,838.9,69.1,838.9,68.9z"/>
</g>
<g>
	<path fill="#385864" d="M803.8,47.3h-9.1v-2l4.2-4.4c1-1.2,1.6-2.1,1.6-2.8c0-0.6-0.1-1-0.4-1.3c-0.2-0.3-0.6-0.4-1.1-0.4
		c-0.5,0-0.8,0.2-1.1,0.6c-0.3,0.4-0.4,0.9-0.4,1.5h-3c0-0.8,0.2-1.5,0.6-2.2c0.4-0.7,1-1.2,1.7-1.6c0.7-0.4,1.5-0.6,2.4-0.6
		c1.4,0,2.5,0.3,3.3,1c0.8,0.7,1.1,1.6,1.1,2.8c0,0.5-0.1,1-0.3,1.5s-0.5,1-0.9,1.5c-0.4,0.5-1.1,1.3-2,2.2l-1.7,2h5.2V47.3z"/>
	<path fill="#385864" d="M806.4,50.8l-1.5-0.7l0.3-0.6c0.4-0.8,0.6-1.5,0.7-2.2V45h2.4l0,2c0,0.7-0.2,1.4-0.5,2.1
		C807.4,49.7,807,50.3,806.4,50.8z"/>
	<path fill="#385864" d="M813,39.4h1.4c1.1,0,1.7-0.6,1.7-1.7c0-0.4-0.1-0.8-0.4-1.1s-0.7-0.4-1.1-0.4c-0.4,0-0.8,0.1-1,0.4
		c-0.3,0.2-0.4,0.5-0.4,0.9h-3c0-0.7,0.2-1.3,0.6-1.8c0.4-0.5,0.9-1,1.6-1.3s1.4-0.5,2.2-0.5c1.5,0,2.6,0.3,3.4,1s1.3,1.6,1.3,2.7
		c0,0.6-0.2,1.1-0.5,1.6c-0.3,0.5-0.8,0.9-1.5,1.2c0.7,0.3,1.2,0.6,1.6,1.1s0.6,1.1,0.6,1.9c0,1.2-0.4,2.1-1.3,2.8
		c-0.9,0.7-2.1,1.1-3.5,1.1c-0.9,0-1.7-0.2-2.4-0.5s-1.3-0.8-1.7-1.4c-0.4-0.6-0.6-1.2-0.6-2h3c0,0.4,0.2,0.7,0.5,1
		c0.3,0.3,0.7,0.4,1.2,0.4c0.5,0,1-0.1,1.3-0.4c0.3-0.3,0.5-0.7,0.5-1.1c0-0.7-0.2-1.1-0.5-1.4c-0.3-0.3-0.8-0.4-1.4-0.4H813V39.4z"
		/>
	<path fill="#385864" d="M826.5,42.2c-0.7,0.6-1.4,0.9-2.2,0.9c-1.2,0-2.1-0.4-2.8-1.2s-1-1.9-1-3.2c0-0.8,0.2-1.6,0.6-2.3
		c0.4-0.7,0.9-1.3,1.6-1.7s1.5-0.6,2.3-0.6c0.9,0,1.6,0.2,2.3,0.7c0.7,0.4,1.2,1,1.6,1.8c0.4,0.8,0.6,1.7,0.6,2.7v1.2
		c0,1.4-0.3,2.7-0.8,3.8c-0.6,1.1-1.4,1.9-2.4,2.4c-1,0.6-2.3,0.9-3.7,0.9h-0.2V45l0.6,0C825.1,44.9,826.2,44,826.5,42.2z
		 M825.1,40.9c0.7,0,1.1-0.3,1.4-0.9v-1.3c0-0.8-0.1-1.5-0.4-1.9s-0.7-0.6-1.1-0.6c-0.4,0-0.8,0.2-1.1,0.7s-0.4,1-0.4,1.7
		c0,0.7,0.1,1.2,0.4,1.6C824.2,40.7,824.6,40.9,825.1,40.9z"/>
	<path fill="#385864" d="M839.8,35.8l-4.9,11.5h-3.2l4.9-10.8h-6.2v-2.3h9.4V35.8z"/>
</g>
<g>
	<path fill="#808184" d="M117.5,76.7h-1.3v-3.3h-3.3v3.3h-1.3v-7.5h1.3v3.1h3.3v-3.1h1.3V76.7z"/>
	<path fill="#808184" d="M121.3,76.8c-0.8,0-1.4-0.2-1.9-0.7c-0.5-0.5-0.7-1.2-0.7-2v-0.2c0-0.6,0.1-1.1,0.3-1.5
		c0.2-0.4,0.5-0.8,0.9-1s0.8-0.4,1.3-0.4c0.8,0,1.3,0.2,1.8,0.7c0.4,0.5,0.6,1.2,0.6,2.1v0.5h-3.6c0,0.5,0.2,0.8,0.5,1.1
		c0.3,0.3,0.6,0.4,1,0.4c0.6,0,1-0.2,1.4-0.7l0.7,0.6c-0.2,0.3-0.5,0.6-0.9,0.8C122.2,76.7,121.8,76.8,121.3,76.8z M121.2,72.1
		c-0.3,0-0.6,0.1-0.8,0.4c-0.2,0.2-0.3,0.6-0.4,1h2.4v-0.1c0-0.4-0.1-0.7-0.3-0.9C121.8,72.2,121.5,72.1,121.2,72.1z"/>
	<path fill="#808184" d="M127.8,76.7c-0.1-0.1-0.1-0.3-0.1-0.5c-0.4,0.4-0.9,0.6-1.5,0.6c-0.6,0-1-0.2-1.4-0.5
		c-0.4-0.3-0.5-0.7-0.5-1.2c0-0.6,0.2-1,0.7-1.4c0.4-0.3,1.1-0.5,1.9-0.5h0.8V73c0-0.3-0.1-0.5-0.2-0.7c-0.2-0.2-0.4-0.3-0.7-0.3
		c-0.3,0-0.5,0.1-0.7,0.2c-0.2,0.1-0.3,0.3-0.3,0.5h-1.2c0-0.3,0.1-0.6,0.3-0.9c0.2-0.3,0.5-0.5,0.8-0.6c0.3-0.2,0.7-0.2,1.2-0.2
		c0.7,0,1.2,0.2,1.6,0.5c0.4,0.3,0.6,0.8,0.6,1.4v2.5c0,0.5,0.1,0.9,0.2,1.2v0.1H127.8z M126.4,75.8c0.2,0,0.5-0.1,0.7-0.2
		s0.4-0.3,0.5-0.5v-1h-0.7c-0.5,0-0.8,0.1-1,0.2c-0.2,0.2-0.3,0.4-0.3,0.7c0,0.2,0.1,0.4,0.2,0.6C125.9,75.8,126.1,75.8,126.4,75.8z
		"/>
	<path fill="#808184" d="M133,72.3c-0.2,0-0.3,0-0.5,0c-0.6,0-1,0.2-1.2,0.7v3.8h-1.2v-5.6h1.2l0,0.6c0.3-0.5,0.7-0.7,1.3-0.7
		c0.2,0,0.3,0,0.4,0.1L133,72.3z"/>
	<path fill="#808184" d="M135.7,69.8v1.4h1v0.9h-1v3.1c0,0.2,0,0.4,0.1,0.5c0.1,0.1,0.2,0.1,0.4,0.1c0.1,0,0.3,0,0.4-0.1v1
		c-0.3,0.1-0.6,0.1-0.8,0.1c-1,0-1.4-0.5-1.4-1.6v-3.2h-0.9v-0.9h0.9v-1.4H135.7z"/>
	<path fill="#808184" d="M140.3,76.7v-7.5h2.2c0.7,0,1.2,0.1,1.8,0.4c0.5,0.3,0.9,0.7,1.2,1.3c0.3,0.5,0.4,1.2,0.4,1.9v0.4
		c0,0.7-0.1,1.3-0.4,1.9c-0.3,0.5-0.7,1-1.2,1.2c-0.5,0.3-1.1,0.4-1.8,0.4H140.3z M141.6,70.3v5.4h0.8c0.7,0,1.2-0.2,1.6-0.6
		s0.6-1,0.6-1.8v-0.4c0-0.8-0.2-1.4-0.5-1.9c-0.4-0.4-0.9-0.6-1.5-0.6H141.6z"/>
	<path fill="#808184" d="M147,69.7c0-0.2,0.1-0.4,0.2-0.5s0.3-0.2,0.5-0.2s0.4,0.1,0.5,0.2s0.2,0.3,0.2,0.5c0,0.2-0.1,0.3-0.2,0.5
		s-0.3,0.2-0.5,0.2s-0.4-0.1-0.5-0.2S147,69.9,147,69.7z M148.4,76.7h-1.2v-5.6h1.2V76.7z"/>
	<path fill="#808184" d="M152.7,75.2c0-0.2-0.1-0.4-0.3-0.5c-0.2-0.1-0.5-0.2-0.9-0.3c-0.4-0.1-0.8-0.2-1.1-0.3
		c-0.6-0.3-0.9-0.7-0.9-1.3c0-0.5,0.2-0.9,0.6-1.2s0.9-0.5,1.5-0.5c0.7,0,1.2,0.2,1.6,0.5s0.6,0.8,0.6,1.3h-1.2
		c0-0.2-0.1-0.4-0.3-0.6c-0.2-0.2-0.4-0.2-0.7-0.2c-0.3,0-0.5,0.1-0.7,0.2c-0.2,0.1-0.3,0.3-0.3,0.5c0,0.2,0.1,0.3,0.2,0.4
		c0.2,0.1,0.5,0.2,1,0.3s0.9,0.2,1.2,0.4c0.3,0.1,0.5,0.3,0.6,0.5c0.1,0.2,0.2,0.5,0.2,0.8c0,0.5-0.2,0.9-0.6,1.2
		c-0.4,0.3-1,0.5-1.6,0.5c-0.5,0-0.9-0.1-1.2-0.2c-0.4-0.2-0.6-0.4-0.8-0.7c-0.2-0.3-0.3-0.6-0.3-0.9h1.2c0,0.3,0.1,0.5,0.3,0.7
		c0.2,0.2,0.5,0.2,0.8,0.2c0.3,0,0.6-0.1,0.8-0.2C152.7,75.6,152.7,75.4,152.7,75.2z"/>
	<path fill="#808184" d="M157.4,76.8c-0.8,0-1.4-0.2-1.9-0.7c-0.5-0.5-0.7-1.2-0.7-2v-0.2c0-0.6,0.1-1.1,0.3-1.5
		c0.2-0.4,0.5-0.8,0.9-1s0.8-0.4,1.3-0.4c0.8,0,1.3,0.2,1.8,0.7c0.4,0.5,0.6,1.2,0.6,2.1v0.5H156c0,0.5,0.2,0.8,0.5,1.1
		c0.3,0.3,0.6,0.4,1,0.4c0.6,0,1-0.2,1.4-0.7l0.7,0.6c-0.2,0.3-0.5,0.6-0.9,0.8C158.3,76.7,157.9,76.8,157.4,76.8z M157.3,72.1
		c-0.3,0-0.6,0.1-0.8,0.4c-0.2,0.2-0.3,0.6-0.4,1h2.4v-0.1c0-0.4-0.1-0.7-0.3-0.9C157.9,72.2,157.6,72.1,157.3,72.1z"/>
	<path fill="#808184" d="M163.9,76.7c-0.1-0.1-0.1-0.3-0.1-0.5c-0.4,0.4-0.9,0.6-1.5,0.6c-0.6,0-1-0.2-1.4-0.5s-0.5-0.7-0.5-1.2
		c0-0.6,0.2-1,0.7-1.4c0.4-0.3,1.1-0.5,1.9-0.5h0.8V73c0-0.3-0.1-0.5-0.2-0.7S163,72,162.7,72c-0.3,0-0.5,0.1-0.7,0.2
		c-0.2,0.1-0.3,0.3-0.3,0.5h-1.2c0-0.3,0.1-0.6,0.3-0.9c0.2-0.3,0.5-0.5,0.8-0.6c0.3-0.2,0.7-0.2,1.2-0.2c0.7,0,1.2,0.2,1.6,0.5
		c0.4,0.3,0.6,0.8,0.6,1.4v2.5c0,0.5,0.1,0.9,0.2,1.2v0.1H163.9z M162.5,75.8c0.2,0,0.5-0.1,0.7-0.2c0.2-0.1,0.4-0.3,0.5-0.5v-1H163
		c-0.5,0-0.8,0.1-1,0.2c-0.2,0.2-0.3,0.4-0.3,0.7c0,0.2,0.1,0.4,0.2,0.6C162,75.8,162.2,75.8,162.5,75.8z"/>
	<path fill="#808184" d="M169.3,75.2c0-0.2-0.1-0.4-0.3-0.5c-0.2-0.1-0.5-0.2-0.9-0.3c-0.4-0.1-0.8-0.2-1.1-0.3
		c-0.6-0.3-0.9-0.7-0.9-1.3c0-0.5,0.2-0.9,0.6-1.2s0.9-0.5,1.5-0.5c0.7,0,1.2,0.2,1.6,0.5s0.6,0.8,0.6,1.3h-1.2
		c0-0.2-0.1-0.4-0.3-0.6s-0.4-0.2-0.7-0.2c-0.3,0-0.5,0.1-0.7,0.2s-0.3,0.3-0.3,0.5c0,0.2,0.1,0.3,0.2,0.4c0.2,0.1,0.5,0.2,1,0.3
		c0.5,0.1,0.9,0.2,1.2,0.4c0.3,0.1,0.5,0.3,0.6,0.5c0.1,0.2,0.2,0.5,0.2,0.8c0,0.5-0.2,0.9-0.6,1.2s-1,0.5-1.6,0.5
		c-0.5,0-0.9-0.1-1.2-0.2c-0.4-0.2-0.6-0.4-0.8-0.7c-0.2-0.3-0.3-0.6-0.3-0.9h1.2c0,0.3,0.1,0.5,0.3,0.7c0.2,0.2,0.5,0.2,0.8,0.2
		c0.3,0,0.6-0.1,0.8-0.2C169.2,75.6,169.3,75.4,169.3,75.2z"/>
	<path fill="#808184" d="M173.9,76.8c-0.8,0-1.4-0.2-1.9-0.7c-0.5-0.5-0.7-1.2-0.7-2v-0.2c0-0.6,0.1-1.1,0.3-1.5
		c0.2-0.4,0.5-0.8,0.9-1c0.4-0.2,0.8-0.4,1.3-0.4c0.8,0,1.3,0.2,1.8,0.7c0.4,0.5,0.6,1.2,0.6,2.1v0.5h-3.6c0,0.5,0.2,0.8,0.5,1.1
		c0.3,0.3,0.6,0.4,1,0.4c0.6,0,1-0.2,1.4-0.7l0.7,0.6c-0.2,0.3-0.5,0.6-0.9,0.8C174.8,76.7,174.4,76.8,173.9,76.8z M173.8,72.1
		c-0.3,0-0.6,0.1-0.8,0.4c-0.2,0.2-0.3,0.6-0.4,1h2.4v-0.1c0-0.4-0.1-0.7-0.3-0.9C174.4,72.2,174.1,72.1,173.8,72.1z"/>
	<path fill="#808184" d="M180.1,77.4h-1l2.9-8.1h1L180.1,77.4z"/>
	<path fill="#808184" d="M192.6,76.7h-1.3v-3.3H188v3.3h-1.3v-7.5h1.3v3.1h3.3v-3.1h1.3V76.7z"/>
	<path fill="#808184" d="M196,74.9l1.1-3.8h1.3l-2.2,6.4c-0.3,0.9-0.9,1.4-1.7,1.4c-0.2,0-0.4,0-0.6-0.1v-1l0.2,0
		c0.3,0,0.6-0.1,0.7-0.2c0.2-0.1,0.3-0.3,0.4-0.6l0.2-0.5l-2-5.5h1.3L196,74.9z"/>
	<path fill="#808184" d="M204,74c0,0.9-0.2,1.5-0.6,2.1c-0.4,0.5-0.9,0.8-1.6,0.8c-0.6,0-1.1-0.2-1.5-0.6v2.6h-1.2v-7.7h1.2l0.1,0.6
		c0.4-0.4,0.9-0.7,1.5-0.7c0.7,0,1.2,0.3,1.6,0.8C203.8,72.3,204,73,204,74L204,74z M202.8,73.9c0-0.6-0.1-1-0.3-1.3
		s-0.5-0.5-0.9-0.5c-0.5,0-0.9,0.2-1.1,0.6v2.5c0.2,0.4,0.6,0.6,1.1,0.6c0.4,0,0.7-0.2,0.9-0.5C202.7,75,202.8,74.6,202.8,73.9z"/>
	<path fill="#808184" d="M207.5,76.8c-0.8,0-1.4-0.2-1.9-0.7s-0.7-1.2-0.7-2v-0.2c0-0.6,0.1-1.1,0.3-1.5c0.2-0.4,0.5-0.8,0.9-1
		c0.4-0.2,0.8-0.4,1.3-0.4c0.8,0,1.3,0.2,1.8,0.7c0.4,0.5,0.6,1.2,0.6,2.1v0.5h-3.6c0,0.5,0.2,0.8,0.5,1.1s0.6,0.4,1,0.4
		c0.6,0,1-0.2,1.4-0.7l0.7,0.6c-0.2,0.3-0.5,0.6-0.9,0.8C208.4,76.7,208,76.8,207.5,76.8z M207.4,72.1c-0.3,0-0.6,0.1-0.8,0.4
		c-0.2,0.2-0.3,0.6-0.4,1h2.4v-0.1c0-0.4-0.1-0.7-0.3-0.9C208,72.2,207.7,72.1,207.4,72.1z"/>
	<path fill="#808184" d="M213.6,72.3c-0.2,0-0.3,0-0.5,0c-0.6,0-1,0.2-1.2,0.7v3.8h-1.2v-5.6h1.2l0,0.6c0.3-0.5,0.7-0.7,1.3-0.7
		c0.2,0,0.3,0,0.4,0.1L213.6,72.3z"/>
	<path fill="#808184" d="M216.3,69.8v1.4h1v0.9h-1v3.1c0,0.2,0,0.4,0.1,0.5s0.2,0.1,0.4,0.1c0.1,0,0.3,0,0.4-0.1v1
		c-0.3,0.1-0.6,0.1-0.8,0.1c-1,0-1.4-0.5-1.4-1.6v-3.2h-0.9v-0.9h0.9v-1.4H216.3z"/>
	<path fill="#808184" d="M220.5,76.8c-0.8,0-1.4-0.2-1.9-0.7c-0.5-0.5-0.7-1.2-0.7-2v-0.2c0-0.6,0.1-1.1,0.3-1.5
		c0.2-0.4,0.5-0.8,0.9-1c0.4-0.2,0.8-0.4,1.3-0.4c0.8,0,1.3,0.2,1.8,0.7c0.4,0.5,0.6,1.2,0.6,2.1v0.5h-3.6c0,0.5,0.2,0.8,0.5,1.1
		c0.3,0.3,0.6,0.4,1,0.4c0.6,0,1-0.2,1.4-0.7l0.7,0.6c-0.2,0.3-0.5,0.6-0.9,0.8C221.4,76.7,221,76.8,220.5,76.8z M220.4,72.1
		c-0.3,0-0.6,0.1-0.8,0.4c-0.2,0.2-0.3,0.6-0.4,1h2.4v-0.1c0-0.4-0.1-0.7-0.3-0.9C221,72.2,220.7,72.1,220.4,72.1z"/>
	<path fill="#808184" d="M224.9,71.2l0,0.6c0.4-0.5,1-0.7,1.6-0.7c1.2,0,1.7,0.7,1.8,2v3.7h-1.2v-3.6c0-0.4-0.1-0.6-0.2-0.8
		s-0.4-0.3-0.7-0.3c-0.5,0-0.9,0.2-1.1,0.7v4h-1.2v-5.6H224.9z"/>
	<path fill="#808184" d="M232.6,75.2c0-0.2-0.1-0.4-0.3-0.5c-0.2-0.1-0.5-0.2-0.9-0.3c-0.4-0.1-0.8-0.2-1.1-0.3
		c-0.6-0.3-0.9-0.7-0.9-1.3c0-0.5,0.2-0.9,0.6-1.2s0.9-0.5,1.5-0.5c0.7,0,1.2,0.2,1.6,0.5s0.6,0.8,0.6,1.3h-1.2
		c0-0.2-0.1-0.4-0.3-0.6s-0.4-0.2-0.7-0.2c-0.3,0-0.5,0.1-0.7,0.2s-0.3,0.3-0.3,0.5c0,0.2,0.1,0.3,0.2,0.4c0.2,0.1,0.5,0.2,1,0.3
		c0.5,0.1,0.9,0.2,1.2,0.4c0.3,0.1,0.5,0.3,0.6,0.5c0.1,0.2,0.2,0.5,0.2,0.8c0,0.5-0.2,0.9-0.6,1.2s-1,0.5-1.6,0.5
		c-0.5,0-0.9-0.1-1.2-0.2c-0.4-0.2-0.6-0.4-0.8-0.7c-0.2-0.3-0.3-0.6-0.3-0.9h1.2c0,0.3,0.1,0.5,0.3,0.7c0.2,0.2,0.5,0.2,0.8,0.2
		c0.3,0,0.6-0.1,0.8-0.2C232.5,75.6,232.6,75.4,232.6,75.2z"/>
	<path fill="#808184" d="M234.9,69.7c0-0.2,0.1-0.4,0.2-0.5c0.1-0.1,0.3-0.2,0.5-0.2c0.2,0,0.4,0.1,0.5,0.2s0.2,0.3,0.2,0.5
		c0,0.2-0.1,0.3-0.2,0.5s-0.3,0.2-0.5,0.2c-0.2,0-0.4-0.1-0.5-0.2C234.9,70.1,234.9,69.9,234.9,69.7z M236.2,76.7H235v-5.6h1.2V76.7
		z"/>
	<path fill="#808184" d="M237.2,73.9c0-0.5,0.1-1,0.3-1.5c0.2-0.4,0.5-0.8,0.9-1s0.8-0.4,1.3-0.4c0.8,0,1.4,0.2,1.8,0.7
		c0.5,0.5,0.7,1.1,0.8,1.9l0,0.3c0,0.5-0.1,1-0.3,1.5c-0.2,0.4-0.5,0.8-0.9,1c-0.4,0.2-0.8,0.4-1.4,0.4c-0.8,0-1.4-0.3-1.9-0.8
		C237.5,75.5,237.2,74.8,237.2,73.9L237.2,73.9z M238.5,74c0,0.6,0.1,1,0.4,1.3c0.2,0.3,0.6,0.5,1,0.5c0.4,0,0.7-0.2,1-0.5
		s0.4-0.8,0.4-1.4c0-0.6-0.1-1-0.4-1.3s-0.6-0.5-1-0.5c-0.4,0-0.7,0.2-1,0.5C238.6,72.9,238.5,73.4,238.5,74z"/>
	<path fill="#808184" d="M244.6,71.2l0,0.6c0.4-0.5,1-0.7,1.6-0.7c1.2,0,1.7,0.7,1.8,2v3.7h-1.2v-3.6c0-0.4-0.1-0.6-0.2-0.8
		c-0.2-0.2-0.4-0.3-0.7-0.3c-0.5,0-0.9,0.2-1.1,0.7v4h-1.2v-5.6H244.6z"/>
</g>
<g>
	<path fill="#1B75BB" d="M120.7,53.6h-9.1v-2l4.2-4.4c1-1.2,1.6-2.1,1.6-2.8c0-0.6-0.1-1-0.4-1.3c-0.2-0.3-0.6-0.4-1.1-0.4
		c-0.5,0-0.8,0.2-1.1,0.6c-0.3,0.4-0.4,0.9-0.4,1.5h-3c0-0.8,0.2-1.5,0.6-2.2c0.4-0.7,1-1.2,1.7-1.6c0.7-0.4,1.5-0.6,2.4-0.6
		c1.4,0,2.5,0.3,3.3,1c0.8,0.7,1.1,1.6,1.1,2.8c0,0.5-0.1,1-0.3,1.5c-0.2,0.5-0.5,1-0.9,1.5c-0.4,0.5-1.1,1.3-2,2.2l-1.7,2h5.2V53.6
		z"/>
	<path fill="#1B75BB" d="M123.3,57.1l-1.5-0.7l0.3-0.6c0.4-0.8,0.6-1.5,0.7-2.2v-2.2h2.4l0,2c0,0.7-0.2,1.4-0.5,2.1
		C124.3,56.1,123.9,56.6,123.3,57.1z"/>
	<path fill="#1B75BB" d="M129.9,45.8h1.4c1.1,0,1.7-0.6,1.7-1.7c0-0.4-0.1-0.8-0.4-1.1c-0.3-0.3-0.7-0.4-1.1-0.4
		c-0.4,0-0.8,0.1-1,0.4c-0.3,0.2-0.4,0.5-0.4,0.9h-3c0-0.7,0.2-1.3,0.6-1.8c0.4-0.5,0.9-1,1.6-1.3c0.7-0.3,1.4-0.5,2.2-0.5
		c1.5,0,2.6,0.3,3.4,1c0.8,0.7,1.3,1.6,1.3,2.7c0,0.6-0.2,1.1-0.5,1.6s-0.8,0.9-1.5,1.2c0.7,0.3,1.2,0.6,1.6,1.1s0.6,1.1,0.6,1.9
		c0,1.2-0.4,2.1-1.3,2.8s-2.1,1.1-3.5,1.1c-0.9,0-1.7-0.2-2.4-0.5c-0.7-0.3-1.3-0.8-1.7-1.4c-0.4-0.6-0.6-1.2-0.6-2h3
		c0,0.4,0.2,0.7,0.5,1c0.3,0.3,0.7,0.4,1.2,0.4c0.5,0,1-0.1,1.3-0.4c0.3-0.3,0.5-0.7,0.5-1.1c0-0.7-0.2-1.1-0.5-1.4
		c-0.3-0.3-0.8-0.4-1.4-0.4h-1.5V45.8z"/>
	<path fill="#1B75BB" d="M143.7,53.6h-3v-9.7l-3,0.9v-2.3l5.7-2h0.3V53.6z"/>
	<path fill="#1B75BB" d="M146.6,47.2l0.8-6.7h7.7v2.4h-5.2l-0.3,2.6c0.2-0.1,0.5-0.2,0.9-0.3c0.4-0.1,0.7-0.1,1-0.1
		c1.3,0,2.3,0.4,3,1.2c0.7,0.8,1,1.9,1,3.2c0,0.8-0.2,1.6-0.6,2.3c-0.4,0.7-0.9,1.2-1.6,1.6c-0.7,0.4-1.5,0.5-2.4,0.5
		c-0.8,0-1.6-0.2-2.3-0.5c-0.7-0.3-1.3-0.8-1.7-1.4c-0.4-0.6-0.6-1.3-0.6-2h3c0,0.5,0.2,0.9,0.5,1.1c0.3,0.3,0.6,0.4,1.1,0.4
		c1,0,1.5-0.8,1.5-2.3c0-1.4-0.6-2.1-1.9-2.1c-0.7,0-1.2,0.2-1.6,0.7L146.6,47.2z"/>
</g>
<g>
	<path fill="#808184" d="M81.9,486.9H79l-0.6,1.7H77l2.8-7.5H81l2.8,7.5h-1.4L81.9,486.9z M79.3,485.9h2.2l-1.1-3.1L79.3,485.9z"/>
	<path fill="#808184" d="M85.9,488.7h-1.2v-7.9h1.2V488.7z"/>
	<path fill="#808184" d="M88.5,488.7h-1.2v-7.9h1.2V488.7z"/>
	<path fill="#808184" d="M92.3,485.8c0-0.5,0.1-1,0.3-1.5c0.2-0.4,0.5-0.8,0.9-1s0.8-0.4,1.3-0.4c0.8,0,1.4,0.2,1.8,0.7
		c0.5,0.5,0.7,1.1,0.8,1.9l0,0.3c0,0.5-0.1,1-0.3,1.5s-0.5,0.8-0.9,1c-0.4,0.2-0.8,0.4-1.4,0.4c-0.8,0-1.4-0.3-1.9-0.8
		S92.3,486.8,92.3,485.8L92.3,485.8z M93.5,486c0,0.6,0.1,1,0.4,1.3c0.2,0.3,0.6,0.5,1,0.5s0.7-0.2,1-0.5c0.2-0.3,0.4-0.8,0.4-1.4
		c0-0.6-0.1-1-0.4-1.3c-0.2-0.3-0.6-0.5-1-0.5c-0.4,0-0.7,0.2-1,0.5C93.6,484.8,93.5,485.3,93.5,486z"/>
	<path fill="#808184" d="M100,481.8v1.4h1v0.9h-1v3.1c0,0.2,0,0.4,0.1,0.5c0.1,0.1,0.2,0.1,0.4,0.1c0.1,0,0.3,0,0.4-0.1v1
		c-0.3,0.1-0.6,0.1-0.8,0.1c-1,0-1.4-0.5-1.4-1.6V484h-0.9v-0.9h0.9v-1.4H100z"/>
	<path fill="#808184" d="M103.1,483.7c0.4-0.5,0.9-0.7,1.5-0.7c1.2,0,1.8,0.7,1.8,2v3.6h-1.2v-3.6c0-0.4-0.1-0.7-0.2-0.8
		s-0.4-0.2-0.7-0.2c-0.5,0-0.9,0.2-1.1,0.7v4h-1.2v-7.9h1.2V483.7z"/>
	<path fill="#808184" d="M110.1,488.8c-0.8,0-1.4-0.2-1.9-0.7c-0.5-0.5-0.7-1.2-0.7-2v-0.2c0-0.6,0.1-1.1,0.3-1.5
		c0.2-0.4,0.5-0.8,0.9-1s0.8-0.4,1.3-0.4c0.8,0,1.3,0.2,1.8,0.7c0.4,0.5,0.6,1.2,0.6,2.1v0.5h-3.6c0,0.5,0.2,0.8,0.5,1.1
		c0.3,0.3,0.6,0.4,1,0.4c0.6,0,1-0.2,1.4-0.7l0.7,0.6c-0.2,0.3-0.5,0.6-0.9,0.8C111,488.7,110.6,488.8,110.1,488.8z M110,484
		c-0.3,0-0.6,0.1-0.8,0.4c-0.2,0.2-0.3,0.6-0.4,1h2.4v-0.1c0-0.4-0.1-0.7-0.3-0.9C110.6,484.1,110.3,484,110,484z"/>
	<path fill="#808184" d="M116.3,484.3c-0.2,0-0.3,0-0.5,0c-0.6,0-1,0.2-1.2,0.7v3.8h-1.2v-5.6h1.2l0,0.6c0.3-0.5,0.7-0.7,1.3-0.7
		c0.2,0,0.3,0,0.4,0.1L116.3,484.3z"/>
	<path fill="#808184" d="M122.8,487.2c0-0.2-0.1-0.4-0.3-0.5c-0.2-0.1-0.5-0.2-0.9-0.3c-0.4-0.1-0.8-0.2-1.1-0.3
		c-0.6-0.3-0.9-0.7-0.9-1.3c0-0.5,0.2-0.9,0.6-1.2s0.9-0.5,1.5-0.5c0.7,0,1.2,0.2,1.6,0.5s0.6,0.8,0.6,1.3h-1.2
		c0-0.2-0.1-0.4-0.3-0.6s-0.4-0.2-0.7-0.2c-0.3,0-0.5,0.1-0.7,0.2c-0.2,0.1-0.3,0.3-0.3,0.5c0,0.2,0.1,0.3,0.2,0.4
		c0.2,0.1,0.5,0.2,1,0.3c0.5,0.1,0.9,0.2,1.2,0.4c0.3,0.1,0.5,0.3,0.6,0.5c0.1,0.2,0.2,0.5,0.2,0.8c0,0.5-0.2,0.9-0.6,1.2
		c-0.4,0.3-1,0.5-1.6,0.5c-0.5,0-0.9-0.1-1.2-0.2c-0.4-0.2-0.6-0.4-0.8-0.7c-0.2-0.3-0.3-0.6-0.3-0.9h1.2c0,0.3,0.1,0.5,0.3,0.7
		s0.5,0.2,0.8,0.2c0.3,0,0.6-0.1,0.8-0.2C122.7,487.5,122.8,487.4,122.8,487.2z"/>
	<path fill="#808184" d="M126.3,483.1l0,0.6c0.4-0.5,0.9-0.7,1.6-0.7c0.7,0,1.3,0.3,1.5,0.9c0.4-0.6,1-0.9,1.7-0.9
		c0.6,0,1.1,0.2,1.4,0.5s0.5,0.8,0.5,1.5v3.7h-1.2v-3.6c0-0.4-0.1-0.6-0.2-0.8c-0.2-0.2-0.4-0.2-0.8-0.2c-0.3,0-0.5,0.1-0.7,0.2
		c-0.2,0.2-0.3,0.4-0.4,0.6l0,3.8h-1.2V485c0-0.7-0.4-1-1-1c-0.5,0-0.9,0.2-1.1,0.6v4h-1.2v-5.6H126.3z"/>
	<path fill="#808184" d="M134,485.8c0-0.5,0.1-1,0.3-1.5c0.2-0.4,0.5-0.8,0.9-1s0.8-0.4,1.3-0.4c0.8,0,1.4,0.2,1.8,0.7
		c0.5,0.5,0.7,1.1,0.8,1.9l0,0.3c0,0.5-0.1,1-0.3,1.5c-0.2,0.4-0.5,0.8-0.9,1s-0.8,0.4-1.4,0.4c-0.8,0-1.4-0.3-1.9-0.8
		C134.2,487.5,134,486.8,134,485.8L134,485.8z M135.2,486c0,0.6,0.1,1,0.4,1.3c0.2,0.3,0.6,0.5,1,0.5c0.4,0,0.7-0.2,1-0.5
		c0.2-0.3,0.4-0.8,0.4-1.4c0-0.6-0.1-1-0.4-1.3s-0.6-0.5-1-0.5c-0.4,0-0.7,0.2-1,0.5C135.3,484.8,135.2,485.3,135.2,486z"/>
	<path fill="#808184" d="M142,486.3l-0.6,0.6v1.8h-1.2v-7.9h1.2v4.6l0.4-0.5l1.5-1.7h1.5l-2.1,2.3l2.3,3.2h-1.4L142,486.3z"/>
	<path fill="#808184" d="M145.7,481.7c0-0.2,0.1-0.4,0.2-0.5c0.1-0.1,0.3-0.2,0.5-0.2c0.2,0,0.4,0.1,0.5,0.2s0.2,0.3,0.2,0.5
		c0,0.2-0.1,0.3-0.2,0.5s-0.3,0.2-0.5,0.2c-0.2,0-0.4-0.1-0.5-0.2C145.8,482,145.7,481.9,145.7,481.7z M147,488.7h-1.2v-5.6h1.2
		V488.7z"/>
	<path fill="#808184" d="M149.5,483.1l0,0.6c0.4-0.5,1-0.7,1.6-0.7c1.2,0,1.7,0.7,1.8,2v3.7h-1.2v-3.6c0-0.4-0.1-0.6-0.2-0.8
		c-0.2-0.2-0.4-0.3-0.7-0.3c-0.5,0-0.9,0.2-1.1,0.7v4h-1.2v-5.6H149.5z"/>
	<path fill="#808184" d="M153.9,485.9c0-0.9,0.2-1.6,0.6-2.1c0.4-0.5,0.9-0.8,1.6-0.8c0.6,0,1.1,0.2,1.5,0.7l0.1-0.6h1.1v5.4
		c0,0.7-0.2,1.3-0.7,1.7c-0.5,0.4-1.1,0.6-1.8,0.6c-0.4,0-0.8-0.1-1.2-0.3s-0.7-0.4-0.9-0.7l0.6-0.8c0.4,0.5,0.9,0.7,1.4,0.7
		c0.4,0,0.7-0.1,1-0.3c0.2-0.2,0.4-0.6,0.4-1v-0.4c-0.4,0.4-0.8,0.6-1.4,0.6c-0.7,0-1.2-0.3-1.6-0.8
		C154.1,487.5,153.9,486.8,153.9,485.9z M155.2,486c0,0.6,0.1,1,0.3,1.3c0.2,0.3,0.5,0.5,0.9,0.5c0.5,0,0.9-0.2,1.1-0.6v-2.4
		c-0.2-0.4-0.6-0.6-1.1-0.6c-0.4,0-0.7,0.2-1,0.5S155.2,485.3,155.2,486z"/>
	<path fill="#808184" d="M162.6,486H160v-1h2.7V486z"/>
	<path fill="#808184" d="M166.7,484.3c-0.2,0-0.3,0-0.5,0c-0.6,0-1,0.2-1.2,0.7v3.8h-1.2v-5.6h1.2l0,0.6c0.3-0.5,0.7-0.7,1.3-0.7
		c0.2,0,0.3,0,0.4,0.1L166.7,484.3z"/>
	<path fill="#808184" d="M169.9,488.8c-0.8,0-1.4-0.2-1.9-0.7c-0.5-0.5-0.7-1.2-0.7-2v-0.2c0-0.6,0.1-1.1,0.3-1.5
		c0.2-0.4,0.5-0.8,0.9-1c0.4-0.2,0.8-0.4,1.3-0.4c0.8,0,1.3,0.2,1.8,0.7c0.4,0.5,0.6,1.2,0.6,2.1v0.5h-3.6c0,0.5,0.2,0.8,0.5,1.1
		c0.3,0.3,0.6,0.4,1,0.4c0.6,0,1-0.2,1.4-0.7l0.7,0.6c-0.2,0.3-0.5,0.6-0.9,0.8S170.3,488.8,169.9,488.8z M169.7,484
		c-0.3,0-0.6,0.1-0.8,0.4c-0.2,0.2-0.3,0.6-0.4,1h2.4v-0.1c0-0.4-0.1-0.7-0.3-0.9C170.3,484.1,170.1,484,169.7,484z"/>
	<path fill="#808184" d="M174.4,488.7h-1.2v-7.9h1.2V488.7z"/>
	<path fill="#808184" d="M179,488.7c-0.1-0.1-0.1-0.3-0.1-0.5c-0.4,0.4-0.9,0.6-1.5,0.6c-0.6,0-1-0.2-1.4-0.5
		c-0.4-0.3-0.5-0.7-0.5-1.2c0-0.6,0.2-1,0.7-1.4c0.4-0.3,1.1-0.5,1.9-0.5h0.8v-0.4c0-0.3-0.1-0.5-0.2-0.7s-0.4-0.3-0.7-0.3
		c-0.3,0-0.5,0.1-0.7,0.2s-0.3,0.3-0.3,0.5h-1.2c0-0.3,0.1-0.6,0.3-0.9c0.2-0.3,0.5-0.5,0.8-0.6c0.3-0.2,0.7-0.2,1.2-0.2
		c0.7,0,1.2,0.2,1.6,0.5c0.4,0.3,0.6,0.8,0.6,1.4v2.5c0,0.5,0.1,0.9,0.2,1.2v0.1H179z M177.6,487.8c0.2,0,0.5-0.1,0.7-0.2
		s0.4-0.3,0.5-0.5v-1h-0.7c-0.5,0-0.8,0.1-1,0.2c-0.2,0.2-0.3,0.4-0.3,0.7c0,0.2,0.1,0.4,0.2,0.6
		C177.1,487.7,177.3,487.8,177.6,487.8z"/>
	<path fill="#808184" d="M182.9,481.8v1.4h1v0.9h-1v3.1c0,0.2,0,0.4,0.1,0.5c0.1,0.1,0.2,0.1,0.4,0.1c0.1,0,0.3,0,0.4-0.1v1
		c-0.3,0.1-0.6,0.1-0.8,0.1c-1,0-1.4-0.5-1.4-1.6V484h-0.9v-0.9h0.9v-1.4H182.9z"/>
	<path fill="#808184" d="M187.1,488.8c-0.8,0-1.4-0.2-1.9-0.7c-0.5-0.5-0.7-1.2-0.7-2v-0.2c0-0.6,0.1-1.1,0.3-1.5
		c0.2-0.4,0.5-0.8,0.9-1c0.4-0.2,0.8-0.4,1.3-0.4c0.8,0,1.3,0.2,1.8,0.7c0.4,0.5,0.6,1.2,0.6,2.1v0.5h-3.6c0,0.5,0.2,0.8,0.5,1.1
		c0.3,0.3,0.6,0.4,1,0.4c0.6,0,1-0.2,1.4-0.7l0.7,0.6c-0.2,0.3-0.5,0.6-0.9,0.8C188,488.7,187.6,488.8,187.1,488.8z M186.9,484
		c-0.3,0-0.6,0.1-0.8,0.4c-0.2,0.2-0.3,0.6-0.4,1h2.4v-0.1c0-0.4-0.1-0.7-0.3-0.9C187.6,484.1,187.3,484,186.9,484z"/>
	<path fill="#808184" d="M190.1,485.9c0-0.9,0.2-1.5,0.6-2.1s0.9-0.8,1.6-0.8c0.6,0,1.1,0.2,1.4,0.6v-2.8h1.2v7.9h-1.1l-0.1-0.6
		c-0.4,0.5-0.9,0.7-1.5,0.7c-0.7,0-1.2-0.3-1.6-0.8C190.3,487.5,190.1,486.8,190.1,485.9z M191.3,486c0,0.6,0.1,1,0.3,1.3
		c0.2,0.3,0.5,0.5,0.9,0.5c0.5,0,0.9-0.2,1.1-0.7v-2.4c-0.2-0.4-0.6-0.7-1.1-0.7c-0.4,0-0.7,0.2-0.9,0.5
		C191.4,484.8,191.3,485.3,191.3,486z"/>
	<path fill="#808184" d="M198.6,485.9c0-0.9,0.2-1.5,0.6-2.1s0.9-0.8,1.6-0.8c0.6,0,1.1,0.2,1.4,0.6v-2.8h1.2v7.9h-1.1l-0.1-0.6
		c-0.4,0.5-0.9,0.7-1.5,0.7c-0.7,0-1.2-0.3-1.6-0.8C198.8,487.5,198.6,486.8,198.6,485.9z M199.9,486c0,0.6,0.1,1,0.3,1.3
		c0.2,0.3,0.5,0.5,0.9,0.5c0.5,0,0.9-0.2,1.1-0.7v-2.4c-0.2-0.4-0.6-0.7-1.1-0.7c-0.4,0-0.7,0.2-0.9,0.5
		C200,484.8,199.9,485.3,199.9,486z"/>
	<path fill="#808184" d="M204.8,481.7c0-0.2,0.1-0.4,0.2-0.5c0.1-0.1,0.3-0.2,0.5-0.2s0.4,0.1,0.5,0.2s0.2,0.3,0.2,0.5
		c0,0.2-0.1,0.3-0.2,0.5s-0.3,0.2-0.5,0.2s-0.4-0.1-0.5-0.2C204.8,482,204.8,481.9,204.8,481.7z M206.1,488.7h-1.2v-5.6h1.2V488.7z"
		/>
	<path fill="#808184" d="M210.5,487.2c0-0.2-0.1-0.4-0.3-0.5s-0.5-0.2-0.9-0.3c-0.4-0.1-0.8-0.2-1.1-0.3c-0.6-0.3-0.9-0.7-0.9-1.3
		c0-0.5,0.2-0.9,0.6-1.2c0.4-0.3,0.9-0.5,1.5-0.5c0.7,0,1.2,0.2,1.6,0.5s0.6,0.8,0.6,1.3h-1.2c0-0.2-0.1-0.4-0.3-0.6
		c-0.2-0.2-0.4-0.2-0.7-0.2c-0.3,0-0.5,0.1-0.7,0.2c-0.2,0.1-0.3,0.3-0.3,0.5c0,0.2,0.1,0.3,0.2,0.4c0.2,0.1,0.5,0.2,1,0.3
		c0.5,0.1,0.9,0.2,1.2,0.4c0.3,0.1,0.5,0.3,0.6,0.5c0.1,0.2,0.2,0.5,0.2,0.8c0,0.5-0.2,0.9-0.6,1.2c-0.4,0.3-1,0.5-1.6,0.5
		c-0.5,0-0.9-0.1-1.2-0.2c-0.4-0.2-0.6-0.4-0.8-0.7c-0.2-0.3-0.3-0.6-0.3-0.9h1.2c0,0.3,0.1,0.5,0.3,0.7c0.2,0.2,0.5,0.2,0.8,0.2
		c0.3,0,0.6-0.1,0.8-0.2C210.4,487.5,210.5,487.4,210.5,487.2z"/>
	<path fill="#808184" d="M215.1,488.8c-0.8,0-1.4-0.2-1.9-0.7c-0.5-0.5-0.7-1.2-0.7-2v-0.2c0-0.6,0.1-1.1,0.3-1.5
		c0.2-0.4,0.5-0.8,0.9-1c0.4-0.2,0.8-0.4,1.3-0.4c0.8,0,1.3,0.2,1.8,0.7c0.4,0.5,0.6,1.2,0.6,2.1v0.5h-3.6c0,0.5,0.2,0.8,0.5,1.1
		c0.3,0.3,0.6,0.4,1,0.4c0.6,0,1-0.2,1.4-0.7l0.7,0.6c-0.2,0.3-0.5,0.6-0.9,0.8S215.6,488.8,215.1,488.8z M215,484
		c-0.3,0-0.6,0.1-0.8,0.4c-0.2,0.2-0.3,0.6-0.4,1h2.4v-0.1c0-0.4-0.1-0.7-0.3-0.9C215.6,484.1,215.3,484,215,484z"/>
	<path fill="#808184" d="M221.6,488.7c-0.1-0.1-0.1-0.3-0.1-0.5c-0.4,0.4-0.9,0.6-1.5,0.6c-0.6,0-1-0.2-1.4-0.5
		c-0.4-0.3-0.5-0.7-0.5-1.2c0-0.6,0.2-1,0.7-1.4c0.4-0.3,1.1-0.5,1.9-0.5h0.8v-0.4c0-0.3-0.1-0.5-0.2-0.7s-0.4-0.3-0.7-0.3
		c-0.3,0-0.5,0.1-0.7,0.2c-0.2,0.1-0.3,0.3-0.3,0.5h-1.2c0-0.3,0.1-0.6,0.3-0.9c0.2-0.3,0.5-0.5,0.8-0.6c0.3-0.2,0.7-0.2,1.2-0.2
		c0.7,0,1.2,0.2,1.6,0.5c0.4,0.3,0.6,0.8,0.6,1.4v2.5c0,0.5,0.1,0.9,0.2,1.2v0.1H221.6z M220.2,487.8c0.2,0,0.5-0.1,0.7-0.2
		c0.2-0.1,0.4-0.3,0.5-0.5v-1h-0.7c-0.5,0-0.8,0.1-1,0.2s-0.3,0.4-0.3,0.7c0,0.2,0.1,0.4,0.2,0.6C219.7,487.7,220,487.8,220.2,487.8
		z"/>
	<path fill="#808184" d="M227,487.2c0-0.2-0.1-0.4-0.3-0.5s-0.5-0.2-0.9-0.3s-0.8-0.2-1.1-0.3c-0.6-0.3-0.9-0.7-0.9-1.3
		c0-0.5,0.2-0.9,0.6-1.2s0.9-0.5,1.5-0.5c0.7,0,1.2,0.2,1.6,0.5c0.4,0.3,0.6,0.8,0.6,1.3h-1.2c0-0.2-0.1-0.4-0.3-0.6
		c-0.2-0.2-0.4-0.2-0.7-0.2c-0.3,0-0.5,0.1-0.7,0.2c-0.2,0.1-0.3,0.3-0.3,0.5c0,0.2,0.1,0.3,0.2,0.4s0.5,0.2,1,0.3
		c0.5,0.1,0.9,0.2,1.2,0.4c0.3,0.1,0.5,0.3,0.6,0.5s0.2,0.5,0.2,0.8c0,0.5-0.2,0.9-0.6,1.2c-0.4,0.3-1,0.5-1.6,0.5
		c-0.5,0-0.9-0.1-1.2-0.2s-0.6-0.4-0.8-0.7c-0.2-0.3-0.3-0.6-0.3-0.9h1.2c0,0.3,0.1,0.5,0.3,0.7s0.5,0.2,0.8,0.2
		c0.3,0,0.6-0.1,0.8-0.2C226.9,487.5,227,487.4,227,487.2z"/>
	<path fill="#808184" d="M231.7,488.8c-0.8,0-1.4-0.2-1.9-0.7c-0.5-0.5-0.7-1.2-0.7-2v-0.2c0-0.6,0.1-1.1,0.3-1.5
		c0.2-0.4,0.5-0.8,0.9-1c0.4-0.2,0.8-0.4,1.3-0.4c0.8,0,1.3,0.2,1.8,0.7c0.4,0.5,0.6,1.2,0.6,2.1v0.5h-3.6c0,0.5,0.2,0.8,0.5,1.1
		c0.3,0.3,0.6,0.4,1,0.4c0.6,0,1-0.2,1.4-0.7l0.7,0.6c-0.2,0.3-0.5,0.6-0.9,0.8S232.1,488.8,231.7,488.8z M231.5,484
		c-0.3,0-0.6,0.1-0.8,0.4c-0.2,0.2-0.3,0.6-0.4,1h2.4v-0.1c0-0.4-0.1-0.7-0.3-0.9C232.1,484.1,231.8,484,231.5,484z"/>
	<path fill="#808184" d="M237.9,487.2c0-0.2-0.1-0.4-0.3-0.5c-0.2-0.1-0.5-0.2-0.9-0.3c-0.4-0.1-0.8-0.2-1.1-0.3
		c-0.6-0.3-0.9-0.7-0.9-1.3c0-0.5,0.2-0.9,0.6-1.2c0.4-0.3,0.9-0.5,1.5-0.5c0.7,0,1.2,0.2,1.6,0.5s0.6,0.8,0.6,1.3h-1.2
		c0-0.2-0.1-0.4-0.3-0.6c-0.2-0.2-0.4-0.2-0.7-0.2c-0.3,0-0.5,0.1-0.7,0.2c-0.2,0.1-0.3,0.3-0.3,0.5c0,0.2,0.1,0.3,0.2,0.4
		c0.2,0.1,0.5,0.2,1,0.3c0.5,0.1,0.9,0.2,1.2,0.4c0.3,0.1,0.5,0.3,0.6,0.5c0.1,0.2,0.2,0.5,0.2,0.8c0,0.5-0.2,0.9-0.6,1.2
		s-1,0.5-1.6,0.5c-0.5,0-0.9-0.1-1.2-0.2c-0.4-0.2-0.6-0.4-0.8-0.7c-0.2-0.3-0.3-0.6-0.3-0.9h1.2c0,0.3,0.1,0.5,0.3,0.7
		c0.2,0.2,0.5,0.2,0.8,0.2c0.3,0,0.6-0.1,0.8-0.2C237.8,487.5,237.9,487.4,237.9,487.2z"/>
</g>
<g>
	<path fill="#2FBFD1" d="M83.4,465.5h-2.6v-8.3l-2.6,0.7v-2l4.9-1.7h0.2V465.5z"/>
	<path fill="#2FBFD1" d="M93.4,455.7l-4.2,9.8h-2.7l4.2-9.2h-5.3v-2h8.1V455.7z"/>
	<path fill="#2FBFD1" d="M93.8,468.5l-1.3-0.6l0.3-0.5c0.4-0.7,0.5-1.3,0.6-1.9v-1.9h2.1l0,1.7c0,0.6-0.2,1.2-0.5,1.8
		C94.7,467.6,94.3,468.2,93.8,468.5z"/>
	<path fill="#2FBFD1" d="M104.6,460.9c0,1.5-0.3,2.7-1,3.5c-0.7,0.8-1.6,1.2-2.9,1.2c-1.2,0-2.2-0.4-2.9-1.2s-1-2-1-3.5v-2.1
		c0-1.5,0.3-2.7,1-3.5s1.6-1.2,2.9-1.2c1.2,0,2.2,0.4,2.9,1.2c0.7,0.8,1,2,1,3.5V460.9z M102,458.6c0-0.8-0.1-1.4-0.3-1.8
		c-0.2-0.4-0.5-0.6-1-0.6c-0.4,0-0.8,0.2-1,0.6c-0.2,0.4-0.3,0.9-0.3,1.7v2.9c0,0.8,0.1,1.5,0.3,1.8c0.2,0.4,0.5,0.6,1,0.6
		c0.4,0,0.8-0.2,1-0.6s0.3-1,0.3-1.8V458.6z"/>
	<path fill="#2FBFD1" d="M113.4,455.7l-4.2,9.8h-2.7l4.2-9.2h-5.3v-2h8.1V455.7z"/>
	<path fill="#2FBFD1" d="M122.5,455.7l-4.2,9.8h-2.7l4.2-9.2h-5.3v-2h8.1V455.7z"/>
</g>
<g>
	<path fill="#808184" d="M775,183.4c-0.1,0.8-0.4,1.4-0.9,1.9c-0.5,0.4-1.2,0.7-2.1,0.7c-0.6,0-1.1-0.1-1.6-0.4
		c-0.5-0.3-0.8-0.7-1.1-1.2c-0.2-0.5-0.4-1.1-0.4-1.8v-0.7c0-0.7,0.1-1.3,0.4-1.9c0.3-0.5,0.6-1,1.1-1.2s1-0.4,1.6-0.4
		c0.8,0,1.5,0.2,2,0.7c0.5,0.4,0.8,1.1,0.9,1.9h-1.3c-0.1-0.5-0.2-0.9-0.5-1.2c-0.3-0.2-0.6-0.4-1.1-0.4c-0.6,0-1,0.2-1.3,0.6
		c-0.3,0.4-0.5,1-0.5,1.8v0.7c0,0.8,0.1,1.4,0.4,1.9c0.3,0.4,0.7,0.6,1.3,0.6c0.5,0,0.9-0.1,1.2-0.3c0.3-0.2,0.4-0.6,0.5-1.1H775z"
		/>
	<path fill="#808184" d="M779.3,185.8c-0.1-0.1-0.1-0.3-0.1-0.5c-0.4,0.4-0.9,0.6-1.5,0.6c-0.6,0-1-0.2-1.4-0.5
		c-0.4-0.3-0.5-0.7-0.5-1.2c0-0.6,0.2-1,0.7-1.4c0.4-0.3,1.1-0.5,1.9-0.5h0.8v-0.4c0-0.3-0.1-0.5-0.2-0.7c-0.2-0.2-0.4-0.3-0.7-0.3
		c-0.3,0-0.5,0.1-0.7,0.2s-0.3,0.3-0.3,0.5h-1.2c0-0.3,0.1-0.6,0.3-0.9c0.2-0.3,0.5-0.5,0.8-0.6s0.7-0.2,1.2-0.2
		c0.7,0,1.2,0.2,1.6,0.5c0.4,0.3,0.6,0.8,0.6,1.4v2.5c0,0.5,0.1,0.9,0.2,1.2v0.1H779.3z M777.9,184.9c0.2,0,0.5-0.1,0.7-0.2
		c0.2-0.1,0.4-0.3,0.5-0.5v-1h-0.7c-0.5,0-0.8,0.1-1,0.2c-0.2,0.2-0.3,0.4-0.3,0.7c0,0.2,0.1,0.4,0.2,0.6
		C777.4,184.9,777.6,184.9,777.9,184.9z"/>
	<path fill="#808184" d="M782.8,180.3l0,0.6c0.4-0.5,1-0.7,1.6-0.7c1.2,0,1.7,0.7,1.8,2v3.7h-1.2v-3.6c0-0.4-0.1-0.6-0.2-0.8
		c-0.2-0.2-0.4-0.3-0.7-0.3c-0.5,0-0.9,0.2-1.1,0.7v4h-1.2v-5.6H782.8z"/>
	<path fill="#808184" d="M789.7,184.9c0.3,0,0.6-0.1,0.8-0.3s0.3-0.4,0.3-0.7h1.2c0,0.3-0.1,0.7-0.3,1c-0.2,0.3-0.5,0.5-0.8,0.7
		c-0.3,0.2-0.7,0.3-1.1,0.3c-0.8,0-1.4-0.3-1.9-0.8c-0.5-0.5-0.7-1.2-0.7-2.1V183c0-0.8,0.2-1.5,0.7-2c0.5-0.5,1.1-0.8,1.9-0.8
		c0.7,0,1.2,0.2,1.6,0.6s0.6,0.9,0.7,1.5h-1.2c0-0.3-0.1-0.6-0.3-0.8c-0.2-0.2-0.5-0.3-0.8-0.3c-0.4,0-0.7,0.1-0.9,0.4
		c-0.2,0.3-0.3,0.7-0.3,1.3v0.2c0,0.6,0.1,1.1,0.3,1.3C789,184.8,789.3,184.9,789.7,184.9z"/>
	<path fill="#808184" d="M795.4,185.9c-0.8,0-1.4-0.2-1.9-0.7c-0.5-0.5-0.7-1.2-0.7-2V183c0-0.6,0.1-1.1,0.3-1.5
		c0.2-0.4,0.5-0.8,0.9-1c0.4-0.2,0.8-0.4,1.3-0.4c0.8,0,1.3,0.2,1.8,0.7c0.4,0.5,0.6,1.2,0.6,2.1v0.5H794c0,0.5,0.2,0.8,0.5,1.1
		c0.3,0.3,0.6,0.4,1,0.4c0.6,0,1-0.2,1.4-0.7l0.7,0.6c-0.2,0.3-0.5,0.6-0.9,0.8C796.3,185.8,795.8,185.9,795.4,185.9z M795.2,181.2
		c-0.3,0-0.6,0.1-0.8,0.4c-0.2,0.2-0.3,0.6-0.4,1h2.4v-0.1c0-0.4-0.1-0.7-0.3-0.9C795.8,181.3,795.6,181.2,795.2,181.2z"/>
	<path fill="#808184" d="M801.5,181.4c-0.2,0-0.3,0-0.5,0c-0.6,0-1,0.2-1.2,0.7v3.8h-1.2v-5.6h1.2l0,0.6c0.3-0.5,0.7-0.7,1.3-0.7
		c0.2,0,0.3,0,0.4,0.1L801.5,181.4z"/>
	<path fill="#808184" d="M805.4,184.3c0-0.2-0.1-0.4-0.3-0.5s-0.5-0.2-0.9-0.3c-0.4-0.1-0.8-0.2-1.1-0.3c-0.6-0.3-0.9-0.7-0.9-1.3
		c0-0.5,0.2-0.9,0.6-1.2c0.4-0.3,0.9-0.5,1.5-0.5c0.7,0,1.2,0.2,1.6,0.5c0.4,0.3,0.6,0.8,0.6,1.3h-1.2c0-0.2-0.1-0.4-0.3-0.6
		c-0.2-0.2-0.4-0.2-0.7-0.2c-0.3,0-0.5,0.1-0.7,0.2c-0.2,0.1-0.3,0.3-0.3,0.5c0,0.2,0.1,0.3,0.2,0.4s0.5,0.2,1,0.3
		c0.5,0.1,0.9,0.2,1.2,0.4s0.5,0.3,0.6,0.5s0.2,0.5,0.2,0.8c0,0.5-0.2,0.9-0.6,1.2c-0.4,0.3-1,0.5-1.6,0.5c-0.5,0-0.9-0.1-1.2-0.2
		c-0.4-0.2-0.6-0.4-0.8-0.7c-0.2-0.3-0.3-0.6-0.3-0.9h1.2c0,0.3,0.1,0.5,0.3,0.7c0.2,0.2,0.5,0.2,0.8,0.2c0.3,0,0.6-0.1,0.8-0.2
		C805.3,184.7,805.4,184.5,805.4,184.3z"/>
	<path fill="#808184" d="M812.8,182.9c0,0.8-0.1,1.5-0.3,2.2s-0.5,1.4-1,1.9s-0.9,1-1.3,1.2l-0.2-0.7c0.5-0.4,0.9-1,1.2-1.8
		c0.3-0.8,0.4-1.7,0.4-2.8v-0.1c0-1-0.1-1.8-0.4-2.6c-0.3-0.8-0.6-1.4-1.1-1.9l-0.2-0.1l0.2-0.7c0.4,0.2,0.9,0.6,1.3,1.1
		s0.7,1.1,0.9,1.8c0.2,0.7,0.3,1.4,0.4,2.1L812.8,182.9z"/>
	<path fill="#808184" d="M814.2,185.8v-7.5h2.2c0.7,0,1.2,0.1,1.8,0.4c0.5,0.3,0.9,0.7,1.2,1.3c0.3,0.5,0.4,1.2,0.4,1.9v0.4
		c0,0.7-0.1,1.3-0.4,1.9c-0.3,0.5-0.7,1-1.2,1.2c-0.5,0.3-1.1,0.4-1.8,0.4H814.2z M815.5,179.4v5.4h0.8c0.7,0,1.2-0.2,1.6-0.6
		c0.4-0.4,0.6-1,0.6-1.8v-0.4c0-0.8-0.2-1.4-0.5-1.9c-0.4-0.4-0.9-0.6-1.5-0.6H815.5z"/>
	<path fill="#808184" d="M820.9,178.8c0-0.2,0.1-0.4,0.2-0.5c0.1-0.1,0.3-0.2,0.5-0.2s0.4,0.1,0.5,0.2c0.1,0.1,0.2,0.3,0.2,0.5
		c0,0.2-0.1,0.3-0.2,0.5c-0.1,0.1-0.3,0.2-0.5,0.2s-0.4-0.1-0.5-0.2C820.9,179.2,820.9,179,820.9,178.8z M822.2,185.8h-1.2v-5.6h1.2
		V185.8z"/>
	<path fill="#808184" d="M823.3,183c0-0.9,0.2-1.6,0.6-2.1c0.4-0.5,0.9-0.8,1.6-0.8c0.6,0,1.1,0.2,1.5,0.7l0.1-0.6h1.1v5.4
		c0,0.7-0.2,1.3-0.7,1.7s-1.1,0.6-1.8,0.6c-0.4,0-0.8-0.1-1.2-0.3c-0.4-0.2-0.7-0.4-0.9-0.7l0.6-0.8c0.4,0.5,0.9,0.7,1.4,0.7
		c0.4,0,0.7-0.1,1-0.3c0.2-0.2,0.4-0.6,0.4-1v-0.4c-0.4,0.4-0.8,0.6-1.4,0.6c-0.7,0-1.2-0.3-1.6-0.8
		C823.5,184.6,823.3,183.9,823.3,183z M824.5,183.1c0,0.6,0.1,1,0.3,1.3c0.2,0.3,0.5,0.5,0.9,0.5c0.5,0,0.9-0.2,1.1-0.6v-2.4
		c-0.2-0.4-0.6-0.6-1.1-0.6c-0.4,0-0.7,0.2-1,0.5C824.6,182,824.5,182.5,824.5,183.1z"/>
	<path fill="#808184" d="M831.9,185.9c-0.8,0-1.4-0.2-1.9-0.7c-0.5-0.5-0.7-1.2-0.7-2V183c0-0.6,0.1-1.1,0.3-1.5s0.5-0.8,0.9-1
		c0.4-0.2,0.8-0.4,1.3-0.4c0.8,0,1.3,0.2,1.8,0.7c0.4,0.5,0.6,1.2,0.6,2.1v0.5h-3.6c0,0.5,0.2,0.8,0.5,1.1c0.3,0.3,0.6,0.4,1,0.4
		c0.6,0,1-0.2,1.4-0.7l0.7,0.6c-0.2,0.3-0.5,0.6-0.9,0.8S832.3,185.9,831.9,185.9z M831.7,181.2c-0.3,0-0.6,0.1-0.8,0.4
		c-0.2,0.2-0.3,0.6-0.4,1h2.4v-0.1c0-0.4-0.1-0.7-0.3-0.9C832.3,181.3,832.1,181.2,831.7,181.2z"/>
	<path fill="#808184" d="M838.1,184.3c0-0.2-0.1-0.4-0.3-0.5s-0.5-0.2-0.9-0.3c-0.4-0.1-0.8-0.2-1.1-0.3c-0.6-0.3-0.9-0.7-0.9-1.3
		c0-0.5,0.2-0.9,0.6-1.2c0.4-0.3,0.9-0.5,1.5-0.5c0.7,0,1.2,0.2,1.6,0.5s0.6,0.8,0.6,1.3H838c0-0.2-0.1-0.4-0.3-0.6
		c-0.2-0.2-0.4-0.2-0.7-0.2c-0.3,0-0.5,0.1-0.7,0.2c-0.2,0.1-0.3,0.3-0.3,0.5c0,0.2,0.1,0.3,0.2,0.4s0.5,0.2,1,0.3
		c0.5,0.1,0.9,0.2,1.2,0.4c0.3,0.1,0.5,0.3,0.6,0.5c0.1,0.2,0.2,0.5,0.2,0.8c0,0.5-0.2,0.9-0.6,1.2c-0.4,0.3-1,0.5-1.6,0.5
		c-0.5,0-0.9-0.1-1.2-0.2c-0.4-0.2-0.6-0.4-0.8-0.7s-0.3-0.6-0.3-0.9h1.2c0,0.3,0.1,0.5,0.3,0.7c0.2,0.2,0.5,0.2,0.8,0.2
		c0.3,0,0.6-0.1,0.8-0.2C838,184.7,838.1,184.5,838.1,184.3z"/>
	<path fill="#808184" d="M842,178.9v1.4h1v0.9h-1v3.1c0,0.2,0,0.4,0.1,0.5c0.1,0.1,0.2,0.1,0.4,0.1c0.1,0,0.3,0,0.4-0.1v1
		c-0.3,0.1-0.6,0.1-0.8,0.1c-1,0-1.4-0.5-1.4-1.6v-3.2h-0.9v-0.9h0.9v-1.4H842z"/>
	<path fill="#808184" d="M843.9,178.8c0-0.2,0.1-0.4,0.2-0.5c0.1-0.1,0.3-0.2,0.5-0.2s0.4,0.1,0.5,0.2c0.1,0.1,0.2,0.3,0.2,0.5
		c0,0.2-0.1,0.3-0.2,0.5c-0.1,0.1-0.3,0.2-0.5,0.2s-0.4-0.1-0.5-0.2C843.9,179.2,843.9,179,843.9,178.8z M845.2,185.8h-1.2v-5.6h1.2
		V185.8z"/>
	<path fill="#808184" d="M848.5,184.2l1.2-4h1.3l-1.9,5.6h-1.1l-1.9-5.6h1.3L848.5,184.2z"/>
	<path fill="#808184" d="M853.9,185.9c-0.8,0-1.4-0.2-1.9-0.7c-0.5-0.5-0.7-1.2-0.7-2V183c0-0.6,0.1-1.1,0.3-1.5s0.5-0.8,0.9-1
		c0.4-0.2,0.8-0.4,1.3-0.4c0.8,0,1.3,0.2,1.8,0.7c0.4,0.5,0.6,1.2,0.6,2.1v0.5h-3.6c0,0.5,0.2,0.8,0.5,1.1c0.3,0.3,0.6,0.4,1,0.4
		c0.6,0,1-0.2,1.4-0.7l0.7,0.6c-0.2,0.3-0.5,0.6-0.9,0.8S854.4,185.9,853.9,185.9z M853.8,181.2c-0.3,0-0.6,0.1-0.8,0.4
		c-0.2,0.2-0.3,0.6-0.4,1h2.4v-0.1c0-0.4-0.1-0.7-0.3-0.9C854.4,181.3,854.1,181.2,853.8,181.2z"/>
	<path fill="#808184" d="M860.1,186.5h-1l2.9-8.1h1L860.1,186.5z"/>
	<path fill="#808184" d="M869.4,183h-1.4v2.9h-1.3v-7.5h2.6c0.9,0,1.5,0.2,2,0.6c0.5,0.4,0.7,0.9,0.7,1.7c0,0.5-0.1,0.9-0.4,1.3
		s-0.6,0.6-1,0.8l1.7,3.1v0.1h-1.4L869.4,183z M867.9,181.9h1.3c0.4,0,0.8-0.1,1-0.3c0.2-0.2,0.4-0.5,0.4-0.9c0-0.4-0.1-0.7-0.3-0.9
		c-0.2-0.2-0.6-0.3-1-0.3h-1.4V181.9z"/>
	<path fill="#808184" d="M875.4,185.9c-0.8,0-1.4-0.2-1.9-0.7c-0.5-0.5-0.7-1.2-0.7-2V183c0-0.6,0.1-1.1,0.3-1.5s0.5-0.8,0.9-1
		c0.4-0.2,0.8-0.4,1.3-0.4c0.8,0,1.3,0.2,1.8,0.7c0.4,0.5,0.6,1.2,0.6,2.1v0.5H874c0,0.5,0.2,0.8,0.5,1.1c0.3,0.3,0.6,0.4,1,0.4
		c0.6,0,1-0.2,1.4-0.7l0.7,0.6c-0.2,0.3-0.5,0.6-0.9,0.8S875.9,185.9,875.4,185.9z M875.3,181.2c-0.3,0-0.6,0.1-0.8,0.4
		c-0.2,0.2-0.3,0.6-0.4,1h2.4v-0.1c0-0.4-0.1-0.7-0.3-0.9C875.9,181.3,875.6,181.2,875.3,181.2z"/>
	<path fill="#808184" d="M881.7,184.3c0-0.2-0.1-0.4-0.3-0.5s-0.5-0.2-0.9-0.3c-0.4-0.1-0.8-0.2-1.1-0.3c-0.6-0.3-0.9-0.7-0.9-1.3
		c0-0.5,0.2-0.9,0.6-1.2c0.4-0.3,0.9-0.5,1.5-0.5c0.7,0,1.2,0.2,1.6,0.5c0.4,0.3,0.6,0.8,0.6,1.3h-1.2c0-0.2-0.1-0.4-0.3-0.6
		c-0.2-0.2-0.4-0.2-0.7-0.2c-0.3,0-0.5,0.1-0.7,0.2c-0.2,0.1-0.3,0.3-0.3,0.5c0,0.2,0.1,0.3,0.2,0.4s0.5,0.2,1,0.3
		c0.5,0.1,0.9,0.2,1.2,0.4s0.5,0.3,0.6,0.5s0.2,0.5,0.2,0.8c0,0.5-0.2,0.9-0.6,1.2c-0.4,0.3-1,0.5-1.6,0.5c-0.5,0-0.9-0.1-1.2-0.2
		c-0.4-0.2-0.6-0.4-0.8-0.7c-0.2-0.3-0.3-0.6-0.3-0.9h1.2c0,0.3,0.1,0.5,0.3,0.7c0.2,0.2,0.5,0.2,0.8,0.2c0.3,0,0.6-0.1,0.8-0.2
		C881.6,184.7,881.7,184.5,881.7,184.3z"/>
	<path fill="#808184" d="M888.9,183.1c0,0.9-0.2,1.5-0.6,2.1c-0.4,0.5-0.9,0.8-1.6,0.8c-0.6,0-1.1-0.2-1.5-0.6v2.6H884v-7.7h1.2
		l0.1,0.6c0.4-0.4,0.9-0.7,1.5-0.7c0.7,0,1.2,0.3,1.6,0.8C888.7,181.4,888.9,182.1,888.9,183.1L888.9,183.1z M887.6,183
		c0-0.6-0.1-1-0.3-1.3c-0.2-0.3-0.5-0.5-0.9-0.5c-0.5,0-0.9,0.2-1.1,0.6v2.5c0.2,0.4,0.6,0.6,1.1,0.6c0.4,0,0.7-0.2,0.9-0.5
		C887.5,184.1,887.6,183.7,887.6,183z"/>
	<path fill="#808184" d="M889.9,178.8c0-0.2,0.1-0.4,0.2-0.5c0.1-0.1,0.3-0.2,0.5-0.2s0.4,0.1,0.5,0.2c0.1,0.1,0.2,0.3,0.2,0.5
		c0,0.2-0.1,0.3-0.2,0.5c-0.1,0.1-0.3,0.2-0.5,0.2s-0.4-0.1-0.5-0.2C889.9,179.2,889.9,179,889.9,178.8z M891.2,185.8h-1.2v-5.6h1.2
		V185.8z"/>
	<path fill="#808184" d="M895.4,181.4c-0.2,0-0.3,0-0.5,0c-0.6,0-1,0.2-1.2,0.7v3.8h-1.2v-5.6h1.2l0,0.6c0.3-0.5,0.7-0.7,1.3-0.7
		c0.2,0,0.3,0,0.4,0.1L895.4,181.4z"/>
	<path fill="#808184" d="M899.5,185.8c-0.1-0.1-0.1-0.3-0.1-0.5c-0.4,0.4-0.9,0.6-1.5,0.6c-0.6,0-1-0.2-1.4-0.5
		c-0.4-0.3-0.5-0.7-0.5-1.2c0-0.6,0.2-1,0.7-1.4c0.4-0.3,1.1-0.5,1.9-0.5h0.8v-0.4c0-0.3-0.1-0.5-0.2-0.7c-0.2-0.2-0.4-0.3-0.7-0.3
		c-0.3,0-0.5,0.1-0.7,0.2s-0.3,0.3-0.3,0.5h-1.2c0-0.3,0.1-0.6,0.3-0.9s0.5-0.5,0.8-0.6c0.3-0.2,0.7-0.2,1.2-0.2
		c0.7,0,1.2,0.2,1.6,0.5c0.4,0.3,0.6,0.8,0.6,1.4v2.5c0,0.5,0.1,0.9,0.2,1.2v0.1H899.5z M898.1,184.9c0.2,0,0.5-0.1,0.7-0.2
		c0.2-0.1,0.4-0.3,0.5-0.5v-1h-0.7c-0.5,0-0.8,0.1-1,0.2c-0.2,0.2-0.3,0.4-0.3,0.7c0,0.2,0.1,0.4,0.2,0.6
		C897.7,184.9,897.9,184.9,898.1,184.9z"/>
	<path fill="#808184" d="M903.4,178.9v1.4h1v0.9h-1v3.1c0,0.2,0,0.4,0.1,0.5c0.1,0.1,0.2,0.1,0.4,0.1c0.1,0,0.3,0,0.4-0.1v1
		c-0.3,0.1-0.6,0.1-0.8,0.1c-1,0-1.4-0.5-1.4-1.6v-3.2h-0.9v-0.9h0.9v-1.4H903.4z"/>
	<path fill="#808184" d="M904.9,183c0-0.5,0.1-1,0.3-1.5c0.2-0.4,0.5-0.8,0.9-1s0.8-0.4,1.3-0.4c0.8,0,1.4,0.2,1.8,0.7
		c0.5,0.5,0.7,1.1,0.8,1.9l0,0.3c0,0.5-0.1,1-0.3,1.5c-0.2,0.4-0.5,0.8-0.9,1c-0.4,0.2-0.8,0.4-1.4,0.4c-0.8,0-1.4-0.3-1.9-0.8
		S904.9,183.9,904.9,183L904.9,183z M906.2,183.1c0,0.6,0.1,1,0.4,1.3c0.2,0.3,0.6,0.5,1,0.5c0.4,0,0.7-0.2,1-0.5
		c0.2-0.3,0.4-0.8,0.4-1.4c0-0.6-0.1-1-0.4-1.3c-0.2-0.3-0.6-0.5-1-0.5c-0.4,0-0.7,0.2-1,0.5C906.3,182,906.2,182.5,906.2,183.1z"/>
	<path fill="#808184" d="M914.1,181.4c-0.2,0-0.3,0-0.5,0c-0.6,0-1,0.2-1.2,0.7v3.8h-1.2v-5.6h1.2l0,0.6c0.3-0.5,0.7-0.7,1.3-0.7
		c0.2,0,0.3,0,0.4,0.1L914.1,181.4z"/>
	<path fill="#808184" d="M917.1,184l1.1-3.8h1.3l-2.2,6.4c-0.3,0.9-0.9,1.4-1.7,1.4c-0.2,0-0.4,0-0.6-0.1v-1l0.2,0
		c0.3,0,0.6-0.1,0.7-0.2c0.2-0.1,0.3-0.3,0.4-0.6l0.2-0.5l-2-5.5h1.3L917.1,184z"/>
	<path fill="#808184" d="M922.3,182.9c0,0.8-0.1,1.5-0.3,2.2s-0.5,1.4-1,1.9c-0.4,0.6-0.9,1-1.3,1.2l-0.2-0.7c0.5-0.4,0.9-1,1.2-1.8
		c0.3-0.8,0.4-1.7,0.4-2.8v-0.1c0-1-0.1-1.8-0.4-2.6c-0.3-0.8-0.6-1.4-1.1-1.9l-0.2-0.1l0.2-0.7c0.4,0.2,0.9,0.6,1.3,1.1
		s0.7,1.1,0.9,1.8c0.2,0.7,0.3,1.4,0.4,2.1L922.3,182.9z"/>
</g>
<g>
	<path fill="#F26D26" d="M886.2,162.7h-3V153l-3,0.9v-2.3l5.7-2h0.3V162.7z"/>
	<path fill="#F26D26" d="M890,166.2l-1.5-0.7l0.3-0.6c0.4-0.8,0.6-1.5,0.7-2.2v-2.2h2.4l0,2c0,0.7-0.2,1.4-0.5,2.1
		C891,165.2,890.6,165.7,890,166.2z"/>
	<path fill="#F26D26" d="M902.2,151.2l-4.9,11.5h-3.2l4.9-10.8h-6.2v-2.3h9.4V151.2z"/>
	<path fill="#F26D26" d="M912.2,157.3c0,1.8-0.4,3.1-1.2,4.1c-0.8,1-1.9,1.4-3.4,1.4c-1.5,0-2.6-0.5-3.4-1.4c-0.8-1-1.2-2.3-1.2-4.1
		v-2.4c0-1.8,0.4-3.1,1.2-4.1c0.8-1,1.9-1.4,3.4-1.4s2.6,0.5,3.4,1.4c0.8,1,1.2,2.3,1.2,4.1V157.3z M909.2,154.5
		c0-0.9-0.1-1.6-0.4-2.1c-0.2-0.5-0.6-0.7-1.2-0.7c-0.5,0-0.9,0.2-1.1,0.6c-0.2,0.4-0.4,1.1-0.4,2v3.3c0,1,0.1,1.7,0.4,2.1
		c0.2,0.5,0.6,0.7,1.2,0.7c0.5,0,0.9-0.2,1.1-0.7c0.2-0.4,0.4-1.1,0.4-2.1V154.5z"/>
	<path fill="#F26D26" d="M919.8,162.7h-3V153l-3,0.9v-2.3l5.7-2h0.3V162.7z"/>
</g>
<path fill="#5BAF93" d="M515.8,191.3c1.7-4.3,12.4-30.9-21.4-33.2c-0.5,0-0.8,0-1,0c0,0,0,0-0.2,0c-0.2,0-0.4,0-1,0
	c-33.8,2.3-23.1,28.9-21.4,33.2c1.7,4.3-0.3,4.9-1.3,6.8c-1,2,0,4.9,1.1,6.5c1.1,1.6,10.9,5.7,10.9,5.7v8.1H480l-0.2-7.4l-4.4-2.2
	c0,0,0,0,0.8,10.6c1.6,9.9,17.2,13.8,17.2,13.8l0-0.9v0.9c0,0,15.6-3.9,17.2-13.8c0.8-10.6,0.8-10.6,0.8-10.6l-4.4,2.2l-0.2,7.4
	h-1.7v-8.1c0,0,9.9-4.1,10.9-5.7c1.1-1.6,2.1-4.5,1.1-6.5C516.1,196.2,514.2,195.6,515.8,191.3z M485.1,220.6c0,0.4-0.3,0.7-0.7,0.7
	c-0.4,0-0.7-0.3-0.7-0.7v-5.2c0-0.4,0.3-0.7,0.7-0.7c0.4,0,0.7,0.3,0.7,0.7V220.6z M480.2,201.2c-1.9,0.2-4.7,0.4-4.5-5.7
	c0.3-1.7-1-5.2,9.6-6.9c0,0,2.9-0.7,3.4,5.1C488.8,195,489,199.9,480.2,201.2z M489.6,221.4c0,0.4-0.3,0.7-0.7,0.7
	c-0.4,0-0.7-0.3-0.7-0.7v-5.2c0-0.4,0.3-0.7,0.7-0.7c0.4,0,0.7,0.3,0.7,0.7V221.4z M496,207.8c-0.7,1.2-1,2-2.6,2v0l-0.1,0v0
	c-1.6-0.1-2-0.8-2.6-2c-1.1-2.6,2.6-8.7,2.6-8.7h0.2C493.4,199.1,497.1,205.1,496,207.8z M498.5,221.4c0,0.4-0.3,0.7-0.7,0.7
	c-0.4,0-0.7-0.3-0.7-0.7v-5.2c0-0.4,0.3-0.7,0.7-0.7c0.4,0,0.7,0.3,0.7,0.7V221.4z M503,220.6c0,0.4-0.3,0.7-0.7,0.7
	c-0.4,0-0.7-0.3-0.7-0.7v-5.2c0-0.4,0.3-0.7,0.7-0.7c0.4,0,0.7,0.3,0.7,0.7V220.6z M506.4,201.2c-8.8-1.3-8.6-6.2-8.5-7.5
	c0.5-5.8,3.4-5.1,3.4-5.1c10.6,1.8,9.3,5.3,9.6,6.9C511.1,201.6,508.3,201.4,506.4,201.2z"/>
<g>
	<path fill="#5BAF93" d="M455,281.5h-18.5v-4l8.5-9c2.1-2.4,3.1-4.3,3.1-5.7c0-1.1-0.2-2-0.7-2.6c-0.5-0.6-1.2-0.9-2.2-0.9
		c-0.9,0-1.7,0.4-2.3,1.2c-0.6,0.8-0.9,1.8-0.9,3H436c0-1.6,0.4-3.1,1.2-4.5c0.8-1.4,1.9-2.5,3.4-3.2c1.4-0.8,3.1-1.2,4.8-1.2
		c2.9,0,5.1,0.7,6.6,2c1.5,1.3,2.3,3.2,2.3,5.7c0,1-0.2,2.1-0.6,3c-0.4,1-1,2-1.8,3.1c-0.8,1.1-2.1,2.5-4,4.4l-3.4,3.9H455V281.5z"
		/>
	<path fill="#5BAF93" d="M458.4,268.5L460,255h15.5v4.8H465l-0.6,5.3c0.4-0.3,1-0.5,1.7-0.7c0.7-0.2,1.4-0.3,2.1-0.3
		c2.6,0,4.7,0.8,6.1,2.3c1.4,1.6,2.1,3.7,2.1,6.6c0,1.7-0.4,3.2-1.1,4.6c-0.8,1.4-1.8,2.4-3.2,3.2c-1.4,0.7-3,1.1-4.9,1.1
		c-1.7,0-3.2-0.3-4.7-1c-1.5-0.7-2.6-1.6-3.4-2.8c-0.8-1.2-1.2-2.5-1.2-4h6.2c0.1,1,0.4,1.7,0.9,2.3c0.6,0.6,1.3,0.9,2.2,0.9
		c2.1,0,3.1-1.5,3.1-4.6c0-2.8-1.3-4.2-3.8-4.2c-1.4,0-2.5,0.5-3.2,1.4L458.4,268.5z"/>
	<path fill="#5BAF93" d="M481.4,288.6l-3.1-1.5l0.6-1.2c0.8-1.6,1.3-3.1,1.3-4.5v-4.6h4.9l0,3.9c0,1.4-0.4,2.8-1.1,4.3
		C483.4,286.5,482.5,287.7,481.4,288.6z"/>
	<path fill="#5BAF93" d="M506.7,258.2l-9.9,23.2h-6.5l9.9-21.8h-12.6V255h19.1V258.2z"/>
	<path fill="#5BAF93" d="M527.5,270.6c0,3.6-0.8,6.3-2.4,8.3c-1.6,1.9-3.9,2.9-6.8,2.9c-2.9,0-5.2-1-6.8-2.9c-1.6-2-2.4-4.7-2.4-8.3
		v-4.8c0-3.6,0.8-6.3,2.4-8.3c1.6-1.9,3.9-2.9,6.8-2.9c2.9,0,5.2,1,6.8,2.9c1.6,2,2.4,4.7,2.4,8.3V270.6z M521.4,265
		c0-1.9-0.2-3.3-0.7-4.3c-0.5-0.9-1.3-1.4-2.4-1.4c-1.1,0-1.8,0.4-2.3,1.3c-0.5,0.9-0.7,2.2-0.8,4v6.8c0,2,0.2,3.4,0.7,4.3
		c0.5,0.9,1.3,1.4,2.4,1.4c1,0,1.8-0.4,2.3-1.3c0.5-0.9,0.8-2.3,0.8-4.2V265z"/>
	<path fill="#5BAF93" d="M548.8,262c0,1.3-0.3,2.4-1,3.4c-0.6,1-1.5,1.8-2.6,2.4c1.3,0.6,2.3,1.5,3,2.5c0.7,1.1,1.1,2.3,1.1,3.8
		c0,2.4-0.8,4.2-2.4,5.6c-1.6,1.4-3.9,2.1-6.7,2.1c-2.9,0-5.1-0.7-6.8-2.1c-1.7-1.4-2.5-3.2-2.5-5.6c0-1.4,0.4-2.7,1.1-3.8
		c0.7-1.1,1.8-2,3.1-2.6c-1.1-0.6-2-1.4-2.7-2.4c-0.6-1-1-2.1-1-3.4c0-2.3,0.8-4.1,2.3-5.5c1.6-1.3,3.7-2,6.3-2c2.7,0,4.8,0.7,6.4,2
		C548,257.9,548.8,259.7,548.8,262z M543.1,273.7c0-1.1-0.3-1.9-0.8-2.5c-0.6-0.6-1.3-0.9-2.2-0.9c-0.9,0-1.7,0.3-2.2,0.9
		c-0.6,0.6-0.9,1.4-0.9,2.5c0,1.1,0.3,1.9,0.9,2.5c0.6,0.6,1.3,0.9,2.3,0.9c0.9,0,1.6-0.3,2.2-0.9
		C542.9,275.6,543.1,274.7,543.1,273.7z M540,259.3c-0.8,0-1.5,0.3-1.9,0.8c-0.4,0.5-0.6,1.3-0.6,2.2c0,0.9,0.2,1.7,0.7,2.3
		c0.4,0.6,1.1,0.9,1.9,0.9c0.8,0,1.5-0.3,1.9-0.9c0.4-0.6,0.6-1.3,0.6-2.3s-0.2-1.7-0.6-2.2C541.5,259.6,540.9,259.3,540,259.3z"/>
</g>
<g>
	<path fill="#5BAF93" d="M425.6,316.2h-8.4l-1.9,5.2h-2.7l7.6-20h2.3l7.6,20h-2.7L425.6,316.2z M418,314h6.8l-3.4-9.3L418,314z"/>
	<path fill="#5BAF93" d="M434.7,306.6l0.1,1.9c1.1-1.4,2.6-2.1,4.4-2.1c3.1,0,4.7,1.8,4.7,5.3v9.8h-2.5v-9.8c0-1.1-0.3-1.9-0.7-2.4
		c-0.5-0.5-1.2-0.8-2.2-0.8c-0.8,0-1.5,0.2-2.2,0.7c-0.6,0.4-1.1,1-1.5,1.7v10.6h-2.5v-14.8H434.7z"/>
	<path fill="#5BAF93" d="M449.7,306.6l0.1,1.9c1.1-1.4,2.6-2.1,4.4-2.1c3.1,0,4.7,1.8,4.7,5.3v9.8h-2.5v-9.8c0-1.1-0.3-1.9-0.7-2.4
		c-0.5-0.5-1.2-0.8-2.2-0.8c-0.8,0-1.5,0.2-2.2,0.7c-0.6,0.4-1.1,1-1.5,1.7v10.6h-2.5v-14.8H449.7z"/>
	<path fill="#5BAF93" d="M471.4,320c-1,1.2-2.4,1.7-4.3,1.7c-1.6,0-2.8-0.5-3.6-1.4c-0.8-0.9-1.2-2.3-1.3-4.1v-9.7h2.5v9.6
		c0,2.2,0.9,3.4,2.7,3.4c1.9,0,3.2-0.7,3.9-2.2v-10.8h2.5v14.8h-2.4L471.4,320z"/>
	<path fill="#5BAF93" d="M486.4,321.4c-0.1-0.3-0.3-0.8-0.4-1.6c-1.2,1.2-2.6,1.8-4.2,1.8c-1.5,0-2.7-0.4-3.6-1.2
		c-0.9-0.8-1.4-1.9-1.4-3.1c0-1.5,0.6-2.7,1.8-3.6c1.2-0.9,2.8-1.3,5-1.3h2.5v-1.2c0-0.9-0.3-1.6-0.8-2.1c-0.5-0.5-1.3-0.8-2.3-0.8
		c-0.9,0-1.7,0.2-2.3,0.7c-0.6,0.5-0.9,1-0.9,1.7h-2.6c0-0.7,0.3-1.5,0.8-2.1c0.5-0.7,1.2-1.2,2.1-1.6c0.9-0.4,1.9-0.6,3-0.6
		c1.7,0,3,0.4,4,1.3c1,0.9,1.5,2,1.5,3.5v6.8c0,1.4,0.2,2.4,0.5,3.2v0.2H486.4z M482.1,319.5c0.8,0,1.5-0.2,2.3-0.6
		c0.7-0.4,1.2-0.9,1.5-1.6v-3h-2c-3.1,0-4.7,0.9-4.7,2.7c0,0.8,0.3,1.4,0.8,1.9C480.6,319.3,481.3,319.5,482.1,319.5z"/>
	<path fill="#5BAF93" d="M494.5,321.4H492v-21.1h2.5V321.4z"/>
	<path fill="#5BAF93" d="M505.9,321.4v-20h5.6c1.7,0,3.3,0.4,4.6,1.2c1.3,0.8,2.4,1.9,3.1,3.3c0.7,1.4,1.1,3,1.1,4.9v1.3
		c0,1.9-0.4,3.5-1.1,4.9c-0.7,1.4-1.8,2.5-3.1,3.3c-1.3,0.8-2.9,1.1-4.7,1.2H505.9z M508.6,303.6v15.7h2.8c2,0,3.6-0.6,4.7-1.9
		c1.1-1.3,1.7-3.1,1.7-5.4v-1.2c0-2.3-0.5-4-1.6-5.3c-1.1-1.3-2.6-1.9-4.5-1.9H508.6z"/>
	<path fill="#5BAF93" d="M529.6,321.7c-2,0-3.6-0.7-4.9-2c-1.3-1.3-1.9-3.1-1.9-5.3v-0.5c0-1.5,0.3-2.8,0.8-3.9
		c0.6-1.2,1.3-2.1,2.4-2.7c1-0.7,2.1-1,3.3-1c1.9,0,3.4,0.6,4.5,1.9c1.1,1.3,1.6,3.1,1.6,5.5v1.1h-10c0,1.5,0.5,2.6,1.3,3.5
		c0.8,0.9,1.9,1.4,3.1,1.4c0.9,0,1.7-0.2,2.3-0.5c0.6-0.4,1.2-0.9,1.6-1.5l1.5,1.2C533.9,320.7,532.1,321.7,529.6,321.7z
		 M529.3,308.4c-1,0-1.9,0.4-2.6,1.1c-0.7,0.7-1.1,1.8-1.3,3.1h7.4v-0.2c-0.1-1.3-0.4-2.3-1-3C531.2,308.8,530.3,308.4,529.3,308.4z
		"/>
	<path fill="#5BAF93" d="M546.8,321.4c-0.1-0.3-0.3-0.8-0.4-1.6c-1.2,1.2-2.6,1.8-4.2,1.8c-1.5,0-2.7-0.4-3.6-1.2
		c-0.9-0.8-1.4-1.9-1.4-3.1c0-1.5,0.6-2.7,1.8-3.6c1.2-0.9,2.8-1.3,5-1.3h2.5v-1.2c0-0.9-0.3-1.6-0.8-2.1c-0.5-0.5-1.3-0.8-2.3-0.8
		c-0.9,0-1.7,0.2-2.3,0.7c-0.6,0.5-0.9,1-0.9,1.7h-2.5c0-0.7,0.3-1.5,0.8-2.1s1.2-1.2,2.1-1.6c0.9-0.4,1.9-0.6,3-0.6
		c1.7,0,3,0.4,4,1.3c1,0.9,1.5,2,1.5,3.5v6.8c0,1.4,0.2,2.4,0.5,3.2v0.2H546.8z M542.6,319.5c0.8,0,1.5-0.2,2.3-0.6
		c0.7-0.4,1.2-0.9,1.5-1.6v-3h-2c-3.1,0-4.7,0.9-4.7,2.7c0,0.8,0.3,1.4,0.8,1.9C541.1,319.3,541.8,319.5,542.6,319.5z"/>
	<path fill="#5BAF93" d="M555.9,303v3.6h2.8v2h-2.8v9.2c0,0.6,0.1,1,0.4,1.3c0.2,0.3,0.7,0.4,1.3,0.4c0.3,0,0.7-0.1,1.2-0.2v2
		c-0.7,0.2-1.3,0.3-1.9,0.3c-1.1,0-2-0.3-2.6-1c-0.6-0.7-0.9-1.7-0.9-2.9v-9.2h-2.7v-2h2.7V303H555.9z"/>
	<path fill="#5BAF93" d="M563.4,308.4c1.1-1.4,2.6-2.1,4.4-2.1c3.1,0,4.7,1.8,4.7,5.3v9.8H570v-9.8c0-1.1-0.3-1.9-0.7-2.4
		c-0.5-0.5-1.2-0.8-2.2-0.8c-0.8,0-1.5,0.2-2.2,0.7c-0.6,0.4-1.1,1-1.5,1.7v10.6h-2.5v-21.1h2.5V308.4z"/>
	<path fill="#808184" d="M432.4,348.8v-9.4h-1.7V338h1.7v-1.1c0-1.2,0.3-2.1,0.9-2.7c0.6-0.6,1.5-0.9,2.6-0.9c0.4,0,0.8,0.1,1.3,0.2
		l-0.1,1.5c-0.3-0.1-0.6-0.1-1-0.1c-0.6,0-1.1,0.2-1.4,0.5c-0.3,0.4-0.5,0.9-0.5,1.5v1.1h2.3v1.4h-2.3v9.4H432.4z"/>
	<path fill="#808184" d="M443.5,339.7c-0.3,0-0.6-0.1-0.9-0.1c-1.2,0-2,0.5-2.5,1.5v7.7h-1.8V338h1.8l0,1.2c0.6-1,1.5-1.4,2.6-1.4
		c0.4,0,0.6,0,0.8,0.1V339.7z"/>
	<path fill="#808184" d="M444.3,343.3c0-1.1,0.2-2,0.6-2.9s1-1.5,1.7-2c0.7-0.5,1.6-0.7,2.5-0.7c1.5,0,2.7,0.5,3.6,1.5
		c0.9,1,1.4,2.4,1.4,4.1v0.1c0,1.1-0.2,2-0.6,2.8c-0.4,0.8-1,1.5-1.7,2c-0.7,0.5-1.6,0.7-2.6,0.7c-1.5,0-2.7-0.5-3.6-1.5
		c-0.9-1-1.4-2.4-1.4-4V343.3z M446.2,343.6c0,1.2,0.3,2.2,0.8,2.9c0.6,0.7,1.3,1.1,2.2,1.1c0.9,0,1.7-0.4,2.2-1.1
		c0.6-0.7,0.8-1.8,0.8-3.1c0-1.2-0.3-2.1-0.8-2.9c-0.6-0.7-1.3-1.1-2.2-1.1c-0.9,0-1.6,0.4-2.2,1.1
		C446.5,341.2,446.2,342.2,446.2,343.6z"/>
	<path fill="#808184" d="M458,338l0,1.2c0.8-0.9,1.9-1.4,3.2-1.4c1.5,0,2.5,0.6,3.1,1.7c0.4-0.5,0.8-0.9,1.4-1.3
		c0.6-0.3,1.3-0.5,2-0.5c2.4,0,3.6,1.3,3.6,3.8v7.2h-1.8v-7.1c0-0.8-0.2-1.4-0.5-1.7c-0.4-0.4-0.9-0.6-1.8-0.6
		c-0.7,0-1.3,0.2-1.7,0.6c-0.5,0.4-0.7,1-0.8,1.7v7.2h-1.9v-7.1c0-1.6-0.8-2.4-2.3-2.4c-1.2,0-2,0.5-2.5,1.5v7.9h-1.8V338H458z"/>
	<path fill="#808184" d="M483.9,342.4c-1.6-0.5-2.8-1.1-3.6-1.7c-0.7-0.7-1.1-1.5-1.1-2.6c0-1.1,0.5-2.1,1.4-2.8
		c0.9-0.7,2.1-1.1,3.6-1.1c1,0,1.9,0.2,2.7,0.6c0.8,0.4,1.4,0.9,1.8,1.6c0.4,0.7,0.6,1.4,0.6,2.2h-1.9c0-0.9-0.3-1.6-0.8-2.1
		c-0.6-0.5-1.3-0.8-2.4-0.8c-0.9,0-1.7,0.2-2.2,0.6c-0.5,0.4-0.8,1-0.8,1.7c0,0.6,0.3,1.1,0.8,1.5c0.5,0.4,1.4,0.8,2.6,1.1
		c1.2,0.3,2.2,0.7,2.8,1.1c0.7,0.4,1.2,0.9,1.5,1.4c0.3,0.5,0.5,1.2,0.5,1.9c0,1.2-0.5,2.1-1.4,2.8c-0.9,0.7-2.1,1.1-3.7,1.1
		c-1,0-1.9-0.2-2.8-0.6c-0.9-0.4-1.5-0.9-2-1.6c-0.5-0.7-0.7-1.4-0.7-2.3h1.9c0,0.9,0.3,1.6,1,2.1c0.6,0.5,1.5,0.8,2.6,0.8
		c1,0,1.8-0.2,2.3-0.6s0.8-1,0.8-1.7s-0.2-1.3-0.7-1.7C486.1,343.1,485.2,342.7,483.9,342.4z"/>
	<path fill="#808184" d="M493.2,338l0,1.2c0.8-0.9,1.9-1.4,3.2-1.4c1.5,0,2.5,0.6,3.1,1.7c0.4-0.5,0.8-0.9,1.4-1.3
		c0.6-0.3,1.3-0.5,2-0.5c2.4,0,3.6,1.3,3.6,3.8v7.2h-1.8v-7.1c0-0.8-0.2-1.4-0.5-1.7c-0.4-0.4-0.9-0.6-1.8-0.6
		c-0.7,0-1.3,0.2-1.7,0.6c-0.5,0.4-0.7,1-0.8,1.7v7.2h-1.9v-7.1c0-1.6-0.8-2.4-2.3-2.4c-1.2,0-2,0.5-2.5,1.5v7.9h-1.8V338H493.2z"/>
	<path fill="#808184" d="M508.6,343.3c0-1.1,0.2-2,0.6-2.9s1-1.5,1.7-2c0.7-0.5,1.6-0.7,2.5-0.7c1.5,0,2.7,0.5,3.6,1.5
		c0.9,1,1.4,2.4,1.4,4.1v0.1c0,1.1-0.2,2-0.6,2.8c-0.4,0.8-1,1.5-1.7,2c-0.7,0.5-1.6,0.7-2.6,0.7c-1.5,0-2.7-0.5-3.6-1.5
		c-0.9-1-1.4-2.4-1.4-4V343.3z M510.5,343.6c0,1.2,0.3,2.2,0.8,2.9c0.6,0.7,1.3,1.1,2.2,1.1c0.9,0,1.7-0.4,2.2-1.1
		c0.6-0.7,0.8-1.8,0.8-3.1c0-1.2-0.3-2.1-0.8-2.9c-0.6-0.7-1.3-1.1-2.2-1.1c-0.9,0-1.6,0.4-2.2,1.1
		C510.7,341.2,510.5,342.2,510.5,343.6z"/>
	<path fill="#808184" d="M523.5,343.8l-1.2,1.2v3.8h-1.8v-15.4h1.8v9.3l1-1.2l3.4-3.6h2.2l-4.2,4.5l4.7,6.3h-2.2L523.5,343.8z"/>
	<path fill="#808184" d="M530.8,335.2c0-0.3,0.1-0.6,0.3-0.8s0.5-0.3,0.8-0.3c0.4,0,0.6,0.1,0.8,0.3c0.2,0.2,0.3,0.5,0.3,0.8
		s-0.1,0.5-0.3,0.7c-0.2,0.2-0.5,0.3-0.8,0.3c-0.4,0-0.6-0.1-0.8-0.3C530.9,335.7,530.8,335.5,530.8,335.2z M532.8,348.8h-1.8V338
		h1.8V348.8z"/>
	<path fill="#808184" d="M537.2,338l0.1,1.4c0.8-1,1.9-1.6,3.2-1.6c2.3,0,3.4,1.3,3.5,3.9v7.1h-1.8v-7.2c0-0.8-0.2-1.4-0.5-1.7
		c-0.3-0.4-0.9-0.6-1.6-0.6c-0.6,0-1.1,0.2-1.6,0.5c-0.5,0.3-0.8,0.7-1.1,1.3v7.7h-1.8V338H537.2z"/>
	<path fill="#808184" d="M546.1,343.3c0-1.7,0.4-3,1.2-4c0.8-1,1.8-1.5,3.1-1.5c1.3,0,2.3,0.5,3.1,1.4l0.1-1.2h1.7v10.6
		c0,1.4-0.4,2.5-1.2,3.3c-0.8,0.8-1.9,1.2-3.3,1.2c-0.8,0-1.5-0.2-2.3-0.5c-0.7-0.3-1.3-0.8-1.7-1.4l1-1.1c0.8,1,1.8,1.5,2.9,1.5
		c0.9,0,1.6-0.3,2.1-0.8c0.5-0.5,0.8-1.2,0.8-2.1v-0.9c-0.7,0.9-1.7,1.3-3,1.3c-1.3,0-2.3-0.5-3.1-1.5
		C546.4,346.5,546.1,345.1,546.1,343.3z M547.9,343.6c0,1.2,0.2,2.2,0.7,2.9c0.5,0.7,1.2,1,2.1,1c1.2,0,2-0.5,2.6-1.6v-4.9
		c-0.6-1-1.4-1.5-2.5-1.5c-0.9,0-1.6,0.3-2.1,1C548.2,341.1,547.9,342.2,547.9,343.6z"/>
</g>
</svg>
