<?xml version="1.0" encoding="utf-8"?>
<!-- Generator: Adobe Illustrator 25.0.1, SVG Export Plug-In . SVG Version: 6.00 Build 0)  -->
<svg version="1.2" baseProfile="tiny" id="Layer_1" xmlns="http://www.w3.org/2000/svg" xmlns:xlink="http://www.w3.org/1999/xlink"
	 x="0px" y="0px" viewBox="0 0 200 200" overflow="visible" xml:space="preserve">
<g>
	<path fill="#FFF" d="M43.9,174.4l9.4-9.8l-11.8-11.3l-10.9,11.4c-2.6,2.7-3.8,6.2-3.7,9.7c-0.1,3.5,1.1,7,3.7,9.7l5.3,5.5
		c3.1,3.2,8.3,3.3,11.5,0.2l0,0c3.2-3.1,3.3-8.3,0.2-11.5L43.9,174.4z"/>
	<path fill="#FFF" d="M82.8,164.8l-10.9-11.4l-11.8,11.3l9.4,9.8l-3.7,3.9c-3.1,3.2-3,8.4,0.2,11.5l0,0c3.2,3.1,8.4,3,11.5-0.2
		l5.3-5.5c2.6-2.7,3.8-6.2,3.7-9.7C86.6,171,85.3,167.5,82.8,164.8z"/>
	<g>

			<ellipse transform="matrix(0.3827 -0.9239 0.9239 0.3827 -43.615 104.8657)" fill="#FFF" cx="56.7" cy="85.1" rx="16.3" ry="16.3"/>
	</g>
	<path fill="#FFF" d="M91.4,130l-17.1-16.4c-3.1-4.7-8.5-7.9-14.7-7.9h-5.9c-6.3,0-11.9,3.3-15,8.4l-16.1,16.8
		c-3.1,3.2-3,8.4,0.2,11.5v0c3.2,3.1,8.4,3,11.5-0.2l6-6.2V155H73v-20l7.1,6.8c3.2,3.1,8.4,3,11.5-0.2
		C94.7,138.3,94.6,133.1,91.4,130z"/>
	<path fill="#FFFFFF" d="M51,165.4l-10.7-10.8H73l-10.8,10.9C59,168.8,54.3,168.8,51,165.4l-10.7-10.8H73l-10.7,10.8
		C59,168.8,54.3,168.8,51,165.4z"/>
	<path fill="#FFF" d="M50.4,73.8c0,0-10.9-14-23.5-0.6c-1.8,1.9-1.5,4.9,0.5,6.6l0,0c1.9,1.6,4.7,1.3,6.3-0.6
		C36.3,76.2,41.4,72.5,50.4,73.8z"/>
	<path fill="#FFF" d="M61.9,73.8c0,0,10.9-14,23.5-0.6c1.8,1.9,1.5,4.9-0.5,6.6l0,0c-1.9,1.6-4.7,1.3-6.3-0.6
		C76,76.2,70.9,72.5,61.9,73.8z"/>
</g>
<g>
	<path fill="#FFF" d="M177.5,116.4l-10.8-56.1c-0.1-0.4-0.2-0.7-0.3-1c-2.1-8.5-9.8-14.8-19-14.8h-23c-9.5,0-17.4,6.7-19.2,15.6
		c0,0.1,0,0.2-0.1,0.2l-10.8,56.1c-0.7,3.7,1.7,7.3,5.5,8.1h0c3.7,0.7,7.3-1.7,8.1-5.5l7.2-37.3v37v3.1v65.9c0,4.7,3.8,8.5,8.5,8.5
		h0.8c4.7,0,8.5-3.8,8.5-8.5v-65.9h6.7v65.9c0,4.7,3.8,8.5,8.5,8.5h0.8c4.7,0,8.5-3.8,8.5-8.5v-65.9v-3.1V83.5L164,119
		c0.7,3.7,4.3,6.2,8.1,5.5C175.8,123.8,178.2,120.2,177.5,116.4z"/>

		<ellipse transform="matrix(0.3827 -0.9239 0.9239 0.3827 63.3898 139.038)" fill="#FFF" cx="135.7" cy="22.1" rx="17.7" ry="17.7"/>
</g>
</svg>
